<?xml version="1.0" encoding="UTF-8"?>
<svg height="100%" width="100%" xmlns="http://www.w3.org/2000/svg">
	<defs>
		<font horiz-adv-x="500" id="web">
			<font-face alphabetic="0" ascent="935" descent="-263" font-family="" panose-1="2 11 6 4 2 2 2 2 2 4"/>
			<missing-glyph d="M80 700H420V0H80ZM144 654V54H356V654Z"/>
			<glyph d="" horiz-adv-x="168" unicode=" "/>
			<glyph d="M56 715H198V557L160 209H94L56 557ZM54 145H200V0H54Z" horiz-adv-x="254" unicode="!"/>
			<glyph d="M222 715H341V464H222ZM41 715H160V464H41Z" horiz-adv-x="382" unicode="&quot;"/>
			<glyph d="M202 686H295L268 513H376L403 686H496L469 513H566L549 407H452L434 289H530L513 183H417L389 0H296L324 183H216L188 0H95L123 183H26L44 289H140L158 407H61L79 513H175ZM251 407L233 289H341L359 407Z" horiz-adv-x="593" unicode="#"/>
			<glyph d="M281 759H341V699Q442 690 502 636T569 487H436Q431 529 405 553T341 586V413Q343 412 347 412Q395 402 438 388T515 351T567 292T586 204Q586 154 567 115T516 48T439 6T341 -12V-97H281V-11Q158 -3 91 54T22 214H158Q165 161 194 133T281 100V290Q277 290 276 291Q230 301 187 314T112 350T60 406T41 495Q41 543 59 580T108 643T184 683T281 700ZM341 275V100Q363 102 382 108T415 125T437 151T446 187Q446 225 418 243T341 275ZM281 589Q233 584 206 563T180 510Q180 475 204 457T281 426Z" horiz-adv-x="614" unicode="$"/>
			<glyph d="M195 700Q234 700 266 686T321 646T357 583T370 500Q370 455 357 418T321 355T266 315T195 301Q157 301 124 315T68 355T32 418T19 500Q19 546 32 583T69 646T125 686T195 700ZM643 383Q682 383 714 369T769 329T805 266T818 183Q818 138 805 101T769 38T714 -2T643 -16Q605 -16 572 -2T516 38T480 101T467 183Q467 229 480 266T517 329T573 369T643 383ZM552 686H637L286 0H201ZM643 307Q608 307 591 272T574 183Q574 129 591 95T643 61Q678 61 695 95T712 183Q712 237 695 272T643 307ZM195 624Q160 624 143 589T126 500Q126 446 143 412T195 378Q230 378 247 412T264 500Q264 554 247 589T195 624Z" horiz-adv-x="837" unicode="%"/>
			<glyph d="M302 710Q342 710 376 698T436 664T475 613T489 546Q489 513 480 487T454 442T413 405T361 374L456 251Q478 307 484 367H605Q600 307 583 250T537 146L650 0H484L447 47Q407 18 359 1T257 -15Q198 -15 153 0T79 42T34 105T19 184Q19 260 63 311T177 397Q146 435 131 468T117 545Q117 580 130 610T168 662T226 697T302 710ZM245 310Q199 282 181 252T163 188Q163 147 191 122T262 97Q326 97 376 139ZM304 601Q280 601 264 585T248 543Q248 519 262 496T300 451Q335 472 347 495T360 544Q360 570 343 585T304 601Z" horiz-adv-x="656" unicode="&amp;"/>
			<glyph d="M41 715H160V464H41Z" horiz-adv-x="201" unicode="'"/>
			<glyph d="M218 754H334Q307 711 284 663T244 560T218 442T209 308Q209 240 218 180T245 65T284 -37T333 -131H219Q189 -89 161 -41T113 61T79 177T67 308Q67 379 79 442T113 562T161 667T218 754Z" horiz-adv-x="346" unicode="("/>
			<glyph d="M12 754H128Q158 715 185 667T233 562T266 442T279 308Q279 239 266 177T233 61T184 -41T127 -131H13Q39 -86 61 -37T101 65T127 180T137 308Q137 380 127 442T101 560T62 663T12 754Z" horiz-adv-x="346" unicode=")"/>
			<glyph d="M163 715H240V597L343 632L370 563L264 528L331 436L270 391L202 488L134 391L72 436L140 528L32 563L59 632L163 597Z" horiz-adv-x="402" unicode="*"/>
			<glyph d="M232 581H336V378H534V278H336V75H232V278H35V378H232Z" horiz-adv-x="569" unicode="+"/>
			<glyph d="M36 145H182V8Q182 -30 170 -60T138 -112T92 -147T37 -166V-117Q66 -102 87 -74T109 0H36Z" horiz-adv-x="218" unicode=","/>
			<glyph d="M34 306H305V189H34Z" horiz-adv-x="339" unicode="-"/>
			<glyph d="M36 145H182V0H36Z" horiz-adv-x="218" unicode="."/>
			<glyph d="M293 715H401L121 0H13Z" horiz-adv-x="414" unicode="/"/>
			<glyph d="M317 700Q383 700 436 675T526 603T582 490T602 342Q602 260 582 194T526 81T436 9T316 -16Q250 -16 197 9T107 81T50 194T30 342Q30 424 50 490T108 603T199 675T317 700ZM317 584Q279 584 251 566T206 517T180 441T172 342Q172 288 180 243T206 166T251 117T317 100Q355 100 382 117T426 165T452 242T460 342Q460 396 452 441T426 517T382 566T317 584Z" horiz-adv-x="632" unicode="0"/>
			<glyph d="M200 690H319V0H182V478H27V568Q58 569 87 576T139 597T179 634T200 690Z" horiz-adv-x="392" unicode="1"/>
			<glyph d="M279 699Q335 699 378 681T451 634T496 564T512 480Q512 432 497 395T457 329T402 278T340 234Q320 221 299 206T259 176T226 144T202 112H518V0H26Q28 49 43 89T81 162T133 222T191 272Q223 297 255 320T313 366T355 416T371 476Q371 524 346 553T276 583Q224 583 195 547T164 444H36Q36 561 96 630T279 699Z" horiz-adv-x="547" unicode="2"/>
			<glyph d="M286 699Q340 699 383 686T457 649T504 591T521 514Q521 456 488 421T404 370V368Q470 352 506 310T543 196Q543 143 522 103T467 37T385 -2T285 -15Q219 -15 168 2T84 52T33 131T15 233H145Q147 202 155 176T179 132T220 104T280 94Q337 94 369 123T401 205Q401 255 369 283T275 311H233V414H272Q321 414 352 437T383 505Q383 546 357 570T286 595Q227 595 198 561T167 473H37Q39 524 55 565T103 636T180 682T286 699Z" horiz-adv-x="567" unicode="3"/>
			<glyph d="M335 693H473V258H577V149H473V0H340V149H24V296ZM338 524L134 261V258H340V524Z" horiz-adv-x="595" unicode="4"/>
			<glyph d="M109 685H513V572H204L178 424H180Q203 444 238 455T322 467Q367 467 409 450T483 403T535 327T554 228Q554 174 533 129T477 53T393 3T289 -15Q232 -15 183 0T99 41T40 108T13 198H147Q156 147 194 123T286 99Q345 99 379 136T413 228Q413 289 376 321T286 354Q247 354 218 341T174 311H43Z" horiz-adv-x="578" unicode="5"/>
			<glyph d="M312 699Q363 699 404 685T475 648T523 592T548 522H417Q409 554 385 574T317 595Q242 595 205 542T169 399H171Q198 431 235 450T332 470Q380 470 423 452T498 402T550 325T570 225Q570 172 550 128T496 52T415 2T315 -15Q241 -15 188 13T100 88T49 199T31 332Q30 423 49 495T115 620Q148 658 195 678T312 699ZM311 360Q248 360 213 322T178 224Q178 166 215 129T310 92Q338 92 361 102T402 129T430 171T440 223Q440 252 430 277T403 320T362 349T311 360Z" horiz-adv-x="594" unicode="6"/>
			<glyph d="M19 685H507V573Q461 526 418 465T341 333T285 177T260 0H112Q115 94 139 179T200 337T278 468T359 566V568H19Z" horiz-adv-x="530" unicode="7"/>
			<glyph d="M301 699Q356 699 401 687T478 652T527 595T545 519Q545 471 520 437T450 382V379Q507 359 540 313T574 204Q574 151 553 110T496 41T410 0T302 -15Q244 -15 193 -1T104 40T45 106T23 198Q23 262 57 309T148 378V381Q102 402 77 434T52 517Q52 560 70 594T121 651T199 687T301 699ZM301 319Q238 319 201 287T164 203Q164 152 200 123T299 95Q359 95 396 124T434 203Q434 256 399 287T301 319ZM299 596Q245 596 215 571T185 506Q185 465 215 439T299 414Q353 414 382 439T412 506Q412 547 382 571T299 596Z" horiz-adv-x="597" unicode="8"/>
			<glyph d="M283 699Q420 699 493 613T567 352Q567 270 552 202T505 86T420 11T293 -15Q239 -15 197 -1T125 36T77 92T53 164H185Q193 133 218 111T289 89Q354 89 388 132Q429 184 431 293H429Q402 261 364 239T270 218Q218 218 173 235T95 283T43 359T25 459Q25 512 44 556T98 632T180 681T283 699ZM290 592Q260 592 235 582T193 554T165 513T155 461Q155 402 190 365T289 328Q318 328 343 337T387 364T416 405T427 459Q427 488 416 512T387 554T344 582T290 592Z" horiz-adv-x="597" unicode="9"/>
			<glyph d="M39 446H185V301H39ZM39 145H185V0H39Z" horiz-adv-x="224" unicode=":"/>
			<glyph d="M39 145H185V8Q185 -30 173 -60T141 -112T95 -147T40 -166V-117Q69 -102 90 -74T112 0H39ZM39 446H185V301H39Z" horiz-adv-x="224" unicode=";"/>
			<glyph d="M455 541V427L238 342Q225 337 209 331T178 321Q160 315 143 309V307Q160 301 178 296Q193 291 209 286T238 277L455 195V79L45 252V368Z" unicode="&lt;"/>
			<glyph d="M56 456H520V358H56ZM56 263H520V165H56Z" horiz-adv-x="562" unicode="="/>
			<glyph d="M45 541L455 368V252L45 79V193L262 278Q274 283 290 288T322 299Q340 305 357 311V313Q340 318 322 323Q307 328 290 333T262 343L45 425Z" unicode="&gt;"/>
			<glyph d="M271 728Q328 728 373 712T450 668T497 601T514 519Q514 482 505 455T482 408T452 373T419 347Q391 326 371 311T338 283T320 252T315 209H193Q193 253 200 282T222 331T255 367T297 399Q313 411 327 422T353 446T371 475T378 515Q378 561 348 587T272 613Q216 613 182 580T147 488H18Q19 538 36 581T84 657T163 709T271 728ZM181 145H327V0H181Z" horiz-adv-x="538" unicode="?"/>
			<glyph d="M466 714Q545 714 617 690T745 619T832 503T865 343Q865 282 852 233T814 150T755 97T675 79Q621 79 585 98T534 158H531Q508 120 474 99T395 78Q317 78 272 131T228 274Q228 328 242 373T282 450T345 501T427 519Q471 519 499 499T542 445H544L551 508H676L642 234Q637 196 646 175T685 154Q702 154 719 164T751 197T773 255T782 341Q782 416 758 471T693 563T593 618T465 637Q395 637 333 613T225 544T152 433T125 284Q125 215 145 157T205 56T304 -10T440 -34Q490 -34 535 -24T621 3L649 -63Q602 -86 550 -97T442 -109Q353 -109 278 -81T150 -1T66 122T36 284Q36 387 72 467T168 602T305 685T466 714ZM454 423Q431 423 413 411T383 380T364 334T358 277Q358 234 375 204T430 175Q478 175 504 216T530 322Q530 366 511 394T454 423Z" horiz-adv-x="901" unicode="@"/>
			<glyph d="M252 715H402L654 0H503L455 152H197L150 0H3ZM325 579Q319 558 314 538Q309 521 304 502T295 469L231 263H420L356 469Q351 483 346 502T337 538Q332 558 327 579Z" horiz-adv-x="659" unicode="A"/>
			<glyph d="M55 715H375Q433 715 476 701T548 663Q605 612 605 529Q605 474 574 438T493 386V383Q553 366 589 319T626 206Q626 155 610 119T563 57Q532 30 486 15T383 0H55ZM200 320V120H367Q420 120 449 146T479 217Q479 268 446 294T363 320ZM200 597V427H357Q405 427 434 449T463 513Q463 553 435 575T360 597Z" horiz-adv-x="656" unicode="B"/>
			<glyph d="M367 729Q433 729 485 710T574 659T634 583T662 488H518Q508 542 469 574T367 607Q317 607 280 587T220 534T184 454T172 355Q172 300 185 254T224 174T286 122T368 104Q432 104 473 138T522 230H664Q661 182 641 138T585 61Q548 26 495 5T368 -15Q293 -15 229 12T120 89T49 206T24 355Q24 434 48 502T116 621T224 700T367 729Z" horiz-adv-x="684" unicode="C"/>
			<glyph d="M55 715H334Q406 715 464 687T563 611T626 496T648 350Q648 262 619 189T534 69Q494 36 442 18T322 0H55ZM200 591V125H312Q414 125 457 184T501 350Q501 403 489 447T454 524T396 573T316 591Z" horiz-adv-x="672" unicode="D"/>
			<glyph d="M55 715H581V593H200V433H534V314H200V121H584V0H55Z" horiz-adv-x="619" unicode="E"/>
			<glyph d="M55 715H567V592H200V420H511V296H200V0H55Z" horiz-adv-x="594" unicode="F"/>
			<glyph d="M374 729Q441 729 494 711T586 662T647 586T680 490H538Q526 542 486 575T377 609Q326 609 288 589T225 535T187 454T175 355Q175 300 189 253T229 173T292 121T375 102Q417 102 451 116T509 153T546 205T559 264V268H387V380H688V0H579L574 96H572Q535 34 485 9T371 -15Q290 -15 227 12T120 89Q75 139 51 206T27 355Q27 445 57 520T144 647Q188 687 245 708T374 729Z" horiz-adv-x="734" unicode="G"/>
			<glyph d="M55 715H200V435H481V715H626V0H481V315H200V0H55Z" horiz-adv-x="681" unicode="H"/>
			<glyph d="M56 715H201V0H56Z" horiz-adv-x="257" unicode="I"/>
			<glyph d="M325 715H470V201Q470 155 456 116T416 48T347 3T251 -13Q139 -13 78 38T17 195V266H147V204Q147 150 170 127T239 104Q284 104 304 129T325 202Z" horiz-adv-x="516" unicode="J"/>
			<glyph d="M55 715H200V430L475 715H655L375 429L673 0H503L273 334L200 260V0H55Z" horiz-adv-x="674" unicode="K"/>
			<glyph d="M55 715H200V121H536V0H55Z" horiz-adv-x="559" unicode="L"/>
			<glyph d="M55 715H259L360 356Q369 322 377 288T392 226Q399 193 405 163H407Q413 193 420 226Q426 254 433 288T451 356L552 715H759V0H624V410Q624 432 624 457T627 506Q628 532 630 558H628Q623 533 618 509Q613 488 607 465T597 422L474 0H335L215 422Q209 442 204 465T194 509Q189 533 184 558H182Q183 532 185 506Q186 483 187 457T188 410V0H55Z" horiz-adv-x="814" unicode="M"/>
			<glyph d="M55 715H202L440 316Q448 301 457 283T474 251Q483 233 490 216H492Q491 237 490 259Q489 278 488 299T488 340V715H631V0H491L247 395Q238 409 229 426T213 459Q204 477 196 494H194Q195 472 196 450Q197 431 197 409T198 369V0H55Z" horiz-adv-x="686" unicode="N"/>
			<glyph d="M369 729Q448 729 511 701T620 623T689 504T713 356Q713 276 689 207T620 89T511 12T369 -16Q290 -16 226 12T117 89T48 207T24 356Q24 436 48 504T117 623T226 701T369 729ZM370 610Q321 610 284 590T222 536T184 456T172 356Q172 303 184 256T222 176T284 122T370 103Q419 103 455 122T516 176T553 256T565 356Q565 410 553 456T516 536T455 590T370 610Z" horiz-adv-x="737" unicode="O"/>
			<glyph d="M55 715H369Q432 715 478 697T556 648Q586 617 603 576T620 485Q620 434 603 392T556 321T481 275T381 259H205V0H55ZM205 589V377H355Q412 377 441 406T471 484Q471 535 441 562T357 589Z" horiz-adv-x="637" unicode="P"/>
			<glyph d="M367 729Q446 729 509 701T617 623T685 504T709 356Q709 282 689 219T631 107L707 39L633 -42L550 33Q512 10 466 -3T367 -16Q288 -16 224 12T116 89T48 207T24 356Q24 436 48 504T116 623T224 701T367 729ZM368 610Q319 610 282 590T220 536T184 456T172 356Q172 303 184 256T220 176T282 122T368 103Q417 103 452 122L389 180L463 260L528 200Q545 232 553 271T561 356Q561 410 549 456T514 536T453 590T368 610Z" horiz-adv-x="733" unicode="Q"/>
			<glyph d="M55 715H369Q432 715 478 697T556 648Q586 617 603 579T620 493Q620 418 583 367T478 293L657 0H489L323 276H205V0H55ZM205 589V394H355Q412 394 441 419T471 492Q471 541 441 565T357 589Z" horiz-adv-x="655" unicode="R"/>
			<glyph d="M317 728Q438 728 511 671T593 505H454Q448 559 410 586T316 613Q257 613 222 590T187 529Q187 507 196 492T225 467T274 448T343 431Q398 419 446 404T531 366T589 305T610 210Q610 156 589 113T531 42T443 -1T332 -16Q186 -16 106 45T23 221H165Q173 156 211 128T326 101Q354 101 379 106T423 122T453 150T465 193Q465 219 452 236T417 264T361 284T288 302Q240 313 195 326T117 363T63 422T43 514Q43 567 63 607T120 674T207 714T317 728Z" horiz-adv-x="642" unicode="S"/>
			<glyph d="M18 715H593V593H378V0H233V593H18Z" horiz-adv-x="611" unicode="T"/>
			<glyph d="M49 715H194V230Q194 174 224 139T328 104Q397 104 430 140T463 232V715H608V230Q608 115 538 51T331 -12Q191 -12 120 50T49 230Z" horiz-adv-x="657" unicode="U"/>
			<glyph d="M2 715H154L280 301Q285 283 290 263T301 226Q306 206 311 187H313Q318 207 323 227Q328 244 333 264T344 301L469 715H616L375 0H243Z" horiz-adv-x="618" unicode="V"/>
			<glyph d="M5 715H153L246 360Q251 337 256 309T267 259Q272 232 277 204H279Q285 230 290 256Q295 279 300 305T312 356L390 715H530L608 357Q613 333 619 306T630 257Q635 231 641 204H643Q649 231 655 259Q660 282 666 310T678 361L768 715H911L707 0H572L485 383Q480 403 476 425T468 466Q464 488 460 510H458Q455 488 451 466Q448 447 444 425T435 383L347 0H213Z" horiz-adv-x="916" unicode="W"/>
			<glyph d="M25 715H188L320 489H322L454 715H612L402 375L639 0H470L324 261H322L174 0H8L239 374Z" horiz-adv-x="647" unicode="X"/>
			<glyph d="M4 715H162L270 503Q278 486 286 468T302 436Q310 418 317 401H319Q327 418 335 436Q342 451 350 468T367 503L473 715H625L387 276V0H242V276Z" horiz-adv-x="629" unicode="Y"/>
			<glyph d="M52 715H589V594L212 126V123H596V0H27V109L417 591V594H52Z" horiz-adv-x="626" unicode="Z"/>
			<glyph d="M64 754H350V648H195V-25H350V-131H64Z" horiz-adv-x="382" unicode="["/>
			<glyph d="M13 715H121L401 0H293Z" horiz-adv-x="414" unicode="\"/>
			<glyph d="M32 754H318V-131H32V-25H187V648H32Z" horiz-adv-x="382" unicode="]"/>
			<glyph d="M166 715H281L439 428H315L225 597H223L130 428H8Z" horiz-adv-x="447" unicode="^"/>
			<glyph d="M-3 -83H425V-168H-3Z" horiz-adv-x="423" unicode="_"/>
			<glyph d="M102 718H261L316 577H210Z" unicode="`"/>
			<glyph d="M264 526Q379 526 429 476T480 337V76Q480 18 498 5V0H367Q361 8 357 24T351 57H349Q339 42 326 29T296 8T255 -6T198 -12Q119 -12 69 28T19 145Q19 187 35 216T79 264T144 293T225 310Q289 319 319 329T349 368Q349 396 327 412T263 429Q215 429 191 411T164 357H43Q44 391 58 421T99 475T167 512T264 526ZM352 258Q334 247 308 240T257 228Q203 216 177 200T151 148Q151 112 173 97T231 83Q260 83 282 91T320 113T344 144T352 181Z" horiz-adv-x="522" unicode="a"/>
			<glyph d="M44 715H180V451H183Q204 483 238 505T326 527Q374 527 415 507T485 451T530 366T547 256Q547 194 531 143T486 58T418 4T330 -15Q276 -15 238 6T177 64H175V0H44ZM295 417Q263 417 240 404T204 370T183 319T177 253Q177 182 210 140T300 99Q353 99 381 140T409 256Q409 328 380 372T295 417Z" horiz-adv-x="566" unicode="b"/>
			<glyph d="M275 527Q325 527 365 513T434 474T482 415T508 339H375Q368 373 343 395T281 418Q219 418 188 374T157 256Q157 183 186 138T279 94Q321 94 348 115T382 181H513Q510 140 492 104T445 42T374 0T282 -15Q221 -15 172 6T90 63T37 149T19 256Q19 313 37 362T88 448T169 506T275 527Z" horiz-adv-x="528" unicode="c"/>
			<glyph d="M386 715H522V0H391V67H389Q366 30 328 7T236 -15Q188 -15 148 4T79 58T35 143T19 256Q19 316 35 366T80 451T150 507T238 527Q292 527 327 505T383 451H386ZM270 417Q214 417 185 372T157 256Q157 181 185 140T266 99Q327 99 358 140T389 253Q389 290 382 320T362 371T325 405T270 417Z" horiz-adv-x="566" unicode="d"/>
			<glyph d="M272 527Q334 527 381 504T460 441T508 343T525 218H153Q161 158 193 124T284 90Q324 90 348 107T383 153H517Q510 119 491 88T443 35T374 -1T285 -15Q221 -15 171 6T88 63T36 150T19 257Q19 314 37 363T89 449T169 506T272 527ZM274 422Q220 422 192 392T155 312H383Q380 361 350 391T274 422Z" horiz-adv-x="544" unicode="e"/>
			<glyph d="M312 714V609Q264 611 242 601T220 551V513H312V419H220V0H84V419H14V513H84V559Q84 606 101 638T148 688T221 713T312 714Z" horiz-adv-x="330" unicode="f"/>
			<glyph d="M241 527Q289 527 324 509T383 459H385V513H516V39Q516 -15 500 -53T455 -117Q423 -147 375 -161T270 -175Q164 -175 102 -132T30 -15H165Q173 -39 196 -55T268 -72Q382 -72 382 35V91H379Q356 65 325 48T245 31Q202 31 161 47T89 95T38 172T19 276Q19 333 35 379T81 459T151 509T241 527ZM267 418Q215 418 183 380T152 278Q152 212 183 176T268 140Q300 140 323 151T360 181T382 225T389 279Q389 307 381 332T359 377T321 407T267 418Z" horiz-adv-x="560" unicode="g"/>
			<glyph d="M44 715H180V446H183Q211 487 245 507T332 527Q372 527 404 512T460 472T496 412T509 335V0H373V315Q373 357 350 383T284 409Q239 409 209 376T180 291V0H44Z" horiz-adv-x="549" unicode="h"/>
			<glyph d="M44 513H180V0H44ZM44 715H180V593H44Z" horiz-adv-x="224" unicode="i"/>
			<glyph d="M44 513H180V-20Q180 -65 171 -90T146 -132Q126 -152 97 -160T36 -169Q17 -169 -4 -167T-41 -163V-66Q-20 -66 -4 -64T22 -56T38 -41T44 -13ZM44 715H180V593H44Z" horiz-adv-x="224" unicode="j"/>
			<glyph d="M44 715H179V319L361 513H524L335 318L547 0H382L238 234L179 173V0H44Z" horiz-adv-x="546" unicode="k"/>
			<glyph d="M46 715H182V0H46Z" horiz-adv-x="228" unicode="l"/>
			<glyph d="M327 527Q376 527 413 502T469 437H471Q497 479 536 503T625 527Q706 527 750 478T794 345V0H658V322Q658 366 637 388T579 410Q536 410 511 379T487 298V0H351V322Q351 366 330 388T272 410Q230 410 205 379T180 298V0H44V513H175V444H178Q199 479 236 503T327 527Z" horiz-adv-x="834" unicode="m"/>
			<glyph d="M332 527Q372 527 404 512T460 472T496 412T509 335V0H373V315Q373 357 350 383T284 409Q239 409 209 376T180 291V0H44V513H177V443H180Q206 485 242 506T332 527Z" horiz-adv-x="549" unicode="n"/>
			<glyph d="M287 527Q347 527 396 506T480 448T535 362T555 256Q555 199 535 149T480 63T396 6T287 -15Q227 -15 178 6T93 63T38 149T19 256Q19 313 38 362T93 448T178 506T287 527ZM287 424Q224 424 190 377T157 256Q157 181 190 135T287 89Q350 89 383 135T417 256Q417 331 383 377T287 424Z" horiz-adv-x="574" unicode="o"/>
			<glyph d="M329 527Q380 527 421 507T491 451T536 366T552 256Q552 194 536 143T490 58T420 4T330 -15Q276 -15 240 5T182 58H180V-168H44V513H175V449H178Q203 483 239 505T329 527ZM296 417Q264 417 241 404T204 369T183 316T177 252Q177 182 208 140T301 98Q353 98 383 138T414 252Q414 325 386 371T296 417Z" horiz-adv-x="571" unicode="p"/>
			<glyph d="M249 527Q302 527 336 506T393 449H396V513H527V-168H391V58H389Q370 27 335 6T249 -15Q202 -15 161 4T91 58T44 143T27 256Q27 316 42 366T87 451T157 507T249 527ZM279 419Q247 419 225 406T190 372T171 319T165 252Q165 179 194 140T278 101Q332 101 363 141T394 252Q394 287 387 317T367 370T331 406T279 419Z" horiz-adv-x="571" unicode="q"/>
			<glyph d="M304 519Q325 519 336 515V396H333Q266 403 223 367T180 250V0H44V513H175V431H178Q201 475 230 497T304 519Z" horiz-adv-x="351" unicode="r"/>
			<glyph d="M236 527Q338 527 393 481T456 357H333Q328 399 303 415T234 432Q194 432 170 417T146 375Q146 358 158 348T189 332T234 322T287 312Q319 305 351 296T410 269T452 223T468 150Q468 111 452 80T407 29T339 -3T252 -15Q140 -15 79 34T12 166H138Q145 121 174 101T250 81Q295 81 319 97T344 140Q344 158 332 169T302 187T259 198T209 208Q174 215 141 224T83 250T42 294T27 363Q27 405 43 435T87 486T154 517T236 527Z" horiz-adv-x="485" unicode="s"/>
			<glyph d="M85 673H218V513H306V423H218V151Q218 122 232 111T269 100H295Q302 100 309 101V1Q299 0 287 0Q276 -1 260 -1Q244 -1 224 -1Q199 -1 174 4T130 24T97 62T85 122V423H14V513H85Z" horiz-adv-x="332" unicode="t"/>
			<glyph d="M40 513H175V194Q175 149 195 125T260 101Q308 101 335 133T363 217V513H499V0H368V60H365Q339 25 305 5T218 -14Q132 -14 86 36T40 171Z" horiz-adv-x="543" unicode="u"/>
			<glyph d="M2 513H140L222 247Q227 228 231 213T239 188Q243 176 245 165H247Q248 176 252 188Q255 199 259 213T269 247L353 513H489L310 0H180Z" horiz-adv-x="491" unicode="v"/>
			<glyph d="M4 513H139L201 275Q205 259 209 242T217 211Q221 194 224 179H226Q229 195 233 212Q236 226 239 243T248 276L312 513H428L495 276Q499 259 503 242T511 211Q515 194 519 179H521Q524 194 528 211Q534 241 544 275L609 513H741L588 0H464L396 252Q391 267 387 283T380 312Q376 327 373 341H371Q367 327 363 312Q359 299 355 283T347 252L277 0H154Z" horiz-adv-x="745" unicode="w"/>
			<glyph d="M28 513H183L274 366H276L362 513H503L344 273L527 0H365L270 170H268L157 0H8L195 272Z" horiz-adv-x="535" unicode="x"/>
			<glyph d="M2 513H145L221 282Q227 264 232 244T243 208Q248 189 254 170H256Q260 189 265 208Q269 225 274 244T286 282L358 513H495L316 -13Q301 -56 285 -85T249 -133T201 -160T135 -168H55V-61H103Q144 -61 161 -42T179 9Q179 19 177 31T170 60T158 97T140 148Z" horiz-adv-x="497" unicode="y"/>
			<glyph d="M57 513H449V404L191 112V109H462V0H27V104L291 403V406H57Z" horiz-adv-x="485" unicode="z"/>
			<glyph d="M318 754H350V648H323Q281 648 260 633T239 570V418Q239 372 224 349T179 315V312Q210 300 224 277T239 209V54Q239 6 260 -9T323 -25H350V-131H318Q266 -131 227 -122T161 -92T121 -35T108 54V186Q108 224 90 242T25 263V363Q72 365 90 383T108 440V570Q108 624 121 659T161 716T227 745T318 754Z" horiz-adv-x="382" unicode="{"/>
			<glyph d="M64 754H147V-131H64Z" horiz-adv-x="210" unicode="|"/>
			<glyph d="M32 754H64Q116 754 155 745T220 715T260 658T274 569V440Q274 402 292 383T357 363V263Q310 261 292 242T274 186V53Q274 -1 260 -36T220 -93T155 -122T64 -131H32V-25H59Q101 -25 122 -10T143 53V208Q143 254 157 277T203 311V314Q172 326 157 348T143 417V569Q143 617 122 632T59 648H32Z" horiz-adv-x="382" unicode="}"/>
			<glyph d="M146 406Q167 406 186 400T223 387T255 375T283 369Q301 369 308 377T318 405H408Q407 333 380 293T299 253Q278 253 257 258T218 271T184 283T157 289Q141 289 132 280T122 250H32Q33 332 65 369T146 406Z" horiz-adv-x="426" unicode="~"/>
			<glyph d="" horiz-adv-x="168" unicode=" "/>
			<glyph d="M94 379H160L198 31V-127H56V31ZM54 588H200V443H54Z" horiz-adv-x="254" unicode="¡"/>
			<glyph d="M248 593H308V525Q393 516 444 465T508 339H375Q369 366 351 386T308 414V97Q337 104 356 125T382 181H513Q510 143 494 109T452 49T389 6T308 -14V-100H248V-13Q195 -7 152 15T80 74T35 156T19 256Q19 310 35 357T80 439T152 497T248 525ZM248 414Q203 403 180 361T157 256Q157 193 179 150T248 97Z" horiz-adv-x="525" unicode="¢"/>
			<glyph d="M299 699Q354 699 399 685T480 641T534 566T555 454H419Q418 526 384 557T300 588Q246 588 218 560T191 488Q191 458 202 431T226 377H373V290H256Q257 283 257 276T258 263Q258 221 236 187T179 126L181 124Q198 130 216 136T258 142Q285 142 304 137T338 127T369 116T406 112Q435 112 460 125T504 155L566 48Q536 22 494 4T407 -14Q371 -14 344 -6T295 9T250 25T199 33Q169 33 144 20T97 -8L27 96Q68 123 95 158T123 242Q123 255 121 267T116 290H31V377H76Q63 402 54 429T45 492Q45 536 61 574T110 639T190 683T299 699Z" horiz-adv-x="579" unicode="£"/>
			<glyph d="M98 601L163 533Q205 553 256 553Q306 553 348 533L414 601L498 519L432 453Q458 407 458 349Q458 292 433 245L498 180L414 98L348 165Q305 146 256 146Q203 146 164 165L98 98L14 180L78 244Q53 291 53 349Q53 406 78 453L14 519ZM256 461Q213 461 190 430T167 349Q167 298 190 268T256 238Q298 238 320 268T342 349Q342 400 320 430T256 461Z" horiz-adv-x="512" unicode="¤"/>
			<glyph d="M4 686H160L268 484Q275 470 282 455T296 428Q303 413 309 399H311Q317 413 324 428Q336 454 352 484L459 686H611L399 322H549V263H375V200H549V141H375V0H242V141H68V200H242V263H68V322H215Z" horiz-adv-x="618" unicode="¥"/>
			<glyph d="M64 261H147V-131H64ZM64 754H147V375H64Z" horiz-adv-x="210" unicode="¦"/>
			<glyph d="M291 699Q393 699 447 650T508 523H385Q380 558 357 577T295 597Q256 597 237 583T219 546Q219 532 227 522T252 502T294 483T354 459Q396 442 434 426T501 388T548 338T566 267Q566 212 537 179T454 130Q481 113 502 81T524 -2Q524 -43 507 -74T462 -127T393 -160T306 -171Q246 -171 200 -154T124 -110T78 -44T61 36H193Q195 -12 224 -38T298 -64Q336 -64 358 -45T380 -1Q380 17 371 29T343 51T295 73T228 100Q178 120 140 140T76 183T37 234T24 299Q24 344 54 379T144 431Q115 451 99 477T84 546Q84 582 99 610T143 658T208 688T291 699ZM213 375Q184 367 170 351T157 315Q157 301 163 291T184 271T223 249T286 221Q303 213 326 202T373 181Q402 189 418 206T435 243Q435 259 424 272T395 296T353 318T302 339Q277 349 253 358T213 375Z" horiz-adv-x="591" unicode="§"/>
			<glyph d="M297 695H425V581H297ZM74 695H202V581H74Z" unicode="¨"/>
			<glyph d="M408 728Q485 728 552 700T668 622T746 503T775 355Q775 275 746 206T668 88T552 11T408 -17Q331 -17 263 11T146 88T68 206T40 355Q40 435 68 503T146 622T263 700T408 728ZM408 678Q342 678 285 653T186 586T121 483T98 355Q98 286 121 226T186 124T285 56T408 32Q474 32 530 56T628 124T693 226T717 355Q717 424 693 483T628 586T530 653T408 678ZM412 585Q453 585 486 573T544 540T582 490T601 427H493Q488 455 467 473T411 492Q360 492 335 453T310 358Q310 300 337 262T412 225Q450 225 471 246T497 298H605Q603 264 589 234T552 182Q502 133 411 133Q363 133 323 150T256 197T212 268T197 358Q197 407 212 448T255 520T323 568T412 585Z" horiz-adv-x="815" unicode="©"/>
			<glyph d="M249 699Q351 699 397 655T444 533V303Q444 252 459 242V236H337Q332 243 328 257T322 286H320Q303 262 273 244T190 226Q156 226 127 235T76 262T42 306T30 366Q30 403 44 428T82 469T141 495T215 510Q271 517 295 526T320 560Q320 583 302 597T249 611Q207 611 187 595T165 550H51Q52 580 65 607T102 654T162 687T249 699ZM323 463Q307 454 286 448T243 437Q198 427 176 412T154 369Q154 340 172 326T220 312Q270 312 296 337T323 395Z" horiz-adv-x="497" unicode="ª"/>
			<glyph d="M388 457V329L308 258V256L388 185V59L244 192V324ZM198 457V329L118 258V256L198 185V59L54 192V324Z" horiz-adv-x="447" unicode="«"/>
			<glyph d="M35 418H458V145H354V318H35Z" horiz-adv-x="513" unicode="¬"/>
			<glyph d="M34 306H305V189H34Z" horiz-adv-x="339" unicode="­"/>
			<glyph d="M265 728Q315 728 358 709T434 659T485 582T504 486Q504 434 485 389T434 313T358 262T265 244Q215 244 171 262T95 313T44 389T26 486Q26 538 44 582T95 659T171 709T265 728ZM265 690Q223 690 187 674T125 632T84 567T70 486Q70 442 84 404T125 339T187 296T265 281Q307 281 343 296T405 339T445 404T460 486Q460 530 445 567T405 632T343 674T265 690ZM163 616H287Q325 616 352 596T379 541Q379 495 335 480V478Q353 473 361 461T373 432Q378 408 377 388T385 365V360H317Q312 363 310 381T306 419Q303 453 266 453H232V360H163ZM232 561V503H275Q311 503 311 532Q311 561 275 561Z" horiz-adv-x="530" unicode="®"/>
			<glyph d="M113 689H397V592H113Z" unicode="¯"/>
			<glyph d="M178 700Q208 700 234 689T281 658T312 613T324 558Q324 528 312 502T281 458T234 429T178 418Q148 418 121 429T75 458T43 502T32 558Q32 588 43 613T75 658T121 689T178 700ZM178 637Q144 637 124 613T105 558Q105 526 124 503T178 481Q212 481 232 503T252 558Q252 590 232 613T178 637Z" horiz-adv-x="356" unicode="°"/>
			<glyph d="M232 581H336V418H534V318H336V155H232V318H35V418H232ZM35 100H534V0H35Z" horiz-adv-x="569" unicode="±"/>
			<glyph d="M193 723Q229 723 257 713T303 685T332 645T342 596Q342 551 319 524T267 476Q238 455 208 437T163 400H344V318H26Q27 377 55 415T122 480Q147 498 168 511T206 536T230 561T239 592Q239 614 227 627T190 641Q162 641 145 622T129 568H32Q32 643 75 683T193 723Z" horiz-adv-x="372" unicode="²"/>
			<glyph d="M190 723Q256 723 297 693T339 611Q339 581 321 562T278 533V531Q310 520 331 496T352 433Q352 401 339 377T303 339T251 316T188 309Q101 309 60 348T19 453H122Q123 423 137 404T186 385Q215 385 229 399T243 437Q243 488 180 488H156V560H177Q234 560 234 605Q234 625 222 636T187 648Q157 648 145 631T131 591H31Q33 648 74 685T190 723Z" horiz-adv-x="374" unicode="³"/>
			<glyph d="M238 718H397L289 577H183Z" unicode="´"/>
			<glyph d="M44 513H179V194Q179 149 199 125T264 101Q312 101 339 133T367 217V513H503V0H372V60H369Q344 25 313 5T240 -14Q218 -14 205 -9T182 2H179V-168H44Z" horiz-adv-x="547" unicode="µ"/>
			<glyph d="M232 715H523V0H433V634H364V0H274V341H221Q130 341 78 392T27 527Q27 569 41 604T83 665Q135 715 232 715Z" horiz-adv-x="578" unicode="¶"/>
			<glyph d="M36 388H182V243H36Z" horiz-adv-x="218" unicode="·"/>
			<glyph d="M239 0H298L238 -50V-52Q258 -49 277 -51T311 -61T335 -82T344 -116Q344 -152 309 -172T223 -192Q189 -192 163 -184T117 -163L135 -131Q150 -138 168 -142T205 -146Q228 -146 245 -138T262 -115Q262 -101 250 -93T221 -86Q210 -86 201 -88T184 -93L168 -71Z" unicode="¸"/>
			<glyph d="M132 718H217V318H113V567H22V638Q65 640 94 659T132 718Z" horiz-adv-x="267" unicode="¹"/>
			<glyph d="M262 699Q315 699 359 680T434 630T482 554T499 460Q499 410 482 366T434 291T359 240T262 222Q208 222 164 240T89 291T41 366T24 460Q24 511 41 554T89 630T164 680T262 699ZM262 604Q208 604 180 563T153 460Q153 397 180 357T262 317Q316 317 343 357T370 460Q370 523 343 563T262 604Z" horiz-adv-x="523" unicode="º"/>
			<glyph d="M59 457L203 324V192L59 59V187L139 258V260L59 331ZM249 457L393 324V192L249 59V187L329 258V260L249 331Z" horiz-adv-x="447" unicode="»"/>
			<glyph d="M135 718H220V318H116V567H25V638Q68 640 97 659T135 718ZM601 715H691L194 0H105ZM633 402H736V160H795V84H736V0H634V84H445V175ZM633 293L524 161V160H634V293Z" horiz-adv-x="821" unicode="¼"/>
			<glyph d="M135 718H220V318H116V567H25V638Q68 640 97 659T135 718ZM584 715H674L177 0H88ZM645 405Q681 405 709 395T755 367T784 327T794 278Q794 233 773 205T722 156Q693 135 662 118T617 82H796V0H478Q479 59 507 97T574 162Q599 180 620 193T658 218T682 243T691 274Q691 296 679 309T642 323Q614 323 597 304T581 250H484Q484 325 527 365T645 405Z" horiz-adv-x="827" unicode="½"/>
			<glyph d="M193 723Q259 723 300 693T342 611Q342 581 324 562T281 533V531Q313 520 334 496T355 433Q355 401 342 377T306 339T254 316T191 309Q104 309 63 348T22 453H125Q126 423 140 404T189 385Q218 385 232 399T246 437Q246 488 183 488H159V560H180Q237 560 237 605Q237 625 225 636T190 648Q160 648 148 631T134 591H34Q36 648 77 685T193 723ZM665 715H755L258 0H169ZM676 402H779V160H838V84H779V0H677V84H488V175ZM676 293L567 161V160H677V293Z" horiz-adv-x="864" unicode="¾"/>
			<glyph d="M215 379H337Q337 335 329 306T308 256T275 220T233 189Q217 177 202 166T176 142T158 112T152 73Q152 27 182 1T258 -25Q314 -25 348 8T383 100H512Q511 50 494 6T445 -69T367 -121T259 -140Q202 -140 156 -124T80 -80T32 -13T16 69Q16 106 25 133T47 180T78 214T111 241Q139 262 159 276T191 305T209 335T215 379ZM203 588H349V443H203Z" horiz-adv-x="525" unicode="¿"/>
			<glyph d="M252 715H402L654 0H503L455 152H197L150 0H3ZM325 579Q319 558 314 538Q309 521 304 502T295 469L231 263H420L356 469Q351 483 346 502T337 538Q332 558 327 579ZM184 878H343L385 753H279Z" horiz-adv-x="659" unicode="À"/>
			<glyph d="M252 715H402L654 0H503L455 152H197L150 0H3ZM325 579Q319 558 314 538Q309 521 304 502T295 469L231 263H420L356 469Q351 483 346 502T337 538Q332 558 327 579ZM315 878H474L379 753H273Z" horiz-adv-x="659" unicode="Á"/>
			<glyph d="M252 715H402L654 0H503L455 152H197L150 0H3ZM325 579Q319 558 314 538Q309 521 304 502T295 469L231 263H420L356 469Q351 483 346 502T337 538Q332 558 327 579ZM253 867H399L495 753H377L329 810H327L278 753H159Z" horiz-adv-x="659" unicode="Â"/>
			<glyph d="M252 715H402L654 0H503L455 152H197L150 0H3ZM325 579Q319 558 314 538Q309 521 304 502T295 469L231 263H420L356 469Q351 483 346 502T337 538Q332 558 327 579ZM267 875Q285 875 300 869T329 857T354 845T376 840Q390 840 396 848T405 871H477Q477 820 453 787T385 755Q367 755 351 760T322 771T297 783T276 788Q254 788 249 757H177Q177 816 203 845T267 875Z" horiz-adv-x="659" unicode="Ã"/>
			<glyph d="M252 715H402L654 0H503L455 152H197L150 0H3ZM325 579Q319 558 314 538Q309 521 304 502T295 469L231 263H420L356 469Q351 483 346 502T337 538Q332 558 327 579ZM365 867H493V753H365ZM162 867H290V753H162Z" horiz-adv-x="659" unicode="Ä"/>
			<glyph d="M252 715H402L654 0H503L455 152H197L150 0H3ZM325 579Q319 558 314 538Q309 521 304 502T295 469L231 263H420L356 469Q351 483 346 502T337 538Q332 558 327 579ZM327 930Q347 930 364 922T395 902T416 872T424 836Q424 796 395 769T327 742Q287 742 258 769T230 836Q230 855 237 872T258 902T289 922T327 930ZM327 883Q307 883 294 869T282 836Q282 816 294 802T327 789Q347 789 359 802T372 836Q372 856 359 869T327 883Z" horiz-adv-x="659" unicode="Å"/>
			<glyph d="M252 715H929V590H575V429H881V312H575V131H940V0H426V152H202L151 0H4ZM349 590L238 259H426V590Z" horiz-adv-x="972" unicode="Æ"/>
			<glyph d="M367 729Q433 729 485 710T574 659T634 583T662 488H518Q508 542 469 574T367 607Q317 607 280 587T220 534T184 454T172 355Q172 300 185 254T224 174T286 122T368 104Q432 104 473 138T522 230H664Q661 182 641 138T585 61Q550 29 502 9T388 -14L346 -50V-52Q366 -49 385 -51T419 -61T443 -82T452 -116Q452 -152 417 -172T331 -192Q297 -192 271 -184T225 -163L243 -131Q258 -138 276 -142T313 -146Q336 -146 353 -138T370 -115Q370 -101 358 -93T329 -86Q318 -86 309 -88T292 -93L276 -71L333 -13Q265 -7 208 22T110 100T46 214T24 355Q24 434 48 502T116 621T224 700T367 729Z" horiz-adv-x="684" unicode="Ç"/>
			<glyph d="M55 715H581V593H200V433H534V314H200V121H584V0H55ZM182 878H341L383 753H277Z" horiz-adv-x="619" unicode="È"/>
			<glyph d="M55 715H581V593H200V433H534V314H200V121H584V0H55ZM313 878H472L377 753H271Z" horiz-adv-x="619" unicode="É"/>
			<glyph d="M55 715H581V593H200V433H534V314H200V121H584V0H55ZM251 867H397L493 753H375L327 810H325L276 753H157Z" horiz-adv-x="619" unicode="Ê"/>
			<glyph d="M55 715H581V593H200V433H534V314H200V121H584V0H55ZM363 867H491V753H363ZM160 867H288V753H160Z" horiz-adv-x="619" unicode="Ë"/>
			<glyph d="M56 715H201V0H56ZM-15 878H144L186 753H80Z" horiz-adv-x="257" unicode="Ì"/>
			<glyph d="M56 715H201V0H56ZM116 878H275L180 753H74Z" horiz-adv-x="257" unicode="Í"/>
			<glyph d="M56 715H201V0H56ZM54 867H200L296 753H178L130 810H128L79 753H-40Z" horiz-adv-x="257" unicode="Î"/>
			<glyph d="M56 715H201V0H56ZM166 867H294V753H166ZM-37 867H91V753H-37Z" horiz-adv-x="257" unicode="Ï"/>
			<glyph d="M65 715H344Q416 715 474 687T573 611T636 496T658 350Q658 262 629 189T544 69Q504 36 452 18T332 0H65V304H1V421H65ZM210 591V421H375V304H210V125H322Q424 125 467 184T511 350Q511 403 499 447T464 524T406 573T326 591Z" horiz-adv-x="682" unicode="Ð"/>
			<glyph d="M55 715H202L440 316Q448 301 457 283T474 251Q483 233 490 216H492Q491 237 490 259Q489 278 488 299T488 340V715H631V0H491L247 395Q238 409 229 426T213 459Q204 477 196 494H194Q195 472 196 450Q197 431 197 409T198 369V0H55ZM290 875Q308 875 323 869T352 857T377 845T399 840Q413 840 419 848T428 871H500Q500 820 476 787T408 755Q390 755 374 760T345 771T320 783T299 788Q277 788 272 757H200Q200 816 226 845T290 875Z" horiz-adv-x="686" unicode="Ñ"/>
			<glyph d="M369 729Q448 729 511 701T620 623T689 504T713 356Q713 276 689 207T620 89T511 12T369 -16Q290 -16 226 12T117 89T48 207T24 356Q24 436 48 504T117 623T226 701T369 729ZM370 610Q321 610 284 590T222 536T184 456T172 356Q172 303 184 256T222 176T284 122T370 103Q419 103 455 122T516 176T553 256T565 356Q565 410 553 456T516 536T455 590T370 610ZM225 878H384L426 753H320Z" horiz-adv-x="737" unicode="Ò"/>
			<glyph d="M369 729Q448 729 511 701T620 623T689 504T713 356Q713 276 689 207T620 89T511 12T369 -16Q290 -16 226 12T117 89T48 207T24 356Q24 436 48 504T117 623T226 701T369 729ZM370 610Q321 610 284 590T222 536T184 456T172 356Q172 303 184 256T222 176T284 122T370 103Q419 103 455 122T516 176T553 256T565 356Q565 410 553 456T516 536T455 590T370 610ZM356 878H515L420 753H314Z" horiz-adv-x="737" unicode="Ó"/>
			<glyph d="M369 729Q448 729 511 701T620 623T689 504T713 356Q713 276 689 207T620 89T511 12T369 -16Q290 -16 226 12T117 89T48 207T24 356Q24 436 48 504T117 623T226 701T369 729ZM370 610Q321 610 284 590T222 536T184 456T172 356Q172 303 184 256T222 176T284 122T370 103Q419 103 455 122T516 176T553 256T565 356Q565 410 553 456T516 536T455 590T370 610ZM294 867H440L536 753H418L370 810H368L319 753H200Z" horiz-adv-x="737" unicode="Ô"/>
			<glyph d="M369 729Q448 729 511 701T620 623T689 504T713 356Q713 276 689 207T620 89T511 12T369 -16Q290 -16 226 12T117 89T48 207T24 356Q24 436 48 504T117 623T226 701T369 729ZM370 610Q321 610 284 590T222 536T184 456T172 356Q172 303 184 256T222 176T284 122T370 103Q419 103 455 122T516 176T553 256T565 356Q565 410 553 456T516 536T455 590T370 610ZM308 875Q326 875 341 869T370 857T395 845T417 840Q431 840 437 848T446 871H518Q518 820 494 787T426 755Q408 755 392 760T363 771T338 783T317 788Q295 788 290 757H218Q218 816 244 845T308 875Z" horiz-adv-x="737" unicode="Õ"/>
			<glyph d="M369 729Q448 729 511 701T620 623T689 504T713 356Q713 276 689 207T620 89T511 12T369 -16Q290 -16 226 12T117 89T48 207T24 356Q24 436 48 504T117 623T226 701T369 729ZM370 610Q321 610 284 590T222 536T184 456T172 356Q172 303 184 256T222 176T284 122T370 103Q419 103 455 122T516 176T553 256T565 356Q565 410 553 456T516 536T455 590T370 610ZM406 867H534V753H406ZM203 867H331V753H203Z" horiz-adv-x="737" unicode="Ö"/>
			<glyph d="M121 559L284 391L447 559L517 493L351 322L517 151L447 85L284 253L121 85L51 151L217 322L51 493Z" horiz-adv-x="568" unicode="×"/>
			<glyph d="M369 729Q436 729 492 708T591 651L657 725L706 683L635 604Q673 555 693 492T713 356Q713 276 689 207T620 89T511 12T369 -16Q303 -16 248 3T150 58L79 -21L30 21L104 105Q65 154 44 217T24 356Q24 436 48 504T117 623T226 701T369 729ZM370 610Q321 610 284 590T222 536T184 456T172 356Q172 315 179 279T200 212L504 553Q480 580 446 595T370 610ZM539 496L238 157Q262 131 295 117T370 103Q419 103 455 122T516 176T553 256T565 356Q565 435 539 496Z" horiz-adv-x="737" unicode="Ø"/>
			<glyph d="M49 715H194V230Q194 174 224 139T328 104Q397 104 430 140T463 232V715H608V230Q608 115 538 51T331 -12Q191 -12 120 50T49 230ZM184 878H343L385 753H279Z" horiz-adv-x="657" unicode="Ù"/>
			<glyph d="M49 715H194V230Q194 174 224 139T328 104Q397 104 430 140T463 232V715H608V230Q608 115 538 51T331 -12Q191 -12 120 50T49 230ZM315 878H474L379 753H273Z" horiz-adv-x="657" unicode="Ú"/>
			<glyph d="M49 715H194V230Q194 174 224 139T328 104Q397 104 430 140T463 232V715H608V230Q608 115 538 51T331 -12Q191 -12 120 50T49 230ZM253 867H399L495 753H377L329 810H327L278 753H159Z" horiz-adv-x="657" unicode="Û"/>
			<glyph d="M49 715H194V230Q194 174 224 139T328 104Q397 104 430 140T463 232V715H608V230Q608 115 538 51T331 -12Q191 -12 120 50T49 230ZM365 867H493V753H365ZM162 867H290V753H162Z" horiz-adv-x="657" unicode="Ü"/>
			<glyph d="M4 715H162L270 503Q278 486 286 468T302 436Q310 418 317 401H319Q327 418 335 436Q342 451 350 468T367 503L473 715H625L387 276V0H242V276ZM302 878H461L366 753H260Z" horiz-adv-x="629" unicode="Ý"/>
			<glyph d="M55 715H205V606H369Q492 605 556 539Q586 508 603 467T620 376Q620 325 603 283T556 212T481 166T381 150H205V0H55ZM205 480V268H355Q412 268 441 297T471 375Q471 426 441 453T357 480Z" horiz-adv-x="633" unicode="Þ"/>
			<glyph d="M278 729Q327 729 366 716T434 680T477 622T493 547Q493 500 469 469T401 421V418Q467 398 498 347T529 230Q529 170 511 125T463 50T389 6T298 -9Q282 -9 265 -7T234 -2V96H236Q310 87 352 119T394 234Q394 300 364 336T266 372H235V455H261Q309 455 336 476T364 543Q364 581 342 604T279 628Q232 628 206 601T180 522V0H44V524Q44 570 60 608T106 673T180 714T278 729Z" horiz-adv-x="548" unicode="ß"/>
			<glyph d="M264 526Q379 526 429 476T480 337V76Q480 18 498 5V0H367Q361 8 357 24T351 57H349Q339 42 326 29T296 8T255 -6T198 -12Q119 -12 69 28T19 145Q19 187 35 216T79 264T144 293T225 310Q289 319 319 329T349 368Q349 396 327 412T263 429Q215 429 191 411T164 357H43Q44 391 58 421T99 475T167 512T264 526ZM352 258Q334 247 308 240T257 228Q203 216 177 200T151 148Q151 112 173 97T231 83Q260 83 282 91T320 113T344 144T352 181ZM109 718H268L323 577H217Z" horiz-adv-x="522" unicode="à"/>
			<glyph d="M264 526Q379 526 429 476T480 337V76Q480 18 498 5V0H367Q361 8 357 24T351 57H349Q339 42 326 29T296 8T255 -6T198 -12Q119 -12 69 28T19 145Q19 187 35 216T79 264T144 293T225 310Q289 319 319 329T349 368Q349 396 327 412T263 429Q215 429 191 411T164 357H43Q44 391 58 421T99 475T167 512T264 526ZM352 258Q334 247 308 240T257 228Q203 216 177 200T151 148Q151 112 173 97T231 83Q260 83 282 91T320 113T344 144T352 181ZM266 718H425L317 577H211Z" horiz-adv-x="522" unicode="á"/>
			<glyph d="M264 526Q379 526 429 476T480 337V76Q480 18 498 5V0H367Q361 8 357 24T351 57H349Q339 42 326 29T296 8T255 -6T198 -12Q119 -12 69 28T19 145Q19 187 35 216T79 264T144 293T225 310Q289 319 319 329T349 368Q349 396 327 412T263 429Q215 429 191 411T164 357H43Q44 391 58 421T99 475T167 512T264 526ZM352 258Q334 247 308 240T257 228Q203 216 177 200T151 148Q151 112 173 97T231 83Q260 83 282 91T320 113T344 144T352 181ZM191 707H337L433 581H315L267 650H265L216 581H97Z" horiz-adv-x="522" unicode="â"/>
			<glyph d="M264 526Q379 526 429 476T480 337V76Q480 18 498 5V0H367Q361 8 357 24T351 57H349Q339 42 326 29T296 8T255 -6T198 -12Q119 -12 69 28T19 145Q19 187 35 216T79 264T144 293T225 310Q289 319 319 329T349 368Q349 396 327 412T263 429Q215 429 191 411T164 357H43Q44 391 58 421T99 475T167 512T264 526ZM352 258Q334 247 308 240T257 228Q203 216 177 200T151 148Q151 112 173 97T231 83Q260 83 282 91T320 113T344 144T352 181ZM205 695Q223 695 238 689T267 677T292 665T314 660Q328 660 334 668T343 691H415Q415 640 391 607T323 575Q305 575 289 580T260 591T235 603T214 608Q192 608 187 577H115Q115 636 141 665T205 695Z" horiz-adv-x="522" unicode="ã"/>
			<glyph d="M264 526Q379 526 429 476T480 337V76Q480 18 498 5V0H367Q361 8 357 24T351 57H349Q339 42 326 29T296 8T255 -6T198 -12Q119 -12 69 28T19 145Q19 187 35 216T79 264T144 293T225 310Q289 319 319 329T349 368Q349 396 327 412T263 429Q215 429 191 411T164 357H43Q44 391 58 421T99 475T167 512T264 526ZM352 258Q334 247 308 240T257 228Q203 216 177 200T151 148Q151 112 173 97T231 83Q260 83 282 91T320 113T344 144T352 181ZM313 695H441V581H313ZM90 695H218V581H90Z" horiz-adv-x="522" unicode="ä"/>
			<glyph d="M264 526Q379 526 429 476T480 337V76Q480 18 498 5V0H367Q361 8 357 24T351 57H349Q339 42 326 29T296 8T255 -6T198 -12Q119 -12 69 28T19 145Q19 187 35 216T79 264T144 293T225 310Q289 319 319 329T349 368Q349 396 327 412T263 429Q215 429 191 411T164 357H43Q44 391 58 421T99 475T167 512T264 526ZM352 258Q334 247 308 240T257 228Q203 216 177 200T151 148Q151 112 173 97T231 83Q260 83 282 91T320 113T344 144T352 181ZM265 749Q285 749 302 741T333 721T354 691T362 655Q362 615 333 588T265 561Q225 561 196 588T168 655Q168 674 175 691T196 721T227 741T265 749ZM265 702Q245 702 232 688T220 655Q220 635 232 621T265 608Q285 608 297 621T310 655Q310 675 297 688T265 702Z" horiz-adv-x="522" unicode="å"/>
			<glyph d="M600 527Q662 527 709 504T788 441T836 343T853 218H481Q489 158 521 124T612 90Q652 90 676 107T711 153H845Q838 119 819 88T771 35T702 -1T613 -15Q545 -15 495 8T412 72H409Q388 50 367 34T323 8T271 -7T206 -12Q164 -12 130 -2T71 28T32 77T19 145Q19 187 35 216T79 264T144 293T225 310Q289 319 319 329T349 368Q349 396 327 412T263 429Q215 429 191 411T164 357H43Q44 391 58 421T99 475T167 512T264 526Q327 526 369 511T438 467Q470 496 510 511T600 527ZM602 422Q548 422 520 392T483 312H711Q708 361 678 391T602 422ZM352 258Q334 247 308 240T257 228Q203 216 177 200T151 148Q151 112 173 97T231 83Q260 83 282 91T320 113T344 144T352 181Z" horiz-adv-x="872" unicode="æ"/>
			<glyph d="M275 527Q325 527 365 513T434 474T482 415T508 339H375Q368 373 343 395T281 418Q219 418 188 374T157 256Q157 183 186 138T279 94Q321 94 348 115T382 181H513Q506 103 452 48T306 -14L263 -50V-52Q283 -49 302 -51T336 -61T360 -82T369 -116Q369 -152 334 -172T248 -192Q214 -192 188 -184T142 -163L160 -131Q175 -138 193 -142T230 -146Q253 -146 270 -138T287 -115Q287 -101 275 -93T246 -86Q235 -86 226 -88T209 -93L193 -71L250 -13Q196 -8 153 14T81 73T35 155T19 256Q19 313 37 362T88 448T169 506T275 527Z" horiz-adv-x="528" unicode="ç"/>
			<glyph d="M272 527Q334 527 381 504T460 441T508 343T525 218H153Q161 158 193 124T284 90Q324 90 348 107T383 153H517Q510 119 491 88T443 35T374 -1T285 -15Q221 -15 171 6T88 63T36 150T19 257Q19 314 37 363T89 449T169 506T272 527ZM274 422Q220 422 192 392T155 312H383Q380 361 350 391T274 422ZM116 718H275L330 577H224Z" horiz-adv-x="544" unicode="è"/>
			<glyph d="M272 527Q334 527 381 504T460 441T508 343T525 218H153Q161 158 193 124T284 90Q324 90 348 107T383 153H517Q510 119 491 88T443 35T374 -1T285 -15Q221 -15 171 6T88 63T36 150T19 257Q19 314 37 363T89 449T169 506T272 527ZM274 422Q220 422 192 392T155 312H383Q380 361 350 391T274 422ZM273 718H432L324 577H218Z" horiz-adv-x="544" unicode="é"/>
			<glyph d="M272 527Q334 527 381 504T460 441T508 343T525 218H153Q161 158 193 124T284 90Q324 90 348 107T383 153H517Q510 119 491 88T443 35T374 -1T285 -15Q221 -15 171 6T88 63T36 150T19 257Q19 314 37 363T89 449T169 506T272 527ZM274 422Q220 422 192 392T155 312H383Q380 361 350 391T274 422ZM198 707H344L440 581H322L274 650H272L223 581H104Z" horiz-adv-x="544" unicode="ê"/>
			<glyph d="M272 527Q334 527 381 504T460 441T508 343T525 218H153Q161 158 193 124T284 90Q324 90 348 107T383 153H517Q510 119 491 88T443 35T374 -1T285 -15Q221 -15 171 6T88 63T36 150T19 257Q19 314 37 363T89 449T169 506T272 527ZM274 422Q220 422 192 392T155 312H383Q380 361 350 391T274 422ZM320 695H448V581H320ZM97 695H225V581H97Z" horiz-adv-x="544" unicode="ë"/>
			<glyph d="M44 513H180V0H44ZM-44 718H115L170 577H64Z" horiz-adv-x="224" unicode="ì"/>
			<glyph d="M44 513H180V0H44ZM113 718H272L164 577H58Z" horiz-adv-x="224" unicode="í"/>
			<glyph d="M44 513H180V0H44ZM41 707H180L253 581H146L114 647H112L78 581H-30Z" horiz-adv-x="224" unicode="î"/>
			<glyph d="M44 513H180V0H44ZM130 695H238V581H130ZM-13 695H95V581H-13Z" horiz-adv-x="224" unicode="ï"/>
			<glyph d="M150 715H314Q331 704 347 691T379 665L485 698L507 648L423 622Q477 560 513 473T550 272Q550 215 534 163T487 72T405 8T287 -15Q227 -15 178 6T93 63T38 149T19 256Q19 313 36 361T84 445T159 499T257 519Q295 519 327 504T383 463H385Q370 497 349 527T303 585L165 542L144 592L260 628Q234 652 206 673T150 715ZM287 422Q224 422 190 376T157 256Q157 181 190 135T287 89Q350 89 383 135T417 256Q417 331 383 376T287 422Z" horiz-adv-x="571" unicode="ð"/>
			<glyph d="M332 527Q372 527 404 512T460 472T496 412T509 335V0H373V315Q373 357 350 383T284 409Q239 409 209 376T180 291V0H44V513H177V443H180Q206 485 242 506T332 527ZM216 695Q234 695 249 689T278 677T303 665T325 660Q339 660 345 668T354 691H426Q426 640 402 607T334 575Q316 575 300 580T271 591T246 603T225 608Q203 608 198 577H126Q126 636 152 665T216 695Z" horiz-adv-x="549" unicode="ñ"/>
			<glyph d="M287 527Q347 527 396 506T480 448T535 362T555 256Q555 199 535 149T480 63T396 6T287 -15Q227 -15 178 6T93 63T38 149T19 256Q19 313 38 362T93 448T178 506T287 527ZM287 424Q224 424 190 377T157 256Q157 181 190 135T287 89Q350 89 383 135T417 256Q417 331 383 377T287 424ZM131 718H290L345 577H239Z" horiz-adv-x="574" unicode="ò"/>
			<glyph d="M287 527Q347 527 396 506T480 448T535 362T555 256Q555 199 535 149T480 63T396 6T287 -15Q227 -15 178 6T93 63T38 149T19 256Q19 313 38 362T93 448T178 506T287 527ZM287 424Q224 424 190 377T157 256Q157 181 190 135T287 89Q350 89 383 135T417 256Q417 331 383 377T287 424ZM288 718H447L339 577H233Z" horiz-adv-x="574" unicode="ó"/>
			<glyph d="M287 527Q347 527 396 506T480 448T535 362T555 256Q555 199 535 149T480 63T396 6T287 -15Q227 -15 178 6T93 63T38 149T19 256Q19 313 38 362T93 448T178 506T287 527ZM287 424Q224 424 190 377T157 256Q157 181 190 135T287 89Q350 89 383 135T417 256Q417 331 383 377T287 424ZM213 707H359L455 581H337L289 650H287L238 581H119Z" horiz-adv-x="574" unicode="ô"/>
			<glyph d="M287 527Q347 527 396 506T480 448T535 362T555 256Q555 199 535 149T480 63T396 6T287 -15Q227 -15 178 6T93 63T38 149T19 256Q19 313 38 362T93 448T178 506T287 527ZM287 424Q224 424 190 377T157 256Q157 181 190 135T287 89Q350 89 383 135T417 256Q417 331 383 377T287 424ZM227 695Q245 695 260 689T289 677T314 665T336 660Q350 660 356 668T365 691H437Q437 640 413 607T345 575Q327 575 311 580T282 591T257 603T236 608Q214 608 209 577H137Q137 636 163 665T227 695Z" horiz-adv-x="574" unicode="õ"/>
			<glyph d="M287 527Q347 527 396 506T480 448T535 362T555 256Q555 199 535 149T480 63T396 6T287 -15Q227 -15 178 6T93 63T38 149T19 256Q19 313 38 362T93 448T178 506T287 527ZM287 424Q224 424 190 377T157 256Q157 181 190 135T287 89Q350 89 383 135T417 256Q417 331 383 377T287 424ZM335 695H463V581H335ZM112 695H240V581H112Z" horiz-adv-x="574" unicode="ö"/>
			<glyph d="M211 207H357V74H211ZM211 582H357V450H211ZM35 378H534V278H35Z" horiz-adv-x="569" unicode="÷"/>
			<glyph d="M512 541L551 504L491 437Q521 402 538 355T555 256Q555 199 535 149T480 63T396 6T287 -15Q240 -15 199 -2T127 34L63 -36L23 1L86 71Q54 107 36 154T19 256Q19 313 38 362T93 448T178 506T287 527Q335 527 376 513T451 474ZM287 424Q224 424 190 377T157 256Q157 203 172 166L374 388Q340 424 287 424ZM403 340L204 120Q237 89 287 89Q350 89 383 135T417 256Q417 303 403 340Z" horiz-adv-x="574" unicode="ø"/>
			<glyph d="M40 513H175V194Q175 149 195 125T260 101Q308 101 335 133T363 217V513H499V0H368V60H365Q339 25 305 5T218 -14Q132 -14 86 36T40 171ZM115 718H274L329 577H223Z" horiz-adv-x="543" unicode="ù"/>
			<glyph d="M40 513H175V194Q175 149 195 125T260 101Q308 101 335 133T363 217V513H499V0H368V60H365Q339 25 305 5T218 -14Q132 -14 86 36T40 171ZM272 718H431L323 577H217Z" horiz-adv-x="543" unicode="ú"/>
			<glyph d="M40 513H175V194Q175 149 195 125T260 101Q308 101 335 133T363 217V513H499V0H368V60H365Q339 25 305 5T218 -14Q132 -14 86 36T40 171ZM197 707H343L439 581H321L273 650H271L222 581H103Z" horiz-adv-x="543" unicode="û"/>
			<glyph d="M40 513H175V194Q175 149 195 125T260 101Q308 101 335 133T363 217V513H499V0H368V60H365Q339 25 305 5T218 -14Q132 -14 86 36T40 171ZM319 695H447V581H319ZM96 695H224V581H96Z" horiz-adv-x="543" unicode="ü"/>
			<glyph d="M2 513H145L221 282Q227 264 232 244T243 208Q248 189 254 170H256Q260 189 265 208Q269 225 274 244T286 282L358 513H495L316 -13Q301 -56 285 -85T249 -133T201 -160T135 -168H55V-61H103Q144 -61 161 -42T179 9Q179 19 177 31T170 60T158 97T140 148ZM249 718H408L300 577H194Z" horiz-adv-x="497" unicode="ý"/>
			<glyph d="M44 716H180V451H183Q204 483 240 505T329 527Q380 527 421 507T491 451T536 366T552 256Q552 194 536 143T490 58T420 4T330 -15Q276 -15 240 4T182 58H180V-168H44ZM296 417Q264 417 241 404T204 369T183 316T177 252Q177 182 208 140T301 98Q353 98 383 138T414 252Q414 325 386 371T296 417Z" horiz-adv-x="571" unicode="þ"/>
			<glyph d="M2 513H145L221 282Q227 264 232 244T243 208Q248 189 254 170H256Q260 189 265 208Q269 225 274 244T286 282L358 513H495L316 -13Q301 -56 285 -85T249 -133T201 -160T135 -168H55V-61H103Q144 -61 161 -42T179 9Q179 19 177 31T170 60T158 97T140 148ZM296 695H424V581H296ZM73 695H201V581H73Z" horiz-adv-x="497" unicode="ÿ"/>
			<glyph d="M252 715H402L654 0H503L455 152H197L150 0H3ZM325 579Q319 558 314 538Q309 521 304 502T295 469L231 263H420L356 469Q351 483 346 502T337 538Q332 558 327 579ZM185 859H469V762H185Z" horiz-adv-x="659" unicode="Ā"/>
			<glyph d="M264 526Q379 526 429 476T480 337V76Q480 18 498 5V0H367Q361 8 357 24T351 57H349Q339 42 326 29T296 8T255 -6T198 -12Q119 -12 69 28T19 145Q19 187 35 216T79 264T144 293T225 310Q289 319 319 329T349 368Q349 396 327 412T263 429Q215 429 191 411T164 357H43Q44 391 58 421T99 475T167 512T264 526ZM352 258Q334 247 308 240T257 228Q203 216 177 200T151 148Q151 112 173 97T231 83Q260 83 282 91T320 113T344 144T352 181ZM123 689H407V592H123Z" horiz-adv-x="522" unicode="ā"/>
			<glyph d="M252 715H402L654 0H503L455 152H197L150 0H3ZM325 579Q319 558 314 538Q309 521 304 502T295 469L231 263H420L356 469Q351 483 346 502T337 538Q332 558 327 579ZM180 882H258Q261 860 278 847T327 834Q357 834 375 848T396 882H474Q472 854 461 830T431 788T387 759T328 749Q296 749 270 759T224 787T193 829T180 882Z" horiz-adv-x="659" unicode="Ă"/>
			<glyph d="M264 526Q379 526 429 476T480 337V76Q480 18 498 5V0H367Q361 8 357 24T351 57H349Q339 42 326 29T296 8T255 -6T198 -12Q119 -12 69 28T19 145Q19 187 35 216T79 264T144 293T225 310Q289 319 319 329T349 368Q349 396 327 412T263 429Q215 429 191 411T164 357H43Q44 391 58 421T99 475T167 512T264 526ZM352 258Q334 247 308 240T257 228Q203 216 177 200T151 148Q151 112 173 97T231 83Q260 83 282 91T320 113T344 144T352 181ZM118 706H196Q199 684 216 671T265 658Q295 658 313 672T334 706H412Q410 678 399 654T369 612T325 583T266 573Q234 573 208 583T162 611T131 653T118 706Z" horiz-adv-x="522" unicode="ă"/>
			<glyph d="M252 715H402L652 6Q620 -14 605 -32T591 -67Q591 -95 622 -95Q632 -95 639 -93T654 -88H656V-165Q647 -169 633 -171T600 -174Q488 -174 488 -89Q488 -59 504 -36T543 0H503L455 152H197L150 0H3ZM325 579Q319 558 314 538Q309 521 304 502T295 469L231 263H420L356 469Q351 483 346 502T337 538Q332 558 327 579Z" horiz-adv-x="659" unicode="Ą"/>
			<glyph d="M264 526Q379 526 429 476T480 337V76Q480 47 484 30T495 5V0Q470 -17 456 -33T442 -67Q442 -95 473 -95Q483 -95 490 -93T505 -88H507V-165Q498 -169 484 -171T451 -174Q394 -174 366 -153T339 -93Q339 -59 360 -35T403 0H367Q361 8 357 24T351 57H349Q339 42 326 29T296 8T255 -6T198 -12Q119 -12 69 28T19 145Q19 187 35 216T79 264T144 293T225 310Q289 319 319 329T349 368Q349 396 327 412T263 429Q215 429 191 411T164 357H43Q44 391 58 421T99 475T167 512T264 526ZM352 258Q334 247 308 240T257 228Q203 216 177 200T151 148Q151 112 173 97T231 83Q260 83 282 91T320 113T344 144T352 181Z" horiz-adv-x="522" unicode="ą"/>
			<glyph d="M367 729Q433 729 485 710T574 659T634 583T662 488H518Q508 542 469 574T367 607Q317 607 280 587T220 534T184 454T172 355Q172 300 185 254T224 174T286 122T368 104Q432 104 473 138T522 230H664Q661 182 641 138T585 61Q548 26 495 5T368 -15Q293 -15 229 12T120 89T49 206T24 355Q24 434 48 502T116 621T224 700T367 729ZM344 878H503L408 753H302Z" horiz-adv-x="684" unicode="Ć"/>
			<glyph d="M275 527Q325 527 365 513T434 474T482 415T508 339H375Q368 373 343 395T281 418Q219 418 188 374T157 256Q157 183 186 138T279 94Q321 94 348 115T382 181H513Q510 140 492 104T445 42T374 0T282 -15Q221 -15 172 6T90 63T37 149T19 256Q19 313 37 362T88 448T169 506T275 527ZM274 718H433L325 577H219Z" horiz-adv-x="528" unicode="ć"/>
			<glyph d="M367 729Q433 729 485 710T574 659T634 583T662 488H518Q508 542 469 574T367 607Q317 607 280 587T220 534T184 454T172 355Q172 300 185 254T224 174T286 122T368 104Q432 104 473 138T522 230H664Q661 182 641 138T585 61Q548 26 495 5T368 -15Q293 -15 229 12T120 89T49 206T24 355Q24 434 48 502T116 621T224 700T367 729ZM282 867H428L524 753H406L358 810H356L307 753H188Z" horiz-adv-x="684" unicode="Ĉ"/>
			<glyph d="M275 527Q325 527 365 513T434 474T482 415T508 339H375Q368 373 343 395T281 418Q219 418 188 374T157 256Q157 183 186 138T279 94Q321 94 348 115T382 181H513Q510 140 492 104T445 42T374 0T282 -15Q221 -15 172 6T90 63T37 149T19 256Q19 313 37 362T88 448T169 506T275 527ZM199 707H345L441 581H323L275 650H273L224 581H105Z" horiz-adv-x="528" unicode="ĉ"/>
			<glyph d="M367 729Q433 729 485 710T574 659T634 583T662 488H518Q508 542 469 574T367 607Q317 607 280 587T220 534T184 454T172 355Q172 300 185 254T224 174T286 122T368 104Q432 104 473 138T522 230H664Q661 182 641 138T585 61Q548 26 495 5T368 -15Q293 -15 229 12T120 89T49 206T24 355Q24 434 48 502T116 621T224 700T367 729ZM288 871H424V753H288Z" horiz-adv-x="684" unicode="Ċ"/>
			<glyph d="M275 527Q325 527 365 513T434 474T482 415T508 339H375Q368 373 343 395T281 418Q219 418 188 374T157 256Q157 183 186 138T279 94Q321 94 348 115T382 181H513Q510 140 492 104T445 42T374 0T282 -15Q221 -15 172 6T90 63T37 149T19 256Q19 313 37 362T88 448T169 506T275 527ZM205 715H341V593H205Z" horiz-adv-x="528" unicode="ċ"/>
			<glyph d="M367 729Q433 729 485 710T574 659T634 583T662 488H518Q508 542 469 574T367 607Q317 607 280 587T220 534T184 454T172 355Q172 300 185 254T224 174T286 122T368 104Q432 104 473 138T522 230H664Q661 182 641 138T585 61Q548 26 495 5T368 -15Q293 -15 229 12T120 89T49 206T24 355Q24 434 48 502T116 621T224 700T367 729ZM188 867H306L354 810H356L405 867H524L430 753H284Z" horiz-adv-x="684" unicode="Č"/>
			<glyph d="M275 527Q325 527 365 513T434 474T482 415T508 339H375Q368 373 343 395T281 418Q219 418 188 374T157 256Q157 183 186 138T279 94Q321 94 348 115T382 181H513Q510 140 492 104T445 42T374 0T282 -15Q221 -15 172 6T90 63T37 149T19 256Q19 313 37 362T88 448T169 506T275 527ZM105 702H223L271 633H273L322 702H441L347 576H201Z" horiz-adv-x="528" unicode="č"/>
			<glyph d="M55 715H334Q406 715 464 687T563 611T626 496T648 350Q648 262 619 189T534 69Q494 36 442 18T322 0H55ZM200 591V125H312Q414 125 457 184T501 350Q501 403 489 447T454 524T396 573T316 591ZM137 867H255L303 810H305L354 867H473L379 753H233Z" horiz-adv-x="672" unicode="Ď"/>
			<glyph d="M386 715H522V0H391V67H389Q366 30 328 7T236 -15Q188 -15 148 4T79 58T35 143T19 256Q19 316 35 366T80 451T150 507T238 527Q292 527 327 505T383 451H386ZM270 417Q214 417 185 372T157 256Q157 181 185 140T266 99Q327 99 358 140T389 253Q389 290 382 320T362 371T325 405T270 417ZM567 715H691V630Q691 601 680 581T652 548T612 529T565 522V566Q591 569 609 578T627 614H567Z" horiz-adv-x="566" unicode="ď"/>
			<glyph d="M65 715H344Q416 715 474 687T573 611T636 496T658 350Q658 262 629 189T544 69Q504 36 452 18T332 0H65V304H1V421H65ZM210 591V421H375V304H210V125H322Q424 125 467 184T511 350Q511 403 499 447T464 524T406 573T326 591Z" horiz-adv-x="682" unicode="Đ"/>
			<glyph d="M386 715H522V649H575V569H522V0H391V67H389Q366 30 328 7T236 -15Q188 -15 148 4T79 58T35 143T19 256Q19 316 35 366T80 451T150 507T238 527Q292 527 327 505T383 451H386V569H254V649H386ZM270 417Q214 417 185 372T157 256Q157 181 185 140T266 99Q327 99 358 140T389 253Q389 290 382 320T362 371T325 405T270 417Z" horiz-adv-x="566" unicode="đ"/>
			<glyph d="M55 715H581V593H200V433H534V314H200V121H584V0H55ZM183 859H467V762H183Z" horiz-adv-x="619" unicode="Ē"/>
			<glyph d="M272 527Q334 527 381 504T460 441T508 343T525 218H153Q161 158 193 124T284 90Q324 90 348 107T383 153H517Q510 119 491 88T443 35T374 -1T285 -15Q221 -15 171 6T88 63T36 150T19 257Q19 314 37 363T89 449T169 506T272 527ZM274 422Q220 422 192 392T155 312H383Q380 361 350 391T274 422ZM130 689H414V592H130Z" horiz-adv-x="544" unicode="ē"/>
			<glyph d="M55 715H581V593H200V433H534V314H200V121H584V0H55ZM178 882H256Q259 860 276 847T325 834Q355 834 373 848T394 882H472Q470 854 459 830T429 788T385 759T326 749Q294 749 268 759T222 787T191 829T178 882Z" horiz-adv-x="619" unicode="Ĕ"/>
			<glyph d="M272 527Q334 527 381 504T460 441T508 343T525 218H153Q161 158 193 124T284 90Q324 90 348 107T383 153H517Q510 119 491 88T443 35T374 -1T285 -15Q221 -15 171 6T88 63T36 150T19 257Q19 314 37 363T89 449T169 506T272 527ZM274 422Q220 422 192 392T155 312H383Q380 361 350 391T274 422ZM125 706H203Q206 684 223 671T272 658Q302 658 320 672T341 706H419Q417 678 406 654T376 612T332 583T273 573Q241 573 215 583T169 611T138 653T125 706Z" horiz-adv-x="544" unicode="ĕ"/>
			<glyph d="M55 715H581V593H200V433H534V314H200V121H584V0H55ZM257 871H393V753H257Z" horiz-adv-x="619" unicode="Ė"/>
			<glyph d="M272 527Q334 527 381 504T460 441T508 343T525 218H153Q161 158 193 124T284 90Q324 90 348 107T383 153H517Q510 119 491 88T443 35T374 -1T285 -15Q221 -15 171 6T88 63T36 150T19 257Q19 314 37 363T89 449T169 506T272 527ZM274 422Q220 422 192 392T155 312H383Q380 361 350 391T274 422ZM204 715H340V593H204Z" horiz-adv-x="544" unicode="ė"/>
			<glyph d="M55 715H581V593H200V433H534V314H200V121H584V0H539Q517 -19 504 -34T492 -67Q492 -95 523 -95Q533 -95 540 -93T555 -88H557V-165Q548 -169 534 -171T501 -174Q389 -174 389 -89Q389 -59 405 -36T444 0H55Z" horiz-adv-x="619" unicode="Ę"/>
			<glyph d="M272 527Q334 527 381 504T460 441T508 343T525 218H153Q161 158 193 124T284 90Q324 90 348 107T383 153H517Q512 128 502 107T478 69T447 36T411 3Q382 -22 367 -36T353 -67Q353 -95 384 -95Q394 -95 401 -93T416 -88H418V-165Q409 -169 395 -171T361 -174Q304 -174 277 -153T250 -93Q250 -67 265 -47T301 -14Q296 -15 293 -15Q290 -15 285 -15Q221 -15 171 6T88 63T36 150T19 257Q19 314 37 363T89 449T169 506T272 527ZM274 422Q220 422 192 392T155 312H383Q380 361 350 391T274 422Z" horiz-adv-x="544" unicode="ę"/>
			<glyph d="M55 715H581V593H200V433H534V314H200V121H584V0H55ZM157 867H275L323 810H325L374 867H493L399 753H253Z" horiz-adv-x="619" unicode="Ě"/>
			<glyph d="M272 527Q334 527 381 504T460 441T508 343T525 218H153Q161 158 193 124T284 90Q324 90 348 107T383 153H517Q510 119 491 88T443 35T374 -1T285 -15Q221 -15 171 6T88 63T36 150T19 257Q19 314 37 363T89 449T169 506T272 527ZM274 422Q220 422 192 392T155 312H383Q380 361 350 391T274 422ZM104 702H222L270 633H272L321 702H440L346 576H200Z" horiz-adv-x="544" unicode="ě"/>
			<glyph d="M374 729Q441 729 494 711T586 662T647 586T680 490H538Q526 542 486 575T377 609Q326 609 288 589T225 535T187 454T175 355Q175 300 189 253T229 173T292 121T375 102Q417 102 451 116T509 153T546 205T559 264V268H387V380H688V0H579L574 96H572Q535 34 485 9T371 -15Q290 -15 227 12T120 89Q75 139 51 206T27 355Q27 445 57 520T144 647Q188 687 245 708T374 729ZM289 867H435L531 753H413L365 810H363L314 753H195Z" horiz-adv-x="734" unicode="Ĝ"/>
			<glyph d="M241 527Q289 527 324 509T383 459H385V513H516V39Q516 -15 500 -53T455 -117Q423 -147 375 -161T270 -175Q164 -175 102 -132T30 -15H165Q173 -39 196 -55T268 -72Q382 -72 382 35V91H379Q356 65 325 48T245 31Q202 31 161 47T89 95T38 172T19 276Q19 333 35 379T81 459T151 509T241 527ZM267 418Q215 418 183 380T152 278Q152 212 183 176T268 140Q300 140 323 151T360 181T382 225T389 279Q389 307 381 332T359 377T321 407T267 418ZM203 707H349L445 581H327L279 650H277L228 581H109Z" horiz-adv-x="560" unicode="ĝ"/>
			<glyph d="M374 729Q441 729 494 711T586 662T647 586T680 490H538Q526 542 486 575T377 609Q326 609 288 589T225 535T187 454T175 355Q175 300 189 253T229 173T292 121T375 102Q417 102 451 116T509 153T546 205T559 264V268H387V380H688V0H579L574 96H572Q535 34 485 9T371 -15Q290 -15 227 12T120 89Q75 139 51 206T27 355Q27 445 57 520T144 647Q188 687 245 708T374 729ZM216 882H294Q297 860 314 847T363 834Q393 834 411 848T432 882H510Q508 854 497 830T467 788T423 759T364 749Q332 749 306 759T260 787T229 829T216 882Z" horiz-adv-x="734" unicode="Ğ"/>
			<glyph d="M241 527Q289 527 324 509T383 459H385V513H516V39Q516 -15 500 -53T455 -117Q423 -147 375 -161T270 -175Q164 -175 102 -132T30 -15H165Q173 -39 196 -55T268 -72Q382 -72 382 35V91H379Q356 65 325 48T245 31Q202 31 161 47T89 95T38 172T19 276Q19 333 35 379T81 459T151 509T241 527ZM267 418Q215 418 183 380T152 278Q152 212 183 176T268 140Q300 140 323 151T360 181T382 225T389 279Q389 307 381 332T359 377T321 407T267 418ZM130 706H208Q211 684 228 671T277 658Q307 658 325 672T346 706H424Q422 678 411 654T381 612T337 583T278 573Q246 573 220 583T174 611T143 653T130 706Z" horiz-adv-x="560" unicode="ğ"/>
			<glyph d="M374 729Q441 729 494 711T586 662T647 586T680 490H538Q526 542 486 575T377 609Q326 609 288 589T225 535T187 454T175 355Q175 300 189 253T229 173T292 121T375 102Q417 102 451 116T509 153T546 205T559 264V268H387V380H688V0H579L574 96H572Q535 34 485 9T371 -15Q290 -15 227 12T120 89Q75 139 51 206T27 355Q27 445 57 520T144 647Q188 687 245 708T374 729ZM295 871H431V753H295Z" horiz-adv-x="734" unicode="Ġ"/>
			<glyph d="M241 527Q289 527 324 509T383 459H385V513H516V39Q516 -15 500 -53T455 -117Q423 -147 375 -161T270 -175Q164 -175 102 -132T30 -15H165Q173 -39 196 -55T268 -72Q382 -72 382 35V91H379Q356 65 325 48T245 31Q202 31 161 47T89 95T38 172T19 276Q19 333 35 379T81 459T151 509T241 527ZM267 418Q215 418 183 380T152 278Q152 212 183 176T268 140Q300 140 323 151T360 181T382 225T389 279Q389 307 381 332T359 377T321 407T267 418ZM209 715H345V593H209Z" horiz-adv-x="560" unicode="ġ"/>
			<glyph d="M374 729Q441 729 494 711T586 662T647 586T680 490H538Q526 542 486 575T377 609Q326 609 288 589T225 535T187 454T175 355Q175 300 189 253T229 173T292 121T375 102Q417 102 451 116T509 153T546 205T559 264V268H387V380H688V0H579L574 96H572Q535 34 485 9T371 -15Q290 -15 227 12T120 89Q75 139 51 206T27 355Q27 445 57 520T144 647Q188 687 245 708T374 729ZM302 -48H426V-145Q426 -174 415 -195T387 -230T347 -252T300 -263V-219Q322 -214 342 -199T362 -155H302Z" horiz-adv-x="734" unicode="Ģ"/>
			<glyph d="M241 527Q289 527 324 509T383 459H385V513H516V39Q516 -15 500 -53T455 -117Q423 -147 375 -161T270 -175Q164 -175 102 -132T30 -15H165Q173 -39 196 -55T268 -72Q382 -72 382 35V91H379Q356 65 325 48T245 31Q202 31 161 47T89 95T38 172T19 276Q19 333 35 379T81 459T151 509T241 527ZM267 418Q215 418 183 380T152 278Q152 212 183 176T268 140Q300 140 323 151T360 181T382 225T389 279Q389 307 381 332T359 377T321 407T267 418ZM340 816V772Q318 767 298 752T278 708H338V601H214V698Q214 727 224 748T252 783T293 805T340 816Z" horiz-adv-x="560" unicode="ģ"/>
			<glyph d="M55 715H200V435H481V715H626V0H481V315H200V0H55ZM266 867H412L508 753H390L342 810H340L291 753H172Z" horiz-adv-x="681" unicode="Ĥ"/>
			<glyph d="M44 715H180V446H183Q211 487 245 507T332 527Q372 527 404 512T460 472T496 412T509 335V0H373V315Q373 357 350 383T284 409Q239 409 209 376T180 291V0H44ZM202 867H348L444 753H326L278 810H276L227 753H108Z" horiz-adv-x="549" unicode="ĥ"/>
			<glyph d="M55 715H200V595H481V715H626V595H684V508H626V0H481V315H200V0H55V508H-3V595H55ZM200 508V435H481V508Z" horiz-adv-x="681" unicode="Ħ"/>
			<glyph d="M44 715H180V649H312V569H180V446H183Q211 487 245 507T332 527Q372 527 404 512T460 472T496 412T509 335V0H373V315Q373 357 350 383T284 409Q239 409 209 376T180 291V0H44V569H-9V649H44Z" horiz-adv-x="549" unicode="ħ"/>
			<glyph d="M56 715H201V0H56ZM68 875Q86 875 101 869T130 857T155 845T177 840Q191 840 197 848T206 871H278Q278 820 254 787T186 755Q168 755 152 760T123 771T98 783T77 788Q55 788 50 757H-22Q-22 816 4 845T68 875Z" horiz-adv-x="257" unicode="Ĩ"/>
			<glyph d="M44 513H180V0H44ZM56 695Q72 695 87 690T114 678T136 667T153 662Q166 662 171 669T178 691H247Q247 640 226 607T166 575Q150 575 135 580T109 590T87 601T71 606Q49 606 46 577H-23Q-23 636 0 665T56 695Z" horiz-adv-x="224" unicode="ĩ"/>
			<glyph d="M56 715H201V0H56ZM-14 859H270V762H-14Z" horiz-adv-x="257" unicode="Ī"/>
			<glyph d="M44 513H180V0H44ZM-10 689H234V592H-10Z" horiz-adv-x="224" unicode="ī"/>
			<glyph d="M56 715H201V0H56ZM-19 882H59Q62 860 79 847T128 834Q158 834 176 848T197 882H275Q273 854 262 830T232 788T188 759T129 749Q97 749 71 759T25 787T-5 829T-19 882Z" horiz-adv-x="257" unicode="Ĭ"/>
			<glyph d="M44 513H180V0H44ZM-35 706H43Q46 684 63 671T112 658Q142 658 160 672T181 706H259Q257 678 246 654T216 612T172 583T113 573Q81 573 55 583T9 611T-21 653T-35 706Z" horiz-adv-x="224" unicode="ĭ"/>
			<glyph d="M56 715H201V5Q143 -34 143 -67Q143 -95 174 -95Q184 -95 191 -93T206 -88H208V-165Q199 -169 185 -171T152 -174Q40 -174 40 -89Q40 -59 56 -36T95 0H56Z" horiz-adv-x="257" unicode="Į"/>
			<glyph d="M44 513H180V5Q151 -15 138 -32T125 -67Q125 -81 133 -88T154 -95Q164 -95 171 -93T186 -88H188V-165Q179 -169 165 -171T131 -174Q76 -174 49 -153T22 -93Q22 -76 28 -61T43 -35T63 -15T84 0H44ZM44 715H180V593H44Z" horiz-adv-x="224" unicode="į"/>
			<glyph d="M56 715H201V0H56ZM60 871H196V753H60Z" horiz-adv-x="257" unicode="İ"/>
			<glyph d="M44 513H180V0H44Z" horiz-adv-x="224" unicode="ı"/>
			<glyph d="M56 715H201V0H56ZM582 715H727V201Q727 155 713 116T673 48T604 3T508 -13Q396 -13 335 38T274 195V266H404V204Q404 150 427 127T496 104Q541 104 561 129T582 202Z" horiz-adv-x="773" unicode="Ĳ"/>
			<glyph d="M44 513H180V0H44ZM44 715H180V593H44ZM268 513H404V-20Q404 -65 395 -90T370 -132Q350 -152 321 -160T260 -169Q241 -169 220 -167T183 -163V-66Q204 -66 219 -64T246 -56T262 -41T268 -13ZM268 715H404V593H268Z" horiz-adv-x="448" unicode="ĳ"/>
			<glyph d="M325 715H470V201Q470 155 456 116T416 48T347 3T251 -13Q139 -13 78 38T17 195V266H147V204Q147 150 170 127T239 104Q284 104 304 129T325 202ZM321 867H467L563 753H445L397 810H395L346 753H227Z" horiz-adv-x="516" unicode="Ĵ"/>
			<glyph d="M44 513H180V-20Q180 -65 171 -90T146 -132Q126 -152 97 -160T36 -169Q17 -169 -4 -167T-41 -163V-66Q-20 -66 -4 -64T22 -56T38 -41T44 -13ZM41 707H180L253 581H146L114 647H112L78 581H-30Z" horiz-adv-x="224" unicode="ĵ"/>
			<glyph d="M55 715H200V430L475 715H655L375 429L673 0H503L273 334L200 260V0H55ZM271 -48H395V-145Q395 -174 384 -195T356 -230T316 -252T269 -263V-219Q291 -214 311 -199T331 -155H271Z" horiz-adv-x="674" unicode="Ķ"/>
			<glyph d="M44 715H179V319L361 513H524L335 318L547 0H382L238 234L179 173V0H44ZM234 -48H358V-145Q358 -174 347 -195T319 -230T279 -252T232 -263V-219Q254 -214 274 -199T294 -155H234Z" horiz-adv-x="546" unicode="ķ"/>
			<glyph d="M44 513H179V319L361 513H524L335 318L547 0H382L238 234L179 173V0H44Z" horiz-adv-x="546" unicode="ĸ"/>
			<glyph d="M55 715H200V121H536V0H55ZM115 878H274L179 753H73Z" horiz-adv-x="559" unicode="Ĺ"/>
			<glyph d="M46 715H182V0H46ZM102 878H261L166 753H60Z" horiz-adv-x="228" unicode="ĺ"/>
			<glyph d="M55 715H200V121H536V0H55ZM235 -48H359V-145Q359 -174 348 -195T320 -230T280 -252T233 -263V-219Q255 -214 275 -199T295 -155H235Z" horiz-adv-x="559" unicode="Ļ"/>
			<glyph d="M46 715H182V0H46ZM53 -48H177V-145Q177 -174 166 -195T138 -230T98 -252T51 -263V-219Q73 -214 93 -199T113 -155H53Z" horiz-adv-x="228" unicode="ļ"/>
			<glyph d="M55 715H200V121H536V0H55ZM316 715H440V630Q440 601 429 581T401 548T361 529T314 522V566Q340 569 358 578T376 614H316Z" horiz-adv-x="559" unicode="Ľ"/>
			<glyph d="M46 715H182V0H46ZM227 715H351V630Q351 601 340 581T312 548T272 529T225 522V566Q251 569 269 578T287 614H227Z" horiz-adv-x="228" unicode="ľ"/>
			<glyph d="M55 715H200V121H536V0H55ZM360 408H506V263H360Z" horiz-adv-x="559" unicode="Ŀ"/>
			<glyph d="M46 715H182V0H46ZM237 408H383V263H237Z" horiz-adv-x="392" unicode="ŀ"/>
			<glyph d="M60 715H205V394L405 497V400L205 297V121H541V0H60V223L-4 191V288L60 320Z" horiz-adv-x="564" unicode="Ł"/>
			<glyph d="M61 715H197V457L263 508V411L197 360V0H61V257L3 213V310L61 354Z" horiz-adv-x="260" unicode="ł"/>
			<glyph d="M55 715H202L440 316Q448 301 457 283T474 251Q483 233 490 216H492Q491 237 490 259Q489 278 488 299T488 340V715H631V0H491L247 395Q238 409 229 426T213 459Q204 477 196 494H194Q195 472 196 450Q197 431 197 409T198 369V0H55ZM338 878H497L402 753H296Z" horiz-adv-x="686" unicode="Ń"/>
			<glyph d="M332 527Q372 527 404 512T460 472T496 412T509 335V0H373V315Q373 357 350 383T284 409Q239 409 209 376T180 291V0H44V513H177V443H180Q206 485 242 506T332 527ZM277 718H436L328 577H222Z" horiz-adv-x="549" unicode="ń"/>
			<glyph d="M55 715H202L440 316Q448 301 457 283T474 251Q483 233 490 216H492Q491 237 490 259Q489 278 488 299T488 340V715H631V0H491L247 395Q238 409 229 426T213 459Q204 477 196 494H194Q195 472 196 450Q197 431 197 409T198 369V0H55ZM280 -46H404V-143Q404 -172 393 -193T365 -228T325 -250T278 -261V-217Q300 -212 320 -197T340 -153H280Z" horiz-adv-x="686" unicode="Ņ"/>
			<glyph d="M332 527Q372 527 404 512T460 472T496 412T509 335V0H373V315Q373 357 350 383T284 409Q239 409 209 376T180 291V0H44V513H177V443H180Q206 485 242 506T332 527ZM215 -48H339V-145Q339 -174 328 -195T300 -230T260 -252T213 -263V-219Q235 -214 255 -199T275 -155H215Z" horiz-adv-x="549" unicode="ņ"/>
			<glyph d="M55 715H202L440 316Q448 301 457 283T474 251Q483 233 490 216H492Q491 237 490 259Q489 278 488 299T488 340V715H631V0H491L247 395Q238 409 229 426T213 459Q204 477 196 494H194Q195 472 196 450Q197 431 197 409T198 369V0H55ZM182 867H300L348 810H350L399 867H518L424 753H278Z" horiz-adv-x="686" unicode="Ň"/>
			<glyph d="M332 527Q372 527 404 512T460 472T496 412T509 335V0H373V315Q373 357 350 383T284 409Q239 409 209 376T180 291V0H44V513H177V443H180Q206 485 242 506T332 527ZM108 702H226L274 633H276L325 702H444L350 576H204Z" horiz-adv-x="549" unicode="ň"/>
			<glyph d="M332 527Q372 527 404 512T460 472T496 412T509 335V0H373V315Q373 357 350 383T284 409Q239 409 209 376T180 291V0H44V513H177V443H180Q206 485 242 506T332 527ZM-41 715H83V630Q83 601 72 581T44 548T4 529T-43 522V566Q-17 569 1 578T19 614H-41Z" horiz-adv-x="549" unicode="ŉ"/>
			<glyph d="M55 715H202L440 316Q448 301 457 283T474 251Q483 233 490 216H492Q491 237 490 259Q489 278 488 299T488 340V715H631V38Q631 -9 619 -48T583 -115T519 -158T426 -174Q407 -174 391 -172T356 -168V-53Q367 -56 377 -57T399 -58Q414 -58 428 -55T454 -44T474 -24T487 7L247 395Q238 409 229 426T213 459Q204 477 196 494H194Q195 472 196 450Q197 431 197 409T198 369V0H55Z" horiz-adv-x="686" unicode="Ŋ"/>
			<glyph d="M332 527Q372 527 404 512T460 472T496 412T509 335V-20Q509 -65 500 -90T475 -132Q455 -152 426 -160T365 -169Q346 -169 325 -167T288 -163V-66Q309 -66 324 -64T351 -56T367 -41T373 -13V315Q373 357 350 383T284 409Q239 409 209 376T180 291V0H44V513H177V443H180Q206 485 242 506T332 527Z" horiz-adv-x="549" unicode="ŋ"/>
			<glyph d="M369 729Q448 729 511 701T620 623T689 504T713 356Q713 276 689 207T620 89T511 12T369 -16Q290 -16 226 12T117 89T48 207T24 356Q24 436 48 504T117 623T226 701T369 729ZM370 610Q321 610 284 590T222 536T184 456T172 356Q172 303 184 256T222 176T284 122T370 103Q419 103 455 122T516 176T553 256T565 356Q565 410 553 456T516 536T455 590T370 610ZM226 859H510V762H226Z" horiz-adv-x="737" unicode="Ō"/>
			<glyph d="M287 527Q347 527 396 506T480 448T535 362T555 256Q555 199 535 149T480 63T396 6T287 -15Q227 -15 178 6T93 63T38 149T19 256Q19 313 38 362T93 448T178 506T287 527ZM287 424Q224 424 190 377T157 256Q157 181 190 135T287 89Q350 89 383 135T417 256Q417 331 383 377T287 424ZM145 689H429V592H145Z" horiz-adv-x="574" unicode="ō"/>
			<glyph d="M369 729Q448 729 511 701T620 623T689 504T713 356Q713 276 689 207T620 89T511 12T369 -16Q290 -16 226 12T117 89T48 207T24 356Q24 436 48 504T117 623T226 701T369 729ZM370 610Q321 610 284 590T222 536T184 456T172 356Q172 303 184 256T222 176T284 122T370 103Q419 103 455 122T516 176T553 256T565 356Q565 410 553 456T516 536T455 590T370 610ZM221 882H299Q302 860 319 847T368 834Q398 834 416 848T437 882H515Q513 854 502 830T472 788T428 759T369 749Q337 749 311 759T265 787T234 829T221 882Z" horiz-adv-x="737" unicode="Ŏ"/>
			<glyph d="M287 527Q347 527 396 506T480 448T535 362T555 256Q555 199 535 149T480 63T396 6T287 -15Q227 -15 178 6T93 63T38 149T19 256Q19 313 38 362T93 448T178 506T287 527ZM287 424Q224 424 190 377T157 256Q157 181 190 135T287 89Q350 89 383 135T417 256Q417 331 383 377T287 424ZM140 706H218Q221 684 238 671T287 658Q317 658 335 672T356 706H434Q432 678 421 654T391 612T347 583T288 573Q256 573 230 583T184 611T153 653T140 706Z" horiz-adv-x="574" unicode="ŏ"/>
			<glyph d="M369 729Q448 729 511 701T620 623T689 504T713 356Q713 276 689 207T620 89T511 12T369 -16Q290 -16 226 12T117 89T48 207T24 356Q24 436 48 504T117 623T226 701T369 729ZM370 610Q321 610 284 590T222 536T184 456T172 356Q172 303 184 256T222 176T284 122T370 103Q419 103 455 122T516 176T553 256T565 356Q565 410 553 456T516 536T455 590T370 610ZM448 878H577L498 753H415ZM274 878H403L324 753H241Z" horiz-adv-x="737" unicode="Ő"/>
			<glyph d="M287 527Q347 527 396 506T480 448T535 362T555 256Q555 199 535 149T480 63T396 6T287 -15Q227 -15 178 6T93 63T38 149T19 256Q19 313 38 362T93 448T178 506T287 527ZM287 424Q224 424 190 377T157 256Q157 181 190 135T287 89Q350 89 383 135T417 256Q417 331 383 377T287 424ZM374 718H503L417 577H334ZM200 718H329L243 577H160Z" horiz-adv-x="574" unicode="ő"/>
			<glyph d="M355 729Q401 729 439 714T510 673V715H1007V590H653V429H959V312H653V131H1018V0H510V43Q477 15 438 0T355 -16Q284 -16 223 12T118 89T49 207T24 356Q24 436 49 504T118 623T223 701T355 729ZM361 610Q316 610 280 590T221 536T184 456T172 356Q172 303 184 256T221 176T280 122T361 103Q463 103 510 175V534Q487 571 449 590T361 610Z" horiz-adv-x="1053" unicode="Œ"/>
			<glyph d="M287 527Q350 527 400 504T484 440Q516 480 563 503T671 527Q733 527 780 504T859 441T907 343T924 218H552Q560 158 592 124T683 90Q723 90 747 107T782 153H916Q909 119 890 88T842 35T773 -1T684 -15Q616 -15 566 8T483 71Q449 31 399 8T287 -15Q227 -15 178 6T93 63T38 149T19 256Q19 313 38 362T93 448T178 506T287 527ZM287 424Q224 424 190 377T157 256Q157 181 190 135T287 89Q350 89 383 135T417 256Q417 331 383 377T287 424ZM673 422Q619 422 591 392T554 312H782Q779 361 749 391T673 422Z" horiz-adv-x="943" unicode="œ"/>
			<glyph d="M55 715H369Q432 715 478 697T556 648Q586 617 603 579T620 493Q620 418 583 367T478 293L657 0H489L323 276H205V0H55ZM205 589V394H355Q412 394 441 419T471 492Q471 541 441 565T357 589ZM314 878H473L378 753H272Z" horiz-adv-x="655" unicode="Ŕ"/>
			<glyph d="M304 519Q325 519 336 515V396H333Q266 403 223 367T180 250V0H44V513H175V431H178Q201 475 230 497T304 519ZM203 718H362L254 577H148Z" horiz-adv-x="351" unicode="ŕ"/>
			<glyph d="M55 715H369Q432 715 478 697T556 648Q586 617 603 579T620 493Q620 418 583 367T478 293L657 0H489L323 276H205V0H55ZM205 589V394H355Q412 394 441 419T471 492Q471 541 441 565T357 589ZM269 -48H393V-145Q393 -174 382 -195T354 -230T314 -252T267 -263V-219Q289 -214 309 -199T329 -155H269Z" horiz-adv-x="655" unicode="Ŗ"/>
			<glyph d="M304 519Q325 519 336 515V396H333Q266 403 223 367T180 250V0H44V513H175V431H178Q201 475 230 497T304 519ZM47 -48H171V-145Q171 -174 160 -195T132 -230T92 -252T45 -263V-219Q67 -214 87 -199T107 -155H47Z" horiz-adv-x="351" unicode="ŗ"/>
			<glyph d="M55 715H369Q432 715 478 697T556 648Q586 617 603 579T620 493Q620 418 583 367T478 293L657 0H489L323 276H205V0H55ZM205 589V394H355Q412 394 441 419T471 492Q471 541 441 565T357 589ZM158 867H276L324 810H326L375 867H494L400 753H254Z" horiz-adv-x="655" unicode="Ř"/>
			<glyph d="M304 519Q325 519 336 515V396H333Q266 403 223 367T180 250V0H44V513H175V431H178Q201 475 230 497T304 519ZM34 702H152L200 633H202L251 702H370L276 576H130Z" horiz-adv-x="351" unicode="ř"/>
			<glyph d="M317 728Q438 728 511 671T593 505H454Q448 559 410 586T316 613Q257 613 222 590T187 529Q187 507 196 492T225 467T274 448T343 431Q398 419 446 404T531 366T589 305T610 210Q610 156 589 113T531 42T443 -1T332 -16Q186 -16 106 45T23 221H165Q173 156 211 128T326 101Q354 101 379 106T423 122T453 150T465 193Q465 219 452 236T417 264T361 284T288 302Q240 313 195 326T117 363T63 422T43 514Q43 567 63 607T120 674T207 714T317 728ZM308 878H467L372 753H266Z" horiz-adv-x="642" unicode="Ś"/>
			<glyph d="M236 527Q338 527 393 481T456 357H333Q328 399 303 415T234 432Q194 432 170 417T146 375Q146 358 158 348T189 332T234 322T287 312Q319 305 351 296T410 269T452 223T468 150Q468 111 452 80T407 29T339 -3T252 -15Q140 -15 79 34T12 166H138Q145 121 174 101T250 81Q295 81 319 97T344 140Q344 158 332 169T302 187T259 198T209 208Q174 215 141 224T83 250T42 294T27 363Q27 405 43 435T87 486T154 517T236 527ZM244 718H403L295 577H189Z" horiz-adv-x="485" unicode="ś"/>
			<glyph d="M317 728Q438 728 511 671T593 505H454Q448 559 410 586T316 613Q257 613 222 590T187 529Q187 507 196 492T225 467T274 448T343 431Q398 419 446 404T531 366T589 305T610 210Q610 156 589 113T531 42T443 -1T332 -16Q186 -16 106 45T23 221H165Q173 156 211 128T326 101Q354 101 379 106T423 122T453 150T465 193Q465 219 452 236T417 264T361 284T288 302Q240 313 195 326T117 363T63 422T43 514Q43 567 63 607T120 674T207 714T317 728ZM246 867H392L488 753H370L322 810H320L271 753H152Z" horiz-adv-x="642" unicode="Ŝ"/>
			<glyph d="M236 527Q338 527 393 481T456 357H333Q328 399 303 415T234 432Q194 432 170 417T146 375Q146 358 158 348T189 332T234 322T287 312Q319 305 351 296T410 269T452 223T468 150Q468 111 452 80T407 29T339 -3T252 -15Q140 -15 79 34T12 166H138Q145 121 174 101T250 81Q295 81 319 97T344 140Q344 158 332 169T302 187T259 198T209 208Q174 215 141 224T83 250T42 294T27 363Q27 405 43 435T87 486T154 517T236 527ZM169 707H315L411 581H293L245 650H243L194 581H75Z" horiz-adv-x="485" unicode="ŝ"/>
			<glyph d="M317 728Q438 728 511 671T593 505H454Q448 559 410 586T316 613Q257 613 222 590T187 529Q187 507 196 492T225 467T274 448T343 431Q398 419 446 404T531 366T589 305T610 210Q610 157 591 116T537 47T455 3T351 -15L310 -50V-52Q330 -49 349 -51T383 -61T407 -82T416 -116Q416 -152 381 -172T295 -192Q261 -192 235 -184T189 -163L207 -131Q222 -138 240 -142T277 -146Q300 -146 317 -138T334 -115Q334 -101 322 -93T293 -86Q282 -86 273 -88T256 -93L240 -71L296 -15Q166 -7 96 53T23 221H165Q173 156 211 128T326 101Q354 101 379 106T423 122T453 150T465 193Q465 219 452 236T417 264T361 284T288 302Q240 313 195 326T117 363T63 422T43 514Q43 567 63 607T120 674T207 714T317 728Z" horiz-adv-x="642" unicode="Ş"/>
			<glyph d="M236 527Q338 527 393 481T456 357H333Q328 399 303 415T234 432Q194 432 170 417T146 375Q146 358 158 348T189 332T234 322T287 312Q319 305 351 296T410 269T452 223T468 150Q468 114 454 85T415 35T354 1T276 -14L233 -50V-52Q253 -49 272 -51T306 -61T330 -82T339 -116Q339 -152 304 -172T218 -192Q184 -192 158 -184T112 -163L130 -131Q145 -138 163 -142T200 -146Q223 -146 240 -138T257 -115Q257 -101 245 -93T216 -86Q205 -86 196 -88T179 -93L163 -71L220 -14Q123 -6 70 42T12 166H138Q145 121 174 101T250 81Q295 81 319 97T344 140Q344 158 332 169T302 187T259 198T209 208Q174 215 141 224T83 250T42 294T27 363Q27 405 43 435T87 486T154 517T236 527Z" horiz-adv-x="485" unicode="ş"/>
			<glyph d="M317 728Q438 728 511 671T593 505H454Q448 559 410 586T316 613Q257 613 222 590T187 529Q187 507 196 492T225 467T274 448T343 431Q398 419 446 404T531 366T589 305T610 210Q610 156 589 113T531 42T443 -1T332 -16Q186 -16 106 45T23 221H165Q173 156 211 128T326 101Q354 101 379 106T423 122T453 150T465 193Q465 219 452 236T417 264T361 284T288 302Q240 313 195 326T117 363T63 422T43 514Q43 567 63 607T120 674T207 714T317 728ZM152 867H270L318 810H320L369 867H488L394 753H248Z" horiz-adv-x="642" unicode="Š"/>
			<glyph d="M236 527Q338 527 393 481T456 357H333Q328 399 303 415T234 432Q194 432 170 417T146 375Q146 358 158 348T189 332T234 322T287 312Q319 305 351 296T410 269T452 223T468 150Q468 111 452 80T407 29T339 -3T252 -15Q140 -15 79 34T12 166H138Q145 121 174 101T250 81Q295 81 319 97T344 140Q344 158 332 169T302 187T259 198T209 208Q174 215 141 224T83 250T42 294T27 363Q27 405 43 435T87 486T154 517T236 527ZM75 702H193L241 633H243L292 702H411L317 576H171Z" horiz-adv-x="485" unicode="š"/>
			<glyph d="M18 715H593V593H378V0H233V593H18ZM244 -48H368V-145Q368 -174 357 -195T329 -230T289 -252T242 -263V-219Q264 -214 284 -199T304 -155H244Z" horiz-adv-x="611" unicode="Ţ"/>
			<glyph d="M85 673H218V513H306V423H218V151Q218 122 232 111T269 100H295Q302 100 309 101V1Q299 0 287 0Q276 -1 260 -1Q244 -1 224 -1Q199 -1 174 4T130 24T97 62T85 122V423H14V513H85ZM130 -48H254V-145Q254 -174 243 -195T215 -230T175 -252T128 -263V-219Q150 -214 170 -199T190 -155H130Z" horiz-adv-x="332" unicode="ţ"/>
			<glyph d="M18 715H593V593H378V0H233V593H18ZM137 867H255L303 810H305L354 867H473L379 753H233Z" horiz-adv-x="611" unicode="Ť"/>
			<glyph d="M85 673H218V513H306V423H218V151Q218 122 232 111T269 100H295Q302 100 309 101V1Q299 0 287 0Q276 -1 260 -1Q244 -1 224 -1Q199 -1 174 4T130 24T97 62T85 122V423H14V513H85ZM261 715H385V635Q385 611 375 593T348 564T308 546T259 539V584Q285 586 303 595T321 625H261Z" horiz-adv-x="332" unicode="ť"/>
			<glyph d="M18 715H593V593H378V402H520V315H378V0H233V315H91V402H233V593H18Z" horiz-adv-x="611" unicode="Ŧ"/>
			<glyph d="M85 673H218V513H306V423H218V350H306V270H218V151Q218 122 232 111T269 100H295Q302 100 309 101V1Q299 0 287 0Q276 -1 260 -1Q244 -1 224 -1Q199 -1 174 4T130 24T97 62T85 122V270H13V350H85V423H14V513H85Z" horiz-adv-x="332" unicode="ŧ"/>
			<glyph d="M49 715H194V230Q194 174 224 139T328 104Q397 104 430 140T463 232V715H608V230Q608 115 538 51T331 -12Q191 -12 120 50T49 230ZM267 875Q285 875 300 869T329 857T354 845T376 840Q390 840 396 848T405 871H477Q477 820 453 787T385 755Q367 755 351 760T322 771T297 783T276 788Q254 788 249 757H177Q177 816 203 845T267 875Z" horiz-adv-x="657" unicode="Ũ"/>
			<glyph d="M40 513H175V194Q175 149 195 125T260 101Q308 101 335 133T363 217V513H499V0H368V60H365Q339 25 305 5T218 -14Q132 -14 86 36T40 171ZM211 695Q229 695 244 689T273 677T298 665T320 660Q334 660 340 668T349 691H421Q421 640 397 607T329 575Q311 575 295 580T266 591T241 603T220 608Q198 608 193 577H121Q121 636 147 665T211 695Z" horiz-adv-x="543" unicode="ũ"/>
			<glyph d="M49 715H194V230Q194 174 224 139T328 104Q397 104 430 140T463 232V715H608V230Q608 115 538 51T331 -12Q191 -12 120 50T49 230ZM185 859H469V762H185Z" horiz-adv-x="657" unicode="Ū"/>
			<glyph d="M40 513H175V194Q175 149 195 125T260 101Q308 101 335 133T363 217V513H499V0H368V60H365Q339 25 305 5T218 -14Q132 -14 86 36T40 171ZM129 689H413V592H129Z" horiz-adv-x="543" unicode="ū"/>
			<glyph d="M49 715H194V230Q194 174 224 139T328 104Q397 104 430 140T463 232V715H608V230Q608 115 538 51T331 -12Q191 -12 120 50T49 230ZM180 882H258Q261 860 278 847T327 834Q357 834 375 848T396 882H474Q472 854 461 830T431 788T387 759T328 749Q296 749 270 759T224 787T193 829T180 882Z" horiz-adv-x="657" unicode="Ŭ"/>
			<glyph d="M40 513H175V194Q175 149 195 125T260 101Q308 101 335 133T363 217V513H499V0H368V60H365Q339 25 305 5T218 -14Q132 -14 86 36T40 171ZM124 706H202Q205 684 222 671T271 658Q301 658 319 672T340 706H418Q416 678 405 654T375 612T331 583T272 573Q240 573 214 583T168 611T137 653T124 706Z" horiz-adv-x="543" unicode="ŭ"/>
			<glyph d="M49 715H194V230Q194 174 224 139T328 104Q397 104 430 140T463 232V715H608V230Q608 115 538 51T331 -12Q191 -12 120 50T49 230ZM327 918Q347 918 364 910T395 890T416 860T424 824Q424 784 395 757T327 730Q287 730 258 757T230 824Q230 843 237 860T258 890T289 910T327 918ZM327 871Q307 871 294 857T282 824Q282 804 294 790T327 777Q347 777 359 790T372 824Q372 844 359 857T327 871Z" horiz-adv-x="657" unicode="Ů"/>
			<glyph d="M40 513H175V194Q175 149 195 125T260 101Q308 101 335 133T363 217V513H499V0H368V60H365Q339 25 305 5T218 -14Q132 -14 86 36T40 171ZM271 749Q291 749 308 741T339 721T360 691T368 655Q368 615 339 588T271 561Q231 561 202 588T174 655Q174 674 181 691T202 721T233 741T271 749ZM271 702Q251 702 238 688T226 655Q226 635 238 621T271 608Q291 608 303 621T316 655Q316 675 303 688T271 702Z" horiz-adv-x="543" unicode="ů"/>
			<glyph d="M49 715H194V230Q194 174 224 139T328 104Q397 104 430 140T463 232V715H608V230Q608 115 538 51T331 -12Q191 -12 120 50T49 230ZM407 878H536L457 753H374ZM233 878H362L283 753H200Z" horiz-adv-x="657" unicode="Ű"/>
			<glyph d="M40 513H175V194Q175 149 195 125T260 101Q308 101 335 133T363 217V513H499V0H368V60H365Q339 25 305 5T218 -14Q132 -14 86 36T40 171ZM358 718H487L401 577H318ZM184 718H313L227 577H144Z" horiz-adv-x="543" unicode="ű"/>
			<glyph d="M49 715H194V230Q194 174 224 139T328 104Q397 104 430 140T463 232V715H608V230Q608 59 457 6Q423 -6 399 -23T376 -67Q376 -95 407 -95Q417 -95 424 -93T439 -88H441V-165Q432 -169 419 -171T389 -174Q329 -174 301 -153T273 -93Q273 -64 285 -45T314 -12Q183 -8 116 53T49 230Z" horiz-adv-x="657" unicode="Ų"/>
			<glyph d="M40 513H175V194Q175 149 195 125T260 101Q308 101 335 133T363 217V513H499V6Q441 -34 441 -67Q441 -95 472 -95Q482 -95 489 -93T504 -88H506V-165Q497 -169 483 -171T447 -174Q392 -174 365 -153T338 -93Q338 -59 359 -35T402 0H368V60H365Q339 25 305 5T218 -14Q132 -14 86 36T40 171Z" horiz-adv-x="543" unicode="ų"/>
			<glyph d="M5 715H153L246 360Q251 337 256 309T267 259Q272 232 277 204H279Q285 230 290 256Q295 279 300 305T312 356L390 715H530L608 357Q613 333 619 306T630 257Q635 231 641 204H643Q649 231 655 259Q660 282 666 310T678 361L768 715H911L707 0H572L485 383Q480 403 476 425T468 466Q464 488 460 510H458Q455 488 451 466Q448 447 444 425T435 383L347 0H213ZM384 867H530L626 753H508L460 810H458L409 753H290Z" horiz-adv-x="916" unicode="Ŵ"/>
			<glyph d="M4 513H139L201 275Q205 259 209 242T217 211Q221 194 224 179H226Q229 195 233 212Q236 226 239 243T248 276L312 513H428L495 276Q499 259 503 242T511 211Q515 194 519 179H521Q524 194 528 211Q534 241 544 275L609 513H741L588 0H464L396 252Q391 267 387 283T380 312Q376 327 373 341H371Q367 327 363 312Q359 299 355 283T347 252L277 0H154ZM298 707H444L540 581H422L374 650H372L323 581H204Z" horiz-adv-x="745" unicode="ŵ"/>
			<glyph d="M4 715H162L270 503Q278 486 286 468T302 436Q310 418 317 401H319Q327 418 335 436Q342 451 350 468T367 503L473 715H625L387 276V0H242V276ZM240 867H386L482 753H364L316 810H314L265 753H146Z" horiz-adv-x="629" unicode="Ŷ"/>
			<glyph d="M2 513H145L221 282Q227 264 232 244T243 208Q248 189 254 170H256Q260 189 265 208Q269 225 274 244T286 282L358 513H495L316 -13Q301 -56 285 -85T249 -133T201 -160T135 -168H55V-61H103Q144 -61 161 -42T179 9Q179 19 177 31T170 60T158 97T140 148ZM174 707H320L416 581H298L250 650H248L199 581H80Z" horiz-adv-x="497" unicode="ŷ"/>
			<glyph d="M4 715H162L270 503Q278 486 286 468T302 436Q310 418 317 401H319Q327 418 335 436Q342 451 350 468T367 503L473 715H625L387 276V0H242V276ZM352 867H480V753H352ZM149 867H277V753H149Z" horiz-adv-x="629" unicode="Ÿ"/>
			<glyph d="M52 715H589V594L212 126V123H596V0H27V109L417 591V594H52ZM303 878H462L367 753H261Z" horiz-adv-x="626" unicode="Ź"/>
			<glyph d="M57 513H449V404L191 112V109H462V0H27V104L291 403V406H57ZM264 718H423L315 577H209Z" horiz-adv-x="485" unicode="ź"/>
			<glyph d="M52 715H589V594L212 126V123H596V0H27V109L417 591V594H52ZM247 871H383V753H247Z" horiz-adv-x="626" unicode="Ż"/>
			<glyph d="M57 513H449V404L191 112V109H462V0H27V104L291 403V406H57ZM195 715H331V593H195Z" horiz-adv-x="485" unicode="ż"/>
			<glyph d="M52 715H589V594L212 126V123H596V0H27V109L417 591V594H52ZM147 867H265L313 810H315L364 867H483L389 753H243Z" horiz-adv-x="626" unicode="Ž"/>
			<glyph d="M57 513H449V404L191 112V109H462V0H27V104L291 403V406H57ZM95 702H213L261 633H263L312 702H431L337 576H191Z" horiz-adv-x="485" unicode="ž"/>
			<glyph d="M289 698T375 694V595Q353 597 336 596T308 590T289 573T279 542L260 413H360V323H247L198 -18Q191 -66 173 -95T129 -138T66 -155T-15 -150V-57Q1 -58 14 -57T36 -51T52 -35T61 -4L108 323H30V413H121L142 556Q149 606 169 636T219 681T289 698Z" horiz-adv-x="398" unicode="ƒ"/>
			<glyph d="M252 715H929V590H575V429H881V312H575V131H940V0H426V152H202L151 0H4ZM349 590L238 259H426V590ZM576 878H735L640 753H534Z" horiz-adv-x="972" unicode="Ǽ"/>
			<glyph d="M600 527Q662 527 709 504T788 441T836 343T853 218H481Q489 158 521 124T612 90Q652 90 676 107T711 153H845Q838 119 819 88T771 35T702 -1T613 -15Q545 -15 495 8T412 72H409Q388 50 367 34T323 8T271 -7T206 -12Q164 -12 130 -2T71 28T32 77T19 145Q19 187 35 216T79 264T144 293T225 310Q289 319 319 329T349 368Q349 396 327 412T263 429Q215 429 191 411T164 357H43Q44 391 58 421T99 475T167 512T264 526Q327 526 369 511T438 467Q470 496 510 511T600 527ZM602 422Q548 422 520 392T483 312H711Q708 361 678 391T602 422ZM352 258Q334 247 308 240T257 228Q203 216 177 200T151 148Q151 112 173 97T231 83Q260 83 282 91T320 113T344 144T352 181ZM443 718H602L494 577H388Z" horiz-adv-x="872" unicode="ǽ"/>
			<glyph d="M369 729Q436 729 492 708T591 651L657 725L706 683L635 604Q673 555 693 492T713 356Q713 276 689 207T620 89T511 12T369 -16Q303 -16 248 3T150 58L79 -21L30 21L104 105Q65 154 44 217T24 356Q24 436 48 504T117 623T226 701T369 729ZM370 610Q321 610 284 590T222 536T184 456T172 356Q172 315 179 279T200 212L504 553Q480 580 446 595T370 610ZM539 496L238 157Q262 131 295 117T370 103Q419 103 455 122T516 176T553 256T565 356Q565 435 539 496ZM356 878H515L420 753H314Z" horiz-adv-x="737" unicode="Ǿ"/>
			<glyph d="M512 541L551 504L491 437Q521 402 538 355T555 256Q555 199 535 149T480 63T396 6T287 -15Q240 -15 199 -2T127 34L63 -36L23 1L86 71Q54 107 36 154T19 256Q19 313 38 362T93 448T178 506T287 527Q335 527 376 513T451 474ZM287 424Q224 424 190 377T157 256Q157 203 172 166L374 388Q340 424 287 424ZM403 340L204 120Q237 89 287 89Q350 89 383 135T417 256Q417 303 403 340ZM288 718H447L339 577H233Z" horiz-adv-x="574" unicode="ǿ"/>
			<glyph d="M317 728Q438 728 511 671T593 505H454Q448 559 410 586T316 613Q257 613 222 590T187 529Q187 507 196 492T225 467T274 448T343 431Q398 419 446 404T531 366T589 305T610 210Q610 156 589 113T531 42T443 -1T332 -16Q186 -16 106 45T23 221H165Q173 156 211 128T326 101Q354 101 379 106T423 122T453 150T465 193Q465 219 452 236T417 264T361 284T288 302Q240 313 195 326T117 363T63 422T43 514Q43 567 63 607T120 674T207 714T317 728ZM259 -48H383V-145Q383 -174 372 -195T344 -230T304 -252T257 -263V-219Q279 -214 299 -199T319 -155H259Z" horiz-adv-x="642" unicode="Ș"/>
			<glyph d="M236 527Q338 527 393 481T456 357H333Q328 399 303 415T234 432Q194 432 170 417T146 375Q146 358 158 348T189 332T234 322T287 312Q319 305 351 296T410 269T452 223T468 150Q468 111 452 80T407 29T339 -3T252 -15Q140 -15 79 34T12 166H138Q145 121 174 101T250 81Q295 81 319 97T344 140Q344 158 332 169T302 187T259 198T209 208Q174 215 141 224T83 250T42 294T27 363Q27 405 43 435T87 486T154 517T236 527ZM182 -48H306V-145Q306 -174 295 -195T267 -230T227 -252T180 -263V-219Q202 -214 222 -199T242 -155H182Z" horiz-adv-x="485" unicode="ș"/>
			<glyph d="M18 715H593V593H378V0H233V593H18ZM244 -48H368V-145Q368 -174 357 -195T329 -230T289 -252T242 -263V-219Q264 -214 284 -199T304 -155H244Z" horiz-adv-x="611" unicode="Ț"/>
			<glyph d="M85 673H218V513H306V423H218V151Q218 122 232 111T269 100H295Q302 100 309 101V1Q299 0 287 0Q276 -1 260 -1Q244 -1 224 -1Q199 -1 174 4T130 24T97 62T85 122V423H14V513H85ZM130 -48H254V-145Q254 -174 243 -195T215 -230T175 -252T128 -263V-219Q150 -214 170 -199T190 -155H130Z" horiz-adv-x="332" unicode="ț"/>
			<glyph d="M44 513H180V-20Q180 -65 171 -90T146 -132Q126 -152 97 -160T36 -169Q17 -169 -4 -167T-41 -163V-66Q-20 -66 -4 -64T22 -56T38 -41T44 -13Z" horiz-adv-x="224" unicode="ȷ"/>
			<glyph d="M176 707H322L418 581H300L252 650H250L201 581H82Z" unicode="ˆ"/>
			<glyph d="M82 702H200L248 633H250L299 702H418L324 576H178Z" unicode="ˇ"/>
			<glyph d="M113 689H397V592H113Z" unicode="ˉ"/>
			<glyph d="M122 706H200Q203 684 220 671T269 658Q299 658 317 672T338 706H416Q414 678 403 654T373 612T329 583T270 573Q238 573 212 583T166 611T135 653T122 706Z" unicode="˘"/>
			<glyph d="M182 715H318V593H182Z" unicode="˙"/>
			<glyph d="M250 749Q270 749 287 741T318 721T339 691T347 655Q347 615 318 588T250 561Q210 561 181 588T153 655Q153 674 160 691T181 721T212 741T250 749ZM250 702Q230 702 217 688T205 655Q205 635 217 621T250 608Q270 608 282 621T295 655Q295 675 282 688T250 702Z" unicode="˚"/>
			<glyph d="M197 0H283Q261 -19 248 -34T236 -67Q236 -95 267 -95Q277 -95 284 -93T299 -88H301V-165Q292 -169 279 -171T249 -174Q189 -174 161 -153T133 -93Q133 -59 154 -35T197 0Z" unicode="˛"/>
			<glyph d="M190 695Q208 695 223 689T252 677T277 665T299 660Q313 660 319 668T328 691H400Q400 640 376 607T308 575Q290 575 274 580T245 591T220 603T199 608Q177 608 172 577H100Q100 636 126 665T190 695Z" unicode="˜"/>
			<glyph d="M328 718H457L371 577H288ZM154 718H283L197 577H114Z" unicode="˝"/>
			<glyph d="M256 715H406L643 99V0H21V98ZM329 582Q323 558 317 535Q312 515 305 495T294 461L167 113H493L365 461Q360 475 354 495T343 535Q337 558 331 582Z" horiz-adv-x="664" unicode="Δ"/>
			<glyph d="M369 729Q448 729 511 703T620 630T689 518T713 375Q713 335 706 296T684 222T647 159T594 113V111H706V0H411V107Q489 125 527 189T565 362Q565 476 516 543T370 610Q270 610 221 543T172 362Q172 254 210 189T327 107V0H31V111H144V113Q113 131 90 159T53 222T31 296T24 375Q24 453 48 518T117 630T226 703T369 729Z" horiz-adv-x="737" unicode="Ω"/>
			<glyph d="M44 513H179V194Q179 149 199 125T264 101Q312 101 339 133T367 217V513H503V0H372V60H369Q344 25 313 5T240 -14Q218 -14 205 -9T182 2H179V-168H44Z" horiz-adv-x="547" unicode="μ"/>
			<glyph d="M15 513H590V423H510V146Q510 121 519 110T550 100Q561 100 569 100T579 101V1Q570 0 557 0T522 -1Q493 -1 466 4T420 24T388 62T377 122V423H225V0H92V423H15Z" horiz-adv-x="611" unicode="π"/>
			<glyph d="M5 715H153L246 360Q251 337 256 309T267 259Q272 232 277 204H279Q285 230 290 256Q295 279 300 305T312 356L390 715H530L608 357Q613 333 619 306T630 257Q635 231 641 204H643Q649 231 655 259Q660 282 666 310T678 361L768 715H911L707 0H572L485 383Q480 403 476 425T468 466Q464 488 460 510H458Q455 488 451 466Q448 447 444 425T435 383L347 0H213ZM315 878H474L516 753H410Z" horiz-adv-x="916" unicode="Ẁ"/>
			<glyph d="M4 513H139L201 275Q205 259 209 242T217 211Q221 194 224 179H226Q229 195 233 212Q236 226 239 243T248 276L312 513H428L495 276Q499 259 503 242T511 211Q515 194 519 179H521Q524 194 528 211Q534 241 544 275L609 513H741L588 0H464L396 252Q391 267 387 283T380 312Q376 327 373 341H371Q367 327 363 312Q359 299 355 283T347 252L277 0H154ZM216 718H375L430 577H324Z" horiz-adv-x="745" unicode="ẁ"/>
			<glyph d="M5 715H153L246 360Q251 337 256 309T267 259Q272 232 277 204H279Q285 230 290 256Q295 279 300 305T312 356L390 715H530L608 357Q613 333 619 306T630 257Q635 231 641 204H643Q649 231 655 259Q660 282 666 310T678 361L768 715H911L707 0H572L485 383Q480 403 476 425T468 466Q464 488 460 510H458Q455 488 451 466Q448 447 444 425T435 383L347 0H213ZM446 878H605L510 753H404Z" horiz-adv-x="916" unicode="Ẃ"/>
			<glyph d="M4 513H139L201 275Q205 259 209 242T217 211Q221 194 224 179H226Q229 195 233 212Q236 226 239 243T248 276L312 513H428L495 276Q499 259 503 242T511 211Q515 194 519 179H521Q524 194 528 211Q534 241 544 275L609 513H741L588 0H464L396 252Q391 267 387 283T380 312Q376 327 373 341H371Q367 327 363 312Q359 299 355 283T347 252L277 0H154ZM373 718H532L424 577H318Z" horiz-adv-x="745" unicode="ẃ"/>
			<glyph d="M5 715H153L246 360Q251 337 256 309T267 259Q272 232 277 204H279Q285 230 290 256Q295 279 300 305T312 356L390 715H530L608 357Q613 333 619 306T630 257Q635 231 641 204H643Q649 231 655 259Q660 282 666 310T678 361L768 715H911L707 0H572L485 383Q480 403 476 425T468 466Q464 488 460 510H458Q455 488 451 466Q448 447 444 425T435 383L347 0H213ZM496 867H624V753H496ZM293 867H421V753H293Z" horiz-adv-x="916" unicode="Ẅ"/>
			<glyph d="M4 513H139L201 275Q205 259 209 242T217 211Q221 194 224 179H226Q229 195 233 212Q236 226 239 243T248 276L312 513H428L495 276Q499 259 503 242T511 211Q515 194 519 179H521Q524 194 528 211Q534 241 544 275L609 513H741L588 0H464L396 252Q391 267 387 283T380 312Q376 327 373 341H371Q367 327 363 312Q359 299 355 283T347 252L277 0H154ZM420 695H548V581H420ZM197 695H325V581H197Z" horiz-adv-x="745" unicode="ẅ"/>
			<glyph d="M4 715H162L270 503Q278 486 286 468T302 436Q310 418 317 401H319Q327 418 335 436Q342 451 350 468T367 503L473 715H625L387 276V0H242V276ZM171 878H330L372 753H266Z" horiz-adv-x="629" unicode="Ỳ"/>
			<glyph d="M2 513H145L221 282Q227 264 232 244T243 208Q248 189 254 170H256Q260 189 265 208Q269 225 274 244T286 282L358 513H495L316 -13Q301 -56 285 -85T249 -133T201 -160T135 -168H55V-61H103Q144 -61 161 -42T179 9Q179 19 177 31T170 60T158 97T140 148ZM92 718H251L306 577H200Z" horiz-adv-x="497" unicode="ỳ"/>
			<glyph d="" horiz-adv-x="55" unicode=" "/>
			<glyph d="M0 313H500V196H0Z" unicode="–"/>
			<glyph d="M100 313H900V196H100Z" horiz-adv-x="1000" unicode="—"/>
			<glyph d="M169 718V671Q157 667 145 659T123 640T107 613T101 580H167V450H32V568Q32 602 44 628T75 673T119 703T169 718Z" horiz-adv-x="201" unicode="‘"/>
			<glyph d="M34 715H169V597Q169 563 157 537T125 492T81 462T32 447V494Q44 498 56 505T77 524T93 551T100 585H34Z" horiz-adv-x="201" unicode="’"/>
			<glyph d="M34 130H169V12Q169 -22 157 -48T125 -93T81 -123T32 -138V-91Q44 -87 56 -79T77 -60T93 -33T100 0H34Z" horiz-adv-x="201" unicode="‚"/>
			<glyph d="M367 718V671Q355 667 343 659T321 640T305 613T299 580H365V450H230V568Q230 602 242 628T273 673T317 703T367 718ZM169 718V671Q157 667 145 659T123 640T107 613T101 580H167V450H32V568Q32 602 44 628T75 673T119 703T169 718Z" horiz-adv-x="399" unicode="“"/>
			<glyph d="M232 715H367V597Q367 563 355 537T323 492T279 462T230 447V494Q242 498 254 505T275 524T291 551T298 585H232ZM34 715H169V597Q169 563 157 537T125 492T81 462T32 447V494Q44 498 56 505T77 524T93 551T100 585H34Z" horiz-adv-x="399" unicode="”"/>
			<glyph d="M232 130H367V12Q367 -22 355 -48T323 -93T279 -123T230 -138V-91Q242 -87 254 -79T275 -60T291 -33T298 0H232ZM34 130H169V12Q169 -22 157 -48T125 -93T81 -123T32 -138V-91Q44 -87 56 -79T77 -60T93 -33T100 0H34Z" horiz-adv-x="399" unicode="„"/>
			<glyph d="M217 715H348V519H531V412H348V-117H217V412H34V519H217Z" horiz-adv-x="565" unicode="†"/>
			<glyph d="M217 715H348V519H531V412H348V186H531V79H348V-117H217V79H34V186H217V412H34V519H217Z" horiz-adv-x="565" unicode="‡"/>
			<glyph d="M176 461Q204 461 229 450T274 420T304 375T315 321Q315 292 304 267T274 223T229 193T176 182Q147 182 121 193T77 223T47 267T36 321Q36 350 47 375T77 420T121 450T176 461Z" horiz-adv-x="351" unicode="•"/>
			<glyph d="M540 145H686V0H540ZM36 145H182V0H36ZM288 145H434V0H288Z" horiz-adv-x="722" unicode="…"/>
			<glyph d="M195 700Q234 700 266 686T321 646T357 583T370 500Q370 455 357 418T321 355T266 315T195 301Q157 301 124 315T68 355T32 418T19 500Q19 546 32 583T69 646T125 686T195 700ZM634 383Q673 383 705 369T760 329T796 266T809 183Q809 138 796 101T760 38T705 -2T634 -16Q596 -16 563 -2T507 38T471 101T458 183Q458 229 471 266T508 329T564 369T634 383ZM1027 383Q1066 383 1098 369T1153 329T1189 266T1202 183Q1202 138 1189 101T1153 38T1098 -2T1027 -16Q989 -16 956 -2T900 38T864 101T851 183Q851 229 864 266T901 329T957 369T1027 383ZM547 686H632L281 0H196ZM195 624Q160 624 143 589T126 500Q126 446 143 412T195 378Q230 378 247 412T264 500Q264 554 247 589T195 624ZM634 307Q599 307 582 272T565 183Q565 129 582 95T634 61Q669 61 686 95T703 183Q703 237 686 272T634 307ZM1027 307Q992 307 975 272T958 183Q958 129 975 95T1027 61Q1062 61 1079 95T1096 183Q1096 237 1079 272T1027 307Z" horiz-adv-x="1221" unicode="‰"/>
			<glyph d="M60 715H179L141 464H22Z" horiz-adv-x="201" unicode="′"/>
			<glyph d="M241 715H360L322 464H203ZM60 715H179L141 464H22Z" horiz-adv-x="382" unicode="″"/>
			<glyph d="M218 461V330L130 258V256L218 184V55L54 195V321Z" horiz-adv-x="277" unicode="‹"/>
			<glyph d="M59 461L223 321V195L59 55V186L147 258V260L59 332Z" horiz-adv-x="277" unicode="›"/>
			<glyph d="M325 715H415L-82 0H-171Z" horiz-adv-x="244" unicode="⁄"/>
			<glyph d="M210 723Q250 723 284 708T342 667T379 602T393 516Q393 469 379 430T342 365T284 323T210 309Q169 309 135 323T77 365T38 430T25 516Q25 563 39 601T77 667T136 708T210 723ZM210 642Q172 642 154 609T137 516Q137 456 154 423T210 391Q247 391 264 423T282 516Q282 576 264 609T210 642Z" horiz-adv-x="418" unicode="⁰"/>
			<glyph d="M214 720H317V478H376V402H317V318H215V402H26V493ZM214 611L105 479V478H215V611Z" horiz-adv-x="399" unicode="⁴"/>
			<glyph d="M76 715H327V633H147L134 566H136Q148 577 168 584T217 591Q247 591 272 581T315 553T343 510T353 454Q353 388 308 348T189 309Q154 309 124 317T72 342T36 381T20 435H120Q125 413 142 402T187 391Q215 391 230 408T245 452Q245 482 229 498T187 515Q149 515 131 492H36Z" horiz-adv-x="381" unicode="⁵"/>
			<glyph d="M205 723Q268 723 306 694T354 615H250Q246 627 236 636T203 646Q171 646 152 620T131 549H132Q147 566 168 576T223 586Q251 586 277 577T323 550T354 508T366 451Q366 419 354 393T320 348T269 319T204 309Q160 309 127 324T71 366T37 430T26 514Q25 612 76 672Q98 697 129 710T205 723ZM199 515Q170 515 152 497T134 451Q134 423 152 406T199 389Q226 389 243 406T261 451Q261 479 244 497T199 515Z" horiz-adv-x="387" unicode="⁶"/>
			<glyph d="M22 715H324V637Q298 611 274 577T233 503T204 416T192 318H79Q81 370 93 416T125 501T169 572T217 628V629H22Z" horiz-adv-x="352" unicode="⁷"/>
			<glyph d="M195 723Q266 723 307 694T348 615Q348 589 333 568T294 535V533Q328 521 347 494T366 434Q366 374 320 341T195 309Q116 309 69 341T23 431Q23 465 42 491T96 531V533Q40 558 40 613Q40 663 82 693T195 723ZM195 496Q164 496 146 479T129 437Q129 412 146 397T194 382Q225 382 242 397T260 437Q260 463 243 479T195 496ZM194 655Q167 655 153 641T139 608Q139 587 153 573T194 560Q221 560 235 573T249 608Q249 628 235 641T194 655Z" horiz-adv-x="389" unicode="⁸"/>
			<glyph d="M182 723Q227 723 260 708T316 666T349 601T360 518Q361 468 349 429T312 360Q290 335 258 321T184 308Q118 308 77 337T27 417H131Q135 406 147 396T182 386Q214 386 233 407T255 479H254Q239 462 217 452T163 442Q134 442 108 451T63 478T32 521T21 579Q21 611 33 637T66 683T117 712T182 723ZM186 644Q159 644 141 625T123 579Q123 551 140 532T186 514Q215 514 232 532T250 579Q250 607 232 625T186 644Z" horiz-adv-x="386" unicode="⁹"/>
			<glyph d="M210 255Q250 255 284 240T342 199T379 134T393 48Q393 1 379 -37T342 -103T284 -144T210 -159Q169 -159 135 -144T77 -103T38 -37T25 48Q25 95 39 133T77 199T136 240T210 255ZM210 179Q172 179 153 144T134 48Q134 -12 153 -47T210 -82Q247 -82 266 -47T285 48Q285 108 265 143T210 179Z" horiz-adv-x="418" unicode="₀"/>
			<glyph d="M132 250H217V-150H113V99H22V170Q65 172 94 191T132 250Z" horiz-adv-x="267" unicode="₁"/>
			<glyph d="M193 255Q229 255 257 245T303 217T332 177T342 128Q342 83 321 55T270 6Q241 -15 210 -32T165 -68H344V-150H26Q27 -91 55 -53T122 12Q147 30 168 43T206 68T230 93T239 124Q239 146 227 159T190 173Q162 173 145 154T129 100H32Q32 175 75 215T193 255Z" horiz-adv-x="372" unicode="₂"/>
			<glyph d="M190 255Q256 255 297 225T339 143Q339 113 321 94T278 65V63Q310 52 331 28T352 -35Q352 -67 339 -90T303 -129T251 -151T188 -159Q101 -159 60 -119T19 -15H122Q123 -45 137 -64T186 -83Q215 -83 229 -68T243 -31Q243 20 180 20H156V92H177Q234 92 234 137Q234 157 222 168T187 180Q157 180 145 163T131 123H31Q33 180 74 217T190 255Z" horiz-adv-x="374" unicode="₃"/>
			<glyph d="M214 252H317V10H376V-66H317V-150H215V-66H26V25ZM214 143L105 11V10H215V143Z" horiz-adv-x="399" unicode="₄"/>
			<glyph d="M76 247H327V168H147L133 95H135Q147 106 167 113T217 120Q245 120 270 110T313 83T342 41T353 -14Q353 -47 341 -74T307 -119T255 -148T189 -159Q154 -159 124 -150T72 -126T36 -86T20 -33H116Q121 -57 140 -69T187 -81Q215 -81 232 -63T250 -16Q250 16 231 32T187 48Q167 48 151 41T128 24H36Z" horiz-adv-x="381" unicode="₅"/>
			<glyph d="M202 255Q265 255 302 226T349 147H252Q248 161 237 171T203 182Q169 182 149 155T126 81H127Q144 98 165 108T218 118Q247 118 273 109T318 82T349 39T361 -18Q361 -50 349 -76T316 -120T265 -149T201 -159Q157 -159 124 -144T68 -102T35 -37T24 46Q22 146 72 203Q94 228 126 241T202 255ZM195 48Q165 48 147 29T129 -18Q129 -47 147 -65T195 -84Q224 -84 241 -65T259 -18Q259 11 241 29T195 48Z" horiz-adv-x="385" unicode="₆"/>
			<glyph d="M22 247H324V169Q298 143 274 109T233 35T204 -51T192 -150H79Q81 -98 93 -52T125 33T169 104T217 160V161H22Z" horiz-adv-x="352" unicode="₇"/>
			<glyph d="M195 255Q266 255 307 226T348 147Q348 121 333 100T294 67V65Q328 53 347 26T366 -34Q366 -94 320 -126T195 -159Q116 -159 69 -126T23 -37Q23 -3 42 23T96 63V65Q40 90 40 145Q40 195 82 225T195 255ZM195 28Q164 28 146 11T129 -31Q129 -56 146 -71T194 -86Q225 -86 242 -71T260 -31Q260 -5 243 11T195 28ZM194 187Q167 187 153 173T139 140Q139 119 153 105T194 92Q221 92 235 105T249 140Q249 160 235 173T194 187Z" horiz-adv-x="389" unicode="₈"/>
			<glyph d="M187 255Q222 255 251 244T302 215Q359 164 359 50Q359 2 349 -39T314 -109Q292 -134 261 -147T189 -160Q123 -160 82 -129T34 -51H132Q137 -65 150 -75T187 -86Q254 -86 258 9H257Q242 -7 220 -17T169 -28Q139 -28 112 -18T66 10T34 54T23 112Q23 144 35 170T69 215T121 244T187 255ZM189 179Q159 179 140 160T122 113Q122 84 139 65T188 47Q218 47 236 65T255 112Q255 141 236 160T189 179Z" horiz-adv-x="384" unicode="₉"/>
			<glyph d="M357 700Q415 700 460 682T537 634T588 561T612 468H476Q468 523 438 554T357 586Q298 586 262 543T214 428H391V369H208Q207 362 207 355Q207 348 207 341Q207 332 207 323Q207 314 208 306H391V247H215Q229 175 266 137T362 99Q420 99 449 138T486 238H618Q615 182 596 135T545 55T466 3T360 -16Q304 -16 256 2T171 55T108 137T72 247H18V306H65Q64 314 64 323Q64 332 64 341Q64 348 64 355Q64 362 65 369H18V428H71Q81 489 105 539T167 625T252 680T357 700Z" horiz-adv-x="630" unicode="€"/>
			<glyph d="M222 723Q294 723 329 686T364 571Q364 512 352 463T318 376T266 306T201 251V157Q201 124 214 112T258 100Q268 100 279 100Q291 100 300 101Q311 102 321 103V3Q304 2 286 1Q271 0 253 0T222 -1Q186 -1 157 4T109 25T78 66T68 133V187Q54 182 41 178T14 171V260Q28 265 41 270T68 282V569Q68 612 80 641T113 689T162 715T222 723ZM234 630Q201 630 201 569V370Q206 376 210 381T219 394Q242 428 254 474T266 572Q266 604 258 617T234 630Z" horiz-adv-x="383" unicode="ℓ"/>
			<glyph d="M314 715H422L471 539H473L523 715H631V436H559V617H557L502 436H441L387 617H385V436H314ZM31 715H273V651H191V436H113V651H31Z" horiz-adv-x="679" unicode="™"/>
			<glyph d="M369 729Q448 729 511 703T620 630T689 518T713 375Q713 335 706 296T684 222T647 159T594 113V111H706V0H411V107Q489 125 527 189T565 362Q565 476 516 543T370 610Q270 610 221 543T172 362Q172 254 210 189T327 107V0H31V111H144V113Q113 131 90 159T53 222T31 296T24 375Q24 453 48 518T117 630T226 703T369 729Z" horiz-adv-x="737" unicode="Ω"/>
			<glyph d="M322 627Q376 627 419 611T495 568Q550 521 571 454T591 301H170V88Q197 64 235 50T327 37Q415 37 463 76T536 186H587Q577 143 556 107T502 44T426 3T327 -11Q256 -11 200 12T107 78T49 179T29 309Q29 379 50 437T111 538T203 603T322 627ZM322 582Q273 582 234 567T170 530V345H453V542Q430 560 397 571T322 582Z" horiz-adv-x="621" unicode="℮"/>
			<glyph d="M135 718H220V318H116V567H25V638Q68 640 97 659T135 718ZM593 715H683L186 0H97ZM656 405Q722 405 763 375T805 293Q805 263 787 244T744 215V213Q776 202 797 178T818 115Q818 83 805 59T769 21T717 -1T654 -9Q567 -9 526 30T485 135H588Q589 105 603 86T652 67Q681 67 695 81T709 119Q709 170 646 170H622V242H643Q700 242 700 287Q700 307 688 318T653 330Q623 330 611 313T597 273H497Q499 330 540 367T656 405Z" horiz-adv-x="843" unicode="⅓"/>
			<glyph d="M196 723Q232 723 260 713T306 685T335 645T345 596Q345 551 322 524T270 476Q241 455 211 437T166 400H347V318H29Q30 377 58 415T125 480Q150 498 171 511T209 536T233 561T242 592Q242 614 230 627T193 641Q165 641 148 622T132 568H35Q35 643 78 683T196 723ZM675 715H765L268 0H179ZM726 405Q792 405 833 375T875 293Q875 263 857 244T814 215V213Q846 202 867 178T888 115Q888 83 875 59T839 21T787 -1T724 -9Q637 -9 596 30T555 135H658Q659 105 673 86T722 67Q751 67 765 81T779 119Q779 170 716 170H692V242H713Q770 242 770 287Q770 307 758 318T723 330Q693 330 681 313T667 273H567Q569 330 610 367T726 405Z" horiz-adv-x="913" unicode="⅔"/>
			<glyph d="M135 718H220V318H116V567H25V638Q68 640 97 659T135 718ZM593 715H683L186 0H97ZM658 405Q729 405 770 376T811 297Q811 271 796 250T757 217V215Q791 203 810 176T829 116Q829 56 783 23T658 -9Q579 -9 532 23T486 113Q486 147 505 173T559 213V215Q503 240 503 295Q503 345 545 375T658 405ZM658 178Q627 178 609 161T592 119Q592 94 609 79T657 64Q688 64 705 79T723 119Q723 145 706 161T658 178ZM657 337Q630 337 616 323T602 290Q602 269 616 255T657 242Q684 242 698 255T712 290Q712 310 698 323T657 337Z" horiz-adv-x="855" unicode="⅛"/>
			<glyph d="M193 723Q259 723 300 693T342 611Q342 581 324 562T281 533V531Q313 520 334 496T355 433Q355 401 342 377T306 339T254 316T191 309Q104 309 63 348T22 453H125Q126 423 140 404T189 385Q218 385 232 399T246 437Q246 488 183 488H159V560H180Q237 560 237 605Q237 625 225 636T190 648Q160 648 148 631T134 591H34Q36 648 77 685T193 723ZM653 715H743L246 0H157ZM703 405Q774 405 815 376T856 297Q856 271 841 250T802 217V215Q836 203 855 176T874 116Q874 56 828 23T703 -9Q624 -9 577 23T531 113Q531 147 550 173T604 213V215Q548 240 548 295Q548 345 590 375T703 405ZM703 178Q672 178 654 161T637 119Q637 94 654 79T702 64Q733 64 750 79T768 119Q768 145 751 161T703 178ZM702 337Q675 337 661 323T647 290Q647 269 661 255T702 242Q729 242 743 255T757 290Q757 310 743 323T702 337Z" horiz-adv-x="900" unicode="⅜"/>
			<glyph d="M79 715H330V633H150L137 566H139Q151 577 171 584T220 591Q250 591 275 581T318 553T346 510T356 454Q356 388 311 348T192 309Q157 309 127 317T75 342T39 381T23 435H123Q128 413 145 402T190 391Q218 391 233 408T248 452Q248 482 232 498T190 515Q152 515 134 492H39ZM646 715H736L239 0H150ZM695 405Q766 405 807 376T848 297Q848 271 833 250T794 217V215Q828 203 847 176T866 116Q866 56 820 23T695 -9Q616 -9 569 23T523 113Q523 147 542 173T596 213V215Q540 240 540 295Q540 345 582 375T695 405ZM695 178Q664 178 646 161T629 119Q629 94 646 79T694 64Q725 64 742 79T760 119Q760 145 743 161T695 178ZM694 337Q667 337 653 323T639 290Q639 269 653 255T694 242Q721 242 735 255T749 290Q749 310 735 323T694 337Z" horiz-adv-x="892" unicode="⅝"/>
			<glyph d="M25 715H327V637Q301 611 277 577T236 503T207 416T195 318H82Q84 370 96 416T128 501T172 572T220 628V629H25ZM558 715H648L151 0H62ZM621 405Q692 405 733 376T774 297Q774 271 759 250T720 217V215Q754 203 773 176T792 116Q792 56 746 23T621 -9Q542 -9 495 23T449 113Q449 147 468 173T522 213V215Q466 240 466 295Q466 345 508 375T621 405ZM621 178Q590 178 572 161T555 119Q555 94 572 79T620 64Q651 64 668 79T686 119Q686 145 669 161T621 178ZM620 337Q593 337 579 323T565 290Q565 269 579 255T620 242Q647 242 661 255T675 290Q675 310 661 323T620 337Z" horiz-adv-x="818" unicode="⅞"/>
			<glyph d="M139 722Q233 717 307 686T433 602T512 473T539 304Q539 232 522 173T473 72T389 8T269 -14Q209 -14 164 2T89 49T44 121T29 215Q29 270 46 316T95 394T170 445T264 463Q309 463 340 450T391 417Q382 462 360 494T305 549T229 584T139 603ZM292 360Q237 360 200 323T164 213Q164 148 194 120T271 92Q302 92 326 104T366 138T390 187T398 246Q398 305 368 332T292 360Z" horiz-adv-x="572" unicode="∂"/>
			<glyph d="M256 715H406L643 99V0H21V98ZM329 582Q323 558 317 535Q312 515 305 495T294 461L167 113H493L365 461Q360 475 354 495T343 535Q337 558 331 582Z" horiz-adv-x="664" unicode="∆"/>
			<glyph d="M58 715H643V-100H498V593H203V-100H58Z" horiz-adv-x="701" unicode="∏"/>
			<glyph d="M34 715H558V597H196V595L458 349V289L189 19V17H568V-100H34V25L316 315V317L34 590Z" horiz-adv-x="608" unicode="∑"/>
			<glyph d="M35 378H534V278H35Z" horiz-adv-x="569" unicode="−"/>
			<glyph d="M325 715H415L-82 0H-171Z" horiz-adv-x="244" unicode="∕"/>
			<glyph d="M36 388H182V243H36Z" horiz-adv-x="218" unicode="∙"/>
			<glyph d="M486 715H616L352 -100H233L102 215H17V333H191L246 194Q254 172 262 152T275 116Q281 98 286 81H288Q292 98 296 116Q300 132 305 152T319 195Z" horiz-adv-x="622" unicode="√"/>
			<glyph d="M184 485Q215 485 241 476T289 452T329 415T365 369Q399 420 439 452T540 485Q576 485 605 472T654 435T686 378T698 305Q698 264 686 231T654 174T605 137T540 124Q480 124 439 156T365 240Q348 215 329 193T289 156T241 132T184 124Q145 124 115 138T66 178T37 236T27 305Q27 341 37 373T67 431T116 470T184 485ZM196 385Q163 385 148 361T134 305Q134 271 148 247T196 224Q228 224 251 248T293 304Q274 336 251 360T196 385ZM529 385Q499 385 477 360T436 304Q455 273 477 248T529 224Q562 224 577 247T592 305Q592 338 577 361T529 385Z" horiz-adv-x="725" unicode="∞"/>
			<glyph d="M268 741Q298 741 318 738T355 730V628H352Q344 631 331 633T299 636Q269 636 253 625T238 582V-30Q238 -70 229 -94T205 -135Q182 -158 152 -167T72 -176Q42 -176 21 -173T-15 -165V-63H-12Q-4 -66 9 -68T41 -71Q71 -71 86 -60T102 -17V595Q102 635 110 659T135 700Q158 723 188 732T268 741Z" horiz-adv-x="337" unicode="∫"/>
			<glyph d="M184 481Q208 481 238 476T297 464T353 453T396 448Q414 448 421 456T431 480H526Q525 419 495 380T401 342Q373 342 341 347T280 358T224 369T183 374Q153 374 148 339H53Q54 411 90 446T184 481ZM184 287Q208 287 238 282T297 270T353 259T396 254Q414 254 421 262T431 286H526Q525 225 495 186T401 148Q373 148 341 153T280 164T224 175T183 180Q153 180 148 145H53Q54 217 90 252T184 287Z" horiz-adv-x="562" unicode="≈"/>
			<glyph d="M350 543H442L401 456H520V358H356L312 263H520V165H266L226 78H134L174 165H56V263H220L264 358H56V456H309Z" horiz-adv-x="562" unicode="≠"/>
			<glyph d="M455 541V432L238 360Q225 355 209 351T178 342Q160 337 143 332V330Q160 325 178 321Q193 317 209 312T238 304L455 235V124L45 271V394ZM45 98H455V0H45Z" unicode="≤"/>
			<glyph d="M45 541L455 394V271L45 124V233L262 305Q274 309 290 313T322 323Q340 328 357 333V335Q340 340 322 344Q307 348 290 352T262 361L45 430ZM45 98H455V0H45Z" unicode="≥"/>
			<glyph d="M408 728Q485 728 552 700T668 622T746 503T775 355Q775 275 746 206T668 88T552 11T408 -17Q331 -17 263 11T146 88T68 206T40 355Q40 435 68 503T146 622T263 700T408 728ZM408 678Q342 678 285 653T186 586T121 483T98 355Q98 286 121 226T186 124T285 56T408 32Q474 32 530 56T628 124T693 226T717 355Q717 424 693 483T628 586T530 653T408 678ZM262 557H450Q488 557 516 546T563 518Q603 481 603 418Q603 388 593 363T565 321T521 293T464 283H366V144H262ZM366 472V363H440Q469 363 484 377T499 417Q499 472 440 472Z" horiz-adv-x="815" unicode="Ⓟ"/>
			<glyph d="M219 715H340L542 357L341 0H220L18 358ZM278 593L156 360L280 122H282L403 354L280 593Z" horiz-adv-x="560" unicode="◊"/>
			<glyph d="M309 714V609Q261 611 239 601T217 551V513H309V419H217V0H81V419H11V513H81V559Q81 606 98 638T145 688T218 713T309 714ZM370 513H506V0H370ZM370 715H506V593H370Z" horiz-adv-x="550" unicode=""/>
			<glyph d="M312 714V609Q264 611 242 601T220 551V513H312V419H220V0H84V419H14V513H84V559Q84 606 101 638T148 688T221 713T312 714ZM373 715H509V0H373Z" horiz-adv-x="555" unicode=""/>
			<glyph d="M65 716H781V0H65ZM351 594V431H183V287H351V118H495V287H663V431H495V594Z" horiz-adv-x="846" unicode=""/>
			<glyph d="M601 714V609Q553 611 531 601T509 551V513H601V419H509V0H373V419H220V0H84V419H14V513H84V555Q84 602 101 634T148 684T219 709T307 710V605Q262 607 241 597T220 547V513H373V559Q373 606 390 638T437 688T510 713T601 714Z" horiz-adv-x="619" unicode="ﬀ"/>
			<glyph d="M309 714V609Q261 611 239 601T217 551V513H309V419H217V0H81V419H11V513H81V559Q81 606 98 638T145 688T218 713T309 714ZM370 513H506V0H370ZM370 715H506V593H370Z" horiz-adv-x="550" unicode="ﬁ"/>
			<glyph d="M312 714V609Q264 611 242 601T220 551V513H312V419H220V0H84V419H14V513H84V559Q84 606 101 638T148 688T221 713T312 714ZM373 715H509V0H373Z" horiz-adv-x="555" unicode="ﬂ"/>
			<glyph d="M601 714V609Q553 611 531 601T509 551V513H601V419H509V0H373V419H220V0H84V419H14V513H84V555Q84 602 101 634T148 684T219 709T307 710V605Q262 607 241 597T220 547V513H373V559Q373 606 390 638T437 688T510 713T601 714ZM662 513H798V0H662ZM662 715H798V593H662Z" horiz-adv-x="842" unicode="ﬃ"/>
			<glyph d="M601 714V609Q553 611 531 601T509 551V513H601V419H509V0H373V419H220V0H84V419H14V513H84V555Q84 602 101 634T148 684T219 709T307 710V605Q262 607 241 597T220 547V513H373V559Q373 606 390 638T437 688T510 713T601 714ZM664 715H800V0H664Z" horiz-adv-x="846" unicode="ﬄ"/>
			<glyph d="" horiz-adv-x="0" unicode="﻿"/>
		</font>
</defs>
</svg>
