<?xml version="1.0" encoding="UTF-8"?>
<svg height="100%" width="100%" xmlns="http://www.w3.org/2000/svg">
	<defs>
		<font horiz-adv-x="492" id="web">
			<font-face alphabetic="0" ascent="935" descent="-263" font-family="" panose-1="2 11 6 4 2 2 2 9 2 4"/>
			<missing-glyph d="M80 700H420V0H80ZM144 654V54H356V654Z"/>
			<glyph d="" horiz-adv-x="174" unicode=" "/>
			<glyph d="M143 715H283L251 547L147 209H82L113 557ZM32 145H176L148 0H4Z" horiz-adv-x="250" unicode="!"/>
			<glyph d="M307 715H424L376 464H259ZM128 715H245L197 464H80Z" horiz-adv-x="376" unicode="&quot;"/>
			<glyph d="M247 686H338L290 513H396L445 686H536L487 513H583L553 408H458L425 287H520L490 183H395L345 0H253L304 183H198L147 0H55L106 183H11L41 287H136L168 408H73L104 513H198ZM260 408L227 287H334L366 408Z" horiz-adv-x="562" unicode="#"/>
			<glyph d="M362 759H421L408 694Q448 687 482 671T540 630T578 569T589 486H459Q461 524 442 549T387 585L353 411Q402 394 439 375T502 332T540 277T553 205Q553 151 532 110T474 42T386 1T278 -12H271L255 -97H196L213 -8Q166 -2 126 14T57 58T14 124T2 214H133Q130 160 157 134T234 100L272 298Q228 314 193 331T133 371T94 423T81 494Q81 543 99 581T151 646T231 686T335 700H350ZM327 277L292 97Q317 98 339 103T379 120T406 148T416 188Q416 203 412 214T399 236T371 256T327 277ZM330 593Q309 593 288 589T250 575T223 550T212 512Q211 483 230 466T298 431Z" horiz-adv-x="582" unicode="$"/>
			<glyph d="M248 700Q287 700 316 687T364 652T394 601T404 540Q404 491 390 447T352 371T291 320T209 301Q171 301 142 314T93 348T64 399T54 461Q54 510 67 553T106 629T168 681T248 700ZM624 686H710L214 0H128ZM246 624Q223 624 206 609T179 569T162 515T157 455Q157 440 159 426T167 401T183 383T211 377Q234 377 251 392T279 431T295 486T301 548Q301 561 298 574T289 599T272 617T246 624ZM627 383Q666 383 695 370T743 335T773 284T783 223Q783 174 769 130T731 54T670 3T588 -16Q550 -16 521 -3T472 31T443 82T433 144Q433 193 446 236T485 312T547 364T627 383ZM625 307Q602 307 585 292T558 252T541 198T536 138Q536 123 538 109T546 84T562 66T590 60Q613 60 630 75T658 114T674 169T680 231Q680 244 677 257T668 282T651 300T625 307Z" horiz-adv-x="804" unicode="%"/>
			<glyph d="M347 710Q379 710 411 701T469 673T511 624T528 553Q528 518 516 490T483 440T433 400T372 368L449 237Q463 263 475 296T498 367H617Q601 295 573 235T512 130L591 0H436L411 41Q379 19 335 2T232 -15Q185 -15 143 -3T71 33T22 95T4 182Q4 225 20 260T62 322T123 370T194 403Q176 432 165 464T155 533Q155 572 169 605T208 661T269 697T347 710ZM247 318Q228 310 209 298T177 271T154 235T145 191Q145 147 171 120T244 94Q276 94 304 104T358 134ZM344 608Q318 608 300 588T283 539Q283 515 293 492T320 447Q352 463 376 486T400 547Q400 570 386 589T344 608Z" horiz-adv-x="637" unicode="&amp;"/>
			<glyph d="M128 715H245L197 464H80Z" horiz-adv-x="198" unicode="'"/>
			<glyph d="M313 754H434Q382 693 338 624T264 481T216 328T199 169Q199 80 213 9T252 -131H142Q109 -64 87 15T66 186Q66 269 83 346T133 494T210 630T313 754Z" horiz-adv-x="340" unicode="("/>
			<glyph d="M108 754H218Q251 687 272 607T294 437Q294 354 276 277T227 129T149 -7T47 -131H-74Q-22 -70 21 -1T96 141T144 294T161 454Q161 543 147 614T108 754Z" horiz-adv-x="340" unicode=")"/>
			<glyph d="M242 715H318L296 593L404 621L417 551L305 524L354 429L286 390L237 488L151 394L98 443L184 533L88 574L122 641L220 598Z" horiz-adv-x="384" unicode="*"/>
			<glyph d="M290 581H393L354 377H548L529 279H335L295 75H192L232 279H38L57 377H251Z" horiz-adv-x="560" unicode="+"/>
			<glyph d="M13 145H157L129 3Q112 -80 65 -118T-47 -166L-37 -116Q-1 -102 23 -75T56 0H-15Z" horiz-adv-x="215" unicode=","/>
			<glyph d="M41 304H308L286 191H19Z" horiz-adv-x="334" unicode="-"/>
			<glyph d="M13 145H157L129 0H-15Z" horiz-adv-x="215" unicode="."/>
			<glyph d="M371 715H483L75 0H-37Z" horiz-adv-x="407" unicode="/"/>
			<glyph d="M372 700Q430 700 475 679T552 622T600 534T616 419Q616 340 597 262T539 123T438 22T290 -16Q229 -16 182 4T103 61T54 150T38 265Q38 346 60 424T124 563T228 662T372 700ZM361 585Q326 585 299 569T251 526T217 465T194 394T181 323T177 259Q177 228 182 199T200 148T236 112T295 99Q347 99 382 132T438 215T468 321T477 425Q477 456 472 485T454 536T418 571T361 585Z" horiz-adv-x="622" unicode="0"/>
			<glyph d="M272 690H388L254 0H119L211 478H59L77 568Q113 569 143 575T199 596T242 633T272 690Z" horiz-adv-x="376" unicode="1"/>
			<glyph d="M328 699Q374 699 413 686T482 647T527 585T543 503Q543 451 526 411T480 341T416 285T341 239Q314 224 286 208T233 177T189 145T159 111H481L460 0H-24Q-15 53 4 94T50 167T109 225T176 272Q231 306 273 331T344 380T387 431T402 497Q402 534 380 559T317 584Q268 584 235 551T189 444H62Q76 566 146 632T328 699Z" horiz-adv-x="538" unicode="2"/>
			<glyph d="M331 699Q383 699 424 686T493 650T537 595T552 526Q552 461 514 419T415 361V359Q437 352 457 340T492 309T515 265T524 207Q524 158 505 117T452 47T370 1T265 -15Q200 -15 151 4T72 56T27 135T18 233H148Q144 171 173 132T270 93Q325 93 355 124T386 209Q386 257 357 284T269 312H239L259 414H302Q349 414 382 438T415 513Q415 548 392 572T325 596Q268 596 237 560T198 473H68Q74 522 94 563T149 635T229 682T331 699Z" horiz-adv-x="558" unicode="3"/>
			<glyph d="M414 693H549L465 258H568L546 151H443L415 0H285L313 151H2L31 296ZM383 520L136 261V258H335L385 520Z" horiz-adv-x="585" unicode="4"/>
			<glyph d="M159 685H572L550 572H238L192 418H194Q219 440 253 453T330 467Q373 467 410 452T474 411T516 346T532 260Q532 197 509 146T448 59T357 4T245 -15Q195 -15 150 -1T72 39T18 106T-1 198H134Q137 153 167 125T252 98Q280 98 305 107T349 136T379 181T390 243Q390 296 361 326T279 356Q245 356 218 344T170 311H48Z" horiz-adv-x="559" unicode="5"/>
			<glyph d="M366 699Q407 699 444 689T510 658T557 603T579 522H450Q447 557 424 576T358 596Q325 596 298 581T250 539T213 476T188 398H190Q218 430 258 450T352 470Q393 470 429 455T494 411T538 342T554 251Q554 194 533 145T477 61T392 5T284 -15Q224 -15 177 4T99 60T50 146T35 259Q35 305 43 356T69 456T111 548T172 624Q211 660 257 679T366 699ZM309 363Q279 363 252 352T207 322T177 275T166 213Q166 159 197 125T283 91Q343 91 382 131T422 240Q422 293 394 328T309 363Z" horiz-adv-x="575" unicode="6"/>
			<glyph d="M102 685H582L561 576Q507 528 454 467T356 334T275 178T221 0H75Q93 94 131 179T216 337T313 468T409 569V571H80Z" horiz-adv-x="522" unicode="7"/>
			<glyph d="M346 699Q391 699 433 689T509 659T562 605T583 524Q583 474 551 432T462 367V364Q507 344 531 304T556 213Q556 156 533 113T472 41T383 -1T277 -15Q230 -15 182 -4T96 31T34 94T11 189Q12 264 54 311T166 379V382Q129 402 111 434T93 505Q93 553 114 589T170 650T250 686T346 699ZM289 320Q264 320 239 313T194 291T162 254T150 199Q150 147 187 120T281 94Q309 94 333 101T376 123T406 161T417 215Q417 242 407 261T379 294T339 313T289 320ZM344 596Q321 596 299 590T262 574T236 545T226 503Q225 457 255 435T333 414Q357 414 377 419T414 436T439 466T448 509Q448 552 419 574T344 596Z" horiz-adv-x="587" unicode="8"/>
			<glyph d="M334 699Q448 699 516 632T584 431Q584 387 577 338T557 243T524 153T478 80Q439 34 385 9T258 -15Q216 -15 176 -4T104 27T52 83T29 164H161Q166 134 191 111T263 88Q299 88 326 102T374 143T407 207T431 290H429Q401 261 362 239T272 218Q225 218 185 232T117 274T73 339T57 427Q57 488 79 538T138 624T226 679T334 699ZM335 593Q304 593 278 582T233 551T203 505T192 445Q191 388 222 357T311 327Q371 327 412 363T453 471Q453 526 422 559T335 593Z" horiz-adv-x="587" unicode="9"/>
			<glyph d="M74 446H218L190 301H46ZM16 145H160L132 0H-12Z" horiz-adv-x="220" unicode=":"/>
			<glyph d="M74 446H218L190 301H46ZM16 145H160L132 3Q115 -80 68 -118T-44 -166L-34 -116Q2 -102 26 -75T59 0H-12Z" horiz-adv-x="220" unicode=";"/>
			<glyph d="M503 541L480 423L249 340Q234 335 217 329T185 319Q167 314 150 308V306Q165 301 180 296Q193 291 208 285T236 275L436 191L414 79L42 255L65 371Z" unicode="&lt;"/>
			<glyph d="M88 455H545L526 359H69ZM51 262H508L489 166H32Z" horiz-adv-x="553" unicode="="/>
			<glyph d="M98 541L470 365L447 249L9 79L32 197L263 280Q277 285 294 290T327 301Q345 306 362 312V314Q347 319 332 324Q319 329 304 334T276 345L76 429Z" unicode="&gt;"/>
			<glyph d="M334 728Q380 728 421 716T493 680T542 620T560 538Q560 469 526 423T429 339Q397 320 375 307T338 282T314 252T300 209H179Q188 256 201 286T232 338T271 373T319 403Q338 413 356 423T390 448T414 482T424 528Q424 571 398 592T328 614Q277 614 238 583T188 488H58Q68 543 91 587T151 662T233 711T334 728ZM156 145H300L272 0H128Z" horiz-adv-x="529" unicode="?"/>
			<glyph d="M481 714Q560 714 630 691T754 623T838 513T870 360Q870 315 859 265T823 174T757 106T659 79Q600 79 568 100T524 159H521Q495 121 458 99T383 78Q311 78 268 122T225 246Q225 292 239 340T281 429T350 494T447 519Q491 519 518 499T558 445H560L574 508H699L636 234Q627 195 633 174T670 154Q701 154 723 173T760 222T780 288T787 357Q787 427 764 480T701 567T604 619T480 637Q407 637 343 612T231 539T155 422T128 265Q128 198 147 143T203 48T297 -12T427 -34Q481 -34 526 -24T614 3L640 -63Q547 -109 424 -109Q339 -109 268 -84T146 -12T67 104T39 264Q39 358 72 440T163 583T303 679T481 714ZM466 424Q437 424 416 408T382 368T362 314T356 255Q356 220 373 197T423 174Q452 174 473 189T507 229T527 283T534 339Q534 377 517 400T466 424Z" horiz-adv-x="887" unicode="@"/>
			<glyph d="M317 715H465L583 0H435L415 153H168L96 0H-49ZM365 578Q357 556 348 536Q340 519 332 499T317 466L220 263H401L376 464Q374 479 373 499T370 536Q368 556 367 578Z" horiz-adv-x="634" unicode="A"/>
			<glyph d="M142 715H429Q474 715 511 704T577 671Q603 650 618 618T633 542Q633 479 598 436T501 375V372Q612 341 611 223Q611 136 545 73Q508 38 457 19T334 0H4ZM209 320L170 119H335Q395 119 430 145T466 229Q466 275 438 297T365 320ZM263 598L230 426H378Q400 426 421 430T458 445T484 475T494 523Q494 557 474 577T410 598Z" horiz-adv-x="640" unicode="B"/>
			<glyph d="M417 729Q471 729 518 715T599 671T655 596T680 488H539Q529 608 406 608Q347 608 305 579T235 505T194 402T181 291Q181 254 189 220T216 160T266 118T342 103Q405 103 447 136T509 230H650Q635 173 607 126T538 47Q493 13 445 -1T331 -15Q260 -15 204 7T111 70T54 167T35 289Q35 371 60 450T135 591T255 691T417 729Z" horiz-adv-x="673" unicode="C"/>
			<glyph d="M142 715H369Q435 715 488 696T580 638T639 543T660 412Q660 309 634 235T556 105Q509 55 437 27T285 0H4ZM261 591L171 125H286Q398 125 456 200T515 408Q515 497 474 544T351 591Z" horiz-adv-x="659" unicode="D"/>
			<glyph d="M142 715H640L617 594H262L231 433H543L520 315H208L170 120H533L510 0H4Z" horiz-adv-x="593" unicode="E"/>
			<glyph d="M142 715H631L608 593H262L228 420H529L505 297H204L147 0H4Z" horiz-adv-x="568" unicode="F"/>
			<glyph d="M425 729Q480 729 528 714T614 671T674 597T701 490H562Q556 547 517 578T414 610Q357 610 313 582T240 510T196 408T181 291Q181 201 222 151T351 101Q429 101 482 146T548 269H379L400 380H696L623 0H516L528 88H526Q491 39 438 12T320 -15Q257 -15 205 5T115 63T56 158T35 289Q35 372 62 451T141 592T264 691T425 729Z" horiz-adv-x="711" unicode="G"/>
			<glyph d="M142 715H285L231 434H494L548 715H691L553 0H410L471 316H208L147 0H4Z" horiz-adv-x="657" unicode="H"/>
			<glyph d="M143 715H286L148 0H5Z" horiz-adv-x="253" unicode="I"/>
			<glyph d="M406 715H548L446 185Q438 143 420 107T374 44T304 3T207 -12Q158 -12 116 0T45 39T5 108T5 210L16 266H144L133 209Q113 103 209 103Q255 103 276 127T306 197Z" horiz-adv-x="506" unicode="J"/>
			<glyph d="M142 715H285L230 429L537 715H713L401 435L605 0H449L291 344L197 261L147 0H4Z" horiz-adv-x="648" unicode="K"/>
			<glyph d="M142 715H285L170 120H490L467 0H4Z" horiz-adv-x="535" unicode="L"/>
			<glyph d="M142 715H341L368 362Q371 324 372 288T375 223Q376 190 377 159H378Q388 187 399 218Q409 244 422 277T451 344L623 715H829L691 0H558L637 410Q642 433 648 459T659 508Q665 534 672 560H670Q661 538 651 514Q643 494 632 470T611 423L414 0H278L244 422Q242 442 241 466T240 511Q239 536 239 560H237Q234 533 230 507Q227 484 222 458T214 410L135 0H4Z" horiz-adv-x="801" unicode="M"/>
			<glyph d="M142 715H285L431 316Q437 299 442 281T451 248Q455 230 460 212H462Q465 233 469 255Q472 274 475 295T483 336L556 715H695L557 0H421L268 398Q261 415 255 433T246 466Q242 483 238 498H236Q233 476 229 454Q226 435 222 413T215 373L143 0H4Z" horiz-adv-x="661" unicode="N"/>
			<glyph d="M408 729Q477 729 534 707T631 644T694 545T716 417Q716 333 692 254T622 116T506 20T346 -16Q277 -16 220 5T121 65T57 162T35 291Q35 377 59 456T131 596T248 693T408 729ZM399 611Q340 611 298 581T231 506T193 404T181 294Q181 254 190 219T220 158T273 117T352 102Q412 102 454 131T521 205T558 306T570 413Q570 455 560 491T529 553T476 595T399 611Z" horiz-adv-x="713" unicode="O"/>
			<glyph d="M142 715H417Q468 715 510 701T582 660T628 593T645 504Q645 447 625 401T570 324T485 276T376 259H202L152 0H4ZM266 590L225 376H369Q394 376 417 383T458 404T486 442T497 497Q497 541 472 565T398 590Z" horiz-adv-x="624" unicode="P"/>
			<glyph d="M408 729Q477 729 534 707T631 644T694 545T716 417Q716 326 689 243T608 99L670 39L588 -42L518 26Q482 6 439 -5T346 -16Q277 -16 220 5T121 65T57 162T35 291Q35 377 59 456T131 596T248 693T408 729ZM399 611Q340 611 298 581T231 506T193 404T181 294Q181 254 190 219T220 158T273 117T352 102Q392 102 426 115L360 180L442 260L515 189Q545 237 557 296T570 413Q570 455 560 491T529 553T476 595T399 611Z" horiz-adv-x="713" unicode="Q"/>
			<glyph d="M142 715H413Q467 715 510 702T584 663T631 599T648 510Q648 468 635 432T598 369T543 322T473 291L591 0H439L331 276H205L152 0H4ZM266 590L228 393H368Q395 393 419 398T461 416T490 449T501 502Q501 544 475 567T401 590Z" horiz-adv-x="651" unicode="R"/>
			<glyph d="M337 728Q392 728 441 716T527 677T585 607T603 505H466Q468 558 433 586T332 614Q312 614 291 610T252 596T223 570T212 530Q212 512 218 499T241 476T286 454T357 429Q410 411 451 390T519 344T561 287T575 212Q575 155 553 112T494 41T405 -1T292 -16Q230 -16 175 -2T81 41T20 114T2 221H141Q139 187 150 164T182 126T232 106T296 100Q323 100 347 105T391 121T421 150T433 193Q433 212 426 226T401 253T353 279T278 309Q230 326 192 344T129 385T89 438T76 511Q76 562 94 602T147 671T230 713T337 728Z" horiz-adv-x="612" unicode="S"/>
			<glyph d="M103 715H659L636 594H429L314 0H171L286 594H80Z" horiz-adv-x="585" unicode="T"/>
			<glyph d="M136 715H279L187 240Q174 176 200 139T302 103Q336 103 360 112T402 136T429 174T445 222L540 715H682L584 209Q563 102 493 45T299 -12Q233 -12 180 4T94 52T46 134T46 251Z" horiz-adv-x="642" unicode="U"/>
			<glyph d="M86 715H234L281 310Q283 289 285 266T289 226Q291 205 292 185H294Q301 204 310 224Q317 241 326 261T344 301L540 715H686L324 0H194Z" horiz-adv-x="597" unicode="V"/>
			<glyph d="M88 715H233L254 360Q256 334 256 306T257 256V202H259Q268 228 279 255Q288 278 298 305T319 359L461 715H596L613 360Q614 336 614 308T616 257Q617 229 617 202H619Q629 229 640 257Q649 281 660 308T682 361L830 715H971L651 0H518L497 385Q495 406 494 429T494 472V517H492Q485 496 477 473Q470 453 462 430T445 385L290 0H159Z" horiz-adv-x="892" unicode="W"/>
			<glyph d="M112 715H265L350 484H352L523 715H677L412 367L566 0H406L315 265H313L119 0H-43L249 382Z" horiz-adv-x="623" unicode="X"/>
			<glyph d="M90 715H237L298 510Q303 493 307 474T316 440Q320 422 324 403H326L347 438Q356 453 367 471T391 506L536 715H691L372 276L319 0H176L230 280Z" horiz-adv-x="607" unicode="Y"/>
			<glyph d="M139 715H658L636 598L183 122V119H548L526 0H-23L-3 105L465 595V598H117Z" horiz-adv-x="606" unicode="Z"/>
			<glyph d="M159 754H440L419 650H267L137 -27H289L268 -131H-13Z" horiz-adv-x="371" unicode="["/>
			<glyph d="M84 715H185L415 0H314Z" horiz-adv-x="460" unicode="\"/>
			<glyph d="M122 754H404L232 -131H-50L-29 -27H124L254 650H101Z" horiz-adv-x="371" unicode="]"/>
			<glyph d="M248 715H360L467 428H347L288 600H286L165 428H43Z" horiz-adv-x="440" unicode="^"/>
			<glyph d="M-69 -85H351L335 -168H-85Z" horiz-adv-x="416" unicode="_"/>
			<glyph d="M186 718H332L373 577H271Z" unicode="`"/>
			<glyph d="M289 526Q337 526 377 515T444 480T483 417T484 322L436 76Q431 50 432 32T440 5V0H313Q308 8 306 23T306 56H304Q281 31 248 9T161 -12Q131 -12 102 -3T50 23T12 70T-2 139Q-2 190 17 221T68 271T142 298T231 310Q267 313 292 316T333 325T356 343T364 373Q364 401 343 415T284 430Q242 430 215 412T179 357H59Q72 436 130 481T289 526ZM345 253Q325 244 302 238T247 227Q229 224 208 221T169 212T139 191T127 151Q127 116 148 98T204 81Q230 81 251 88T289 109T315 138T329 172Z" horiz-adv-x="514" unicode="a"/>
			<glyph d="M131 715H265L214 453H217Q243 485 279 506T364 527Q407 527 440 511T496 466T531 398T543 311Q543 249 528 190T482 86T404 12T293 -15Q245 -15 202 5T138 75H136L122 0H-7ZM310 418Q273 418 246 399T202 350T177 285T169 216Q169 192 175 171T193 133T226 107T274 98Q310 98 335 117T375 165T398 230T405 301Q405 323 400 344T385 382T355 408T310 418Z" horiz-adv-x="559" unicode="b"/>
			<glyph d="M296 527Q339 527 376 516T442 483T488 425T509 339H378Q374 376 353 397T292 419Q255 419 228 400T184 350T158 282T150 208Q150 183 155 162T173 125T205 101T253 93Q291 93 318 114T360 181H490Q469 88 404 36T245 -15Q198 -15 156 -1T83 39T34 110T16 212Q16 271 35 327T90 428T178 500T296 527Z" horiz-adv-x="514" unicode="c"/>
			<glyph d="M474 715H608L470 0H341L351 56H349Q322 21 289 3T208 -15Q164 -15 129 1T69 46T31 117T18 210Q18 269 35 326T86 427T167 499T275 527Q326 527 362 505T419 444H422ZM290 418Q255 418 229 399T186 351T162 286T154 218Q154 192 159 170T175 131T206 105T252 96Q288 96 315 114T359 160T385 223T394 291Q394 346 369 382T290 418Z" horiz-adv-x="563" unicode="d"/>
			<glyph d="M291 527Q333 527 363 519T420 494Q478 456 499 384T506 219H149Q149 158 172 123T254 89Q289 89 317 104T359 153H491Q467 81 412 38Q347 -13 252 -15Q202 -15 159 -1T84 42T34 115T16 221Q16 277 35 331T91 429T178 500T291 527ZM288 423Q235 423 204 390T161 312H382Q383 334 378 354T361 390T332 414T288 423Z" horiz-adv-x="532" unicode="e"/>
			<glyph d="M318 717Q352 717 390 711L370 607Q349 610 332 610Q304 610 290 598T271 556L262 513H351L333 419H244L163 0H30L111 419H44L62 513H129L141 574Q156 651 203 683T318 717Z" horiz-adv-x="319" unicode="f"/>
			<glyph d="M270 527Q320 527 357 507T414 451H416L428 513H557L462 22Q453 -25 435 -58T389 -118Q358 -147 318 -161T218 -175Q180 -175 143 -166T77 -138T28 -88T3 -15H139Q145 -43 165 -58T221 -73Q269 -73 296 -43T332 35L342 87H339Q313 61 285 46T213 31Q169 31 133 46T73 89T34 155T20 240Q20 296 37 348T87 439T165 503T270 527ZM285 419Q254 419 229 405T188 368T162 314T153 250Q153 202 177 170T252 139Q284 139 309 153T351 190T378 243T387 305Q386 355 360 387T285 419Z" horiz-adv-x="551" unicode="g"/>
			<glyph d="M131 715H265L213 442H216Q247 485 281 506T371 527Q409 527 438 512T486 470T511 406T509 324L447 0H313L373 308Q383 359 364 386T303 413Q279 413 258 403T222 375T196 332T181 280L127 0H-7Z" horiz-adv-x="536" unicode="h"/>
			<glyph d="M92 513H226L127 0H-7ZM131 715H265L242 593H108Z" horiz-adv-x="220" unicode="i"/>
			<glyph d="M92 513H226L120 -32Q111 -77 98 -100T67 -139Q28 -169 -33 -169Q-51 -169 -72 -167T-115 -159L-97 -63Q-79 -64 -64 -63T-38 -57T-21 -43T-11 -18ZM131 715H265L242 593H108Z" horiz-adv-x="220" unicode="j"/>
			<glyph d="M131 715H264L186 314L387 513H551L337 312L480 0H331L233 232L157 164L126 0H-7Z" horiz-adv-x="523" unicode="k"/>
			<glyph d="M133 715H267L129 0H-5Z" horiz-adv-x="224" unicode="l"/>
			<glyph d="M354 527Q406 527 436 499T477 429H479Q514 482 556 504T649 527Q683 527 712 513T761 474T787 409T784 319L723 0H589L650 315Q659 363 641 388T589 413Q546 413 518 378T479 283L425 0H291L352 315Q361 363 343 388T291 413Q248 413 220 378T181 283L127 0H-7L92 513H221L207 438H210Q236 480 271 503T354 527Z" horiz-adv-x="812" unicode="m"/>
			<glyph d="M371 527Q409 527 438 512T486 470T511 406T509 324L447 0H313L373 308Q383 359 364 386T303 413Q279 413 259 403T223 375T197 332T181 280L127 0H-7L92 513H223L208 432H211Q244 480 280 503T371 527Z" horiz-adv-x="536" unicode="n"/>
			<glyph d="M306 527Q355 527 398 512T473 467T524 393T543 293Q543 231 523 175T466 77T376 10T258 -15Q208 -15 164 0T87 46T36 120T17 224Q17 285 37 340T96 436T187 502T306 527ZM299 426Q260 426 232 407T186 358T159 290T151 216Q151 190 157 166T176 125T210 96T261 86Q300 86 328 105T374 154T400 222T409 297Q409 322 403 345T383 387T349 415T299 426Z" horiz-adv-x="561" unicode="o"/>
			<glyph d="M369 527Q412 527 445 510T500 463T534 392T546 303Q546 249 531 192T486 90T408 14T293 -15Q246 -15 205 6T143 72H141L94 -168H-40L92 513H221L209 450H212Q239 485 278 506T369 527ZM311 418Q275 418 248 399T203 351T177 286T168 215Q168 192 174 170T193 132T226 106T273 97Q311 97 337 115T379 162T402 227T409 298Q409 320 404 342T387 380T357 407T311 418Z" horiz-adv-x="562" unicode="p"/>
			<glyph d="M275 527Q326 527 365 506T424 445H427L440 513H569L437 -168H303L347 60H345Q322 25 286 5T205 -15Q117 -15 67 42T18 210Q18 269 35 326T85 427T165 499T275 527ZM293 420Q256 420 230 401T187 353T162 288T154 219Q154 194 158 172T172 133T201 107T249 98Q284 98 311 115T357 159T385 222T395 293Q395 351 369 385T293 420Z" horiz-adv-x="563" unicode="q"/>
			<glyph d="M343 519Q357 519 366 518T381 515L358 397H355Q285 406 238 372T175 250L127 0H-7L92 513H221L205 431H208Q231 469 263 494T343 519Z" horiz-adv-x="348" unicode="r"/>
			<glyph d="M242 527Q285 527 322 516T386 484T431 431T452 357H329Q324 387 302 409T238 431Q224 431 210 428T186 420T168 404T161 380Q161 367 169 358T194 342T233 327T286 310Q314 301 340 288T386 258T418 215T431 157Q431 74 376 29T224 -15Q177 -15 136 -5T65 27T14 83T-8 166H119Q123 133 147 108T224 83Q261 83 284 96T308 139Q308 167 277 181T189 215Q160 225 133 236T86 265T54 307T42 365Q42 404 57 434T98 485T161 516T242 527Z" horiz-adv-x="472" unicode="s"/>
			<glyph d="M159 673H290L259 513H345L328 423H242L190 156Q184 126 193 113T228 100Q233 100 240 100Q248 100 254 101Q261 101 268 102L249 2Q240 1 229 0Q220 -1 209 -1Q198 -1 188 -1Q149 -1 120 6T75 31T53 75T56 143L111 423H46L63 513H128Z" horiz-adv-x="322" unicode="t"/>
			<glyph d="M86 513H220L160 205Q139 99 224 99Q272 99 303 135T346 233L400 513H534L435 0H306L320 73H317Q287 31 251 8T164 -14Q83 -14 44 40T24 189Z" horiz-adv-x="530" unicode="u"/>
			<glyph d="M51 513H187L219 254Q221 233 223 216T226 187Q227 173 228 162H230Q234 173 239 186Q244 197 251 212T267 247L391 513H525L264 0H136Z" horiz-adv-x="478" unicode="v"/>
			<glyph d="M53 513H183L202 275Q203 259 204 241T206 210Q207 193 207 177H209Q215 193 222 211Q228 225 235 242T249 276L352 513H466L494 276Q496 259 497 241T499 210Q500 193 501 177H503Q509 193 516 210Q522 224 528 241T542 275L638 513H770L541 0H421L394 252Q392 267 391 284T388 317Q386 335 385 352H383Q377 335 370 317Q364 302 357 284T343 252L232 0H111Z" horiz-adv-x="728" unicode="w"/>
			<glyph d="M65 513H210L272 357H274L383 513H529L329 260L455 0H306L237 170H235L103 0H-46L179 274Z" horiz-adv-x="510" unicode="x"/>
			<glyph d="M49 513H189L224 280Q226 262 229 241T234 204Q237 184 239 164H241Q248 184 256 204Q263 221 271 241T288 280L394 513H530L265 -25Q246 -64 227 -91T186 -135T136 -160T71 -168H-13L8 -62H51Q94 -62 117 -38T140 33Q140 68 123 148Z" horiz-adv-x="488" unicode="y"/>
			<glyph d="M89 513H476L455 406L158 110V107H414L393 0H-27L-7 102L296 405V408H68Z" horiz-adv-x="461" unicode="z"/>
			<glyph d="M373 754H440L419 648H378Q358 648 344 644T320 630T304 605T294 565L265 408Q257 363 236 344T184 314V311Q212 297 222 272T224 202L195 56Q186 9 205 -8T266 -25H289L268 -131H249Q196 -131 157 -120T95 -86T64 -25T68 66L93 189Q101 227 88 247T27 270L46 367Q94 369 114 385T142 440L167 575Q177 632 195 667T239 722T298 747T373 754Z" horiz-adv-x="371" unicode="{"/>
			<glyph d="M102 754H184V-131H102Z" horiz-adv-x="247" unicode="|"/>
			<glyph d="M122 754H141Q193 754 232 743T294 709T325 648T322 557L298 438Q290 400 303 380T364 357L345 260Q297 258 276 241T249 187L223 48Q213 -7 195 -42T151 -96T91 -123T17 -131H-50L-29 -25H12Q32 -25 46 -21T69 -7T85 18T96 58L126 219Q134 264 154 283T207 313V316Q179 330 168 355T167 425L195 567Q204 614 185 631T124 648H101Z" horiz-adv-x="371" unicode="}"/>
			<glyph d="M163 406Q184 406 202 400T237 386T268 373T295 367Q313 367 321 376T334 405H422Q414 333 384 293T301 253Q280 253 260 259T223 272T190 285T163 291Q134 291 124 250H35Q45 332 80 369T163 406Z" horiz-adv-x="419" unicode="~"/>
			<glyph d="" horiz-adv-x="174" unicode=" "/>
			<glyph d="M116 379H181L150 31L120 -127H-20L12 41ZM115 588H259L231 443H87Z" horiz-adv-x="250" unicode="¡"/>
			<glyph d="M304 593H363L349 523Q415 511 459 467T509 339H378Q375 366 363 385T328 414L265 92Q298 96 322 117T360 181H490Q469 88 404 36T245 -15H244L228 -100H169L186 -9Q150 -2 118 15T64 59T29 124T16 212Q16 270 35 326T89 427T175 498T291 527ZM270 418Q238 412 215 391T178 340T157 276T150 208Q150 170 163 141T208 100Z" horiz-adv-x="514" unicode="¢"/>
			<glyph d="M332 699Q392 699 437 685T512 641Q544 611 558 566T568 454H434Q438 528 409 558T331 589Q283 589 252 560T221 474Q221 450 226 425T239 375H387L370 290H256Q257 285 257 281Q257 277 257 273Q257 249 248 227T225 187T193 152T156 124L157 122Q174 128 191 133T232 139Q255 139 273 134T307 124T341 114T379 110Q408 110 434 123T480 153L532 50Q502 22 462 4T376 -14Q343 -14 317 -6T267 9T220 25T167 33Q137 33 111 20T61 -8L4 96Q25 109 46 126T85 164T114 210T125 263Q125 270 124 276T123 290H34L51 375H99Q91 399 84 423T78 476Q78 528 97 569T151 640T232 684T332 699Z" horiz-adv-x="570" unicode="£"/>
			<glyph d="M117 601L182 533Q224 553 275 553Q325 553 367 533L433 601L517 519L451 453Q477 407 477 349Q477 292 452 245L517 180L433 98L367 165Q324 146 275 146Q222 146 183 165L117 98L33 180L97 244Q72 291 72 349Q72 406 97 453L33 519ZM275 461Q232 461 209 430T186 349Q186 298 209 268T275 238Q317 238 339 268T361 349Q361 400 339 430T275 461Z" horiz-adv-x="520" unicode="¤"/>
			<glyph d="M83 686H232L296 487Q301 473 304 457T312 429Q316 414 320 399H322Q330 413 340 428Q348 441 357 456T378 486L521 686H674L396 322H543L532 264H361L348 200H519L508 142H337L310 0H179L206 142H38L49 200H217L230 264H62L73 322H221Z" horiz-adv-x="599" unicode="¥"/>
			<glyph d="M64 261H147V-131H64ZM64 754H147V375H64Z" horiz-adv-x="210" unicode="¦"/>
			<glyph d="M343 699Q384 699 420 690T485 660T530 605T548 523H427Q425 558 404 578T344 598Q318 598 296 586T274 545Q274 533 279 522T297 501T331 477T384 448Q418 430 449 411T502 371T538 324T552 266Q552 205 519 170T417 111Q456 64 456 8Q456 -35 440 -68T395 -124T328 -159T246 -171Q194 -171 152 -157T81 -118T36 -53T22 36H151Q152 -9 174 -37T245 -65Q278 -65 300 -49T322 1Q322 15 315 27T293 51T254 78T195 111Q114 155 77 197T40 298Q40 358 76 393T175 446Q148 483 148 531Q148 574 164 605T207 658T269 689T343 699ZM232 390Q205 382 187 365T170 322Q170 310 173 299T186 277T216 252T270 219Q293 205 314 193T353 168Q384 175 403 191T422 232Q422 248 416 260T398 285T365 309T317 338Q293 351 271 363T232 390Z" horiz-adv-x="582" unicode="§"/>
			<glyph d="M375 695H499L476 581H352ZM158 695H282L259 581H135Z" unicode="¨"/>
			<glyph d="M424 728Q501 728 568 700T684 622T762 503T791 355Q791 275 762 206T684 88T568 11T424 -17Q347 -17 279 11T162 88T84 206T56 355Q56 435 84 503T162 622T279 700T424 728ZM424 678Q358 678 301 653T202 586T137 483T114 355Q114 286 137 226T202 124T301 56T424 32Q490 32 546 56T644 124T709 226T733 355Q733 424 709 483T644 586T546 653T424 678ZM428 585Q469 585 502 573T560 540T598 490T617 427H509Q504 455 483 473T427 492Q376 492 351 453T326 358Q326 300 353 262T428 225Q466 225 487 246T513 298H621Q619 264 605 234T568 182Q518 133 427 133Q379 133 339 150T272 197T228 268T213 358Q213 407 228 448T271 520T339 568T428 585Z" horiz-adv-x="815" unicode="©"/>
			<glyph d="M304 699Q342 699 374 692T432 668Q462 647 476 610T479 517L438 304Q429 256 441 241V236H322Q317 243 315 257T315 286H313Q291 262 261 244T186 226Q159 226 133 233T87 257T55 297T43 356Q43 400 59 427T102 471T167 496T246 507Q308 512 336 520T365 562Q365 585 348 598T299 611Q264 611 242 596T212 550H98Q110 619 161 659T304 699ZM349 456Q332 448 312 444T264 435Q249 432 231 429T199 420T175 401T166 368Q166 339 184 325T230 311Q272 311 299 332T335 387Z" horiz-adv-x="474" unicode="ª"/>
			<glyph d="M420 457L394 325L301 254V252L366 181L343 59L228 196L253 328ZM233 457L207 325L114 254V252L179 181L156 59L41 196L66 328Z" horiz-adv-x="440" unicode="«"/>
			<glyph d="M65 418H482L429 145H326L359 320H45Z" horiz-adv-x="505" unicode="¬"/>
			<glyph d="M41 304H308L286 191H19Z" horiz-adv-x="334" unicode="­"/>
			<glyph d="M306 728Q356 728 399 709T475 659T526 582T545 486Q545 434 526 389T475 313T399 262T306 244Q256 244 212 262T136 313T85 389T67 486Q67 538 85 582T136 659T212 709T306 728ZM306 690Q264 690 228 674T166 632T125 567T111 486Q111 442 125 404T166 339T228 296T306 281Q348 281 384 296T446 339T486 404T501 486Q501 530 486 567T446 632T384 674T306 690ZM204 616H328Q366 616 393 596T420 541Q420 495 376 480V478Q394 473 402 461T414 432Q419 408 418 388T426 365V360H358Q353 363 351 381T347 419Q344 453 307 453H273V360H204ZM273 561V503H316Q352 503 352 532Q352 561 316 561Z" horiz-adv-x="522" unicode="®"/>
			<glyph d="M196 687H476L458 592H178Z" unicode="¯"/>
			<glyph d="M233 700Q263 700 289 689T336 658T367 613T379 558Q379 528 367 502T336 458T289 429T233 418Q203 418 176 429T130 458T98 502T87 558Q87 588 98 613T130 658T176 689T233 700ZM233 637Q199 637 179 613T160 558Q160 526 179 503T233 481Q267 481 287 503T307 558Q307 590 287 613T233 637Z" horiz-adv-x="350" unicode="°"/>
			<glyph d="M290 581H393L362 417H555L536 319H342L311 155H208L239 319H45L64 417H259ZM3 98H494L475 0H-16Z" horiz-adv-x="560" unicode="±"/>
			<glyph d="M256 723Q283 723 308 715T352 693T382 657T394 607Q394 583 386 563T366 528T337 499T304 476T269 455T235 437T204 418T181 399H361L345 318H32Q41 374 69 408T131 465Q166 488 195 504T250 537Q269 550 279 563T290 599Q290 619 278 630T246 642Q220 642 202 623T177 568H80Q91 644 139 683T256 723Z" horiz-adv-x="350" unicode="²"/>
			<glyph d="M247 723Q309 723 349 695T389 616Q388 582 367 559T314 525V524Q338 514 355 493T372 439Q372 407 358 383T322 342T269 317T207 309Q171 309 141 318T90 346T57 392T48 453H146Q145 422 160 403T209 385Q236 385 252 400T268 441Q268 490 209 490H187L201 559H227Q253 559 270 571T288 607Q288 627 274 638T240 649Q212 649 196 632T175 591H79Q88 649 132 686T247 723Z" horiz-adv-x="355" unicode="³"/>
			<glyph d="M316 718H473L347 577H242Z" unicode="´"/>
			<glyph d="M91 513H225L165 205Q144 99 229 99Q277 99 308 135T351 233L405 513H539L440 0H311L325 73H322Q292 31 261 8T188 -14Q166 -14 152 -8T130 7H127L93 -168H-40Z" horiz-adv-x="535" unicode="µ"/>
			<glyph d="M302 715H593L455 0H366L489 634H421L298 0H210L276 341H245Q160 341 115 384T71 499Q71 547 88 590T144 666Q199 715 302 715Z" horiz-adv-x="559" unicode="¶"/>
			<glyph d="M60 388H204L176 243H32Z" horiz-adv-x="215" unicode="·"/>
			<glyph d="M172 0H230L169 -50V-52Q206 -47 235 -61T265 -111Q265 -133 254 -148T227 -173T189 -187T146 -192Q106 -192 82 -184T38 -163L59 -131Q73 -138 91 -142T127 -146Q135 -146 145 -145T164 -140T179 -129T185 -111Q185 -99 174 -92T149 -86Q138 -86 129 -88T111 -93L99 -71Z" unicode="¸"/>
			<glyph d="M205 718H287L209 318H106L155 568H66L79 637Q125 639 157 657T205 718Z" horiz-adv-x="247" unicode="¹"/>
			<glyph d="M308 699Q351 699 390 686T459 647T506 583T524 494Q524 439 506 389T456 303T376 244T271 222Q227 222 187 235T119 274T73 339T56 430Q56 484 74 533T125 619T204 677T308 699ZM306 606Q273 606 250 589T212 545T190 485T183 422Q183 401 188 381T203 347T231 324T273 316Q306 316 329 333T367 376T389 435T396 498Q396 519 391 538T375 573T347 597T306 606Z" horiz-adv-x="504" unicode="º"/>
			<glyph d="M96 457L211 320L186 188L19 59L45 191L138 262V264L73 335ZM283 457L398 320L373 188L206 59L232 191L325 262V264L260 335Z" horiz-adv-x="440" unicode="»"/>
			<glyph d="M641 401H743L696 159H755L741 84H681L665 0H567L583 84H397L414 175ZM655 715H745L141 0H51ZM211 718H293L215 318H112L161 568H72L85 637Q131 639 163 657T211 718ZM622 291L492 161V159H598L624 291Z" horiz-adv-x="775" unicode="¼"/>
			<glyph d="M211 718H293L215 318H112L161 568H72L85 637Q131 639 163 657T211 718ZM638 715H728L124 0H34ZM647 405Q674 405 699 397T743 375T773 339T785 289Q785 265 777 245T757 210T728 181T695 158T660 137T626 119T595 100T572 81H752L736 0H423Q432 56 460 90T522 147Q557 170 586 186T641 219Q660 232 670 245T681 281Q681 301 669 312T637 324Q611 324 593 305T568 250H471Q482 326 530 365T647 405Z" horiz-adv-x="785" unicode="½"/>
			<glyph d="M686 401H788L741 159H800L786 84H726L710 0H612L628 84H442L459 175ZM250 723Q312 723 352 695T392 616Q391 582 370 559T317 525V524Q341 514 358 493T375 439Q375 407 361 383T325 342T272 317T210 309Q174 309 144 318T93 346T60 392T51 453H149Q148 422 163 403T212 385Q239 385 255 400T271 441Q271 490 212 490H190L204 559H230Q256 559 273 571T291 607Q291 627 277 638T243 649Q215 649 199 632T178 591H82Q91 649 135 686T250 723ZM720 715H810L206 0H116ZM667 291L537 161V159H643L669 291Z" horiz-adv-x="820" unicode="¾"/>
			<glyph d="M235 379H356Q347 332 333 301T302 250T263 214T216 185Q197 175 178 164T145 139T120 106T111 60Q111 17 137 -4T207 -26Q258 -26 297 4T347 100H477Q467 45 443 1T384 -74T302 -123T201 -140Q154 -140 113 -128T41 -92T-7 -32T-25 50Q-25 119 8 164T106 249Q138 268 160 280T197 306T221 335T235 379ZM263 588H407L379 443H235Z" horiz-adv-x="517" unicode="¿"/>
			<glyph d="M317 715H465L583 0H435L415 153H168L96 0H-49ZM365 578Q357 556 348 536Q340 519 332 499T317 466L220 263H401L376 464Q374 479 373 499T370 536Q368 556 367 578ZM277 878H422L451 753H349Z" horiz-adv-x="634" unicode="À"/>
			<glyph d="M317 715H465L583 0H435L415 153H168L96 0H-49ZM365 578Q357 556 348 536Q340 519 332 499T317 466L220 263H401L376 464Q374 479 373 499T370 536Q368 556 367 578ZM402 878H557L446 753H342Z" horiz-adv-x="634" unicode="Á"/>
			<glyph d="M317 715H465L583 0H435L415 153H168L96 0H-49ZM365 578Q357 556 348 536Q340 519 332 499T317 466L220 263H401L376 464Q374 479 373 499T370 536Q368 556 367 578ZM340 867H484L559 753H446L409 812H407L349 753H229Z" horiz-adv-x="634" unicode="Â"/>
			<glyph d="M317 715H465L583 0H435L415 153H168L96 0H-49ZM365 578Q357 556 348 536Q340 519 332 499T317 466L220 263H401L376 464Q374 479 373 499T370 536Q368 556 367 578ZM347 875Q365 875 380 869T409 857T434 845T456 840Q470 840 477 848T489 871H560Q552 820 526 787T457 755Q439 755 423 760T394 771T369 783T348 788Q325 788 318 757H247Q256 816 283 845T347 875Z" horiz-adv-x="634" unicode="Ã"/>
			<glyph d="M317 715H465L583 0H435L415 153H168L96 0H-49ZM365 578Q357 556 348 536Q340 519 332 499T317 466L220 263H401L376 464Q374 479 373 499T370 536Q368 556 367 578ZM452 867H578L555 753H429ZM253 867H379L356 753H230Z" horiz-adv-x="634" unicode="Ä"/>
			<glyph d="M317 715H465L583 0H435L415 153H168L96 0H-49ZM402 930Q422 930 439 922T470 902T491 872T499 836Q499 796 470 769T402 742Q362 742 333 769T305 836Q305 855 312 872T333 902T364 922T402 930ZM365 578Q357 556 348 536Q340 519 332 499T317 466L220 263H401L376 464Q374 479 373 499T370 536Q368 556 367 578ZM402 883Q382 883 369 869T357 836Q357 816 369 802T402 789Q422 789 434 802T447 836Q447 856 434 869T402 883Z" horiz-adv-x="634" unicode="Å"/>
			<glyph d="M322 715H988L965 594H617L586 433H891L868 315H563L525 120H881L858 0H359L388 153H176L100 0H-46ZM395 594L228 258H409L473 594Z" horiz-adv-x="941" unicode="Æ"/>
			<glyph d="M417 729Q471 729 518 715T599 671T655 596T680 488H539Q529 608 406 608Q347 608 305 579T235 505T194 402T181 291Q181 254 189 220T216 160T266 118T342 103Q405 103 447 136T509 230H650Q635 173 607 126T538 47Q493 13 445 0T333 -15L291 -50V-52Q328 -47 357 -61T387 -111Q387 -133 376 -148T349 -173T311 -187T268 -192Q228 -192 204 -184T160 -163L181 -131Q195 -138 213 -142T249 -146Q257 -146 267 -145T286 -140T301 -129T307 -111Q307 -99 296 -92T271 -86Q260 -86 251 -88T233 -93L221 -71L282 -12Q222 -5 176 20T98 85T51 177T35 289Q35 371 60 450T135 591T255 691T417 729Z" horiz-adv-x="673" unicode="Ç"/>
			<glyph d="M142 715H640L617 594H262L231 433H543L520 315H208L170 120H533L510 0H4ZM287 878H432L461 753H359Z" horiz-adv-x="593" unicode="È"/>
			<glyph d="M142 715H640L617 594H262L231 433H543L520 315H208L170 120H533L510 0H4ZM410 878H565L454 753H350Z" horiz-adv-x="593" unicode="É"/>
			<glyph d="M142 715H640L617 594H262L231 433H543L520 315H208L170 120H533L510 0H4ZM351 867H495L570 753H457L420 812H418L360 753H240Z" horiz-adv-x="593" unicode="Ê"/>
			<glyph d="M142 715H640L617 594H262L231 433H543L520 315H208L170 120H533L510 0H4ZM460 867H586L563 753H437ZM261 867H387L364 753H238Z" horiz-adv-x="593" unicode="Ë"/>
			<glyph d="M143 715H286L148 0H5ZM102 878H247L276 753H174Z" horiz-adv-x="253" unicode="Ì"/>
			<glyph d="M143 715H286L148 0H5ZM218 878H373L262 753H158Z" horiz-adv-x="253" unicode="Í"/>
			<glyph d="M143 715H286L148 0H5ZM159 867H303L378 753H265L228 812H226L168 753H48Z" horiz-adv-x="253" unicode="Î"/>
			<glyph d="M143 715H286L148 0H5ZM278 867H404L381 753H255ZM79 867H205L182 753H56Z" horiz-adv-x="253" unicode="Ï"/>
			<glyph d="M152 715H379Q445 715 498 696T590 638T649 543T670 412Q670 309 644 235T566 105Q519 55 447 27T295 0H14L73 305H11L32 419H95ZM271 591L238 419H400L379 305H216L181 125H296Q408 125 466 200T525 408Q525 497 484 544T361 591Z" horiz-adv-x="669" unicode="Ð"/>
			<glyph d="M142 715H285L431 316Q437 299 442 281T451 248Q455 230 460 212H462Q465 233 469 255Q472 274 475 295T483 336L556 715H695L557 0H421L268 398Q261 415 255 433T246 466Q242 483 238 498H236Q233 476 229 454Q226 435 222 413T215 373L143 0H4ZM371 875Q389 875 404 869T433 857T458 845T480 840Q494 840 501 848T513 871H584Q576 820 550 787T481 755Q463 755 447 760T418 771T393 783T372 788Q349 788 342 757H271Q280 816 307 845T371 875Z" horiz-adv-x="661" unicode="Ñ"/>
			<glyph d="M408 729Q477 729 534 707T631 644T694 545T716 417Q716 333 692 254T622 116T506 20T346 -16Q277 -16 220 5T121 65T57 162T35 291Q35 377 59 456T131 596T248 693T408 729ZM399 611Q340 611 298 581T231 506T193 404T181 294Q181 254 190 219T220 158T273 117T352 102Q412 102 454 131T521 205T558 306T570 413Q570 455 560 491T529 553T476 595T399 611ZM305 878H450L479 753H377Z" horiz-adv-x="713" unicode="Ò"/>
			<glyph d="M408 729Q477 729 534 707T631 644T694 545T716 417Q716 333 692 254T622 116T506 20T346 -16Q277 -16 220 5T121 65T57 162T35 291Q35 377 59 456T131 596T248 693T408 729ZM399 611Q340 611 298 581T231 506T193 404T181 294Q181 254 190 219T220 158T273 117T352 102Q412 102 454 131T521 205T558 306T570 413Q570 455 560 491T529 553T476 595T399 611ZM428 878H583L472 753H368Z" horiz-adv-x="713" unicode="Ó"/>
			<glyph d="M408 729Q477 729 534 707T631 644T694 545T716 417Q716 333 692 254T622 116T506 20T346 -16Q277 -16 220 5T121 65T57 162T35 291Q35 377 59 456T131 596T248 693T408 729ZM399 611Q340 611 298 581T231 506T193 404T181 294Q181 254 190 219T220 158T273 117T352 102Q412 102 454 131T521 205T558 306T570 413Q570 455 560 491T529 553T476 595T399 611ZM368 867H512L587 753H474L437 812H435L377 753H257Z" horiz-adv-x="713" unicode="Ô"/>
			<glyph d="M408 729Q477 729 534 707T631 644T694 545T716 417Q716 333 692 254T622 116T506 20T346 -16Q277 -16 220 5T121 65T57 162T35 291Q35 377 59 456T131 596T248 693T408 729ZM399 611Q340 611 298 581T231 506T193 404T181 294Q181 254 190 219T220 158T273 117T352 102Q412 102 454 131T521 205T558 306T570 413Q570 455 560 491T529 553T476 595T399 611ZM371 875Q389 875 404 869T433 857T458 845T480 840Q494 840 501 848T513 871H584Q576 820 550 787T481 755Q463 755 447 760T418 771T393 783T372 788Q349 788 342 757H271Q280 816 307 845T371 875Z" horiz-adv-x="713" unicode="Õ"/>
			<glyph d="M408 729Q477 729 534 707T631 644T694 545T716 417Q716 333 692 254T622 116T506 20T346 -16Q277 -16 220 5T121 65T57 162T35 291Q35 377 59 456T131 596T248 693T408 729ZM399 611Q340 611 298 581T231 506T193 404T181 294Q181 254 190 219T220 158T273 117T352 102Q412 102 454 131T521 205T558 306T570 413Q570 455 560 491T529 553T476 595T399 611ZM483 867H609L586 753H460ZM284 867H410L387 753H261Z" horiz-adv-x="713" unicode="Ö"/>
			<glyph d="M165 559L298 392L483 559L546 489L357 318L492 149L416 85L283 252L98 85L36 155L224 325L89 495Z" horiz-adv-x="559" unicode="×"/>
			<glyph d="M406 729Q469 729 521 711T614 659L676 726L722 683L657 613Q686 575 701 525T716 417Q716 333 692 254T622 116T506 20T346 -16Q282 -16 228 2T134 54L62 -22L18 21L91 100Q64 137 49 185T35 291Q35 377 59 456T130 596T247 693T406 729ZM558 507L222 149Q264 102 352 102Q412 102 454 131T522 205T559 306T571 413Q571 469 558 507ZM399 611Q340 611 298 581T230 506T192 404T180 294Q180 269 182 247T191 206L525 564Q483 611 399 611Z" horiz-adv-x="713" unicode="Ø"/>
			<glyph d="M136 715H279L187 240Q174 176 200 139T302 103Q336 103 360 112T402 136T429 174T445 222L540 715H682L584 209Q563 102 493 45T299 -12Q233 -12 180 4T94 52T46 134T46 251ZM298 878H443L472 753H370Z" horiz-adv-x="642" unicode="Ù"/>
			<glyph d="M136 715H279L187 240Q174 176 200 139T302 103Q336 103 360 112T402 136T429 174T445 222L540 715H682L584 209Q563 102 493 45T299 -12Q233 -12 180 4T94 52T46 134T46 251ZM420 878H575L464 753H360Z" horiz-adv-x="642" unicode="Ú"/>
			<glyph d="M136 715H279L187 240Q174 176 200 139T302 103Q336 103 360 112T402 136T429 174T445 222L540 715H682L584 209Q563 102 493 45T299 -12Q233 -12 180 4T94 52T46 134T46 251ZM362 867H506L581 753H468L431 812H429L371 753H251Z" horiz-adv-x="642" unicode="Û"/>
			<glyph d="M136 715H279L187 240Q174 176 200 139T302 103Q336 103 360 112T402 136T429 174T445 222L540 715H682L584 209Q563 102 493 45T299 -12Q233 -12 180 4T94 52T46 134T46 251ZM472 867H598L575 753H449ZM273 867H399L376 753H250Z" horiz-adv-x="642" unicode="Ü"/>
			<glyph d="M90 715H237L298 510Q303 493 307 474T316 440Q320 422 324 403H326L347 438Q356 453 367 471T391 506L536 715H691L372 276L319 0H176L230 280ZM396 878H551L440 753H336Z" horiz-adv-x="607" unicode="Ý"/>
			<glyph d="M142 715H290L269 606H396Q447 606 489 592T561 551T607 484T624 395Q624 338 604 292T549 215T464 167T355 151H181L152 0H4ZM246 484L205 269H349Q374 269 397 276T438 298T466 336T477 391Q477 435 452 459T378 484Z" horiz-adv-x="620" unicode="Þ"/>
			<glyph d="M334 729Q374 729 410 719T474 688T518 636T535 563Q535 507 504 469T419 412V409Q466 388 490 346T515 250Q515 196 499 149T452 66T377 11T277 -9Q225 -9 180 4L200 101H202Q218 96 232 94T259 93Q319 93 351 137T384 257Q384 311 358 342T279 373H253L269 455H304Q349 455 379 481T410 557Q410 590 388 609T333 629Q248 629 229 528L127 0H-7L97 540Q105 582 125 617T175 676T245 715T334 729Z" horiz-adv-x="542" unicode="ß"/>
			<glyph d="M289 526Q337 526 377 515T444 480T483 417T484 322L436 76Q431 50 432 32T440 5V0H313Q308 8 306 23T306 56H304Q281 31 248 9T161 -12Q131 -12 102 -3T50 23T12 70T-2 139Q-2 190 17 221T68 271T142 298T231 310Q267 313 292 316T333 325T356 343T364 373Q364 401 343 415T284 430Q242 430 215 412T179 357H59Q72 436 130 481T289 526ZM345 253Q325 244 302 238T247 227Q229 224 208 221T169 212T139 191T127 151Q127 116 148 98T204 81Q230 81 251 88T289 109T315 138T329 172ZM177 718H323L364 577H262Z" horiz-adv-x="514" unicode="à"/>
			<glyph d="M289 526Q337 526 377 515T444 480T483 417T484 322L436 76Q431 50 432 32T440 5V0H313Q308 8 306 23T306 56H304Q281 31 248 9T161 -12Q131 -12 102 -3T50 23T12 70T-2 139Q-2 190 17 221T68 271T142 298T231 310Q267 313 292 316T333 325T356 343T364 373Q364 401 343 415T284 430Q242 430 215 412T179 357H59Q72 436 130 481T289 526ZM345 253Q325 244 302 238T247 227Q229 224 208 221T169 212T139 191T127 151Q127 116 148 98T204 81Q230 81 251 88T289 109T315 138T329 172ZM329 718H486L360 577H255Z" horiz-adv-x="514" unicode="á"/>
			<glyph d="M289 526Q337 526 377 515T444 480T483 417T484 322L436 76Q431 50 432 32T440 5V0H313Q308 8 306 23T306 56H304Q281 31 248 9T161 -12Q131 -12 102 -3T50 23T12 70T-2 139Q-2 190 17 221T68 271T142 298T231 310Q267 313 292 316T333 325T356 343T364 373Q364 401 343 415T284 430Q242 430 215 412T179 357H59Q72 436 130 481T289 526ZM345 253Q325 244 302 238T247 227Q229 224 208 221T169 212T139 191T127 151Q127 116 148 98T204 81Q230 81 251 88T289 109T315 138T329 172ZM257 707H399L475 581H362L325 650H323L265 581H145Z" horiz-adv-x="514" unicode="â"/>
			<glyph d="M289 526Q337 526 377 515T444 480T483 417T484 322L436 76Q431 50 432 32T440 5V0H313Q308 8 306 23T306 56H304Q281 31 248 9T161 -12Q131 -12 102 -3T50 23T12 70T-2 139Q-2 190 17 221T68 271T142 298T231 310Q267 313 292 316T333 325T356 343T364 373Q364 401 343 415T284 430Q242 430 215 412T179 357H59Q72 436 130 481T289 526ZM345 253Q325 244 302 238T247 227Q229 224 208 221T169 212T139 191T127 151Q127 116 148 98T204 81Q230 81 251 88T289 109T315 138T329 172ZM263 695Q281 695 296 689T323 677T346 665T367 660Q381 660 388 668T400 691H471Q462 640 436 607T368 575Q350 575 335 580T308 591T284 603T264 608Q241 608 234 577H163Q173 636 199 665T263 695Z" horiz-adv-x="514" unicode="ã"/>
			<glyph d="M289 526Q337 526 377 515T444 480T483 417T484 322L436 76Q431 50 432 32T440 5V0H313Q308 8 306 23T306 56H304Q281 31 248 9T161 -12Q131 -12 102 -3T50 23T12 70T-2 139Q-2 190 17 221T68 271T142 298T231 310Q267 313 292 316T333 325T356 343T364 373Q364 401 343 415T284 430Q242 430 215 412T179 357H59Q72 436 130 481T289 526ZM345 253Q325 244 302 238T247 227Q229 224 208 221T169 212T139 191T127 151Q127 116 148 98T204 81Q230 81 251 88T289 109T315 138T329 172ZM383 695H507L484 581H360ZM166 695H290L267 581H143Z" horiz-adv-x="514" unicode="ä"/>
			<glyph d="M289 526Q337 526 377 515T444 480T483 417T484 322L436 76Q431 50 432 32T440 5V0H313Q308 8 306 23T306 56H304Q281 31 248 9T161 -12Q131 -12 102 -3T50 23T12 70T-2 139Q-2 190 17 221T68 271T142 298T231 310Q267 313 292 316T333 325T356 343T364 373Q364 401 343 415T284 430Q242 430 215 412T179 357H59Q72 436 130 481T289 526ZM345 253Q325 244 302 238T247 227Q229 224 208 221T169 212T139 191T127 151Q127 116 148 98T204 81Q230 81 251 88T289 109T315 138T329 172ZM319 749Q339 749 356 741T387 721T408 691T416 655Q416 615 387 588T319 561Q279 561 250 588T222 655Q222 674 229 691T250 721T281 741T319 749ZM319 702Q299 702 286 688T274 655Q274 635 286 621T319 608Q339 608 351 621T364 655Q364 675 351 688T319 702Z" horiz-adv-x="514" unicode="å"/>
			<glyph d="M614 527Q656 527 686 519T743 494Q801 456 822 384T829 219H472Q472 158 495 123T577 89Q612 89 640 104T682 153H814Q790 81 735 38Q670 -13 575 -15Q509 -15 458 9T378 84Q363 63 345 45T303 15T248 -4T178 -12Q140 -12 107 -3T50 23T12 70T-2 139Q-2 190 17 221T68 271T142 296T231 308Q267 311 292 314T333 324T356 342T364 373Q364 401 343 415T284 430Q242 430 215 412T179 357H59Q72 436 130 481T289 526Q343 526 385 511T452 465Q484 494 525 510T614 527ZM345 251Q325 242 302 236T247 225Q229 222 208 219T169 210T139 190T127 151Q127 116 148 98T204 81Q257 81 289 109T331 181ZM611 423Q558 423 527 390T484 312H705Q706 334 701 354T684 390T655 414T611 423Z" horiz-adv-x="855" unicode="æ"/>
			<glyph d="M296 527Q339 527 376 516T442 483T488 425T509 339H378Q374 376 353 397T292 419Q255 419 228 400T184 350T158 282T150 208Q150 183 155 162T173 125T205 101T253 93Q291 93 318 114T360 181H490Q469 89 405 38T248 -15L206 -50V-52Q243 -47 272 -61T302 -111Q302 -133 291 -148T264 -173T226 -187T183 -192Q143 -192 119 -184T75 -163L96 -131Q110 -138 128 -142T164 -146Q172 -146 182 -145T201 -140T216 -129T222 -111Q222 -99 211 -92T186 -86Q175 -86 166 -88T148 -93L136 -71L197 -11Q158 -5 125 11T68 55T30 122T16 212Q16 271 35 327T90 428T178 500T296 527Z" horiz-adv-x="514" unicode="ç"/>
			<glyph d="M291 527Q333 527 363 519T420 494Q478 456 499 384T506 219H149Q149 158 172 123T254 89Q289 89 317 104T359 153H491Q467 81 412 38Q347 -13 252 -15Q202 -15 159 -1T84 42T34 115T16 221Q16 277 35 331T91 429T178 500T291 527ZM288 423Q235 423 204 390T161 312H382Q383 334 378 354T361 390T332 414T288 423ZM170 718H316L357 577H255Z" horiz-adv-x="532" unicode="è"/>
			<glyph d="M291 527Q333 527 363 519T420 494Q478 456 499 384T506 219H149Q149 158 172 123T254 89Q289 89 317 104T359 153H491Q467 81 412 38Q347 -13 252 -15Q202 -15 159 -1T84 42T34 115T16 221Q16 277 35 331T91 429T178 500T291 527ZM288 423Q235 423 204 390T161 312H382Q383 334 378 354T361 390T332 414T288 423ZM324 718H481L355 577H250Z" horiz-adv-x="532" unicode="é"/>
			<glyph d="M291 527Q333 527 363 519T420 494Q478 456 499 384T506 219H149Q149 158 172 123T254 89Q289 89 317 104T359 153H491Q467 81 412 38Q347 -13 252 -15Q202 -15 159 -1T84 42T34 115T16 221Q16 277 35 331T91 429T178 500T291 527ZM249 707H391L467 581H354L317 650H315L257 581H137ZM288 423Q235 423 204 390T161 312H382Q383 334 378 354T361 390T332 414T288 423Z" horiz-adv-x="532" unicode="ê"/>
			<glyph d="M291 527Q333 527 363 519T420 494Q478 456 499 384T506 219H149Q149 158 172 123T254 89Q289 89 317 104T359 153H491Q467 81 412 38Q347 -13 252 -15Q202 -15 159 -1T84 42T34 115T16 221Q16 277 35 331T91 429T178 500T291 527ZM288 423Q235 423 204 390T161 312H382Q383 334 378 354T361 390T332 414T288 423ZM373 695H497L474 581H350ZM156 695H280L257 581H133Z" horiz-adv-x="532" unicode="ë"/>
			<glyph d="M92 513H226L127 0H-7ZM38 718H184L225 577H123Z" horiz-adv-x="220" unicode="ì"/>
			<glyph d="M92 513H226L127 0H-7ZM193 718H350L224 577H119Z" horiz-adv-x="220" unicode="í"/>
			<glyph d="M92 513H226L127 0H-7ZM117 707H253L306 581H202L180 647H178L135 581H27Z" horiz-adv-x="220" unicode="î"/>
			<glyph d="M92 513H226L127 0H-7ZM211 695H317L294 581H188ZM70 695H176L153 581H47Z" horiz-adv-x="220" unicode="ï"/>
			<glyph d="M191 715H352Q382 693 408 667L512 699L526 646L448 622Q489 571 516 500T543 332Q543 249 523 184T466 75T376 8T259 -15Q208 -15 163 0T86 46T35 121T17 225Q17 286 37 339T93 433T178 496T284 519Q322 519 349 504T397 463H399Q385 498 367 528T328 585L184 542L170 595L287 630Q264 653 240 674T191 715ZM298 424Q259 424 231 405T186 357T159 291T151 217Q151 191 157 167T176 125T209 96T260 86Q299 86 327 105T373 154T399 222T408 297Q408 322 401 345T381 385T347 413T298 424Z" horiz-adv-x="561" unicode="ð"/>
			<glyph d="M371 527Q409 527 438 512T486 470T511 406T509 324L447 0H313L373 308Q383 359 364 386T303 413Q279 413 259 403T223 375T197 332T181 280L127 0H-7L92 513H223L208 432H211Q244 480 280 503T371 527ZM278 695Q296 695 311 689T338 677T361 665T382 660Q396 660 403 668T415 691H486Q477 640 451 607T383 575Q365 575 350 580T323 591T299 603T279 608Q256 608 249 577H178Q188 636 214 665T278 695Z" horiz-adv-x="536" unicode="ñ"/>
			<glyph d="M306 527Q355 527 398 512T473 467T524 393T543 293Q543 231 523 175T466 77T376 10T258 -15Q208 -15 164 0T87 46T36 120T17 224Q17 285 37 340T96 436T187 502T306 527ZM299 426Q260 426 232 407T186 358T159 290T151 216Q151 190 157 166T176 125T210 96T261 86Q300 86 328 105T374 154T400 222T409 297Q409 322 403 345T383 387T349 415T299 426ZM182 718H328L369 577H267Z" horiz-adv-x="561" unicode="ò"/>
			<glyph d="M306 527Q355 527 398 512T473 467T524 393T543 293Q543 231 523 175T466 77T376 10T258 -15Q208 -15 164 0T87 46T36 120T17 224Q17 285 37 340T96 436T187 502T306 527ZM299 426Q260 426 232 407T186 358T159 290T151 216Q151 190 157 166T176 125T210 96T261 86Q300 86 328 105T374 154T400 222T409 297Q409 322 403 345T383 387T349 415T299 426ZM341 718H498L372 577H267Z" horiz-adv-x="561" unicode="ó"/>
			<glyph d="M306 527Q355 527 398 512T473 467T524 393T543 293Q543 231 523 175T466 77T376 10T258 -15Q208 -15 164 0T87 46T36 120T17 224Q17 285 37 340T96 436T187 502T306 527ZM299 426Q260 426 232 407T186 358T159 290T151 216Q151 190 157 166T176 125T210 96T261 86Q300 86 328 105T374 154T400 222T409 297Q409 322 403 345T383 387T349 415T299 426ZM263 707H405L481 581H368L331 650H329L271 581H151Z" horiz-adv-x="561" unicode="ô"/>
			<glyph d="M306 527Q355 527 398 512T473 467T524 393T543 293Q543 231 523 175T466 77T376 10T258 -15Q208 -15 164 0T87 46T36 120T17 224Q17 285 37 340T96 436T187 502T306 527ZM299 426Q260 426 232 407T186 358T159 290T151 216Q151 190 157 166T176 125T210 96T261 86Q300 86 328 105T374 154T400 222T409 297Q409 322 403 345T383 387T349 415T299 426ZM262 695Q280 695 295 689T322 677T345 665T366 660Q380 660 387 668T399 691H470Q461 640 435 607T367 575Q349 575 334 580T307 591T283 603T263 608Q240 608 233 577H162Q172 636 198 665T262 695Z" horiz-adv-x="561" unicode="õ"/>
			<glyph d="M306 527Q355 527 398 512T473 467T524 393T543 293Q543 231 523 175T466 77T376 10T258 -15Q208 -15 164 0T87 46T36 120T17 224Q17 285 37 340T96 436T187 502T306 527ZM299 426Q260 426 232 407T186 358T159 290T151 216Q151 190 157 166T176 125T210 96T261 86Q300 86 328 105T374 154T400 222T409 297Q409 322 403 345T383 387T349 415T299 426ZM392 695H516L493 581H369ZM175 695H299L276 581H152Z" horiz-adv-x="561" unicode="ö"/>
			<glyph d="M198 207H341L315 74H172ZM271 582H414L388 450H245ZM57 377H548L529 279H38Z" horiz-adv-x="560" unicode="÷"/>
			<glyph d="M516 541L555 504L496 442Q519 413 531 376T543 293Q543 231 523 175T466 77T376 10T259 -15Q215 -15 176 -4T107 29L45 -36L6 1L68 66Q44 95 30 134T17 224Q17 285 37 340T96 436T187 502T306 527Q350 527 388 515T458 480ZM299 426Q260 426 232 407T185 358T158 290T149 216Q149 182 156 160L379 396Q349 426 299 426ZM405 345L184 111Q212 86 261 86Q300 86 328 105T375 154T402 222T411 297Q411 324 405 345Z" horiz-adv-x="561" unicode="ø"/>
			<glyph d="M86 513H220L160 205Q139 99 224 99Q272 99 303 135T346 233L400 513H534L435 0H306L320 73H317Q287 31 251 8T164 -14Q83 -14 44 40T24 189ZM186 718H332L373 577H271Z" horiz-adv-x="530" unicode="ù"/>
			<glyph d="M86 513H220L160 205Q139 99 224 99Q272 99 303 135T346 233L400 513H534L435 0H306L320 73H317Q287 31 251 8T164 -14Q83 -14 44 40T24 189ZM338 718H495L369 577H264Z" horiz-adv-x="530" unicode="ú"/>
			<glyph d="M86 513H220L160 205Q139 99 224 99Q272 99 303 135T346 233L400 513H534L435 0H306L320 73H317Q287 31 251 8T164 -14Q83 -14 44 40T24 189ZM268 707H410L486 581H373L336 650H334L276 581H156Z" horiz-adv-x="530" unicode="û"/>
			<glyph d="M86 513H220L160 205Q139 99 224 99Q272 99 303 135T346 233L400 513H534L435 0H306L320 73H317Q287 31 251 8T164 -14Q83 -14 44 40T24 189ZM393 695H517L494 581H370ZM176 695H300L277 581H153Z" horiz-adv-x="530" unicode="ü"/>
			<glyph d="M49 513H189L224 280Q226 262 229 241T234 204Q237 184 239 164H241Q248 184 256 204Q263 221 271 241T288 280L394 513H530L265 -25Q246 -64 227 -91T186 -135T136 -160T71 -168H-13L8 -62H51Q94 -62 117 -38T140 33Q140 68 123 148ZM316 718H473L347 577H242Z" horiz-adv-x="488" unicode="ý"/>
			<glyph d="M131 715H265L214 453H217Q244 485 280 506T369 527Q412 527 445 510T500 463T534 392T546 303Q546 249 531 192T486 90T408 14T293 -15Q246 -15 205 6T143 72H141L94 -168H-40ZM311 418Q275 418 248 399T203 351T177 286T168 215Q168 192 174 170T193 132T226 106T273 97Q311 97 337 115T379 162T402 227T409 298Q409 320 404 342T387 380T357 407T311 418Z" horiz-adv-x="562" unicode="þ"/>
			<glyph d="M49 513H189L224 280Q226 262 229 241T234 204Q237 184 239 164H241Q248 184 256 204Q263 221 271 241T288 280L394 513H530L265 -25Q246 -64 227 -91T186 -135T136 -160T71 -168H-13L8 -62H51Q94 -62 117 -38T140 33Q140 68 123 148ZM368 695H492L469 581H345ZM151 695H275L252 581H128Z" horiz-adv-x="488" unicode="ÿ"/>
			<glyph d="M317 715H465L583 0H435L415 153H168L96 0H-49ZM365 578Q357 556 348 536Q340 519 332 499T317 466L220 263H401L376 464Q374 479 373 499T370 536Q368 556 367 578ZM275 857H555L537 762H257Z" horiz-adv-x="634" unicode="Ā"/>
			<glyph d="M289 526Q337 526 377 515T444 480T483 417T484 322L436 76Q431 50 432 32T440 5V0H313Q308 8 306 23T306 56H304Q281 31 248 9T161 -12Q131 -12 102 -3T50 23T12 70T-2 139Q-2 190 17 221T68 271T142 298T231 310Q267 313 292 316T333 325T356 343T364 373Q364 401 343 415T284 430Q242 430 215 412T179 357H59Q72 436 130 481T289 526ZM345 253Q325 244 302 238T247 227Q229 224 208 221T169 212T139 191T127 151Q127 116 148 98T204 81Q230 81 251 88T289 109T315 138T329 172ZM193 687H473L455 592H175Z" horiz-adv-x="514" unicode="ā"/>
			<glyph d="M317 715H465L583 0H435L415 153H168L96 0H-49ZM365 578Q357 556 348 536Q340 519 332 499T317 466L220 263H401L376 464Q374 479 373 499T370 536Q368 556 367 578ZM266 882H342Q344 860 359 847T406 834Q435 834 453 847T478 882H555Q544 824 504 786T403 749Q337 749 302 787T266 882Z" horiz-adv-x="634" unicode="Ă"/>
			<glyph d="M289 526Q337 526 377 515T444 480T483 417T484 322L436 76Q431 50 432 32T440 5V0H313Q308 8 306 23T306 56H304Q281 31 248 9T161 -12Q131 -12 102 -3T50 23T12 70T-2 139Q-2 190 17 221T68 271T142 298T231 310Q267 313 292 316T333 325T356 343T364 373Q364 401 343 415T284 430Q242 430 215 412T179 357H59Q72 436 130 481T289 526ZM345 253Q325 244 302 238T247 227Q229 224 208 221T169 212T139 191T127 151Q127 116 148 98T204 81Q230 81 251 88T289 109T315 138T329 172ZM180 706H256Q258 684 273 671T320 658Q349 658 367 671T392 706H469Q458 648 418 610T317 573Q251 573 216 611T180 706Z" horiz-adv-x="514" unicode="ă"/>
			<glyph d="M317 715H465L582 4Q573 -2 560 -10T536 -29T517 -50T509 -73Q509 -96 540 -96Q548 -96 555 -94T568 -90H570L555 -166Q547 -169 535 -171T506 -174Q486 -174 467 -169T435 -155T412 -131T403 -97Q403 -63 425 -39T477 0H435L415 153H168L96 0H-49ZM365 578Q357 556 348 536Q340 519 332 499T317 466L220 263H401L376 464Q374 479 373 499T370 536Q368 556 367 578Z" horiz-adv-x="634" unicode="Ą"/>
			<glyph d="M289 526Q337 526 377 515T444 480T483 417T484 322L436 76Q431 50 432 32T440 5V0Q432 -4 420 -12T398 -29T379 -50T371 -73Q371 -96 402 -96Q410 -96 417 -94T430 -90H432L417 -166Q409 -169 397 -171T368 -174Q348 -174 329 -169T297 -155T274 -131T265 -97Q265 -79 272 -64T291 -37T318 -17T350 0H313Q308 8 306 23T306 56H304Q281 31 248 9T161 -12Q131 -12 102 -3T50 23T12 70T-2 139Q-2 190 17 221T68 271T142 298T231 310Q267 313 292 316T333 325T356 343T364 373Q364 401 343 415T284 430Q242 430 215 412T179 357H59Q72 436 130 481T289 526ZM345 253Q325 244 302 238T247 227Q229 224 208 221T169 212T139 191T127 151Q127 116 148 98T204 81Q230 81 251 88T289 109T315 138T329 172Z" horiz-adv-x="514" unicode="ą"/>
			<glyph d="M417 729Q471 729 518 715T599 671T655 596T680 488H539Q529 608 406 608Q347 608 305 579T235 505T194 402T181 291Q181 254 189 220T216 160T266 118T342 103Q405 103 447 136T509 230H650Q635 173 607 126T538 47Q493 13 445 -1T331 -15Q260 -15 204 7T111 70T54 167T35 289Q35 371 60 450T135 591T255 691T417 729ZM434 878H589L478 753H374Z" horiz-adv-x="673" unicode="Ć"/>
			<glyph d="M296 527Q339 527 376 516T442 483T488 425T509 339H378Q374 376 353 397T292 419Q255 419 228 400T184 350T158 282T150 208Q150 183 155 162T173 125T205 101T253 93Q291 93 318 114T360 181H490Q469 88 404 36T245 -15Q198 -15 156 -1T83 39T34 110T16 212Q16 271 35 327T90 428T178 500T296 527ZM331 718H488L362 577H257Z" horiz-adv-x="514" unicode="ć"/>
			<glyph d="M417 729Q471 729 518 715T599 671T655 596T680 488H539Q529 608 406 608Q347 608 305 579T235 505T194 402T181 291Q181 254 189 220T216 160T266 118T342 103Q405 103 447 136T509 230H650Q635 173 607 126T538 47Q493 13 445 -1T331 -15Q260 -15 204 7T111 70T54 167T35 289Q35 371 60 450T135 591T255 691T417 729ZM370 867H514L589 753H476L439 812H437L379 753H259Z" horiz-adv-x="673" unicode="Ĉ"/>
			<glyph d="M296 527Q339 527 376 516T442 483T488 425T509 339H378Q374 376 353 397T292 419Q255 419 228 400T184 350T158 282T150 208Q150 183 155 162T173 125T205 101T253 93Q291 93 318 114T360 181H490Q469 88 404 36T245 -15Q198 -15 156 -1T83 39T34 110T16 212Q16 271 35 327T90 428T178 500T296 527ZM254 707H396L472 581H359L322 650H320L262 581H142Z" horiz-adv-x="514" unicode="ĉ"/>
			<glyph d="M417 729Q471 729 518 715T599 671T655 596T680 488H539Q529 608 406 608Q347 608 305 579T235 505T194 402T181 291Q181 254 189 220T216 160T266 118T342 103Q405 103 447 136T509 230H650Q635 173 607 126T538 47Q493 13 445 -1T331 -15Q260 -15 204 7T111 70T54 167T35 289Q35 371 60 450T135 591T255 691T417 729ZM378 871H512L488 753H354Z" horiz-adv-x="673" unicode="Ċ"/>
			<glyph d="M296 527Q339 527 376 516T442 483T488 425T509 339H378Q374 376 353 397T292 419Q255 419 228 400T184 350T158 282T150 208Q150 183 155 162T173 125T205 101T253 93Q291 93 318 114T360 181H490Q469 88 404 36T245 -15Q198 -15 156 -1T83 39T34 110T16 212Q16 271 35 327T90 428T178 500T296 527ZM264 715H398L375 593H241Z" horiz-adv-x="514" unicode="ċ"/>
			<glyph d="M417 729Q471 729 518 715T599 671T655 596T680 488H539Q529 608 406 608Q347 608 305 579T235 505T194 402T181 291Q181 254 189 220T216 160T266 118T342 103Q405 103 447 136T509 230H650Q635 173 607 126T538 47Q493 13 445 -1T331 -15Q260 -15 204 7T111 70T54 167T35 289Q35 371 60 450T135 591T255 691T417 729ZM275 867H388L425 808H427L485 867H605L494 753H350Z" horiz-adv-x="673" unicode="Č"/>
			<glyph d="M296 527Q339 527 376 516T442 483T488 425T509 339H378Q374 376 353 397T292 419Q255 419 228 400T184 350T158 282T150 208Q150 183 155 162T173 125T205 101T253 93Q291 93 318 114T360 181H490Q469 88 404 36T245 -15Q198 -15 156 -1T83 39T34 110T16 212Q16 271 35 327T90 428T178 500T296 527ZM163 702H276L313 633H315L373 702H493L381 576H239Z" horiz-adv-x="514" unicode="č"/>
			<glyph d="M142 715H369Q435 715 488 696T580 638T639 543T660 412Q660 309 634 235T556 105Q509 55 437 27T285 0H4ZM261 591L171 125H286Q398 125 456 200T515 408Q515 497 474 544T351 591ZM236 867H349L386 808H388L446 867H566L455 753H311Z" horiz-adv-x="659" unicode="Ď"/>
			<glyph d="M474 715H608L470 0H341L351 56H349Q322 21 289 3T208 -15Q164 -15 129 1T69 46T31 117T18 210Q18 269 35 326T86 427T167 499T275 527Q326 527 362 505T419 444H422ZM290 418Q255 418 229 399T186 351T162 286T154 218Q154 192 159 170T175 131T206 105T252 96Q288 96 315 114T359 160T385 223T394 291Q394 346 369 382T290 418ZM652 715H774L757 624Q746 569 709 546T613 522L622 566Q651 568 669 579T691 614H633Z" horiz-adv-x="563" unicode="ď"/>
			<glyph d="M152 715H379Q445 715 498 696T590 638T649 543T670 412Q670 309 644 235T566 105Q519 55 447 27T295 0H14L73 305H11L32 419H95ZM271 591L238 419H400L379 305H216L181 125H296Q408 125 466 200T525 408Q525 497 484 544T361 591Z" horiz-adv-x="669" unicode="Đ"/>
			<glyph d="M474 715H608L595 649H648L633 571H580L470 0H341L351 56H349Q322 21 289 3T208 -15Q164 -15 129 1T69 46T31 117T18 210Q18 269 35 326T86 427T167 499T275 527Q326 527 362 505T419 444H422L446 571H317L332 649H461ZM290 418Q255 418 229 399T186 351T162 286T154 218Q154 192 159 170T175 131T206 105T252 96Q288 96 315 114T359 160T385 223T394 291Q394 346 369 382T290 418Z" horiz-adv-x="563" unicode="đ"/>
			<glyph d="M142 715H640L617 594H262L231 433H543L520 315H208L170 120H533L510 0H4ZM289 857H569L551 762H271Z" horiz-adv-x="593" unicode="Ē"/>
			<glyph d="M291 527Q333 527 363 519T420 494Q478 456 499 384T506 219H149Q149 158 172 123T254 89Q289 89 317 104T359 153H491Q467 81 412 38Q347 -13 252 -15Q202 -15 159 -1T84 42T34 115T16 221Q16 277 35 331T91 429T178 500T291 527ZM180 687H460L442 592H162ZM288 423Q235 423 204 390T161 312H382Q383 334 378 354T361 390T332 414T288 423Z" horiz-adv-x="532" unicode="ē"/>
			<glyph d="M142 715H640L617 594H262L231 433H543L520 315H208L170 120H533L510 0H4ZM281 882H357Q359 860 374 847T421 834Q450 834 468 847T493 882H570Q559 824 519 786T418 749Q352 749 317 787T281 882Z" horiz-adv-x="593" unicode="Ĕ"/>
			<glyph d="M291 527Q333 527 363 519T420 494Q478 456 499 384T506 219H149Q149 158 172 123T254 89Q289 89 317 104T359 153H491Q467 81 412 38Q347 -13 252 -15Q202 -15 159 -1T84 42T34 115T16 221Q16 277 35 331T91 429T178 500T291 527ZM165 706H241Q243 684 258 671T305 658Q334 658 352 671T377 706H454Q443 648 403 610T302 573Q236 573 201 611T165 706ZM288 423Q235 423 204 390T161 312H382Q383 334 378 354T361 390T332 414T288 423Z" horiz-adv-x="532" unicode="ĕ"/>
			<glyph d="M142 715H640L617 594H262L231 433H543L520 315H208L170 120H533L510 0H4ZM360 871H494L470 753H336Z" horiz-adv-x="593" unicode="Ė"/>
			<glyph d="M291 527Q333 527 363 519T420 494Q478 456 499 384T506 219H149Q149 158 172 123T254 89Q289 89 317 104T359 153H491Q467 81 412 38Q347 -13 252 -15Q202 -15 159 -1T84 42T34 115T16 221Q16 277 35 331T91 429T178 500T291 527ZM288 423Q235 423 204 390T161 312H382Q383 334 378 354T361 390T332 414T288 423ZM262 715H396L373 593H239Z" horiz-adv-x="532" unicode="ė"/>
			<glyph d="M142 715H640L617 594H262L231 433H543L520 315H208L170 120H533L510 0H459Q453 -4 441 -12T419 -29T400 -50T392 -73Q392 -96 423 -96Q431 -96 438 -94T451 -90H453L438 -166Q430 -169 418 -171T389 -174Q369 -174 350 -169T318 -155T295 -131T286 -97Q286 -64 307 -39T358 0H4Z" horiz-adv-x="593" unicode="Ę"/>
			<glyph d="M291 527Q333 527 363 519T420 494Q478 456 499 384T506 219H149Q149 158 172 123T254 89Q289 89 317 104T359 153H491Q477 111 454 80T395 23Q374 8 356 -4T324 -27T303 -49T296 -72Q296 -83 303 -89T327 -96Q335 -96 342 -94T355 -90H357L342 -166Q334 -169 322 -171T293 -174Q273 -174 254 -169T222 -155T199 -131T190 -97Q190 -67 207 -48T250 -15Q200 -15 157 -1T83 42T34 115T16 221Q16 277 35 331T91 429T178 500T291 527ZM288 423Q235 423 204 390T161 312H382Q383 334 378 354T361 390T332 414T288 423Z" horiz-adv-x="532" unicode="ę"/>
			<glyph d="M142 715H640L617 594H262L231 433H543L520 315H208L170 120H533L510 0H4ZM261 867H374L411 808H413L471 867H591L480 753H336Z" horiz-adv-x="593" unicode="Ě"/>
			<glyph d="M291 527Q333 527 363 519T420 494Q478 456 499 384T506 219H149Q149 158 172 123T254 89Q289 89 317 104T359 153H491Q467 81 412 38Q347 -13 252 -15Q202 -15 159 -1T84 42T34 115T16 221Q16 277 35 331T91 429T178 500T291 527ZM154 702H267L304 633H306L364 702H484L372 576H230ZM288 423Q235 423 204 390T161 312H382Q383 334 378 354T361 390T332 414T288 423Z" horiz-adv-x="532" unicode="ě"/>
			<glyph d="M425 729Q480 729 528 714T614 671T674 597T701 490H562Q556 547 517 578T414 610Q357 610 313 582T240 510T196 408T181 291Q181 201 222 151T351 101Q429 101 482 146T548 269H379L400 380H696L623 0H516L528 88H526Q491 39 438 12T320 -15Q257 -15 205 5T115 63T56 158T35 289Q35 372 62 451T141 592T264 691T425 729ZM374 867H518L593 753H480L443 812H441L383 753H263Z" horiz-adv-x="711" unicode="Ĝ"/>
			<glyph d="M270 527Q320 527 357 507T414 451H416L428 513H557L462 22Q453 -25 435 -58T389 -118Q358 -147 318 -161T218 -175Q180 -175 143 -166T77 -138T28 -88T3 -15H139Q145 -43 165 -58T221 -73Q269 -73 296 -43T332 35L342 87H339Q313 61 285 46T213 31Q169 31 133 46T73 89T34 155T20 240Q20 296 37 348T87 439T165 503T270 527ZM285 419Q254 419 229 405T188 368T162 314T153 250Q153 202 177 170T252 139Q284 139 309 153T351 190T378 243T387 305Q386 355 360 387T285 419ZM265 707H407L483 581H370L333 650H331L273 581H153Z" horiz-adv-x="551" unicode="ĝ"/>
			<glyph d="M425 729Q480 729 528 714T614 671T674 597T701 490H562Q556 547 517 578T414 610Q357 610 313 582T240 510T196 408T181 291Q181 201 222 151T351 101Q429 101 482 146T548 269H379L400 380H696L623 0H516L528 88H526Q491 39 438 12T320 -15Q257 -15 205 5T115 63T56 158T35 289Q35 372 62 451T141 592T264 691T425 729ZM301 882H377Q379 860 394 847T441 834Q470 834 488 847T513 882H590Q579 824 539 786T438 749Q372 749 337 787T301 882Z" horiz-adv-x="711" unicode="Ğ"/>
			<glyph d="M270 527Q320 527 357 507T414 451H416L428 513H557L462 22Q453 -25 435 -58T389 -118Q358 -147 318 -161T218 -175Q180 -175 143 -166T77 -138T28 -88T3 -15H139Q145 -43 165 -58T221 -73Q269 -73 296 -43T332 35L342 87H339Q313 61 285 46T213 31Q169 31 133 46T73 89T34 155T20 240Q20 296 37 348T87 439T165 503T270 527ZM285 419Q254 419 229 405T188 368T162 314T153 250Q153 202 177 170T252 139Q284 139 309 153T351 190T378 243T387 305Q386 355 360 387T285 419ZM183 706H259Q261 684 276 671T323 658Q352 658 370 671T395 706H472Q461 648 421 610T320 573Q254 573 219 611T183 706Z" horiz-adv-x="551" unicode="ğ"/>
			<glyph d="M425 729Q480 729 528 714T614 671T674 597T701 490H562Q556 547 517 578T414 610Q357 610 313 582T240 510T196 408T181 291Q181 201 222 151T351 101Q429 101 482 146T548 269H379L400 380H696L623 0H516L528 88H526Q491 39 438 12T320 -15Q257 -15 205 5T115 63T56 158T35 289Q35 372 62 451T141 592T264 691T425 729ZM386 871H520L496 753H362Z" horiz-adv-x="711" unicode="Ġ"/>
			<glyph d="M270 527Q320 527 357 507T414 451H416L428 513H557L462 22Q453 -25 435 -58T389 -118Q358 -147 318 -161T218 -175Q180 -175 143 -166T77 -138T28 -88T3 -15H139Q145 -43 165 -58T221 -73Q269 -73 296 -43T332 35L342 87H339Q313 61 285 46T213 31Q169 31 133 46T73 89T34 155T20 240Q20 296 37 348T87 439T165 503T270 527ZM285 419Q254 419 229 405T188 368T162 314T153 250Q153 202 177 170T252 139Q284 139 309 153T351 190T378 243T387 305Q386 355 360 387T285 419ZM277 715H411L388 593H254Z" horiz-adv-x="551" unicode="ġ"/>
			<glyph d="M425 729Q480 729 528 714T614 671T674 597T701 490H562Q556 547 517 578T414 610Q357 610 313 582T240 510T196 408T181 291Q181 201 222 151T351 101Q429 101 482 146T548 269H379L400 380H696L623 0H516L528 88H526Q491 39 438 12T320 -15Q257 -15 205 5T115 63T56 158T35 289Q35 372 62 451T141 592T264 691T425 729ZM263 -48H385L365 -150Q359 -179 345 -199T313 -233T270 -253T219 -263L228 -219Q254 -214 275 -199T301 -155H242Z" horiz-adv-x="711" unicode="Ģ"/>
			<glyph d="M270 527Q320 527 357 507T414 451H416L428 513H557L462 22Q453 -25 435 -58T389 -118Q358 -147 318 -161T218 -175Q180 -175 143 -166T77 -138T28 -88T3 -15H139Q145 -43 165 -58T221 -73Q269 -73 296 -43T332 35L342 87H339Q313 61 285 46T213 31Q169 31 133 46T73 89T34 155T20 240Q20 296 37 348T87 439T165 503T270 527ZM285 419Q254 419 229 405T188 368T162 314T153 250Q153 202 177 170T252 139Q284 139 309 153T351 190T378 243T387 305Q386 355 360 387T285 419ZM424 816L415 772Q389 767 368 752T342 708H401L380 601H258L278 703Q284 732 297 752T330 786T373 806T424 816Z" horiz-adv-x="551" unicode="ģ"/>
			<glyph d="M142 715H285L231 434H494L548 715H691L553 0H410L471 316H208L147 0H4ZM362 867H506L581 753H468L431 812H429L371 753H251Z" horiz-adv-x="657" unicode="Ĥ"/>
			<glyph d="M131 715H265L213 442H216Q247 485 281 506T371 527Q409 527 438 512T486 470T511 406T509 324L447 0H313L373 308Q383 359 364 386T303 413Q279 413 258 403T222 375T196 332T181 280L127 0H-7ZM300 867H444L519 753H406L369 812H367L309 753H189Z" horiz-adv-x="536" unicode="ĥ"/>
			<glyph d="M142 715H285L261 593H524L548 715H691L667 593H725L708 510H651L553 0H410L471 316H208L147 0H4L102 510H45L62 593H118ZM245 510L231 434H494L508 510Z" horiz-adv-x="657" unicode="Ħ"/>
			<glyph d="M131 715H265L252 649H383L368 571H237L213 442H216Q247 485 281 506T371 527Q409 527 438 512T486 470T511 406T509 324L447 0H313L373 308Q383 359 364 386T303 413Q279 413 258 403T222 375T196 332T181 280L127 0H-7L103 571H52L67 649H118Z" horiz-adv-x="536" unicode="ħ"/>
			<glyph d="M143 715H286L148 0H5ZM168 875Q186 875 201 869T230 857T255 845T277 840Q291 840 298 848T310 871H381Q373 820 347 787T278 755Q260 755 244 760T215 771T190 783T169 788Q146 788 139 757H68Q77 816 104 845T168 875Z" horiz-adv-x="253" unicode="Ĩ"/>
			<glyph d="M92 513H226L127 0H-7ZM126 695Q142 695 156 689T181 677T202 665T219 660Q231 660 237 668T247 691H315Q310 640 285 607T222 575Q206 575 192 580T167 591T147 603T132 608Q110 608 105 577H37Q43 636 68 665T126 695Z" horiz-adv-x="220" unicode="ĩ"/>
			<glyph d="M143 715H286L148 0H5ZM96 857H376L358 762H78Z" horiz-adv-x="253" unicode="Ī"/>
			<glyph d="M92 513H226L127 0H-7ZM73 687H313L295 592H55Z" horiz-adv-x="220" unicode="ī"/>
			<glyph d="M143 715H286L148 0H5ZM92 882H168Q170 860 185 847T232 834Q261 834 279 847T304 882H381Q370 824 330 786T229 749Q163 749 128 787T92 882Z" horiz-adv-x="253" unicode="Ĭ"/>
			<glyph d="M92 513H226L127 0H-7ZM39 706H115Q117 684 132 671T179 658Q208 658 226 671T251 706H328Q317 648 277 610T176 573Q110 573 75 611T39 706Z" horiz-adv-x="220" unicode="ĭ"/>
			<glyph d="M143 715H286L149 5Q139 -1 126 -9T101 -28T81 -50T73 -73Q73 -96 104 -96Q112 -96 119 -94T132 -90H134L119 -166Q111 -169 99 -171T70 -174Q50 -174 31 -169T-1 -155T-24 -131T-33 -97Q-33 -63 -10 -39T41 0H5Z" horiz-adv-x="253" unicode="Į"/>
			<glyph d="M92 513H226L128 4Q119 -2 106 -10T82 -29T63 -50T55 -73Q55 -96 86 -96Q94 -96 101 -94T114 -90H116L101 -166Q93 -169 81 -171T52 -174Q32 -174 13 -169T-19 -155T-42 -131T-51 -97Q-51 -79 -44 -64T-25 -37T2 -17T34 0H-7ZM131 715H265L242 593H108Z" horiz-adv-x="220" unicode="į"/>
			<glyph d="M143 715H286L148 0H5ZM177 871H311L287 753H153Z" horiz-adv-x="253" unicode="İ"/>
			<glyph d="M92 513H226L127 0H-7Z" horiz-adv-x="220" unicode="ı"/>
			<glyph d="M143 715H286L148 0H5ZM655 715H797L695 185Q687 143 669 107T623 44T553 3T456 -12Q407 -12 365 0T294 39T254 108T254 210L265 266H393L382 209Q362 103 458 103Q504 103 525 127T555 197Z" horiz-adv-x="755" unicode="Ĳ"/>
			<glyph d="M92 513H226L127 0H-7ZM131 715H265L242 593H108ZM312 513H446L340 -32Q331 -77 318 -100T287 -139Q248 -169 187 -169Q169 -169 148 -167T105 -159L123 -63Q141 -64 156 -63T181 -57T199 -43T209 -18ZM351 715H485L462 593H328Z" horiz-adv-x="440" unicode="ĳ"/>
			<glyph d="M406 715H548L446 185Q438 143 420 107T374 44T304 3T207 -12Q158 -12 116 0T45 39T5 108T5 210L16 266H144L133 209Q113 103 209 103Q255 103 276 127T306 197ZM424 867H568L643 753H530L493 812H491L433 753H313Z" horiz-adv-x="506" unicode="Ĵ"/>
			<glyph d="M117 707H253L306 581H202L180 647H178L135 581H27ZM92 513H226L120 -32Q111 -77 98 -100T67 -139Q28 -169 -33 -169Q-51 -169 -72 -167T-115 -159L-97 -63Q-79 -64 -64 -63T-38 -57T-21 -43T-11 -18Z" horiz-adv-x="220" unicode="ĵ"/>
			<glyph d="M142 715H285L230 429L537 715H713L401 435L605 0H449L291 344L197 261L147 0H4ZM227 -48H349L329 -150Q323 -179 309 -199T277 -233T234 -253T183 -263L192 -219Q218 -214 239 -199T265 -155H206Z" horiz-adv-x="648" unicode="Ķ"/>
			<glyph d="M131 715H264L186 314L387 513H551L337 312L480 0H331L233 232L157 164L126 0H-7ZM166 -48H288L268 -150Q262 -179 248 -199T216 -233T173 -253T122 -263L131 -219Q157 -214 178 -199T204 -155H145Z" horiz-adv-x="523" unicode="ķ"/>
			<glyph d="M92 513H225L186 314L387 513H551L337 312L480 0H331L233 232L157 164L126 0H-7Z" horiz-adv-x="523" unicode="ĸ"/>
			<glyph d="M142 715H285L170 120H490L467 0H4ZM225 878H380L269 753H165Z" horiz-adv-x="535" unicode="Ĺ"/>
			<glyph d="M133 715H267L129 0H-5ZM211 878H366L255 753H151Z" horiz-adv-x="224" unicode="ĺ"/>
			<glyph d="M142 715H285L170 120H490L467 0H4ZM171 -48H293L273 -150Q267 -179 253 -199T221 -233T178 -253T127 -263L136 -219Q162 -214 183 -199T209 -155H150Z" horiz-adv-x="535" unicode="Ļ"/>
			<glyph d="M133 715H267L129 0H-5ZM-8 -48H114L94 -150Q88 -179 74 -199T42 -233T-1 -253T-52 -263L-43 -219Q-17 -214 4 -199T30 -155H-29Z" horiz-adv-x="224" unicode="ļ"/>
			<glyph d="M142 715H285L170 120H490L467 0H4ZM379 715H501L484 624Q473 569 436 546T340 522L349 566Q378 568 396 579T418 614H360Z" horiz-adv-x="535" unicode="Ľ"/>
			<glyph d="M133 715H267L129 0H-5ZM311 715H433L416 624Q405 569 368 546T272 522L281 566Q310 568 328 579T350 614H292Z" horiz-adv-x="224" unicode="ľ"/>
			<glyph d="M142 715H285L170 120H490L467 0H4ZM371 408H515L487 263H343Z" horiz-adv-x="535" unicode="Ŀ"/>
			<glyph d="M262 408H406L378 263H234ZM133 715H267L129 0H-5Z" horiz-adv-x="386" unicode="ŀ"/>
			<glyph d="M147 715H290L228 395L446 490L426 388L208 293L175 120H495L472 0H9L52 225L-16 195L3 297L72 327Z" horiz-adv-x="540" unicode="Ł"/>
			<glyph d="M145 715H279L230 459L304 508L284 405L210 356L141 0H7L56 256L-9 213L11 316L76 359Z" horiz-adv-x="254" unicode="ł"/>
			<glyph d="M142 715H285L431 316Q437 299 442 281T451 248Q455 230 460 212H462Q465 233 469 255Q472 274 475 295T483 336L556 715H695L557 0H421L268 398Q261 415 255 433T246 466Q242 483 238 498H236Q233 476 229 454Q226 435 222 413T215 373L143 0H4ZM435 878H590L479 753H375Z" horiz-adv-x="661" unicode="Ń"/>
			<glyph d="M371 527Q409 527 438 512T486 470T511 406T509 324L447 0H313L373 308Q383 359 364 386T303 413Q279 413 259 403T223 375T197 332T181 280L127 0H-7L92 513H223L208 432H211Q244 480 280 503T371 527ZM349 718H506L380 577H275Z" horiz-adv-x="536" unicode="ń"/>
			<glyph d="M142 715H285L431 316Q437 299 442 281T451 248Q455 230 460 212H462Q465 233 469 255Q472 274 475 295T483 336L556 715H695L557 0H421L268 398Q261 415 255 433T246 466Q242 483 238 498H236Q233 476 229 454Q226 435 222 413T215 373L143 0H4ZM227 -46H349L329 -148Q323 -177 309 -197T277 -231T234 -251T183 -261L192 -217Q218 -212 239 -197T265 -153H206Z" horiz-adv-x="661" unicode="Ņ"/>
			<glyph d="M371 527Q409 527 438 512T486 470T511 406T509 324L447 0H313L373 308Q383 359 364 386T303 413Q279 413 259 403T223 375T197 332T181 280L127 0H-7L92 513H223L208 432H211Q244 480 280 503T371 527ZM154 -48H276L256 -150Q250 -179 236 -199T204 -233T161 -253T110 -263L119 -219Q145 -214 166 -199T192 -155H133Z" horiz-adv-x="536" unicode="ņ"/>
			<glyph d="M142 715H285L431 316Q437 299 442 281T451 248Q455 230 460 212H462Q465 233 469 255Q472 274 475 295T483 336L556 715H695L557 0H421L268 398Q261 415 255 433T246 466Q242 483 238 498H236Q233 476 229 454Q226 435 222 413T215 373L143 0H4ZM283 867H396L433 808H435L493 867H613L502 753H358Z" horiz-adv-x="661" unicode="Ň"/>
			<glyph d="M371 527Q409 527 438 512T486 470T511 406T509 324L447 0H313L373 308Q383 359 364 386T303 413Q279 413 259 403T223 375T197 332T181 280L127 0H-7L92 513H223L208 432H211Q244 480 280 503T371 527ZM179 702H292L329 633H331L389 702H509L397 576H255Z" horiz-adv-x="536" unicode="ň"/>
			<glyph d="M48 715H170L153 624Q142 569 105 546T9 522L18 566Q47 568 65 579T87 614H29ZM371 527Q409 527 438 512T486 470T511 406T509 324L447 0H313L373 308Q383 359 364 386T303 413Q279 413 259 403T223 375T197 332T181 280L127 0H-7L92 513H223L208 432H211Q244 480 280 503T371 527Z" horiz-adv-x="536" unicode="ŉ"/>
			<glyph d="M142 715H285L431 316Q437 299 442 281T451 248Q455 230 460 212H462Q465 233 469 255Q472 274 475 295T483 336L556 715H695L562 26Q553 -21 539 -58T500 -121T438 -161T344 -175Q327 -175 306 -173T269 -166L291 -45Q301 -47 311 -48T334 -50Q400 -50 418 7L268 398Q261 415 255 433T246 466Q242 483 238 498H236Q233 476 229 454Q226 435 222 413T215 373L143 0H4Z" horiz-adv-x="661" unicode="Ŋ"/>
			<glyph d="M371 527Q409 527 438 512T486 470T511 406T509 324L441 -32Q432 -77 419 -100T388 -139Q349 -169 288 -169Q270 -169 249 -167T206 -159L224 -63Q242 -64 257 -63T282 -57T300 -43T310 -18L373 308Q383 359 364 386T303 413Q279 413 259 403T223 375T197 332T181 280L127 0H-7L92 513H223L208 432H211Q244 480 280 503T371 527Z" horiz-adv-x="536" unicode="ŋ"/>
			<glyph d="M408 729Q477 729 534 707T631 644T694 545T716 417Q716 333 692 254T622 116T506 20T346 -16Q277 -16 220 5T121 65T57 162T35 291Q35 377 59 456T131 596T248 693T408 729ZM399 611Q340 611 298 581T231 506T193 404T181 294Q181 254 190 219T220 158T273 117T352 102Q412 102 454 131T521 205T558 306T570 413Q570 455 560 491T529 553T476 595T399 611ZM303 857H583L565 762H285Z" horiz-adv-x="713" unicode="Ō"/>
			<glyph d="M306 527Q355 527 398 512T473 467T524 393T543 293Q543 231 523 175T466 77T376 10T258 -15Q208 -15 164 0T87 46T36 120T17 224Q17 285 37 340T96 436T187 502T306 527ZM299 426Q260 426 232 407T186 358T159 290T151 216Q151 190 157 166T176 125T210 96T261 86Q300 86 328 105T374 154T400 222T409 297Q409 322 403 345T383 387T349 415T299 426ZM193 687H473L455 592H175Z" horiz-adv-x="561" unicode="ō"/>
			<glyph d="M408 729Q477 729 534 707T631 644T694 545T716 417Q716 333 692 254T622 116T506 20T346 -16Q277 -16 220 5T121 65T57 162T35 291Q35 377 59 456T131 596T248 693T408 729ZM399 611Q340 611 298 581T231 506T193 404T181 294Q181 254 190 219T220 158T273 117T352 102Q412 102 454 131T521 205T558 306T570 413Q570 455 560 491T529 553T476 595T399 611ZM294 882H370Q372 860 387 847T434 834Q463 834 481 847T506 882H583Q572 824 532 786T431 749Q365 749 330 787T294 882Z" horiz-adv-x="713" unicode="Ŏ"/>
			<glyph d="M306 527Q355 527 398 512T473 467T524 393T543 293Q543 231 523 175T466 77T376 10T258 -15Q208 -15 164 0T87 46T36 120T17 224Q17 285 37 340T96 436T187 502T306 527ZM299 426Q260 426 232 407T186 358T159 290T151 216Q151 190 157 166T176 125T210 96T261 86Q300 86 328 105T374 154T400 222T409 297Q409 322 403 345T383 387T349 415T299 426ZM183 706H259Q261 684 276 671T323 658Q352 658 370 671T395 706H472Q461 648 421 610T320 573Q254 573 219 611T183 706Z" horiz-adv-x="561" unicode="ŏ"/>
			<glyph d="M408 729Q477 729 534 707T631 644T694 545T716 417Q716 333 692 254T622 116T506 20T346 -16Q277 -16 220 5T121 65T57 162T35 291Q35 377 59 456T131 596T248 693T408 729ZM399 611Q340 611 298 581T231 506T193 404T181 294Q181 254 190 219T220 158T273 117T352 102Q412 102 454 131T521 205T558 306T570 413Q570 455 560 491T529 553T476 595T399 611ZM509 878H636L543 753H461ZM338 878H464L372 753H290Z" horiz-adv-x="713" unicode="Ő"/>
			<glyph d="M306 527Q355 527 398 512T473 467T524 393T543 293Q543 231 523 175T466 77T376 10T258 -15Q208 -15 164 0T87 46T36 120T17 224Q17 285 37 340T96 436T187 502T306 527ZM299 426Q260 426 232 407T186 358T159 290T151 216Q151 190 157 166T176 125T210 96T261 86Q300 86 328 105T374 154T400 222T409 297Q409 322 403 345T383 387T349 415T299 426ZM410 718H537L436 577H354ZM239 718H365L265 577H183Z" horiz-adv-x="561" unicode="ő"/>
			<glyph d="M393 729Q451 729 499 711T579 649L592 715H1080L1057 594H712L681 433H983L960 315H658L620 120H973L950 0H464L474 52Q436 20 391 2T298 -16Q243 -16 195 4T111 63T55 159T35 291Q35 375 59 453T130 593T242 692T393 729ZM396 611Q339 611 298 582T231 508T193 405T181 294Q181 200 219 151T328 102Q381 102 420 122T488 177L553 515Q534 561 494 586T396 611Z" horiz-adv-x="1033" unicode="Œ"/>
			<glyph d="M300 527Q365 527 413 501T487 425Q518 470 565 498T676 527Q718 527 748 519T805 494Q863 456 884 384T891 219H534Q534 158 557 123T639 89Q674 89 702 104T744 153H876Q852 81 797 38Q732 -13 637 -15Q571 -15 525 8T454 81Q422 37 374 11T260 -15Q209 -15 164 0T87 46T35 120T17 224Q17 285 37 340T95 436T185 502T300 527ZM299 426Q260 426 232 407T186 358T159 290T151 216Q151 190 157 166T176 125T210 96T261 86Q300 86 328 105T374 154T400 222T409 297Q409 322 402 345T382 387T348 415T299 426ZM673 423Q620 423 589 390T546 312H767Q768 334 763 354T746 390T717 414T673 423Z" horiz-adv-x="917" unicode="œ"/>
			<glyph d="M142 715H413Q467 715 510 702T584 663T631 599T648 510Q648 468 635 432T598 369T543 322T473 291L591 0H439L331 276H205L152 0H4ZM266 590L228 393H368Q395 393 419 398T461 416T490 449T501 502Q501 544 475 567T401 590ZM404 878H559L448 753H344Z" horiz-adv-x="651" unicode="Ŕ"/>
			<glyph d="M343 519Q357 519 366 518T381 515L358 397H355Q285 406 238 372T175 250L127 0H-7L92 513H221L205 431H208Q231 469 263 494T343 519ZM272 718H429L303 577H198Z" horiz-adv-x="348" unicode="ŕ"/>
			<glyph d="M142 715H413Q467 715 510 702T584 663T631 599T648 510Q648 468 635 432T598 369T543 322T473 291L591 0H439L331 276H205L152 0H4ZM266 590L228 393H368Q395 393 419 398T461 416T490 449T501 502Q501 544 475 567T401 590ZM230 -48H352L332 -150Q326 -179 312 -199T280 -233T237 -253T186 -263L195 -219Q221 -214 242 -199T268 -155H209Z" horiz-adv-x="651" unicode="Ŗ"/>
			<glyph d="M343 519Q357 519 366 518T381 515L358 397H355Q285 406 238 372T175 250L127 0H-7L92 513H221L205 431H208Q231 469 263 494T343 519ZM-13 -48H109L89 -150Q83 -179 69 -199T37 -233T-6 -253T-57 -263L-48 -219Q-22 -214 -1 -199T25 -155H-34Z" horiz-adv-x="348" unicode="ŗ"/>
			<glyph d="M142 715H413Q467 715 510 702T584 663T631 599T648 510Q648 468 635 432T598 369T543 322T473 291L591 0H439L331 276H205L152 0H4ZM266 590L228 393H368Q395 393 419 398T461 416T490 449T501 502Q501 544 475 567T401 590ZM241 867H354L391 808H393L451 867H571L460 753H316Z" horiz-adv-x="651" unicode="Ř"/>
			<glyph d="M343 519Q357 519 366 518T381 515L358 397H355Q285 406 238 372T175 250L127 0H-7L92 513H221L205 431H208Q231 469 263 494T343 519ZM105 702H218L255 633H257L315 702H435L323 576H181Z" horiz-adv-x="348" unicode="ř"/>
			<glyph d="M337 728Q392 728 441 716T527 677T585 607T603 505H466Q468 558 433 586T332 614Q312 614 291 610T252 596T223 570T212 530Q212 512 218 499T241 476T286 454T357 429Q410 411 451 390T519 344T561 287T575 212Q575 155 553 112T494 41T405 -1T292 -16Q230 -16 175 -2T81 41T20 114T2 221H141Q139 187 150 164T182 126T232 106T296 100Q323 100 347 105T391 121T421 150T433 193Q433 212 426 226T401 253T353 279T278 309Q230 326 192 344T129 385T89 438T76 511Q76 562 94 602T147 671T230 713T337 728ZM364 878H519L408 753H304Z" horiz-adv-x="612" unicode="Ś"/>
			<glyph d="M242 527Q285 527 322 516T386 484T431 431T452 357H329Q324 387 302 409T238 431Q224 431 210 428T186 420T168 404T161 380Q161 367 169 358T194 342T233 327T286 310Q314 301 340 288T386 258T418 215T431 157Q431 74 376 29T224 -15Q177 -15 136 -5T65 27T14 83T-8 166H119Q123 133 147 108T224 83Q261 83 284 96T308 139Q308 167 277 181T189 215Q160 225 133 236T86 265T54 307T42 365Q42 404 57 434T98 485T161 516T242 527ZM283 718H440L314 577H209Z" horiz-adv-x="472" unicode="ś"/>
			<glyph d="M337 728Q392 728 441 716T527 677T585 607T603 505H466Q468 558 433 586T332 614Q312 614 291 610T252 596T223 570T212 530Q212 512 218 499T241 476T286 454T357 429Q410 411 451 390T519 344T561 287T575 212Q575 155 553 112T494 41T405 -1T292 -16Q230 -16 175 -2T81 41T20 114T2 221H141Q139 187 150 164T182 126T232 106T296 100Q323 100 347 105T391 121T421 150T433 193Q433 212 426 226T401 253T353 279T278 309Q230 326 192 344T129 385T89 438T76 511Q76 562 94 602T147 671T230 713T337 728ZM308 867H452L527 753H414L377 812H375L317 753H197Z" horiz-adv-x="612" unicode="Ŝ"/>
			<glyph d="M242 527Q285 527 322 516T386 484T431 431T452 357H329Q324 387 302 409T238 431Q224 431 210 428T186 420T168 404T161 380Q161 367 169 358T194 342T233 327T286 310Q314 301 340 288T386 258T418 215T431 157Q431 74 376 29T224 -15Q177 -15 136 -5T65 27T14 83T-8 166H119Q123 133 147 108T224 83Q261 83 284 96T308 139Q308 167 277 181T189 215Q160 225 133 236T86 265T54 307T42 365Q42 404 57 434T98 485T161 516T242 527ZM211 707H353L429 581H316L279 650H277L219 581H99Z" horiz-adv-x="472" unicode="ŝ"/>
			<glyph d="M337 728Q392 728 441 716T527 677T585 607T603 505H466Q468 558 433 586T332 614Q312 614 291 610T252 596T223 570T212 530Q212 512 218 499T241 476T286 454T357 429Q410 411 451 390T519 344T561 287T575 212Q575 155 553 112T494 41T405 -1T292 -16L251 -50V-52Q288 -47 317 -61T347 -111Q347 -133 336 -148T309 -173T271 -187T228 -192Q188 -192 164 -184T120 -163L141 -131Q155 -138 173 -142T209 -146Q217 -146 227 -145T246 -140T261 -129T267 -111Q267 -99 256 -92T231 -86Q220 -86 211 -88T193 -93L181 -71L240 -13Q187 -8 142 8T65 53T16 123T2 221H141Q139 187 150 164T182 126T232 106T296 100Q323 100 347 105T391 121T421 150T433 193Q433 212 426 226T401 253T353 279T278 309Q230 326 192 344T129 385T89 438T76 511Q76 562 94 602T147 671T230 713T337 728Z" horiz-adv-x="612" unicode="Ş"/>
			<glyph d="M242 527Q285 527 322 516T386 484T431 431T452 357H329Q324 387 302 409T238 431Q224 431 210 428T186 420T168 404T161 380Q161 367 169 358T194 342T233 327T286 310Q314 301 340 288T386 258T418 215T431 157Q431 74 376 29T224 -15H203L161 -50V-52Q198 -47 227 -61T257 -111Q257 -133 246 -148T219 -173T181 -187T138 -192Q98 -192 74 -184T30 -163L51 -131Q65 -138 83 -142T119 -146Q127 -146 137 -145T156 -140T171 -129T177 -111Q177 -99 166 -92T141 -86Q130 -86 121 -88T103 -93L91 -71L155 -9Q87 4 42 46T-8 166H119Q123 133 147 108T224 83Q261 83 284 96T308 139Q308 167 277 181T189 215Q160 225 133 236T86 265T54 307T42 365Q42 404 57 434T98 485T161 516T242 527Z" horiz-adv-x="472" unicode="ş"/>
			<glyph d="M337 728Q392 728 441 716T527 677T585 607T603 505H466Q468 558 433 586T332 614Q312 614 291 610T252 596T223 570T212 530Q212 512 218 499T241 476T286 454T357 429Q410 411 451 390T519 344T561 287T575 212Q575 155 553 112T494 41T405 -1T292 -16Q230 -16 175 -2T81 41T20 114T2 221H141Q139 187 150 164T182 126T232 106T296 100Q323 100 347 105T391 121T421 150T433 193Q433 212 426 226T401 253T353 279T278 309Q230 326 192 344T129 385T89 438T76 511Q76 562 94 602T147 671T230 713T337 728ZM219 867H332L369 808H371L429 867H549L438 753H294Z" horiz-adv-x="612" unicode="Š"/>
			<glyph d="M242 527Q285 527 322 516T386 484T431 431T452 357H329Q324 387 302 409T238 431Q224 431 210 428T186 420T168 404T161 380Q161 367 169 358T194 342T233 327T286 310Q314 301 340 288T386 258T418 215T431 157Q431 74 376 29T224 -15Q177 -15 136 -5T65 27T14 83T-8 166H119Q123 133 147 108T224 83Q261 83 284 96T308 139Q308 167 277 181T189 215Q160 225 133 236T86 265T54 307T42 365Q42 404 57 434T98 485T161 516T242 527ZM119 702H232L269 633H271L329 702H449L337 576H195Z" horiz-adv-x="472" unicode="š"/>
			<glyph d="M103 715H659L636 594H429L314 0H171L286 594H80ZM172 -48H294L274 -150Q268 -179 254 -199T222 -233T179 -253T128 -263L137 -219Q163 -214 184 -199T210 -155H151Z" horiz-adv-x="585" unicode="Ţ"/>
			<glyph d="M159 673H290L259 513H345L328 423H242L190 156Q184 126 193 113T228 100Q233 100 240 100Q248 100 254 101Q261 101 268 102L249 2Q240 1 229 0Q220 -1 209 -1Q198 -1 188 -1Q149 -1 120 6T75 31T53 75T56 143L111 423H46L63 513H128ZM70 -48H192L172 -150Q166 -179 152 -199T120 -233T77 -253T26 -263L35 -219Q61 -214 82 -199T108 -155H49Z" horiz-adv-x="322" unicode="ţ"/>
			<glyph d="M103 715H659L636 594H429L314 0H171L286 594H80ZM238 867H351L388 808H390L448 867H568L457 753H313Z" horiz-adv-x="585" unicode="Ť"/>
			<glyph d="M340 715H462L447 635Q438 587 400 563T304 539L313 583Q342 585 360 595T381 625H323ZM159 673H290L259 513H345L328 423H242L190 156Q184 126 193 113T228 100Q233 100 240 100Q248 100 254 101Q261 101 268 102L249 2Q240 1 229 0Q220 -1 209 -1Q198 -1 188 -1Q149 -1 120 6T75 31T53 75T56 143L111 423H46L63 513H128Z" horiz-adv-x="322" unicode="ť"/>
			<glyph d="M103 715H659L636 594H429L392 402H532L515 317H375L314 0H171L232 317H97L114 402H249L286 594H80Z" horiz-adv-x="585" unicode="Ŧ"/>
			<glyph d="M159 673H290L259 513H345L328 423H242L227 350H314L298 272H212L190 156Q184 126 193 113T228 100Q233 100 240 100Q248 100 254 101Q261 101 268 102L249 2Q240 1 229 0Q220 -1 209 -1Q198 -1 188 -1Q149 -1 120 6T75 31T53 75T56 143L81 272H15L31 350H96L111 423H46L63 513H128Z" horiz-adv-x="322" unicode="ŧ"/>
			<glyph d="M136 715H279L187 240Q174 176 200 139T302 103Q336 103 360 112T402 136T429 174T445 222L540 715H682L584 209Q563 102 493 45T299 -12Q233 -12 180 4T94 52T46 134T46 251ZM368 875Q386 875 401 869T430 857T455 845T477 840Q491 840 498 848T510 871H581Q573 820 547 787T478 755Q460 755 444 760T415 771T390 783T369 788Q346 788 339 757H268Q277 816 304 845T368 875Z" horiz-adv-x="642" unicode="Ũ"/>
			<glyph d="M86 513H220L160 205Q139 99 224 99Q272 99 303 135T346 233L400 513H534L435 0H306L320 73H317Q287 31 251 8T164 -14Q83 -14 44 40T24 189ZM276 695Q294 695 309 689T336 677T359 665T380 660Q394 660 401 668T413 691H484Q475 640 449 607T381 575Q363 575 348 580T321 591T297 603T277 608Q254 608 247 577H176Q186 636 212 665T276 695Z" horiz-adv-x="530" unicode="ũ"/>
			<glyph d="M136 715H279L187 240Q174 176 200 139T302 103Q336 103 360 112T402 136T429 174T445 222L540 715H682L584 209Q563 102 493 45T299 -12Q233 -12 180 4T94 52T46 134T46 251ZM295 857H575L557 762H277Z" horiz-adv-x="642" unicode="Ū"/>
			<glyph d="M86 513H220L160 205Q139 99 224 99Q272 99 303 135T346 233L400 513H534L435 0H306L320 73H317Q287 31 251 8T164 -14Q83 -14 44 40T24 189ZM200 687H480L462 592H182Z" horiz-adv-x="530" unicode="ū"/>
			<glyph d="M136 715H279L187 240Q174 176 200 139T302 103Q336 103 360 112T402 136T429 174T445 222L540 715H682L584 209Q563 102 493 45T299 -12Q233 -12 180 4T94 52T46 134T46 251ZM277 882H353Q355 860 370 847T417 834Q446 834 464 847T489 882H566Q555 824 515 786T414 749Q348 749 313 787T277 882Z" horiz-adv-x="642" unicode="Ŭ"/>
			<glyph d="M86 513H220L160 205Q139 99 224 99Q272 99 303 135T346 233L400 513H534L435 0H306L320 73H317Q287 31 251 8T164 -14Q83 -14 44 40T24 189ZM184 706H260Q262 684 277 671T324 658Q353 658 371 671T396 706H473Q462 648 422 610T321 573Q255 573 220 611T184 706Z" horiz-adv-x="530" unicode="ŭ"/>
			<glyph d="M136 715H279L187 240Q174 176 200 139T302 103Q336 103 360 112T402 136T429 174T445 222L540 715H682L584 209Q563 102 493 45T299 -12Q233 -12 180 4T94 52T46 134T46 251ZM413 930Q433 930 450 922T481 902T502 872T510 836Q510 796 481 769T413 742Q373 742 344 769T316 836Q316 855 323 872T344 902T375 922T413 930ZM413 883Q393 883 380 869T368 836Q368 816 380 802T413 789Q433 789 445 802T458 836Q458 856 445 869T413 883Z" horiz-adv-x="642" unicode="Ů"/>
			<glyph d="M86 513H220L160 205Q139 99 224 99Q272 99 303 135T346 233L400 513H534L435 0H306L320 73H317Q287 31 251 8T164 -14Q83 -14 44 40T24 189ZM322 749Q342 749 359 741T390 721T411 691T419 655Q419 615 390 588T322 561Q282 561 253 588T225 655Q225 674 232 691T253 721T284 741T322 749ZM322 702Q302 702 289 688T277 655Q277 635 289 621T322 608Q342 608 354 621T367 655Q367 675 354 688T322 702Z" horiz-adv-x="530" unicode="ů"/>
			<glyph d="M136 715H279L187 240Q174 176 200 139T302 103Q336 103 360 112T402 136T429 174T445 222L540 715H682L584 209Q563 102 493 45T299 -12Q233 -12 180 4T94 52T46 134T46 251ZM495 878H622L529 753H447ZM324 878H450L358 753H276Z" horiz-adv-x="642" unicode="Ű"/>
			<glyph d="M86 513H220L160 205Q139 99 224 99Q272 99 303 135T346 233L400 513H534L435 0H306L320 73H317Q287 31 251 8T164 -14Q83 -14 44 40T24 189ZM408 718H535L434 577H352ZM237 718H363L263 577H181Z" horiz-adv-x="530" unicode="ű"/>
			<glyph d="M136 715H279L187 240Q174 176 200 139T302 103Q336 103 360 112T402 136T429 174T445 222L540 715H682L584 209Q568 126 528 81T432 11Q415 3 394 -4T354 -20T323 -42T311 -73Q311 -96 342 -96Q350 -96 357 -94T370 -90H372L357 -166Q349 -169 337 -171T308 -174Q288 -174 269 -169T237 -155T214 -131T205 -97Q205 -66 223 -45T268 -11Q209 -7 162 10T86 60T45 140T46 251Z" horiz-adv-x="642" unicode="Ų"/>
			<glyph d="M86 513H220L160 205Q139 99 224 99Q272 99 303 135T346 233L400 513H534L436 4Q427 -2 414 -10T390 -29T371 -50T363 -73Q363 -96 394 -96Q402 -96 409 -94T422 -90H424L409 -166Q401 -169 389 -171T360 -174Q340 -174 321 -169T289 -155T266 -131T257 -97Q257 -79 264 -64T283 -37T310 -17T342 0H306L320 73H317Q287 31 251 8T164 -14Q83 -14 44 40T24 189Z" horiz-adv-x="530" unicode="ų"/>
			<glyph d="M88 715H233L254 360Q256 334 256 306T257 256V202H259Q268 228 279 255Q288 278 298 305T319 359L461 715H596L613 360Q614 336 614 308T616 257Q617 229 617 202H619Q629 229 640 257Q649 281 660 308T682 361L830 715H971L651 0H518L497 385Q495 406 494 429T494 472V517H492Q485 496 477 473Q470 453 462 430T445 385L290 0H159ZM476 867H620L695 753H582L545 812H543L485 753H365Z" horiz-adv-x="892" unicode="Ŵ"/>
			<glyph d="M53 513H183L202 275Q203 259 204 241T206 210Q207 193 207 177H209Q215 193 222 211Q228 225 235 242T249 276L352 513H466L494 276Q496 259 497 241T499 210Q500 193 501 177H503Q509 193 516 210Q522 224 528 241T542 275L638 513H770L541 0H421L394 252Q392 267 391 284T388 317Q386 335 385 352H383Q377 335 370 317Q364 302 357 284T343 252L232 0H111ZM358 707H500L576 581H463L426 650H424L366 581H246Z" horiz-adv-x="728" unicode="ŵ"/>
			<glyph d="M90 715H237L298 510Q303 493 307 474T316 440Q320 422 324 403H326L347 438Q356 453 367 471T391 506L536 715H691L372 276L319 0H176L230 280ZM332 867H476L551 753H438L401 812H399L341 753H221Z" horiz-adv-x="607" unicode="Ŷ"/>
			<glyph d="M49 513H189L224 280Q226 262 229 241T234 204Q237 184 239 164H241Q248 184 256 204Q263 221 271 241T288 280L394 513H530L265 -25Q246 -64 227 -91T186 -135T136 -160T71 -168H-13L8 -62H51Q94 -62 117 -38T140 33Q140 68 123 148ZM236 707H378L454 581H341L304 650H302L244 581H124Z" horiz-adv-x="488" unicode="ŷ"/>
			<glyph d="M90 715H237L298 510Q303 493 307 474T316 440Q320 422 324 403H326L347 438Q356 453 367 471T391 506L536 715H691L372 276L319 0H176L230 280ZM449 867H575L552 753H426ZM250 867H376L353 753H227Z" horiz-adv-x="607" unicode="Ÿ"/>
			<glyph d="M139 715H658L636 598L183 122V119H548L526 0H-23L-3 105L465 595V598H117ZM407 878H562L451 753H347Z" horiz-adv-x="606" unicode="Ź"/>
			<glyph d="M89 513H476L455 406L158 110V107H414L393 0H-27L-7 102L296 405V408H68ZM310 718H467L341 577H236Z" horiz-adv-x="461" unicode="ź"/>
			<glyph d="M139 715H658L636 598L183 122V119H548L526 0H-23L-3 105L465 595V598H117ZM355 871H489L465 753H331Z" horiz-adv-x="606" unicode="Ż"/>
			<glyph d="M89 513H476L455 406L158 110V107H414L393 0H-27L-7 102L296 405V408H68ZM247 715H381L358 593H224Z" horiz-adv-x="461" unicode="ż"/>
			<glyph d="M139 715H658L636 598L183 122V119H548L526 0H-23L-3 105L465 595V598H117ZM257 867H370L407 808H409L467 867H587L476 753H332Z" horiz-adv-x="606" unicode="Ž"/>
			<glyph d="M89 513H476L455 406L158 110V107H414L393 0H-27L-7 102L296 405V408H68ZM144 702H257L294 633H296L354 702H474L362 576H220Z" horiz-adv-x="461" unicode="ž"/>
			<glyph d="M325 697T436 694L417 595Q393 597 375 596T345 591T325 574T313 542L284 413H386L368 323H264L189 -18Q176 -76 147 -108Q115 -144 65 -151T-46 -150L-28 -57Q-11 -58 3 -57T27 -52T45 -36T57 -4L129 323H44L62 413H149L181 556Q189 594 204 620T241 664Q276 692 325 697Z" horiz-adv-x="392" unicode="ƒ"/>
			<glyph d="M322 715H988L965 594H617L586 433H891L868 315H563L525 120H881L858 0H359L388 153H176L100 0H-46ZM395 594L228 258H409L473 594ZM681 878H836L725 753H621Z" horiz-adv-x="941" unicode="Ǽ"/>
			<glyph d="M614 527Q656 527 686 519T743 494Q801 456 822 384T829 219H472Q472 158 495 123T577 89Q612 89 640 104T682 153H814Q790 81 735 38Q670 -13 575 -15Q509 -15 458 9T378 84Q363 63 345 45T303 15T248 -4T178 -12Q140 -12 107 -3T50 23T12 70T-2 139Q-2 190 17 221T68 271T142 296T231 308Q267 311 292 314T333 324T356 342T364 373Q364 401 343 415T284 430Q242 430 215 412T179 357H59Q72 436 130 481T289 526Q343 526 385 511T452 465Q484 494 525 510T614 527ZM345 251Q325 242 302 236T247 225Q229 222 208 219T169 210T139 190T127 151Q127 116 148 98T204 81Q257 81 289 109T331 181ZM611 423Q558 423 527 390T484 312H705Q706 334 701 354T684 390T655 414T611 423ZM504 718H661L535 577H430Z" horiz-adv-x="855" unicode="ǽ"/>
			<glyph d="M406 729Q469 729 521 711T614 659L676 726L722 683L657 613Q686 575 701 525T716 417Q716 333 692 254T622 116T506 20T346 -16Q282 -16 228 2T134 54L62 -22L18 21L91 100Q64 137 49 185T35 291Q35 377 59 456T130 596T247 693T406 729ZM558 507L222 149Q264 102 352 102Q412 102 454 131T522 205T559 306T571 413Q571 469 558 507ZM399 611Q340 611 298 581T230 506T192 404T180 294Q180 269 182 247T191 206L525 564Q483 611 399 611ZM434 878H589L478 753H374Z" horiz-adv-x="713" unicode="Ǿ"/>
			<glyph d="M516 541L555 504L496 442Q519 413 531 376T543 293Q543 231 523 175T466 77T376 10T259 -15Q215 -15 176 -4T107 29L45 -36L6 1L68 66Q44 95 30 134T17 224Q17 285 37 340T96 436T187 502T306 527Q350 527 388 515T458 480ZM299 426Q260 426 232 407T185 358T158 290T149 216Q149 182 156 160L379 396Q349 426 299 426ZM405 345L184 111Q212 86 261 86Q300 86 328 105T375 154T402 222T411 297Q411 324 405 345ZM337 718H494L368 577H263Z" horiz-adv-x="561" unicode="ǿ"/>
			<glyph d="M337 728Q392 728 441 716T527 677T585 607T603 505H466Q468 558 433 586T332 614Q312 614 291 610T252 596T223 570T212 530Q212 512 218 499T241 476T286 454T357 429Q410 411 451 390T519 344T561 287T575 212Q575 155 553 112T494 41T405 -1T292 -16Q230 -16 175 -2T81 41T20 114T2 221H141Q139 187 150 164T182 126T232 106T296 100Q323 100 347 105T391 121T421 150T433 193Q433 212 426 226T401 253T353 279T278 309Q230 326 192 344T129 385T89 438T76 511Q76 562 94 602T147 671T230 713T337 728ZM212 -48H334L314 -150Q308 -179 294 -199T262 -233T219 -253T168 -263L177 -219Q203 -214 224 -199T250 -155H191Z" horiz-adv-x="612" unicode="Ș"/>
			<glyph d="M242 527Q285 527 322 516T386 484T431 431T452 357H329Q324 387 302 409T238 431Q224 431 210 428T186 420T168 404T161 380Q161 367 169 358T194 342T233 327T286 310Q314 301 340 288T386 258T418 215T431 157Q431 74 376 29T224 -15Q177 -15 136 -5T65 27T14 83T-8 166H119Q123 133 147 108T224 83Q261 83 284 96T308 139Q308 167 277 181T189 215Q160 225 133 236T86 265T54 307T42 365Q42 404 57 434T98 485T161 516T242 527ZM139 -48H261L241 -150Q235 -179 221 -199T189 -233T146 -253T95 -263L104 -219Q130 -214 151 -199T177 -155H118Z" horiz-adv-x="472" unicode="ș"/>
			<glyph d="M103 715H659L636 594H429L314 0H171L286 594H80ZM172 -48H294L274 -150Q268 -179 254 -199T222 -233T179 -253T128 -263L137 -219Q163 -214 184 -199T210 -155H151Z" horiz-adv-x="585" unicode="Ț"/>
			<glyph d="M159 673H290L259 513H345L328 423H242L190 156Q184 126 193 113T228 100Q233 100 240 100Q248 100 254 101Q261 101 268 102L249 2Q240 1 229 0Q220 -1 209 -1Q198 -1 188 -1Q149 -1 120 6T75 31T53 75T56 143L111 423H46L63 513H128ZM70 -48H192L172 -150Q166 -179 152 -199T120 -233T77 -253T26 -263L35 -219Q61 -214 82 -199T108 -155H49Z" horiz-adv-x="322" unicode="ț"/>
			<glyph d="M92 513H226L120 -32Q111 -77 98 -100T67 -139Q28 -169 -33 -169Q-51 -169 -72 -167T-115 -159L-97 -63Q-79 -64 -64 -63T-38 -57T-21 -43T-11 -18Z" horiz-adv-x="220" unicode="ȷ"/>
			<glyph d="M257 707H399L475 581H362L325 650H323L265 581H145Z" unicode="ˆ"/>
			<glyph d="M164 702H277L314 633H316L374 702H494L382 576H240Z" unicode="ˇ"/>
			<glyph d="M196 687H476L458 592H178Z" unicode="ˉ"/>
			<glyph d="M201 706H277Q279 684 294 671T341 658Q370 658 388 671T413 706H490Q479 648 439 610T338 573Q272 573 237 611T201 706Z" unicode="˘"/>
			<glyph d="M267 715H401L378 593H244Z" unicode="˙"/>
			<glyph d="M323 749Q343 749 360 741T391 721T412 691T420 655Q420 615 391 588T323 561Q283 561 254 588T226 655Q226 674 233 691T254 721T285 741T323 749ZM323 702Q303 702 290 688T278 655Q278 635 290 621T323 608Q343 608 355 621T368 655Q368 675 355 688T323 702Z" unicode="˚"/>
			<glyph d="M217 0H305Q299 -4 287 -12T265 -29T246 -50T238 -73Q238 -96 269 -96Q277 -96 284 -94T297 -90H299L284 -166Q276 -169 264 -171T235 -174Q215 -174 196 -169T164 -155T141 -131T132 -97Q132 -79 139 -64T158 -37T185 -17T217 0Z" unicode="˛"/>
			<glyph d="M265 695Q283 695 298 689T325 677T348 665T369 660Q383 660 390 668T402 691H473Q464 640 438 607T370 575Q352 575 337 580T310 591T286 603T266 608Q243 608 236 577H165Q175 636 201 665T265 695Z" unicode="˜"/>
			<glyph d="M401 718H528L427 577H345ZM230 718H356L256 577H174Z" unicode="˝"/>
			<glyph d="M326 715H472L595 99L577 0H-29L-10 98ZM374 583Q364 559 354 536Q346 516 336 495T319 461L137 111H452L390 452Q387 468 384 490T380 533Q377 557 376 583Z" horiz-adv-x="647" unicode="Δ"/>
			<glyph d="M420 729Q486 729 541 709T638 650T702 556T725 430Q725 329 685 245T570 111V109H669L648 0H350L370 107Q425 115 464 146T528 221T566 319T578 427Q578 466 569 499T539 558T487 597T411 611Q347 611 302 582T230 507T189 405T177 292Q177 219 204 171T289 106L268 0H-16L5 109H121V111Q81 140 59 193T38 309Q38 388 63 463T136 598T256 693T420 729Z" horiz-adv-x="725" unicode="Ω"/>
			<glyph d="M91 513H225L165 205Q144 99 229 99Q277 99 308 135T351 233L405 513H539L440 0H311L325 73H322Q292 31 261 8T188 -14Q166 -14 152 -8T130 7H127L93 -168H-40Z" horiz-adv-x="535" unicode="μ"/>
			<glyph d="M64 513H630L613 425H534L482 156Q474 119 489 107T539 101L520 2Q512 1 497 0T472 -1Q437 -1 410 6T367 31T345 75T348 142L403 425H253L171 0H41L123 425H47Z" horiz-adv-x="601" unicode="π"/>
			<glyph d="M88 715H233L254 360Q256 334 256 306T257 256V202H259Q268 228 279 255Q288 278 298 305T319 359L461 715H596L613 360Q614 336 614 308T616 257Q617 229 617 202H619Q629 229 640 257Q649 281 660 308T682 361L830 715H971L651 0H518L497 385Q495 406 494 429T494 472V517H492Q485 496 477 473Q470 453 462 430T445 385L290 0H159ZM408 878H553L582 753H480Z" horiz-adv-x="892" unicode="Ẁ"/>
			<glyph d="M53 513H183L202 275Q203 259 204 241T206 210Q207 193 207 177H209Q215 193 222 211Q228 225 235 242T249 276L352 513H466L494 276Q496 259 497 241T499 210Q500 193 501 177H503Q509 193 516 210Q522 224 528 241T542 275L638 513H770L541 0H421L394 252Q392 267 391 284T388 317Q386 335 385 352H383Q377 335 370 317Q364 302 357 284T343 252L232 0H111ZM275 718H421L462 577H360Z" horiz-adv-x="728" unicode="ẁ"/>
			<glyph d="M88 715H233L254 360Q256 334 256 306T257 256V202H259Q268 228 279 255Q288 278 298 305T319 359L461 715H596L613 360Q614 336 614 308T616 257Q617 229 617 202H619Q629 229 640 257Q649 281 660 308T682 361L830 715H971L651 0H518L497 385Q495 406 494 429T494 472V517H492Q485 496 477 473Q470 453 462 430T445 385L290 0H159ZM543 878H698L587 753H483Z" horiz-adv-x="892" unicode="Ẃ"/>
			<glyph d="M53 513H183L202 275Q203 259 204 241T206 210Q207 193 207 177H209Q215 193 222 211Q228 225 235 242T249 276L352 513H466L494 276Q496 259 497 241T499 210Q500 193 501 177H503Q509 193 516 210Q522 224 528 241T542 275L638 513H770L541 0H421L394 252Q392 267 391 284T388 317Q386 335 385 352H383Q377 335 370 317Q364 302 357 284T343 252L232 0H111ZM442 718H599L473 577H368Z" horiz-adv-x="728" unicode="ẃ"/>
			<glyph d="M88 715H233L254 360Q256 334 256 306T257 256V202H259Q268 228 279 255Q288 278 298 305T319 359L461 715H596L613 360Q614 336 614 308T616 257Q617 229 617 202H619Q629 229 640 257Q649 281 660 308T682 361L830 715H971L651 0H518L497 385Q495 406 494 429T494 472V517H492Q485 496 477 473Q470 453 462 430T445 385L290 0H159ZM589 867H715L692 753H566ZM390 867H516L493 753H367Z" horiz-adv-x="892" unicode="Ẅ"/>
			<glyph d="M53 513H183L202 275Q203 259 204 241T206 210Q207 193 207 177H209Q215 193 222 211Q228 225 235 242T249 276L352 513H466L494 276Q496 259 497 241T499 210Q500 193 501 177H503Q509 193 516 210Q522 224 528 241T542 275L638 513H770L541 0H421L394 252Q392 267 391 284T388 317Q386 335 385 352H383Q377 335 370 317Q364 302 357 284T343 252L232 0H111ZM485 695H609L586 581H462ZM268 695H392L369 581H245Z" horiz-adv-x="728" unicode="ẅ"/>
			<glyph d="M90 715H237L298 510Q303 493 307 474T316 440Q320 422 324 403H326L347 438Q356 453 367 471T391 506L536 715H691L372 276L319 0H176L230 280ZM274 878H419L448 753H346Z" horiz-adv-x="607" unicode="Ỳ"/>
			<glyph d="M49 513H189L224 280Q226 262 229 241T234 204Q237 184 239 164H241Q248 184 256 204Q263 221 271 241T288 280L394 513H530L265 -25Q246 -64 227 -91T186 -135T136 -160T71 -168H-13L8 -62H51Q94 -62 117 -38T140 33Q140 68 123 148ZM161 718H307L348 577H246Z" horiz-adv-x="488" unicode="ỳ"/>
			<glyph d="" horiz-adv-x="55" unicode=" "/>
			<glyph d="M53 312H467L445 197H31Z" horiz-adv-x="500" unicode="–"/>
			<glyph d="M109 312H910L888 197H87Z" horiz-adv-x="1000" unicode="—"/>
			<glyph d="M255 718L245 671Q216 664 192 643T162 580H226L201 450H68L92 577Q99 613 115 638T153 680T202 706T255 718Z" horiz-adv-x="198" unicode="‘"/>
			<glyph d="M121 715H254L230 588Q223 552 207 526T168 484T120 459T67 447L77 494Q106 501 130 522T160 585H96Z" horiz-adv-x="198" unicode="’"/>
			<glyph d="M8 130H141L117 3Q110 -33 94 -58T55 -100T7 -126T-46 -138L-36 -91Q-7 -84 17 -63T47 0H-17Z" horiz-adv-x="198" unicode="‚"/>
			<glyph d="M450 718L440 671Q411 664 387 643T357 580H421L396 450H263L287 577Q294 613 310 638T348 680T397 706T450 718ZM255 718L245 671Q216 664 192 643T162 580H226L201 450H68L92 577Q99 613 115 638T153 680T202 706T255 718Z" horiz-adv-x="393" unicode="“"/>
			<glyph d="M121 715H254L230 588Q223 552 207 526T168 484T120 459T67 447L77 494Q106 501 130 522T160 585H96ZM316 715H449L425 588Q418 552 402 526T363 484T315 459T262 447L272 494Q301 501 325 522T355 585H291Z" horiz-adv-x="393" unicode="”"/>
			<glyph d="M8 130H141L117 3Q110 -33 94 -58T55 -100T7 -126T-46 -138L-36 -91Q-7 -84 17 -63T47 0H-17ZM203 130H336L312 3Q305 -33 289 -58T250 -100T202 -126T149 -138L159 -91Q188 -84 212 -63T242 0H178Z" horiz-adv-x="393" unicode="„"/>
			<glyph d="M302 715H430L392 518H573L553 413H372L269 -117H141L244 413H63L83 518H264Z" horiz-adv-x="556" unicode="†"/>
			<glyph d="M302 715H430L392 518H573L553 413H372L328 185H509L489 80H307L269 -117H141L179 80H-1L19 185H200L244 413H63L83 518H264Z" horiz-adv-x="556" unicode="‡"/>
			<glyph d="M185 461Q213 461 238 450T283 420T313 375T324 321Q324 292 313 267T283 223T238 193T185 182Q156 182 130 193T86 223T56 267T45 321Q45 350 56 375T86 420T130 450T185 461Z" horiz-adv-x="345" unicode="•"/>
			<glyph d="M509 145H653L625 0H481ZM13 145H157L129 0H-15ZM261 145H405L377 0H233Z" horiz-adv-x="711" unicode="…"/>
			<glyph d="M620 686H706L210 0H124ZM248 700Q287 700 316 687T364 652T394 601T404 540Q404 491 390 447T352 371T291 320T209 301Q171 301 142 314T93 348T64 399T54 461Q54 510 67 553T106 629T168 681T248 700ZM246 624Q223 624 206 609T179 569T162 515T157 455Q157 440 159 426T167 401T183 383T211 377Q234 377 251 392T279 431T295 486T301 548Q301 561 298 574T289 599T272 617T246 624ZM619 383Q658 383 687 370T735 335T765 284T775 223Q775 174 761 130T723 54T662 3T580 -16Q542 -16 513 -3T464 31T435 82T425 144Q425 193 438 236T477 312T539 364T619 383ZM617 307Q594 307 577 292T550 252T533 198T528 138Q528 123 530 109T538 84T554 66T582 60Q605 60 622 75T650 114T666 169T672 231Q672 244 669 257T660 282T643 300T617 307ZM996 383Q1035 383 1064 370T1112 335T1142 284T1152 223Q1152 174 1138 130T1100 54T1039 3T957 -16Q919 -16 890 -3T841 31T812 82T802 144Q802 193 815 236T854 312T916 364T996 383ZM994 307Q971 307 954 292T927 252T910 198T905 138Q905 123 907 109T915 84T931 66T959 60Q982 60 999 75T1027 114T1043 169T1049 231Q1049 244 1046 257T1037 282T1020 300T994 307Z" horiz-adv-x="1174" unicode="‰"/>
			<glyph d="M147 715H264L179 464H62Z" horiz-adv-x="198" unicode="′"/>
			<glyph d="M325 715H442L357 464H240ZM147 715H264L179 464H62Z" horiz-adv-x="376" unicode="″"/>
			<glyph d="M254 461L228 326L125 253V251L200 179L176 55L40 199L65 324Z" horiz-adv-x="273" unicode="‹"/>
			<glyph d="M97 461L233 317L208 192L19 55L45 190L148 263V265L73 337Z" horiz-adv-x="273" unicode="›"/>
			<glyph d="M396 715H486L-118 0H-208Z" horiz-adv-x="240" unicode="⁄"/>
			<glyph d="M270 723Q340 723 384 680T428 558Q428 512 415 467T377 387T314 330T226 309Q153 309 108 351T64 473Q64 519 77 563T117 643T181 701T270 723ZM266 646Q239 646 220 627T190 580T174 522T169 469Q169 453 171 438T181 412T199 394T229 388Q256 388 274 406T303 452T319 509T324 563Q324 579 321 594T312 620T295 639T266 646Z" horiz-adv-x="390" unicode="⁰"/>
			<glyph d="M290 719H392L345 477H404L390 402H330L314 318H216L232 402H46L63 493ZM271 609L141 479V477H247L273 609Z" horiz-adv-x="373" unicode="⁴"/>
			<glyph d="M137 715H390L373 634H195L173 563H174Q188 574 208 582T255 591Q309 591 341 556T373 467Q373 429 359 399T323 350T268 319T200 309Q167 309 139 317T90 342T56 382T43 435H140Q144 412 160 399T202 386Q232 386 251 406T270 460Q270 488 255 503T215 518Q178 518 157 492H70Z" horiz-adv-x="351" unicode="⁵"/>
			<glyph d="M266 723Q291 723 314 717T355 698T384 665T399 615H302Q300 634 290 642T259 651Q226 651 201 621T166 546H167Q184 565 207 575T259 586Q283 586 305 578T345 556T372 518T382 466Q382 431 369 402T333 352T280 320T214 309Q142 309 99 351T57 472Q57 498 62 526T76 581T101 632T137 676Q163 699 192 711T266 723ZM225 517Q196 517 175 496T155 442Q155 415 171 399T215 383Q244 383 264 403T284 457Q284 483 269 500T225 517Z" horiz-adv-x="359" unicode="⁶"/>
			<glyph d="M100 715H398L383 638Q352 611 323 577T269 503T226 416T197 318H87Q98 369 118 415T164 500T218 572T275 629V630H84Z" horiz-adv-x="331" unicode="⁷"/>
			<glyph d="M251 723Q280 723 307 717T356 699T389 666T401 618Q400 586 380 562T332 527V525Q387 500 387 439Q387 404 372 379T332 339T276 316T211 309Q181 309 151 315T99 335T61 370T47 424Q48 469 73 495T137 533V535Q116 547 105 565T95 606Q95 637 109 659T145 695T196 716T251 723ZM221 496Q194 496 172 481T151 435Q151 408 170 394T215 381Q244 381 264 397T284 443Q284 470 265 483T221 496ZM250 656Q226 656 209 642T192 605Q192 582 206 570T244 559Q269 559 286 571T303 609Q303 632 287 644T250 656Z" horiz-adv-x="366" unicode="⁸"/>
			<glyph d="M240 723Q311 723 353 683T396 563Q396 537 392 509T380 455T359 403T328 360Q279 308 192 308Q165 308 140 314T95 334T64 367T49 417H147Q150 400 162 390T197 381Q268 381 287 482H286Q268 463 245 451T196 440Q169 440 146 448T106 473T79 513T69 565Q69 600 82 629T118 679T172 711T240 723ZM239 648Q209 648 188 627T168 574Q167 547 183 530T228 513Q257 513 277 534T298 589Q298 616 282 632T239 648Z" horiz-adv-x="363" unicode="⁹"/>
			<glyph d="M184 255Q254 255 298 212T342 90Q342 44 329 0T291 -80T228 -137T140 -159Q67 -159 22 -116T-22 5Q-22 51 -8 95T31 175T95 233T184 255ZM180 178Q153 178 134 159T104 112T88 54T83 1Q83 -15 85 -29T95 -55T113 -73T143 -80Q170 -80 188 -61T217 -16T233 41T238 95Q238 111 235 126T226 152T209 171T180 178Z" horiz-adv-x="390" unicode="₀"/>
			<glyph d="M114 250H196L118 -150H15L64 100H-25L-12 169Q34 171 66 189T114 250Z" horiz-adv-x="247" unicode="₁"/>
			<glyph d="M170 255Q197 255 222 247T266 225T296 189T308 139Q308 115 300 95T280 60T251 31T218 8T183 -12T149 -31T118 -49T95 -69H275L259 -150H-54Q-45 -94 -17 -60T45 -3Q80 20 109 36T164 69Q183 82 193 95T204 131Q204 151 192 162T160 174Q134 174 116 155T91 100H-6Q5 176 53 215T170 255Z" horiz-adv-x="350" unicode="₂"/>
			<glyph d="M160 255Q222 255 262 227T302 148Q301 114 280 91T227 57V56Q251 46 268 25T285 -29Q285 -61 271 -85T235 -125T182 -150T120 -159Q84 -159 54 -149T3 -121T-29 -76T-39 -15H59Q58 -46 73 -64T122 -83Q149 -83 165 -68T181 -27Q181 22 122 22H100L114 91H140Q166 91 183 103T201 139Q201 159 187 170T153 181Q125 181 109 164T88 123H-8Q1 181 45 218T160 255Z" horiz-adv-x="355" unicode="₃"/>
			<glyph d="M203 251H305L258 9H317L303 -66H243L227 -150H129L145 -66H-41L-24 25ZM184 141L54 11V9H160L186 141Z" horiz-adv-x="373" unicode="₄"/>
			<glyph d="M50 247H303L286 166H108L86 95H87Q101 106 121 114T168 123Q222 123 254 88T286 -1Q286 -39 272 -68T236 -118T181 -148T113 -159Q80 -159 52 -150T3 -125T-30 -86T-44 -33H53Q57 -56 73 -69T115 -82Q145 -82 164 -61T183 -8Q183 20 168 35T128 50Q91 50 70 24H-17Z" horiz-adv-x="351" unicode="₅"/>
			<glyph d="M179 255Q204 255 227 249T268 230T297 197T312 147H215Q213 166 203 174T172 183Q139 183 114 153T79 78H80Q97 97 120 107T172 118Q196 118 218 110T258 88T285 50T295 -2Q295 -37 282 -66T246 -115T193 -147T127 -159Q55 -159 12 -116T-30 4Q-30 30 -25 58T-10 113T14 164T50 208Q76 231 105 243T179 255ZM138 49Q109 49 88 28T68 -26Q68 -53 84 -69T128 -85Q157 -85 177 -65T197 -11Q197 15 182 32T138 49Z" horiz-adv-x="359" unicode="₆"/>
			<glyph d="M13 247H311L296 170Q265 143 236 109T182 35T139 -51T110 -150H0Q11 -99 31 -53T77 32T131 104T188 161V162H-3Z" horiz-adv-x="331" unicode="₇"/>
			<glyph d="M164 255Q193 255 220 249T269 231T302 198T314 150Q313 118 293 94T245 59V57Q300 32 300 -29Q300 -64 285 -88T245 -129T189 -152T124 -159Q94 -159 64 -153T12 -133T-25 -97T-40 -44Q-39 1 -13 27T50 65V67Q29 79 18 97T8 138Q8 169 22 191T58 227T109 248T164 255ZM134 28Q107 28 85 13T64 -33Q64 -60 83 -73T128 -87Q157 -87 177 -71T197 -25Q197 2 178 15T134 28ZM163 188Q139 188 122 174T105 137Q105 114 119 102T157 91Q182 91 199 103T216 141Q216 164 200 176T163 188Z" horiz-adv-x="366" unicode="₈"/>
			<glyph d="M153 255Q224 255 266 215T309 95Q309 69 305 41T293 -13T272 -64T241 -108Q192 -160 105 -160Q78 -160 53 -153T8 -134T-23 -100T-38 -51H60Q63 -68 75 -77T110 -87Q181 -87 200 14H199Q181 -5 158 -16T109 -28Q82 -28 59 -19T19 5T-8 45T-18 97Q-18 132 -5 161T31 211T85 243T153 255ZM152 180Q122 180 101 159T81 106Q80 79 96 62T141 45Q170 45 190 66T211 121Q211 148 195 164T152 180Z" horiz-adv-x="363" unicode="₉"/>
			<glyph d="M410 700Q524 700 581 640T640 468H508Q507 490 502 511T486 550T454 577T403 587Q345 587 302 542T237 427H417L406 369H222Q216 337 213 306H394L383 248H212Q213 217 219 190T239 142T276 110T333 98Q387 97 424 134T479 238H610Q598 179 573 132T512 52T429 1T329 -16Q213 -16 144 51T71 248H16L27 306H72Q75 337 81 369H39L50 427H95Q113 486 143 536T214 622T304 679T410 700Z" horiz-adv-x="620" unicode="€"/>
			<glyph d="M292 723Q363 723 392 689T422 594Q422 537 405 485T358 389T286 306T194 241L180 169Q173 134 184 117T230 100Q237 100 246 100T265 103Q276 104 286 106L266 6Q254 4 243 2Q223 -1 197 -1Q102 -1 66 37T47 160L51 184Q37 180 24 177T-3 173L14 262Q28 266 42 269T70 278L130 584Q147 661 190 692T292 723ZM299 631Q284 631 275 618T259 575L215 352Q222 358 228 363T241 376Q263 400 279 428T305 487T321 545T326 595Q326 611 320 621T299 631Z" horiz-adv-x="377" unicode="ℓ"/>
			<glyph d="M397 715H501L516 539H518L601 715H709L655 436H584L619 617H617L528 436H468L450 617H448L413 436H343ZM119 715H357L345 651H264L222 436H145L187 651H107Z" horiz-adv-x="668" unicode="™"/>
			<glyph d="M420 729Q486 729 541 709T638 650T702 556T725 430Q725 329 685 245T570 111V109H669L648 0H350L370 107Q425 115 464 146T528 221T566 319T578 427Q578 466 569 499T539 558T487 597T411 611Q347 611 302 582T230 507T189 405T177 292Q177 219 204 171T289 106L268 0H-16L5 109H121V111Q81 140 59 193T38 309Q38 388 63 463T136 598T256 693T420 729Z" horiz-adv-x="725" unicode="Ω"/>
			<glyph d="M338 627Q392 627 435 611T511 568Q566 521 587 454T607 301H186V88Q213 64 251 50T343 37Q431 37 479 76T552 186H603Q593 143 572 107T518 44T442 3T343 -11Q272 -11 216 12T123 78T65 179T45 309Q45 379 66 437T127 538T219 603T338 627ZM338 582Q289 582 250 567T186 530V345H469V542Q446 560 413 571T338 582Z" horiz-adv-x="635" unicode="℮"/>
			<glyph d="M211 718H293L215 318H112L161 568H72L85 637Q131 639 163 657T211 718ZM647 715H737L133 0H43ZM645 405Q707 405 747 377T787 298Q786 264 765 241T712 207V206Q736 196 753 175T770 121Q770 89 756 65T720 24T667 0T605 -9Q569 -9 539 0T488 28T455 74T446 135H544Q543 104 558 85T607 67Q634 67 650 82T666 123Q666 172 607 172H585L599 241H625Q651 241 668 253T686 289Q686 309 672 320T638 331Q610 331 594 314T573 273H477Q486 331 530 368T645 405Z" horiz-adv-x="804" unicode="⅓"/>
			<glyph d="M266 723Q293 723 318 715T362 693T392 657T404 607Q404 583 396 563T376 528T347 499T314 476T279 455T245 437T214 418T191 399H371L355 318H42Q51 374 79 408T141 465Q176 488 205 504T260 537Q279 550 289 563T300 599Q300 619 288 630T256 642Q230 642 212 623T187 568H90Q101 644 149 683T266 723ZM740 715H830L226 0H136ZM726 405Q788 405 828 377T868 298Q867 264 846 241T793 207V206Q817 196 834 175T851 121Q851 89 837 65T801 24T748 0T686 -9Q650 -9 620 0T569 28T536 74T527 135H625Q624 104 639 85T688 67Q715 67 731 82T747 123Q747 172 688 172H666L680 241H706Q732 241 749 253T767 289Q767 309 753 320T719 331Q691 331 675 314T654 273H558Q567 331 611 368T726 405Z" horiz-adv-x="885" unicode="⅔"/>
			<glyph d="M211 718H293L215 318H112L161 568H72L85 637Q131 639 163 657T211 718ZM647 715H737L133 0H43ZM646 405Q675 405 702 399T751 381T784 348T796 300Q795 268 775 244T727 209V207Q782 182 782 121Q782 86 767 61T727 21T671 -2T606 -9Q576 -9 546 -3T494 17T456 52T442 106Q443 151 468 177T532 215V217Q511 229 500 247T490 288Q490 319 504 341T540 377T591 398T646 405ZM616 178Q589 178 567 163T546 117Q546 90 565 76T610 63Q639 63 659 79T679 125Q679 152 660 165T616 178ZM645 338Q621 338 604 324T587 287Q587 264 601 252T639 241Q664 241 681 253T698 291Q698 314 682 326T645 338Z" horiz-adv-x="812" unicode="⅛"/>
			<glyph d="M250 723Q312 723 352 695T392 616Q391 582 370 559T317 525V524Q341 514 358 493T375 439Q375 407 361 383T325 342T272 317T210 309Q174 309 144 318T93 346T60 392T51 453H149Q148 422 163 403T212 385Q239 385 255 400T271 441Q271 490 212 490H190L204 559H230Q256 559 273 571T291 607Q291 627 277 638T243 649Q215 649 199 632T178 591H82Q91 649 135 686T250 723ZM708 715H798L194 0H104ZM692 405Q721 405 748 399T797 381T830 348T842 300Q841 268 821 244T773 209V207Q828 182 828 121Q828 86 813 61T773 21T717 -2T652 -9Q622 -9 592 -3T540 17T502 52T488 106Q489 151 514 177T578 215V217Q557 229 546 247T536 288Q536 319 550 341T586 377T637 398T692 405ZM662 178Q635 178 613 163T592 117Q592 90 611 76T656 63Q685 63 705 79T725 125Q725 152 706 165T662 178ZM691 338Q667 338 650 324T633 287Q633 264 647 252T685 241Q710 241 727 253T744 291Q744 314 728 326T691 338Z" horiz-adv-x="858" unicode="⅜"/>
			<glyph d="M140 715H393L376 634H198L176 563H177Q191 574 211 582T258 591Q312 591 344 556T376 467Q376 429 362 399T326 350T271 319T203 309Q170 309 142 317T93 342T59 382T46 435H143Q147 412 163 399T205 386Q235 386 254 406T273 460Q273 488 258 503T218 518Q181 518 160 492H73ZM699 715H789L185 0H95ZM682 405Q711 405 738 399T787 381T820 348T832 300Q831 268 811 244T763 209V207Q818 182 818 121Q818 86 803 61T763 21T707 -2T642 -9Q612 -9 582 -3T530 17T492 52T478 106Q479 151 504 177T568 215V217Q547 229 536 247T526 288Q526 319 540 341T576 377T627 398T682 405ZM652 178Q625 178 603 163T582 117Q582 90 601 76T646 63Q675 63 695 79T715 125Q715 152 696 165T652 178ZM681 338Q657 338 640 324T623 287Q623 264 637 252T675 241Q700 241 717 253T734 291Q734 314 718 326T681 338Z" horiz-adv-x="848" unicode="⅝"/>
			<glyph d="M103 715H401L386 638Q355 611 326 577T272 503T229 416T200 318H90Q101 369 121 415T167 500T221 572T278 629V630H87ZM624 715H714L110 0H20ZM621 405Q650 405 677 399T726 381T759 348T771 300Q770 268 750 244T702 209V207Q757 182 757 121Q757 86 742 61T702 21T646 -2T581 -9Q551 -9 521 -3T469 17T431 52T417 106Q418 151 443 177T507 215V217Q486 229 475 247T465 288Q465 319 479 341T515 377T566 398T621 405ZM591 178Q564 178 542 163T521 117Q521 90 540 76T585 63Q614 63 634 79T654 125Q654 152 635 165T591 178ZM620 338Q596 338 579 324T562 287Q562 264 576 252T614 241Q639 241 656 253T673 291Q673 314 657 326T620 338Z" horiz-adv-x="787" unicode="⅞"/>
			<glyph d="M142 722Q236 717 310 686T436 602T515 473T542 304Q542 232 525 173T476 72T392 8T272 -14Q212 -14 167 2T92 49T47 121T32 215Q32 270 49 316T98 394T173 445T267 463Q312 463 343 450T394 417Q385 462 363 494T308 549T232 584T142 603ZM295 360Q240 360 203 323T167 213Q167 148 197 120T274 92Q305 92 329 104T369 138T393 187T401 246Q401 305 371 332T295 360Z" horiz-adv-x="572" unicode="∂"/>
			<glyph d="M326 715H472L595 99L577 0H-29L-10 98ZM374 583Q364 559 354 536Q346 516 336 495T319 461L137 111H452L390 452Q387 468 384 490T380 533Q377 557 376 583Z" horiz-adv-x="647" unicode="∆"/>
			<glyph d="M82 715H667V-100H522V593H227V-100H82Z" horiz-adv-x="715" unicode="∏"/>
			<glyph d="M67 715H591V597H229V595L491 349V289L222 19V17H601V-100H67V25L349 315V317L67 590Z" horiz-adv-x="636" unicode="∑"/>
			<glyph d="M57 377H548L529 279H38Z" horiz-adv-x="560" unicode="−"/>
			<glyph d="M396 715H486L-118 0H-208Z" horiz-adv-x="240" unicode="∕"/>
			<glyph d="M60 388H204L176 243H32Z" horiz-adv-x="215" unicode="∙"/>
			<glyph d="M488 715H618L354 -100H235L104 215H19V333H193L248 194Q256 172 264 152T277 116Q283 98 288 81H290Q294 98 298 116Q302 132 307 152T321 195Z" horiz-adv-x="591" unicode="√"/>
			<glyph d="M189 485Q220 485 246 476T294 452T334 415T370 369Q404 420 444 452T545 485Q581 485 610 472T659 435T691 378T703 305Q703 264 691 231T659 174T610 137T545 124Q485 124 444 156T370 240Q353 215 334 193T294 156T246 132T189 124Q150 124 120 138T71 178T42 236T32 305Q32 341 42 373T72 431T121 470T189 485ZM201 385Q168 385 153 361T139 305Q139 271 153 247T201 224Q233 224 256 248T298 304Q279 336 256 360T201 385ZM534 385Q504 385 482 360T441 304Q460 273 482 248T534 224Q567 224 582 247T597 305Q597 338 582 361T534 385Z" horiz-adv-x="725" unicode="∞"/>
			<glyph d="M272 741Q302 741 322 738T359 730V628H356Q348 631 335 633T303 636Q273 636 257 625T242 582V-30Q242 -70 233 -94T209 -135Q186 -158 156 -167T76 -176Q46 -176 25 -173T-11 -165V-63H-8Q0 -66 13 -68T45 -71Q75 -71 90 -60T106 -17V595Q106 635 114 659T139 700Q162 723 192 732T272 741Z" horiz-adv-x="337" unicode="∫"/>
			<glyph d="M206 481Q230 481 259 476T317 464T372 453T415 448Q432 448 440 456T452 480H546Q538 419 506 380T411 342Q383 342 352 347T291 358T237 369T197 374Q168 374 159 339H65Q73 411 111 446T206 481ZM176 287Q200 287 229 282T287 270T342 259T385 254Q402 254 410 262T422 286H516Q508 225 476 186T381 148Q353 148 322 153T261 164T207 175T167 180Q138 180 130 145H36Q44 217 81 252T176 287Z" horiz-adv-x="553" unicode="≈"/>
			<glyph d="M377 543H468L417 455H545L526 359H362L306 262H508L489 166H251L201 78H111L161 166H32L51 262H216L272 359H69L88 455H327Z" horiz-adv-x="553" unicode="≠"/>
			<glyph d="M503 541L481 430L250 358Q237 353 220 348T188 340L152 331V329Q169 324 185 320Q199 316 214 311T240 302L442 231L422 124L47 274L71 397ZM13 96H417L398 0H-6Z" unicode="≤"/>
			<glyph d="M13 96H417L398 0H-6ZM99 541L474 391L450 268L18 124L40 235L271 307Q284 311 301 316T333 325L369 334V336Q352 341 336 345Q322 349 307 353T281 363L79 434Z" unicode="≥"/>
			<glyph d="M424 728Q501 728 568 700T684 622T762 503T791 355Q791 275 762 206T684 88T568 11T424 -17Q347 -17 279 11T162 88T84 206T56 355Q56 435 84 503T162 622T279 700T424 728ZM424 678Q358 678 301 653T202 586T137 483T114 355Q114 286 137 226T202 124T301 56T424 32Q490 32 546 56T644 124T709 226T733 355Q733 424 709 483T644 586T546 653T424 678ZM278 557H466Q504 557 532 546T579 518Q619 481 619 418Q619 388 609 363T581 321T537 293T480 283H382V144H278ZM382 472V363H456Q485 363 500 377T515 417Q515 472 456 472Z" horiz-adv-x="815" unicode="Ⓟ"/>
			<glyph d="M244 715H365L567 357L366 0H245L43 358ZM303 593L181 360L305 122H307L428 354L305 593Z" horiz-adv-x="560" unicode="◊"/>
			<glyph d="M318 717Q352 717 390 711L370 607Q349 610 332 610Q304 610 290 598T271 556L262 513H351L333 419H244L163 0H30L111 419H44L62 513H129L141 574Q156 651 203 683T318 717ZM411 513H545L446 0H312ZM450 715H584L561 593H427Z" horiz-adv-x="539" unicode=""/>
			<glyph d="M318 717Q352 717 390 711L370 607Q349 610 332 610Q304 610 290 598T271 556L262 513H351L333 419H244L163 0H30L111 419H44L62 513H129L141 574Q156 651 203 683T318 717ZM452 715H586L448 0H314Z" horiz-adv-x="543" unicode=""/>
			<glyph d="M92 716H808V0H92ZM378 594V431H210V287H378V118H522V287H690V431H522V594Z" horiz-adv-x="856" unicode=""/>
			<glyph d="M601 717Q635 717 673 711L653 607Q632 610 615 610Q587 610 573 598T554 556L545 513H634L616 419H527L446 0H313L394 419H244L163 0H30L111 419H44L62 513H129L140 570Q155 647 202 679T317 712Q351 712 389 706L369 602Q348 605 331 605Q303 605 289 593T270 552L262 513H412L424 574Q439 651 486 683T601 717Z" horiz-adv-x="602" unicode="ﬀ"/>
			<glyph d="M318 717Q352 717 390 711L370 607Q349 610 332 610Q304 610 290 598T271 556L262 513H351L333 419H244L163 0H30L111 419H44L62 513H129L141 574Q156 651 203 683T318 717ZM411 513H545L446 0H312ZM450 715H584L561 593H427Z" horiz-adv-x="539" unicode="ﬁ"/>
			<glyph d="M318 717Q352 717 390 711L370 607Q349 610 332 610Q304 610 290 598T271 556L262 513H351L333 419H244L163 0H30L111 419H44L62 513H129L141 574Q156 651 203 683T318 717ZM452 715H586L448 0H314Z" horiz-adv-x="543" unicode="ﬂ"/>
			<glyph d="M601 717Q635 717 673 711L653 607Q632 610 615 610Q587 610 573 598T554 556L545 513H634L616 419H527L446 0H313L394 419H244L163 0H30L111 419H44L62 513H129L140 570Q155 647 202 679T317 712Q351 712 389 706L369 602Q348 605 331 605Q303 605 289 593T270 552L262 513H412L424 574Q439 651 486 683T601 717ZM694 513H828L729 0H595ZM733 715H867L844 593H710Z" horiz-adv-x="822" unicode="ﬃ"/>
			<glyph d="M601 717Q635 717 673 711L653 607Q632 610 615 610Q587 610 573 598T554 556L545 513H634L616 419H527L446 0H313L394 419H244L163 0H30L111 419H44L62 513H129L140 570Q155 647 202 679T317 712Q351 712 389 706L369 602Q348 605 331 605Q303 605 289 593T270 552L262 513H412L424 574Q439 651 486 683T601 717ZM735 715H869L731 0H597Z" horiz-adv-x="826" unicode="ﬄ"/>
			<glyph d="" horiz-adv-x="0" unicode="﻿"/>
		</font>
</defs>
</svg>
