<?xml version="1.0" encoding="UTF-8"?>
<svg height="100%" width="100%" xmlns="http://www.w3.org/2000/svg">
	<defs>
		<font horiz-adv-x="638" id="web">
			<font-face alphabetic="0" ascent="935" descent="-263" font-family="" panose-1="2 11 5 4 2 2 2 9 2 4"/>
			<missing-glyph d="M80 700H420V0H80ZM144 654V54H356V654Z" horiz-adv-x="492"/>
			<glyph d="" horiz-adv-x="159" unicode=" "/>
			<glyph d="M160 715H247L202 480L119 173H74L116 486ZM37 99H132L113 0H18Z" horiz-adv-x="231" unicode="!"/>
			<glyph d="M266 715H339L298 501H225ZM129 715H202L161 501H88Z" horiz-adv-x="292" unicode="&quot;"/>
			<glyph d="M245 686H312L260 496H394L446 686H512L461 496H560L540 424H442L399 270H498L477 198H380L327 0H260L313 198H179L126 0H59L112 198H12L32 270H132L174 424H74L94 496H193ZM241 424L199 270H332L375 424Z" horiz-adv-x="542" unicode="#"/>
			<glyph d="M344 757H399L387 696Q421 690 450 677T502 643T538 591T555 519H475Q471 568 443 594T374 631L328 392Q374 377 408 360T466 322T502 272T514 206Q514 158 495 120T444 55T365 13T267 -1H251L235 -85H180L197 4Q153 11 117 28T54 73T13 140T-3 231H80Q81 161 115 121T210 70L261 333Q219 347 185 363T128 400T92 448T80 514Q80 557 98 591T147 650T223 688T318 702Q322 702 325 701T333 701ZM313 316L264 65H269Q301 65 331 72T383 96T419 139T433 203Q433 242 405 267T313 316ZM316 637Q286 637 257 631T207 611T171 573T158 516Q158 479 184 454T276 408L320 637Z" horiz-adv-x="550" unicode="$"/>
			<glyph d="M255 701Q317 701 353 661T390 548Q390 506 379 462T345 384T289 327T210 305Q144 305 106 345T68 459Q68 499 79 542T114 620T172 678T255 701ZM638 685H705L195 0H128ZM249 642Q220 642 199 623T166 577T147 518T141 458Q141 418 156 391T211 364Q242 364 262 382T295 428T312 487T317 546Q317 587 302 614T249 642ZM627 381Q689 381 725 341T762 228Q762 186 751 142T717 64T661 7T582 -15Q516 -15 478 25T440 139Q440 179 451 222T486 300T544 358T627 381ZM621 322Q592 322 571 303T538 257T519 198T513 138Q513 98 528 71T583 44Q614 44 634 62T667 108T684 167T689 226Q689 267 674 294T621 322Z" horiz-adv-x="800" unicode="%"/>
			<glyph d="M314 708Q342 708 368 698T414 671T446 627T458 568Q458 533 444 504T409 453T359 411T301 376L417 186Q434 215 446 250T463 331H532Q524 265 503 215T454 125L532 0H439L399 63Q363 28 315 7T211 -14Q174 -14 138 -3T75 30T31 87T14 170Q14 215 29 248T71 308T130 356T201 395Q173 436 160 470T148 544Q148 578 160 608T194 660T246 695T314 708ZM233 341Q209 329 184 314T139 279T107 233T95 173Q95 119 127 87T216 56Q261 56 297 73T365 122ZM309 642Q271 642 249 616T227 549Q227 520 236 493T271 428Q290 440 310 453T345 482T371 519T381 565Q381 597 362 619T309 642Z" horiz-adv-x="570" unicode="&amp;"/>
			<glyph d="M129 715H202L161 501H88Z" horiz-adv-x="155" unicode="'"/>
			<glyph d="M311 754H381Q275 630 217 490T159 189Q159 95 172 22T209 -118H144Q109 -45 90 32T71 203Q71 369 133 503T311 754Z" horiz-adv-x="299" unicode="("/>
			<glyph d="M118 754H183Q218 681 237 604T256 433Q256 350 240 275T194 133T119 2T16 -118H-54Q52 6 110 146T168 447Q168 541 154 613T118 754Z" horiz-adv-x="299" unicode=")"/>
			<glyph d="M242 715H296L275 606L374 633L385 585L282 556L325 463L279 441L235 532L158 443L120 477L196 562L111 600L133 643L221 606Z" horiz-adv-x="362" unicode="*"/>
			<glyph d="M301 558H366L327 358H518L506 294H315L276 94H211L250 294H59L71 358H262Z" horiz-adv-x="551" unicode="+"/>
			<glyph d="M12 99H108L87 -8Q76 -66 45 -93T-31 -128L-23 -83Q-14 -80 -5 -75T12 -62T27 -38T39 0H-7Z" horiz-adv-x="182" unicode=","/>
			<glyph d="M47 313H311L297 240H33Z" horiz-adv-x="338" unicode="-"/>
			<glyph d="M12 99H108L89 0H-7Z" horiz-adv-x="182" unicode="."/>
			<glyph d="M381 715H466L51 0H-34Z" horiz-adv-x="394" unicode="/"/>
			<glyph d="M364 701Q419 701 461 681T532 627T576 545T591 439Q591 389 583 335T560 231T519 136T460 57T381 4T281 -15Q227 -15 184 3T111 56T65 139T50 247Q50 296 58 349T82 452T124 548T185 627T264 681T364 701ZM361 630Q319 630 286 611T228 562T185 492T157 409T141 324T136 247Q136 211 143 177T168 116T214 73T285 57Q348 57 390 95T458 190T494 314T505 438Q505 473 498 507T474 569T430 613T361 630Z" horiz-adv-x="610" unicode="0"/>
			<glyph d="M263 689H327L194 0H111L207 499H59L70 555Q101 556 131 563T187 587T232 628T263 689Z" horiz-adv-x="331" unicode="1"/>
			<glyph d="M325 700Q368 700 405 688T471 652T515 593T531 512Q531 462 513 424T465 357T394 304T305 258Q276 244 243 226T180 187T126 138T91 79H463L448 0H-18Q-6 71 25 122T98 210T188 273T282 323Q320 342 351 361T403 401T436 450T448 512Q447 571 413 601T322 631Q245 631 203 585T146 450H65Q84 569 149 634T325 700Z" horiz-adv-x="542" unicode="2"/>
			<glyph d="M332 701Q369 701 406 691T473 661T521 607T540 527Q540 472 507 427T414 363V360Q462 343 490 305T519 207Q519 157 499 116T444 46T363 1T263 -15Q208 -15 162 0T83 46T31 121T12 226H96Q96 189 105 157T135 103T188 67T267 54Q342 54 387 94T433 207Q433 241 420 265T387 304T339 326T284 333H237L249 397H308Q335 397 361 403T409 424T444 463T457 526Q457 579 422 607T330 636Q258 636 213 594T155 476H72Q81 528 103 570T160 641T237 685T332 701Z" horiz-adv-x="552" unicode="3"/>
			<glyph d="M443 692H508L419 234H530L517 168H406L374 0H293L325 168H8L23 242ZM398 552L105 237V234H338L400 552Z" horiz-adv-x="557" unicode="4"/>
			<glyph d="M166 685H537L523 611H217L157 406H159Q186 434 223 448T302 462Q344 462 381 448T446 407T490 341T506 254Q506 195 487 145T433 60T351 5T246 -15Q198 -15 155 0T81 41T29 108T8 198H91Q96 135 136 96T248 58Q287 58 319 72T373 111T408 173T421 253Q421 316 384 353T284 390Q229 390 194 368T137 317H57Z" horiz-adv-x="534" unicode="5"/>
			<glyph d="M362 701Q450 701 500 653T557 511H477Q465 631 358 631Q313 631 278 611T217 556T172 472T141 364H143Q176 404 220 426T319 449Q362 449 399 434T463 393T506 327T522 240Q522 188 503 142T451 61T372 5T272 -15Q220 -15 181 1T114 45Q82 76 64 127T47 245Q47 291 55 343T79 446T121 543T182 624T262 680T362 701ZM305 381Q268 381 235 368T178 332T140 275T126 200Q126 134 165 93T272 52Q310 52 342 65T396 103T431 162T444 240Q444 301 409 341T305 381Z" horiz-adv-x="568" unicode="6"/>
			<glyph d="M98 685H557L544 618Q486 572 427 508T318 365T229 194T173 0H84Q101 90 137 178T223 347T330 495T452 610V612H83Z" horiz-adv-x="493" unicode="7"/>
			<glyph d="M343 702Q377 702 414 693T481 664T531 611T551 532Q551 472 515 431T422 371V368Q470 349 500 311T530 217Q530 161 509 117T452 44T368 0T266 -15Q226 -15 182 -5T102 27T42 86T19 174Q19 258 65 308T189 378V381Q151 399 130 430T109 503Q109 549 128 585T180 648T255 688T343 702ZM289 343Q253 343 219 333T160 304T120 254T105 181Q105 148 118 124T155 84T208 61T272 54Q306 54 337 63T393 91T432 141T447 215Q447 249 434 273T401 312T351 335T289 343ZM337 633Q308 633 281 625T235 600T203 560T191 505Q191 479 201 460T230 430T271 413T322 408Q347 408 373 414T421 433T456 470T470 527Q470 554 459 574T430 607T388 626T337 633Z" horiz-adv-x="569" unicode="8"/>
			<glyph d="M322 701Q374 701 414 685T484 642Q516 611 533 561T550 456Q550 403 542 345T517 233T473 129T407 47Q373 18 330 1T235 -15Q191 -15 153 -3T87 33T42 96T23 186H104Q106 148 117 123T147 83T188 61T239 55Q317 55 365 106Q399 141 420 195T458 324H456Q422 283 375 260T274 237Q231 237 194 251T129 293T86 359T70 446Q70 499 89 545T143 625T223 680T322 701ZM322 634Q284 634 252 621T197 583T161 524T148 446Q148 385 183 345T288 305Q325 305 358 317T417 353T456 410T471 486Q471 519 460 546T429 592T382 623T322 634Z" horiz-adv-x="572" unicode="9"/>
			<glyph d="M74 402H170L150 303H54ZM15 99H111L92 0H-4Z" horiz-adv-x="188" unicode=":"/>
			<glyph d="M74 402H170L150 303H54ZM15 99H111L90 -8Q79 -66 48 -93T-28 -128L-20 -83Q-11 -80 -2 -75T15 -62T30 -38T42 0H-4Z" horiz-adv-x="188" unicode=";"/>
			<glyph d="M502 526L487 449L122 310V308L432 167L418 97L51 270L67 353Z" horiz-adv-x="503" unicode="&lt;"/>
			<glyph d="M86 433H533L520 370H73ZM52 257H499L486 194H39Z" horiz-adv-x="551" unicode="="/>
			<glyph d="M105 526L472 353L456 270L21 97L36 174L401 313V315L91 456Z" horiz-adv-x="503" unicode="&gt;"/>
			<glyph d="M318 728Q357 728 393 717T458 686T503 632T520 556Q520 490 487 444T401 364Q367 341 344 323T305 285T279 238T263 173H187Q195 217 206 250T235 311T276 360T333 406Q351 419 369 432T402 462T426 501T435 553Q435 604 401 630T314 657Q245 657 200 613T140 485H59Q67 540 88 584T143 661T220 710T318 728ZM167 99H262L243 0H148Z" horiz-adv-x="496" unicode="?"/>
			<glyph d="M469 713Q542 713 611 690T732 622T817 511T849 359Q849 299 833 248T790 162T724 106T640 86Q546 86 529 153H527Q501 121 465 101T386 82Q351 82 321 93T269 127T235 182T223 256Q223 304 237 351T278 436T347 497T444 521Q487 521 519 502T569 445H571L586 511H664L600 225Q592 189 604 169T651 150Q671 150 693 161T735 198T767 262T780 357Q780 430 756 485T690 576T590 631T465 650Q395 650 330 625T215 552T135 434T105 274Q105 207 126 149T188 48T290 -19T432 -44Q484 -44 529 -35T619 -9L641 -64Q547 -105 436 -105Q345 -105 271 -77T144 0T63 120T34 274Q34 380 72 462T171 600T311 684T469 713ZM443 458Q407 458 381 439T337 391T312 326T304 256Q304 233 309 212T325 176T353 152T397 143Q435 143 463 162T509 210T537 277T546 350Q546 399 520 428T443 458Z" horiz-adv-x="866" unicode="@"/>
			<glyph d="M344 715H443L578 0H484L448 218H166L53 0H-39ZM380 632Q373 616 364 598Q356 583 347 565T330 531L204 290H436L396 531Q393 546 390 563T386 596Q383 614 382 632Z" unicode="A"/>
			<glyph d="M154 715H405Q444 715 480 705T545 674T589 622T606 546Q606 481 570 436T473 375V372Q497 365 517 353T553 324T578 281T587 226Q587 174 566 130T511 58Q442 0 326 0H16ZM168 334L119 80H324Q415 80 457 119Q476 136 487 163T498 225Q498 280 463 307T364 334ZM227 638L183 409H362Q395 409 423 415T473 437T505 478T517 540Q517 588 487 613T399 638Z" horiz-adv-x="622" unicode="B"/>
			<glyph d="M427 731Q539 731 607 671T684 503H595Q585 575 540 614T418 654Q351 654 299 624T213 546T160 434T142 304Q142 255 154 211T191 135T255 83T351 64Q399 64 436 80T501 124T546 187T573 262H661Q651 209 627 161T567 74Q528 32 471 9T348 -14Q274 -14 218 9T125 73T69 173T50 301Q50 381 75 458T149 596T268 694T427 731Z" horiz-adv-x="684" unicode="C"/>
			<glyph d="M154 715H378Q450 715 503 695T592 637T644 547T661 430Q661 343 636 265T563 128T442 34T273 0H16ZM227 638L119 78H271Q347 78 403 105T497 178T552 288T570 424Q570 473 559 512T524 580T463 623T373 638Z" horiz-adv-x="673" unicode="D"/>
			<glyph d="M154 715H621L606 637H227L183 410H531L516 335H168L120 82H521L505 0H16Z" horiz-adv-x="592" unicode="E"/>
			<glyph d="M154 715H612L597 637H227L184 413H504L489 338H169L104 0H16Z" horiz-adv-x="552" unicode="F"/>
			<glyph d="M432 731Q485 731 531 717T612 674T668 601T694 500H605Q599 569 553 611T430 653Q358 653 304 623T214 544T160 431T142 299Q142 246 155 202T194 127T258 78T346 61Q397 61 437 77T506 124T554 195T582 285L585 301H374L389 378H689L616 0H554V94H552Q513 43 461 14T336 -15Q275 -15 222 5T132 64T72 162T50 297Q50 377 75 454T150 593T270 693T432 731Z" horiz-adv-x="722" unicode="G"/>
			<glyph d="M154 715H242L183 411H539L598 715H687L549 0H460L525 339H169L104 0H16Z" horiz-adv-x="665" unicode="H"/>
			<glyph d="M156 715H244L106 0H18Z" horiz-adv-x="224" unicode="I"/>
			<glyph d="M426 715H515L409 164Q393 84 340 35T192 -14Q137 -14 97 -1T33 41T4 116T11 227L12 232H98L97 227Q90 191 88 160T97 106T130 71T197 59Q250 59 279 87T322 178Z" horiz-adv-x="484" unicode="J"/>
			<glyph d="M154 715H242L173 362L559 715H671L351 427L576 0H477L284 367L152 248L104 0H16Z" horiz-adv-x="624" unicode="K"/>
			<glyph d="M154 715H242L120 82H479L463 0H16Z" horiz-adv-x="539" unicode="L"/>
			<glyph d="M154 715H264L374 119H376L707 715H825L687 0H602L716 588H714L698 556Q691 542 682 526T666 497L387 0H319L224 498Q221 513 219 528T215 558Q213 573 212 588H210L96 0H16Z" horiz-adv-x="803" unicode="M"/>
			<glyph d="M154 715H247L462 216Q469 200 474 184T485 155Q490 139 495 124H497L611 715H694L556 0H465L249 500Q242 514 236 529T226 559Q221 574 215 589H213L99 0H16Z" horiz-adv-x="672" unicode="N"/>
			<glyph d="M426 731Q494 731 552 709T653 645T720 542T745 402Q745 316 719 240T646 107T528 18T372 -15Q304 -15 245 6T143 70T75 173T50 312Q50 397 77 473T153 606T271 697T426 731ZM422 654Q354 654 302 627T214 553T160 444T142 312Q142 194 204 128T374 63Q443 63 495 89T583 161T636 268T654 401Q654 458 638 504T592 584T519 635T422 654Z" horiz-adv-x="758" unicode="O"/>
			<glyph d="M154 715H403Q453 715 495 700T566 656Q586 636 599 606T612 531Q612 478 595 435T545 363T466 316T362 300H162L104 0H16ZM227 637L176 373H360Q397 373 427 381T478 408T512 456T524 527Q524 580 489 608T393 637Z" horiz-adv-x="582" unicode="P"/>
			<glyph d="M426 731Q494 731 552 709T653 645T720 542T745 402Q745 300 709 213T606 68L683 -1L630 -60L538 23Q502 5 460 -5T372 -15Q304 -15 245 6T143 70T75 173T50 312Q50 397 77 473T153 606T271 697T426 731ZM422 654Q354 654 302 627T214 553T160 444T142 312Q142 194 204 128T374 63Q428 63 474 80L406 142L459 201L546 122Q600 168 627 240T654 401Q654 458 638 504T592 584T519 635T422 654Z" horiz-adv-x="758" unicode="Q"/>
			<glyph d="M154 715H417Q467 715 509 700T580 656Q600 636 613 606T626 531Q626 441 578 382T446 307L571 0H477L356 300H162L104 0H16ZM227 638L176 372H374Q411 372 441 380T492 408T526 456T538 527Q538 580 503 609T407 638Z" unicode="R"/>
			<glyph d="M329 729Q383 729 429 717T510 678T564 608T588 506H504Q500 586 455 621T329 657Q299 657 271 651T223 632T189 597T177 542Q177 519 187 502T217 472T265 447T328 422Q378 404 420 386T492 345T540 290T557 213Q557 163 538 121T485 49T401 2T289 -14Q234 -14 183 0T93 43T31 122T10 242H95Q95 193 108 158T147 102T209 69T291 59Q373 59 421 96T470 203Q470 231 458 250T424 285T368 314T291 344Q246 360 209 378T147 418T108 468T94 534Q94 579 112 615T161 676T236 715T329 729Z" horiz-adv-x="602" unicode="S"/>
			<glyph d="M105 715H648L633 637H405L282 0H194L317 637H90Z" horiz-adv-x="576" unicode="T"/>
			<glyph d="M142 715H231L143 261Q123 163 161 114T302 65Q383 65 429 103T492 225L587 715H675L577 210Q566 152 541 110T479 41T397 1T298 -11Q234 -11 183 4T98 53T52 137T54 261Z" horiz-adv-x="641" unicode="U"/>
			<glyph d="M90 715H181L262 183Q264 170 265 154T269 123Q271 105 273 87H275Q284 105 292 123Q299 138 306 154T321 183L585 715H679L307 0H210Z" horiz-adv-x="597" unicode="V"/>
			<glyph d="M94 715H184L213 250Q215 232 215 210T217 171Q218 150 219 129H221Q230 151 239 173Q247 192 255 213T272 252L477 715H573L617 252Q619 234 620 212T622 172Q623 150 624 129H626Q634 151 643 173Q651 192 659 212T674 250L871 715H961L645 0H560L516 504Q514 520 513 539T511 576Q510 595 510 615H508Q501 596 493 577Q486 560 478 540T463 504L239 0H151Z" horiz-adv-x="886" unicode="W"/>
			<glyph d="M91 715H190L318 431H320L538 715H635L355 360L529 0H431L296 302H294L61 0H-38L257 371Z" horiz-adv-x="576" unicode="X"/>
			<glyph d="M81 715H176L314 376H316L569 715H668L344 296L287 0H199L257 303Z" horiz-adv-x="580" unicode="Y"/>
			<glyph d="M137 715H633L620 647L103 82V79H532L517 0H-20L-4 84L505 638V641H123Z" horiz-adv-x="592" unicode="Z"/>
			<glyph d="M172 754H358L345 689H241L98 -50H202L189 -118H3Z" horiz-adv-x="291" unicode="["/>
			<glyph d="M94 715H172L402 0H324Z" horiz-adv-x="458" unicode="\"/>
			<glyph d="M126 754H311L142 -118H-43L-30 -50H73L216 689H113Z" horiz-adv-x="291" unicode="]"/>
			<glyph d="M250 715H344L465 428H384L292 652H290L127 428H41Z" horiz-adv-x="446" unicode="^"/>
			<glyph d="M-72 -106H332L320 -166H-84Z" horiz-adv-x="401" unicode="_"/>
			<glyph d="M214 725H309L351 598H284Z" horiz-adv-x="492" unicode="`"/>
			<glyph d="M284 528Q321 528 356 518T415 488T451 433T453 352L406 113Q401 84 408 68T451 60H454L442 2Q434 0 424 -2T401 -5Q360 -5 345 16T329 66H328Q302 33 261 11T165 -10Q126 -10 96 2T45 34T14 80T4 136Q4 185 21 216T67 266T132 291T208 301Q261 304 295 308T349 321T376 345T384 385Q384 409 375 424T352 449T318 461T278 465Q215 466 179 442T132 361H51Q65 439 124 483T284 528ZM364 268Q352 261 337 257T304 250T261 245T205 240Q190 239 169 236T130 223T98 194T85 142Q85 101 110 76T182 52Q219 52 248 64T298 96T331 142T350 197Z" horiz-adv-x="497" unicode="a"/>
			<glyph d="M142 715H222L171 446H173Q203 484 245 506T340 529Q382 529 416 513T473 470T509 402T522 315Q522 256 506 197T457 91T376 14T261 -15Q204 -15 163 8T100 76H98L84 0H4ZM319 461Q272 461 236 439T175 381T138 299T125 208Q125 175 132 146T156 97T198 64T258 52Q306 52 340 76T397 137T429 221T440 310Q440 340 434 367T413 415T376 448T319 461Z" horiz-adv-x="547" unicode="b"/>
			<glyph d="M299 530Q387 530 435 483T492 350H411Q406 401 379 432T295 464Q248 464 212 441T153 382T116 299T104 206Q104 174 111 146T135 97T177 65T240 53Q295 53 335 86T391 182H468Q446 88 384 37T239 -14Q191 -14 151 0T82 42T38 111T23 208Q23 268 42 326T98 429T185 502T299 530Z" horiz-adv-x="503" unicode="c"/>
			<glyph d="M500 715H580L442 0H362L373 56H371Q342 23 304 4T219 -15Q175 -15 139 0T77 41T37 109T23 201Q23 258 40 316T92 421T177 499T295 529Q396 529 445 438H447ZM292 461Q244 461 209 436T150 374T115 291T104 205Q104 175 110 147T132 98T171 64T230 52Q279 52 315 75T375 137T409 223T421 319Q421 349 412 374T388 419T347 450T292 461Z" horiz-adv-x="546" unicode="d"/>
			<glyph d="M292 530Q334 530 366 520T422 492Q471 455 487 389T490 239H105Q104 231 104 224Q104 218 104 210Q104 141 139 97T247 53Q298 53 337 81T393 160H471Q441 72 380 29T239 -14Q194 -14 154 1T86 46T40 116T23 211Q23 277 43 335T100 436T186 505T292 530ZM289 467Q220 467 175 420T113 300H414Q418 336 412 366T390 419T350 454T289 467Z" horiz-adv-x="515" unicode="e"/>
			<glyph d="M307 721Q317 721 330 720T351 719L338 651Q327 652 319 652Q312 652 307 652Q268 652 254 637T236 596L221 517H316L303 452H208L121 0H42L129 452H59L72 517H142L158 600Q171 666 206 693T307 721Z" horiz-adv-x="289" unicode="f"/>
			<glyph d="M284 529Q335 529 372 506T432 442H433L448 517H527L427 0Q412 -79 352 -125T202 -172Q164 -172 129 -164T68 -140T24 -95T6 -29H85Q87 -52 97 -67T122 -92T158 -105T201 -109Q264 -109 301 -78T349 7L365 88H364Q335 56 299 37T215 18Q173 18 138 32T77 73T38 138T24 224Q24 282 41 337T91 435T172 503T284 529ZM280 461Q235 461 201 441T146 388T114 313T104 229Q104 198 111 172T133 126T172 96T230 85Q277 85 311 106T367 160T401 236T412 320Q412 386 379 423T280 461Z" horiz-adv-x="531" unicode="g"/>
			<glyph d="M142 715H222L168 436H170Q202 478 252 503T361 529Q438 529 469 485T487 365L416 0H337L408 365Q417 413 402 437T340 462Q304 462 271 448T211 410T165 355T140 290L84 0H4Z" horiz-adv-x="516" unicode="h"/>
			<glyph d="M104 517H184L84 0H4ZM142 715H222L203 615H123Z" horiz-adv-x="188" unicode="i"/>
			<glyph d="M104 517H184L75 -43Q69 -75 55 -95T25 -127T-12 -143T-52 -147Q-74 -147 -85 -145T-104 -141L-92 -77H-90Q-77 -81 -59 -81Q-37 -81 -22 -71T-2 -30ZM142 715H222L203 615H123Z" horiz-adv-x="188" unicode="j"/>
			<glyph d="M142 715H222L139 286L384 517H489L274 326L415 0H329L213 273L121 191L84 0H4Z" horiz-adv-x="461" unicode="k"/>
			<glyph d="M145 715H225L87 0H7Z" horiz-adv-x="194" unicode="l"/>
			<glyph d="M339 529Q381 529 409 506T446 435H448Q486 481 530 505T627 529Q656 529 680 520T721 492T744 442T742 367L671 0H592L664 369Q674 420 656 441T601 462Q574 462 547 450T498 417T459 367T437 304L378 0H298L370 374Q378 416 363 439T310 462Q283 462 256 449T205 414T165 364T143 304L84 0H4L104 517H184L169 438H171Q201 474 242 501T339 529Z" horiz-adv-x="771" unicode="m"/>
			<glyph d="M361 529Q438 529 469 485T487 365L416 0H337L408 365Q417 413 402 437T340 462Q304 462 271 448T211 410T165 355T140 290L84 0H4L104 517H184L169 437H171Q203 479 253 504T361 529Z" horiz-adv-x="516" unicode="n"/>
			<glyph d="M296 530Q343 530 382 514T451 468T496 397T513 302Q513 240 495 183T442 82T357 12T241 -14Q195 -14 155 1T86 44T40 115T23 212Q23 275 41 332T95 434T181 504T296 530ZM294 464Q246 464 210 443T151 386T115 306T103 213Q103 179 112 149T138 98T182 65T244 53Q290 53 325 73T384 128T420 207T432 302Q432 334 424 363T399 415T356 451T294 464Z" horiz-adv-x="536" unicode="o"/>
			<glyph d="M340 529Q382 529 416 513T473 470T509 402T522 315Q522 256 506 197T457 91T376 14T261 -15Q204 -15 163 9T101 78H99L52 -166H-28L105 517H185L171 446H173Q203 485 245 507T340 529ZM319 461Q272 461 236 439T175 381T138 299T125 208Q125 175 132 146T156 97T198 64T258 52Q306 52 340 76T397 137T429 221T440 310Q440 340 434 367T413 415T376 448T319 461Z" horiz-adv-x="547" unicode="p"/>
			<glyph d="M291 529Q345 529 383 505T444 436H446L462 517H542L409 -166H329L373 56H371Q342 23 304 4T219 -15Q175 -15 139 0T77 41T37 109T23 201Q23 258 40 316T92 421T176 499T291 529ZM288 461Q242 461 207 436T150 374T115 291T104 205Q104 175 110 147T132 98T171 64T230 52Q279 52 315 75T375 137T409 223T421 319Q421 349 412 374T387 419T346 450T288 461Z" horiz-adv-x="546" unicode="q"/>
			<glyph d="M318 523Q337 523 345 521T360 517L345 440H342Q328 445 305 445Q246 445 199 400T136 273L84 0H4L104 517H184L168 435H170Q199 476 236 499T318 523Z" horiz-adv-x="328" unicode="r"/>
			<glyph d="M241 528Q280 528 315 519T376 490T419 440T439 366H361Q355 420 322 443T241 466Q221 466 202 462T169 450T146 428T137 392Q137 376 144 364T165 343T202 323T256 301Q290 287 319 274T369 243T402 202T414 146Q414 104 397 73T353 23T289 -5T213 -15Q171 -15 132 -4T63 29T16 86T-2 168H75Q77 110 114 80T219 51Q240 51 260 55T298 70T325 99T336 144Q336 175 308 193T217 236Q185 248 157 261T108 291T74 331T62 388Q62 422 75 448T112 492T169 519T241 528Z" horiz-adv-x="464" unicode="s"/>
			<glyph d="M177 680H257L225 517H324L311 452H212L149 124Q137 66 194 66Q209 66 221 69T240 75H243L229 5Q207 -3 173 -3Q113 -3 84 29T69 127L132 452H59L72 517H145Z" horiz-adv-x="297" unicode="t"/>
			<glyph d="M98 517H177L107 158Q96 104 112 79T176 55Q210 55 241 68T297 105T339 160T364 228L420 517H500L400 0H320L333 72H331Q299 34 256 11T157 -12Q81 -12 47 33T28 157Z" horiz-adv-x="504" unicode="u"/>
			<glyph d="M49 517H133L179 189Q181 172 183 152T188 116Q190 97 191 78H193Q200 96 209 114Q217 130 225 149T244 189L409 517H494L221 0H132Z" horiz-adv-x="449" unicode="v"/>
			<glyph d="M52 517H136L166 204Q168 187 168 166T170 128Q171 107 171 86H173Q180 107 187 127Q193 144 200 163T215 198L356 517H439L467 198Q469 182 469 162T470 126V86H472Q480 107 488 127Q495 144 503 164T519 201L668 517H752L498 0H416L387 309Q385 325 384 345T383 382Q382 402 382 423H380Q373 402 365 382Q358 365 350 345T335 309L198 0H115Z" horiz-adv-x="708" unicode="w"/>
			<glyph d="M79 517H168L247 327H249L402 517H496L284 272L417 0H327L228 221H226L47 0H-49L192 276Z" horiz-adv-x="475" unicode="x"/>
			<glyph d="M49 517H131L197 197Q200 180 203 162T208 130Q211 112 212 96H214Q220 111 228 128Q235 142 243 160T260 196L419 517H502L200 -64Q168 -125 130 -148T44 -171Q2 -171 -25 -159L-11 -89H-7Q1 -93 13 -96T45 -100Q70 -100 90 -89T125 -49L159 16Z" horiz-adv-x="457" unicode="y"/>
			<glyph d="M90 517H459L450 471L94 75V72H386L373 0H-23L-11 62L333 445V448H77Z" horiz-adv-x="443" unicode="z"/>
			<glyph d="M323 754H358L345 688H326Q289 688 269 670T241 604L202 408Q189 336 130 319V316Q153 304 163 280T165 212L132 44Q126 16 127 -2T134 -30T154 -45T185 -49H202L189 -118H177Q98 -118 65 -80T50 43L84 221Q91 254 80 270T29 288L43 355Q81 358 98 372T124 422L161 616Q175 691 216 722T323 754Z" horiz-adv-x="291" unicode="{"/>
			<glyph d="M95 754H165V-118H95Z" horiz-adv-x="220" unicode="|"/>
			<glyph d="M126 754H138Q217 754 249 716T265 593L231 415Q224 382 234 366T286 348L272 281Q234 278 216 264T191 214L154 20Q140 -55 99 -86T-8 -118H-43L-30 -49H-11Q26 -49 45 -32T74 32L113 228Q126 300 185 317V320Q162 332 151 355T150 424L183 592Q194 648 180 668T130 688H113Z" horiz-adv-x="291" unicode="}"/>
			<glyph d="M141 390Q163 390 180 383T215 367Q233 357 243 352T267 347Q299 347 305 388H369Q361 338 337 305T268 272Q250 272 233 278T200 292Q177 303 164 309T139 315Q110 315 104 274H40Q48 328 74 359T141 390Z" horiz-adv-x="387" unicode="~"/>
			<glyph d="" horiz-adv-x="159" unicode=" "/>
			<glyph d="M125 415H170L128 102L84 -127H-3L42 108ZM131 588H226L207 489H112Z" horiz-adv-x="231" unicode="¡"/>
			<glyph d="M303 591H358L345 526Q411 514 448 469T492 350H411Q406 392 387 420T332 459L254 54Q304 58 340 91T391 182H468Q446 88 385 37T241 -14L227 -85H172L186 -9Q111 5 67 59T23 208Q23 267 42 324T95 426T179 499T291 529ZM278 463Q235 458 202 434T148 375T115 295T104 206Q104 151 125 110T199 57Z" horiz-adv-x="503" unicode="¢"/>
			<glyph d="M330 700Q438 700 490 639T537 471H455Q457 505 451 534T431 585T391 619T328 631Q263 631 225 591T187 474Q187 448 191 421T200 365H344L332 302H208Q208 294 208 287T209 273Q209 215 183 172T107 91L108 89Q122 94 139 97T176 101Q206 101 228 94T269 80T308 67T354 61Q381 61 405 71T453 99L490 37Q457 14 421 1T343 -12Q305 -12 278 -3T229 15T185 33T134 42Q105 42 77 27T27 -1L-7 67Q17 82 41 100T85 142T117 194T129 259Q129 270 128 280T126 302H43L55 365H115Q110 391 105 418T101 474Q101 526 118 567T166 638T239 684T330 700Z" horiz-adv-x="532" unicode="£"/>
			<glyph d="M255 487Q228 487 206 476T170 447T147 403T140 349Q140 290 170 251T255 212Q310 212 339 251T369 349Q369 378 361 403T339 447T303 476T255 487ZM74 577L138 511Q161 528 190 538T255 549Q290 549 319 538T372 511L436 577L479 536L413 468Q448 416 448 349Q448 316 438 285T412 230L479 161L436 120L371 186Q348 169 319 159T255 150Q220 150 191 159T139 186L74 120L31 161L97 229Q79 255 70 285T61 349Q61 417 97 468L31 536Z" horiz-adv-x="476" unicode="¤"/>
			<glyph d="M89 685H177L296 370H298L524 685H615L345 326H510L499 273H322L309 203H486L475 150H298L270 0H187L215 150H38L49 203H226L239 273H62L73 326H236Z" horiz-adv-x="543" unicode="¥"/>
			<glyph d="M77 294H147V-118H77ZM77 754H147V358H77Z" horiz-adv-x="224" unicode="¦"/>
			<glyph d="M350 701Q436 701 486 654T536 517H454Q454 538 449 558T432 594T399 620T345 630Q328 630 311 625T280 611T257 586T248 546Q248 512 276 482T365 411Q399 387 429 362T483 311T519 256T532 195Q532 161 520 136T489 92T444 62T388 44Q411 7 411 -33Q411 -70 395 -98T354 -146T296 -176T230 -186Q185 -186 147 -172T82 -134T40 -72T25 11H107Q108 -15 115 -38T137 -78T175 -105T231 -115Q249 -115 267 -110T298 -96T320 -72T329 -37Q329 1 293 35T187 122Q153 147 126 170T80 216T52 264T42 319Q42 384 80 419T184 469Q164 503 164 540Q164 578 179 608T220 658T280 690T350 701ZM217 426Q199 422 182 415T151 396T130 368T122 331Q122 313 128 298T147 266T183 232T236 190Q271 163 300 138T353 90Q370 94 387 101T419 120T442 148T451 186Q451 224 417 259T315 344Q287 364 262 384T217 426Z" horiz-adv-x="573" unicode="§"/>
			<glyph d="M376 710H453L434 615H357ZM215 710H292L273 615H196Z" horiz-adv-x="492" unicode="¨"/>
			<glyph d="M418 728Q495 728 562 700T678 622T756 503T784 355Q784 275 756 206T678 88T562 11T418 -17Q341 -17 274 11T157 88T80 206T52 355Q52 435 80 503T157 622T274 700T418 728ZM418 689Q349 689 290 664T189 594T122 488T98 355Q98 283 122 222T189 116T290 47T418 22Q487 22 545 47T646 116T713 222T738 355Q738 427 713 488T646 594T545 664T418 689ZM422 588Q462 588 493 576T548 545T585 499T603 442H527Q520 479 493 501T421 524Q388 524 363 511T321 475T296 422T288 356Q288 283 324 237T421 191Q471 191 498 218T531 287H605Q604 256 591 226T555 174T499 139T421 127Q374 127 335 144T268 191T225 264T210 356Q210 405 224 447T266 521T333 570T422 588Z" horiz-adv-x="799" unicode="©"/>
			<glyph d="M304 701Q338 701 369 693T421 666T453 618T455 546L414 340Q412 328 412 318Q412 308 415 302T428 293T453 294H456L445 238Q438 236 428 234T408 232Q369 232 354 252T340 298H338Q315 269 280 248T197 228Q163 228 136 238T92 265T64 306T55 355Q55 397 70 424T111 468T168 492T234 502Q281 505 310 509T357 521T380 542T387 575Q387 614 361 629T298 644Q244 644 214 620T176 547H102Q114 616 165 658T304 701ZM370 471Q359 466 346 462T318 456T281 451T232 447Q219 446 202 442T170 430T144 404T133 361Q132 326 152 306T212 286Q245 286 269 295T312 321T341 360T357 406Z" horiz-adv-x="472" unicode="ª"/>
			<glyph d="M401 430L385 347L277 272V270L354 188L340 113L228 233L245 320ZM217 430L201 347L93 272V270L170 188L156 113L44 233L61 320Z" horiz-adv-x="417" unicode="«"/>
			<glyph d="M89 398H496L446 144H381L418 335H76Z" horiz-adv-x="551" unicode="¬"/>
			<glyph d="M47 313H311L297 240H33Z" horiz-adv-x="338" unicode="­"/>
			<glyph d="M305 728Q354 728 397 709T473 659T524 582T543 486Q543 433 524 389T473 312T397 262T305 244Q256 244 212 262T137 312T86 389T67 486Q67 538 86 582T137 659T212 709T305 728ZM305 693Q262 693 226 677T163 634T122 568T108 486Q108 441 122 403T163 337T226 294T305 279Q348 279 384 294T446 337T487 403T502 486Q502 531 487 568T446 634T384 677T305 693ZM212 617H330Q365 617 388 597T411 545Q411 523 399 506T363 484V483Q382 478 391 466T403 431Q406 404 406 385T414 364V361H365Q360 363 357 381T354 420T341 452T305 464H263V361H212ZM263 575V503H319Q340 503 350 513T361 539Q361 555 350 565T319 575Z" horiz-adv-x="520" unicode="®"/>
			<glyph d="M202 689H456L443 623H189Z" horiz-adv-x="492" unicode="¯"/>
			<glyph d="M218 701Q244 701 267 691T307 665T333 625T343 578Q343 552 333 530T307 491T267 464T218 455Q192 455 169 464T130 491T103 530T93 578Q93 603 103 625T130 665T169 691T218 701ZM218 654Q186 654 167 632T148 578Q148 545 167 523T218 502Q250 502 269 523T288 578Q288 610 269 632T218 654Z" horiz-adv-x="313" unicode="°"/>
			<glyph d="M301 558H366L331 378H522L510 315H319L284 135H219L254 315H63L75 378H266ZM14 63H461L449 0H2Z" horiz-adv-x="551" unicode="±"/>
			<glyph d="M250 723Q274 723 297 716T339 696T368 660T379 607Q379 580 370 559T343 520T299 486T237 453Q199 434 166 414T122 363H337L326 304H28Q36 344 52 373T93 426T146 467T210 502Q232 513 250 523T280 545T300 571T307 606Q307 635 289 650T244 665Q211 665 186 642T155 572H87Q98 647 142 685T250 723Z" horiz-adv-x="343" unicode="²"/>
			<glyph d="M247 724Q272 724 296 717T338 698T367 666T378 619Q378 581 356 556T301 520V518Q332 510 350 486T368 431Q368 399 355 374T321 331T271 304T211 295Q141 295 97 332T51 442H118Q118 424 124 408T141 379T171 358T213 351Q251 351 273 370T296 426Q297 458 276 476T216 494H195L205 549H233Q264 547 286 562T309 614Q309 640 292 655T246 671Q208 671 184 649T152 588H84Q95 654 139 689T247 724Z" horiz-adv-x="361" unicode="³"/>
			<glyph d="M336 725H434L342 598H273Z" horiz-adv-x="492" unicode="´"/>
			<glyph d="M103 517H182L113 163Q102 110 119 82T186 55Q220 55 250 68T304 105T345 160T369 228L425 517H505L405 0H325L338 72H336Q304 34 267 11T171 -12Q142 -12 121 -2T90 27H88L50 -166H-30Z" horiz-adv-x="513" unicode="µ"/>
			<glyph d="M297 715H557L419 0H346L469 638H402L279 0H206L274 353H264Q175 353 128 397T80 516Q80 562 97 601T148 668Q175 691 211 703T297 715Z" horiz-adv-x="535" unicode="¶"/>
			<glyph d="M66 362H162L143 263H47Z" horiz-adv-x="182" unicode="·"/>
			<glyph d="M167 0H226L169 -50V-52Q184 -49 199 -51T226 -60T246 -79T254 -109Q254 -130 245 -145T222 -170T189 -186T148 -191Q109 -191 84 -181T42 -160L59 -131Q74 -139 93 -143T131 -148Q139 -148 149 -147T169 -143T184 -133T190 -114Q190 -88 155 -88Q141 -88 132 -90T115 -95L103 -72Z" horiz-adv-x="492" unicode="¸"/>
			<glyph d="M220 718H280L200 304H129L185 593H88L97 642Q148 644 177 662T220 718Z" horiz-adv-x="250" unicode="¹"/>
			<glyph d="M308 701Q349 701 384 687T444 647T484 583T499 500Q499 446 483 396T436 307T360 246T259 223Q218 223 183 236T123 274T82 336T68 421Q68 476 85 527T133 616T208 678T308 701ZM307 640Q267 640 236 622T185 573T154 503T144 422Q144 362 173 323T262 285Q301 285 331 302T381 349T412 417T423 500Q423 528 416 553T395 598T359 629T307 640Z" horiz-adv-x="501" unicode="º"/>
			<glyph d="M82 430L194 310L177 223L21 113L37 196L145 271V273L68 355ZM266 430L378 310L361 223L205 113L221 196L329 271V273L252 355Z" horiz-adv-x="417" unicode="»"/>
			<glyph d="M223 718H283L203 304H132L188 593H91L100 642Q151 644 180 662T223 718ZM626 715H698L135 0H62ZM641 416H708L657 148H721L710 94H646L628 0H560L578 94H379L393 164ZM620 320L450 150V148H589L622 320Z" horiz-adv-x="767" unicode="¼"/>
			<glyph d="M223 718H283L203 304H132L188 593H91L100 642Q151 644 180 662T223 718ZM615 715H687L124 0H51ZM636 419Q660 419 683 412T725 392T754 356T765 303Q765 276 756 255T729 216T685 182T623 149Q585 130 552 110T508 59H723L712 0H414Q422 40 438 69T479 122T532 163T596 198Q618 209 636 219T666 241T686 267T693 302Q693 331 675 346T630 361Q597 361 572 338T541 268H473Q484 343 528 381T636 419Z" horiz-adv-x="791" unicode="½"/>
			<glyph d="M250 724Q275 724 299 717T341 698T370 666T381 619Q381 581 359 556T304 520V518Q335 510 353 486T371 431Q371 399 358 374T324 331T274 304T214 295Q144 295 100 332T54 442H121Q121 424 127 408T144 379T174 358T216 351Q254 351 276 370T299 426Q300 458 279 476T219 494H198L208 549H236Q267 547 289 562T312 614Q312 640 295 655T249 671Q211 671 187 649T155 588H87Q98 654 142 689T250 724ZM702 715H774L211 0H138ZM706 416H773L722 148H786L775 94H711L693 0H625L643 94H444L458 164ZM685 320L515 150V148H654L687 320Z" horiz-adv-x="831" unicode="¾"/>
			<glyph d="M247 415H323Q315 371 303 337T275 277T234 227T177 182Q159 169 140 156T107 126T84 87T75 35Q75 -16 108 -42T196 -69Q265 -69 309 -25T370 103H451Q443 48 421 3T367 -73T290 -122T192 -140Q153 -140 116 -129T52 -98T7 -44T-10 32Q-10 98 22 143T109 224Q143 246 166 264T205 303T230 349T247 415ZM267 588H362L343 489H248Z" horiz-adv-x="496" unicode="¿"/>
			<glyph d="M344 715H443L578 0H484L448 218H166L53 0H-39ZM380 632Q373 616 364 598Q356 583 347 565T330 531L204 290H436L396 531Q393 546 390 563T386 596Q383 614 382 632ZM298 874H393L435 753H367Z" unicode="À"/>
			<glyph d="M344 715H443L578 0H484L448 218H166L53 0H-39ZM380 632Q373 616 364 598Q356 583 347 565T330 531L204 290H436L396 531Q393 546 390 563T386 596Q383 614 382 632ZM431 874H529L437 753H369Z" unicode="Á"/>
			<glyph d="M344 715H443L578 0H484L448 218H166L53 0H-39ZM380 632Q373 616 364 598Q356 583 347 565T330 531L204 290H436L396 531Q393 546 390 563T386 596Q383 614 382 632ZM368 863H458L532 757H450L408 820H406L350 757H262Z" unicode="Â"/>
			<glyph d="M344 715H443L578 0H484L448 218H166L53 0H-39ZM380 632Q373 616 364 598Q356 583 347 565T330 531L204 290H436L396 531Q393 546 390 563T386 596Q383 614 382 632ZM348 854Q368 854 383 849T412 838T438 827T465 822Q479 822 486 831T496 852H553Q545 814 524 787T465 760Q447 760 430 765T397 776T369 787T346 792Q335 792 328 784T319 762H260Q270 805 291 829T348 854Z" unicode="Ã"/>
			<glyph d="M344 715H443L578 0H484L448 218H166L53 0H-39ZM380 632Q373 616 364 598Q356 583 347 565T330 531L204 290H436L396 531Q393 546 390 563T386 596Q383 614 382 632ZM461 855H538L519 760H442ZM300 855H377L358 760H281Z" unicode="Ä"/>
			<glyph d="M344 715H443L578 0H484L448 218H166L53 0H-39ZM380 632Q373 616 364 598Q356 583 347 565T330 531L204 290H436L396 531Q393 546 390 563T386 596Q383 614 382 632ZM405 916Q423 916 439 909T466 891T485 864T492 831Q492 813 485 797T466 770T439 752T405 746Q387 746 371 752T343 770T325 797T318 831Q318 849 325 864T343 891T371 909T405 916ZM405 881Q384 881 371 866T358 831Q358 810 371 795T405 781Q426 781 439 795T452 831Q452 852 439 866T405 881Z" unicode="Å"/>
			<glyph d="M358 715H959L944 637H589L545 410H869L854 335H530L482 82H859L843 0H378L420 219H175L56 0H-36ZM402 637L214 291H434L501 637Z" horiz-adv-x="930" unicode="Æ"/>
			<glyph d="M427 731Q539 731 607 671T684 503H595Q585 575 540 614T418 654Q351 654 299 624T213 546T160 434T142 304Q142 255 154 211T191 135T255 83T351 64Q399 64 436 80T501 124T546 187T573 262H661Q651 209 627 161T567 74Q528 32 472 9T350 -14L309 -50V-52Q324 -49 339 -51T366 -60T386 -79T394 -109Q394 -130 385 -145T362 -170T329 -186T288 -191Q249 -191 224 -181T182 -160L199 -131Q214 -139 233 -143T271 -148Q279 -148 289 -147T309 -143T324 -133T330 -114Q330 -88 295 -88Q281 -88 272 -90T255 -95L243 -72L297 -11Q236 -4 189 22T112 88T65 183T50 301Q50 381 75 458T149 596T268 694T427 731Z" horiz-adv-x="684" unicode="Ç"/>
			<glyph d="M154 715H621L606 637H227L183 410H531L516 335H168L120 82H521L505 0H16ZM305 874H400L442 753H374Z" horiz-adv-x="592" unicode="È"/>
			<glyph d="M154 715H621L606 637H227L183 410H531L516 335H168L120 82H521L505 0H16ZM421 874H519L427 753H359Z" horiz-adv-x="592" unicode="É"/>
			<glyph d="M154 715H621L606 637H227L183 410H531L516 335H168L120 82H521L505 0H16ZM369 863H459L533 757H451L409 820H407L351 757H263Z" horiz-adv-x="592" unicode="Ê"/>
			<glyph d="M154 715H621L606 637H227L183 410H531L516 335H168L120 82H521L505 0H16ZM461 855H538L519 760H442ZM300 855H377L358 760H281Z" horiz-adv-x="592" unicode="Ë"/>
			<glyph d="M156 715H244L106 0H18ZM103 874H198L240 753H172Z" horiz-adv-x="224" unicode="Ì"/>
			<glyph d="M156 715H244L106 0H18ZM233 874H331L239 753H171Z" horiz-adv-x="224" unicode="Í"/>
			<glyph d="M156 715H244L106 0H18ZM175 863H265L339 757H257L215 820H213L157 757H69Z" horiz-adv-x="224" unicode="Î"/>
			<glyph d="M156 715H244L106 0H18ZM267 855H344L325 760H248ZM106 855H183L164 760H87Z" horiz-adv-x="224" unicode="Ï"/>
			<glyph d="M165 715H389Q461 715 514 695T603 637T655 547T672 430Q672 343 647 265T574 128T453 34T284 0H27L89 322H17L32 397H103ZM238 638L191 397H396L381 322H177L130 78H282Q358 78 414 105T508 178T563 288T581 424Q581 473 570 512T535 580T474 623T384 638Z" horiz-adv-x="684" unicode="Ð"/>
			<glyph d="M154 715H247L462 216Q469 200 474 184T485 155Q490 139 495 124H497L611 715H694L556 0H465L249 500Q242 514 236 529T226 559Q221 574 215 589H213L99 0H16ZM384 854Q404 854 419 849T448 838T474 827T501 822Q515 822 522 831T532 852H589Q581 814 560 787T501 760Q483 760 466 765T433 776T405 787T382 792Q371 792 364 784T355 762H296Q306 805 327 829T384 854Z" horiz-adv-x="672" unicode="Ñ"/>
			<glyph d="M426 731Q494 731 552 709T653 645T720 542T745 402Q745 316 719 240T646 107T528 18T372 -15Q304 -15 245 6T143 70T75 173T50 312Q50 397 77 473T153 606T271 697T426 731ZM422 654Q354 654 302 627T214 553T160 444T142 312Q142 194 204 128T374 63Q443 63 495 89T583 161T636 268T654 401Q654 458 638 504T592 584T519 635T422 654ZM338 874H433L475 753H407Z" horiz-adv-x="758" unicode="Ò"/>
			<glyph d="M426 731Q494 731 552 709T653 645T720 542T745 402Q745 316 719 240T646 107T528 18T372 -15Q304 -15 245 6T143 70T75 173T50 312Q50 397 77 473T153 606T271 697T426 731ZM422 654Q354 654 302 627T214 553T160 444T142 312Q142 194 204 128T374 63Q443 63 495 89T583 161T636 268T654 401Q654 458 638 504T592 584T519 635T422 654ZM469 874H567L475 753H407Z" horiz-adv-x="758" unicode="Ó"/>
			<glyph d="M426 731Q494 731 552 709T653 645T720 542T745 402Q745 316 719 240T646 107T528 18T372 -15Q304 -15 245 6T143 70T75 173T50 312Q50 397 77 473T153 606T271 697T426 731ZM422 654Q354 654 302 627T214 553T160 444T142 312Q142 194 204 128T374 63Q443 63 495 89T583 161T636 268T654 401Q654 458 638 504T592 584T519 635T422 654ZM405 863H495L569 757H487L445 820H443L387 757H299Z" horiz-adv-x="758" unicode="Ô"/>
			<glyph d="M426 731Q494 731 552 709T653 645T720 542T745 402Q745 316 719 240T646 107T528 18T372 -15Q304 -15 245 6T143 70T75 173T50 312Q50 397 77 473T153 606T271 697T426 731ZM422 654Q354 654 302 627T214 553T160 444T142 312Q142 194 204 128T374 63Q443 63 495 89T583 161T636 268T654 401Q654 458 638 504T592 584T519 635T422 654ZM382 854Q402 854 417 849T446 838T472 827T499 822Q513 822 520 831T530 852H587Q579 814 558 787T499 760Q481 760 464 765T431 776T403 787T380 792Q369 792 362 784T353 762H294Q304 805 325 829T382 854Z" horiz-adv-x="758" unicode="Õ"/>
			<glyph d="M426 731Q494 731 552 709T653 645T720 542T745 402Q745 316 719 240T646 107T528 18T372 -15Q304 -15 245 6T143 70T75 173T50 312Q50 397 77 473T153 606T271 697T426 731ZM422 654Q354 654 302 627T214 553T160 444T142 312Q142 194 204 128T374 63Q443 63 495 89T583 161T636 268T654 401Q654 458 638 504T592 584T519 635T422 654ZM499 855H576L557 760H480ZM338 855H415L396 760H319Z" horiz-adv-x="758" unicode="Ö"/>
			<glyph d="M153 535L283 371L463 535L503 489L320 323L452 158L403 117L273 281L93 117L54 163L236 328L105 494Z" horiz-adv-x="531" unicode="×"/>
			<glyph d="M426 731Q491 731 546 711T644 653L719 730L757 691L681 613Q711 572 728 519T745 402Q745 316 719 240T646 107T528 18T372 -15Q239 -15 150 63L73 -17L34 22L113 104Q83 144 66 196T50 312Q50 397 77 473T153 606T271 697T426 731ZM618 548L209 124Q270 63 374 63Q443 63 495 89T583 161T636 268T654 401Q654 444 644 481T618 548ZM422 654Q354 654 302 627T214 553T160 444T142 312Q142 226 175 168L585 592Q555 621 514 637T422 654Z" horiz-adv-x="758" unicode="Ø"/>
			<glyph d="M142 715H231L143 261Q123 163 161 114T302 65Q383 65 429 103T492 225L587 715H675L577 210Q566 152 541 110T479 41T397 1T298 -11Q234 -11 183 4T98 53T52 137T54 261ZM317 874H412L454 753H386Z" horiz-adv-x="641" unicode="Ù"/>
			<glyph d="M142 715H231L143 261Q123 163 161 114T302 65Q383 65 429 103T492 225L587 715H675L577 210Q566 152 541 110T479 41T397 1T298 -11Q234 -11 183 4T98 53T52 137T54 261ZM438 874H536L444 753H376Z" horiz-adv-x="641" unicode="Ú"/>
			<glyph d="M142 715H231L143 261Q123 163 161 114T302 65Q383 65 429 103T492 225L587 715H675L577 210Q566 152 541 110T479 41T397 1T298 -11Q234 -11 183 4T98 53T52 137T54 261ZM388 863H478L552 757H470L428 820H426L370 757H282Z" horiz-adv-x="641" unicode="Û"/>
			<glyph d="M142 715H231L143 261Q123 163 161 114T302 65Q383 65 429 103T492 225L587 715H675L577 210Q566 152 541 110T479 41T397 1T298 -11Q234 -11 183 4T98 53T52 137T54 261ZM478 855H555L536 760H459ZM317 855H394L375 760H298Z" horiz-adv-x="641" unicode="Ü"/>
			<glyph d="M81 715H176L314 376H316L569 715H668L344 296L287 0H199L257 303ZM399 874H497L405 753H337Z" horiz-adv-x="580" unicode="Ý"/>
			<glyph d="M154 715H242L217 588H378Q428 588 470 573T541 529Q561 509 574 479T587 404Q587 351 570 308T520 236T441 190T337 174H137L104 0H16L129 588ZM202 511L151 246H335Q372 246 402 254T453 281T487 329T499 400Q499 453 464 482T368 511Z" horiz-adv-x="590" unicode="Þ"/>
			<glyph d="M315 723Q348 723 378 713T432 683T469 632T483 562Q483 499 449 457T362 397V395Q407 377 435 332T463 227Q463 173 447 129T402 54T328 6T229 -11Q209 -11 189 -8T149 0L162 64H164Q181 59 197 57T231 55Q305 55 343 103T381 229Q381 257 373 282T347 326T304 356T242 367H229L241 428H264Q294 428 319 436T364 460T394 500T405 558Q405 603 381 631T309 659Q256 659 227 627T189 544L84 0H4L111 553Q118 590 135 621T178 674T238 710T315 723Z" horiz-adv-x="495" unicode="ß"/>
			<glyph d="M284 528Q321 528 356 518T415 488T451 433T453 352L406 113Q401 84 408 68T451 60H454L442 2Q434 0 424 -2T401 -5Q360 -5 345 16T329 66H328Q302 33 261 11T165 -10Q126 -10 96 2T45 34T14 80T4 136Q4 185 21 216T67 266T132 291T208 301Q261 304 295 308T349 321T376 345T384 385Q384 409 375 424T352 449T318 461T278 465Q215 466 179 442T132 361H51Q65 439 124 483T284 528ZM364 268Q352 261 337 257T304 250T261 245T205 240Q190 239 169 236T130 223T98 194T85 142Q85 101 110 76T182 52Q219 52 248 64T298 96T331 142T350 197ZM196 725H291L333 598H266Z" horiz-adv-x="497" unicode="à"/>
			<glyph d="M284 528Q321 528 356 518T415 488T451 433T453 352L406 113Q401 84 408 68T451 60H454L442 2Q434 0 424 -2T401 -5Q360 -5 345 16T329 66H328Q302 33 261 11T165 -10Q126 -10 96 2T45 34T14 80T4 136Q4 185 21 216T67 266T132 291T208 301Q261 304 295 308T349 321T376 345T384 385Q384 409 375 424T352 449T318 461T278 465Q215 466 179 442T132 361H51Q65 439 124 483T284 528ZM364 268Q352 261 337 257T304 250T261 245T205 240Q190 239 169 236T130 223T98 194T85 142Q85 101 110 76T182 52Q219 52 248 64T298 96T331 142T350 197ZM327 725H425L333 598H264Z" horiz-adv-x="497" unicode="á"/>
			<glyph d="M284 528Q321 528 356 518T415 488T451 433T453 352L406 113Q401 84 408 68T451 60H454L442 2Q434 0 424 -2T401 -5Q360 -5 345 16T329 66H328Q302 33 261 11T165 -10Q126 -10 96 2T45 34T14 80T4 136Q4 185 21 216T67 266T132 291T208 301Q261 304 295 308T349 321T376 345T384 385Q384 409 375 424T352 449T318 461T278 465Q215 466 179 442T132 361H51Q65 439 124 483T284 528ZM364 268Q352 261 337 257T304 250T261 245T205 240Q190 239 169 236T130 223T98 194T85 142Q85 101 110 76T182 52Q219 52 248 64T298 96T331 142T350 197ZM265 708H355L429 602H347L305 665H303L247 602H159Z" horiz-adv-x="497" unicode="â"/>
			<glyph d="M284 528Q321 528 356 518T415 488T451 433T453 352L406 113Q401 84 408 68T451 60H454L442 2Q434 0 424 -2T401 -5Q360 -5 345 16T329 66H328Q302 33 261 11T165 -10Q126 -10 96 2T45 34T14 80T4 136Q4 185 21 216T67 266T132 291T208 301Q261 304 295 308T349 321T376 345T384 385Q384 409 375 424T352 449T318 461T278 465Q215 466 179 442T132 361H51Q65 439 124 483T284 528ZM364 268Q352 261 337 257T304 250T261 245T205 240Q190 239 169 236T130 223T98 194T85 142Q85 101 110 76T182 52Q219 52 248 64T298 96T331 142T350 197ZM246 695Q266 695 280 690T307 679T331 668T357 663Q371 663 378 672T388 693H445Q437 655 416 628T357 601Q339 601 323 606T292 617T266 628T244 633Q233 633 226 625T217 603H158Q168 646 189 670T246 695Z" horiz-adv-x="497" unicode="ã"/>
			<glyph d="M284 528Q321 528 356 518T415 488T451 433T453 352L406 113Q401 84 408 68T451 60H454L442 2Q434 0 424 -2T401 -5Q360 -5 345 16T329 66H328Q302 33 261 11T165 -10Q126 -10 96 2T45 34T14 80T4 136Q4 185 21 216T67 266T132 291T208 301Q261 304 295 308T349 321T376 345T384 385Q384 409 375 424T352 449T318 461T278 465Q215 466 179 442T132 361H51Q65 439 124 483T284 528ZM364 268Q352 261 337 257T304 250T261 245T205 240Q190 239 169 236T130 223T98 194T85 142Q85 101 110 76T182 52Q219 52 248 64T298 96T331 142T350 197ZM359 710H436L417 615H340ZM198 710H275L256 615H179Z" horiz-adv-x="497" unicode="ä"/>
			<glyph d="M284 528Q321 528 356 518T415 488T451 433T453 352L406 113Q401 84 408 68T451 60H454L442 2Q434 0 424 -2T401 -5Q360 -5 345 16T329 66H328Q302 33 261 11T165 -10Q126 -10 96 2T45 34T14 80T4 136Q4 185 21 216T67 266T132 291T208 301Q261 304 295 308T349 321T376 345T384 385Q384 409 375 424T352 449T318 461T278 465Q215 466 179 442T132 361H51Q65 439 124 483T284 528ZM364 268Q352 261 337 257T304 250T261 245T205 240Q190 239 169 236T130 223T98 194T85 142Q85 101 110 76T182 52Q219 52 248 64T298 96T331 142T350 197ZM292 729Q310 729 326 722T353 704T372 677T379 644Q379 626 372 610T353 583T326 565T292 559Q274 559 258 565T230 583T212 610T205 644Q205 662 212 677T230 704T258 722T292 729ZM292 694Q271 694 258 679T245 644Q245 623 258 608T292 594Q313 594 326 608T339 644Q339 665 326 679T292 694Z" horiz-adv-x="497" unicode="å"/>
			<glyph d="M605 530Q681 530 729 493T792 390T795 239H427Q426 231 426 224Q426 218 426 210Q426 141 456 97T555 53Q606 53 643 81T698 160H776Q746 72 686 29T547 -14Q486 -14 439 16T371 106H369Q341 46 288 18T174 -10Q132 -10 100 1T47 31T15 77T4 132Q4 180 21 210T66 259T132 284T208 294Q259 297 291 302T343 317T369 343T377 385Q377 409 369 424T347 449T316 461T277 465Q214 466 178 442T132 361H51Q65 439 124 484T283 528Q337 527 378 509T436 447Q469 485 511 507T605 530ZM357 265Q333 251 298 244T204 233Q189 232 169 229T130 216T99 189T85 139Q84 101 109 76T181 52Q218 52 246 63T294 94T326 140T344 197ZM602 467Q537 467 494 420T435 300H719Q723 336 717 366T698 419T660 454T602 467Z" horiz-adv-x="820" unicode="æ"/>
			<glyph d="M299 530Q387 530 435 483T492 350H411Q406 401 379 432T295 464Q248 464 212 441T153 382T116 299T104 206Q104 174 111 146T135 97T177 65T240 53Q295 53 335 86T391 182H468Q446 89 386 38T246 -14L205 -50V-52Q220 -49 235 -51T262 -60T282 -79T290 -109Q290 -130 281 -145T258 -170T225 -186T184 -191Q145 -191 120 -181T78 -160L95 -131Q110 -139 129 -143T167 -148Q175 -148 185 -147T205 -143T220 -133T226 -114Q226 -88 191 -88Q177 -88 168 -90T151 -95L139 -72L193 -10Q115 2 69 56T23 208Q23 268 42 326T98 429T185 502T299 530Z" horiz-adv-x="503" unicode="ç"/>
			<glyph d="M292 530Q334 530 366 520T422 492Q471 455 487 389T490 239H105Q104 231 104 224Q104 218 104 210Q104 141 139 97T247 53Q298 53 337 81T393 160H471Q441 72 380 29T239 -14Q194 -14 154 1T86 46T40 116T23 211Q23 277 43 335T100 436T186 505T292 530ZM289 467Q220 467 175 420T113 300H414Q418 336 412 366T390 419T350 454T289 467ZM208 725H303L345 598H278Z" horiz-adv-x="515" unicode="è"/>
			<glyph d="M292 530Q334 530 366 520T422 492Q471 455 487 389T490 239H105Q104 231 104 224Q104 218 104 210Q104 141 139 97T247 53Q298 53 337 81T393 160H471Q441 72 380 29T239 -14Q194 -14 154 1T86 46T40 116T23 211Q23 277 43 335T100 436T186 505T292 530ZM289 467Q220 467 175 420T113 300H414Q418 336 412 366T390 419T350 454T289 467ZM340 725H438L346 598H277Z" horiz-adv-x="515" unicode="é"/>
			<glyph d="M292 530Q334 530 366 520T422 492Q471 455 487 389T490 239H105Q104 231 104 224Q104 218 104 210Q104 141 139 97T247 53Q298 53 337 81T393 160H471Q441 72 380 29T239 -14Q194 -14 154 1T86 46T40 116T23 211Q23 277 43 335T100 436T186 505T292 530ZM289 467Q220 467 175 420T113 300H414Q418 336 412 366T390 419T350 454T289 467ZM273 708H363L437 602H355L313 665H311L255 602H167Z" horiz-adv-x="515" unicode="ê"/>
			<glyph d="M292 530Q334 530 366 520T422 492Q471 455 487 389T490 239H105Q104 231 104 224Q104 218 104 210Q104 141 139 97T247 53Q298 53 337 81T393 160H471Q441 72 380 29T239 -14Q194 -14 154 1T86 46T40 116T23 211Q23 277 43 335T100 436T186 505T292 530ZM289 467Q220 467 175 420T113 300H414Q418 336 412 366T390 419T350 454T289 467ZM370 710H447L428 615H351ZM209 710H286L267 615H190Z" horiz-adv-x="515" unicode="ë"/>
			<glyph d="M72 725H167L190 598H123ZM104 517H184L84 0H4Z" horiz-adv-x="188" unicode="ì"/>
			<glyph d="M177 725H273L193 598H124ZM104 517H184L84 0H4Z" horiz-adv-x="188" unicode="í"/>
			<glyph d="M128 708H218L278 602H198L169 665H167L120 602H34ZM104 517H184L84 0H4Z" horiz-adv-x="188" unicode="î"/>
			<glyph d="M210 710H287L268 615H191ZM76 710H153L134 615H57ZM104 517H184L84 0H4Z" horiz-adv-x="188" unicode="ï"/>
			<glyph d="M238 715H339Q368 694 398 662L507 695L518 651L430 624Q466 575 492 507T518 351Q518 279 500 212T448 96T361 16T239 -14Q186 -14 146 4T78 52T37 124T23 214Q23 270 41 325T94 425T179 498T293 526Q347 526 379 508T434 457Q420 501 400 536T356 602L210 558L200 602L323 639Q303 659 282 677T238 715ZM292 460Q244 460 208 438T149 382T114 303T103 213Q103 141 138 97T242 53Q290 53 325 74T385 131T420 212T432 306Q432 339 424 367T398 415T354 448T292 460Z" horiz-adv-x="538" unicode="ð"/>
			<glyph d="M361 529Q438 529 469 485T487 365L416 0H337L408 365Q417 413 402 437T340 462Q304 462 271 448T211 410T165 355T140 290L84 0H4L104 517H184L169 437H171Q203 479 253 504T361 529ZM272 695Q292 695 306 690T333 679T357 668T383 663Q397 663 404 672T414 693H471Q463 655 442 628T383 601Q365 601 349 606T318 617T292 628T270 633Q259 633 252 625T243 603H184Q194 646 215 670T272 695Z" horiz-adv-x="516" unicode="ñ"/>
			<glyph d="M296 530Q343 530 382 514T451 468T496 397T513 302Q513 240 495 183T442 82T357 12T241 -14Q195 -14 155 1T86 44T40 115T23 212Q23 275 41 332T95 434T181 504T296 530ZM294 464Q246 464 210 443T151 386T115 306T103 213Q103 179 112 149T138 98T182 65T244 53Q290 53 325 73T384 128T420 207T432 302Q432 334 424 363T399 415T356 451T294 464ZM208 725H303L345 598H278Z" horiz-adv-x="536" unicode="ò"/>
			<glyph d="M296 530Q343 530 382 514T451 468T496 397T513 302Q513 240 495 183T442 82T357 12T241 -14Q195 -14 155 1T86 44T40 115T23 212Q23 275 41 332T95 434T181 504T296 530ZM294 464Q246 464 210 443T151 386T115 306T103 213Q103 179 112 149T138 98T182 65T244 53Q290 53 325 73T384 128T420 207T432 302Q432 334 424 363T399 415T356 451T294 464ZM340 725H438L346 598H277Z" horiz-adv-x="536" unicode="ó"/>
			<glyph d="M296 530Q343 530 382 514T451 468T496 397T513 302Q513 240 495 183T442 82T357 12T241 -14Q195 -14 155 1T86 44T40 115T23 212Q23 275 41 332T95 434T181 504T296 530ZM294 464Q246 464 210 443T151 386T115 306T103 213Q103 179 112 149T138 98T182 65T244 53Q290 53 325 73T384 128T420 207T432 302Q432 334 424 363T399 415T356 451T294 464ZM281 708H371L445 602H363L321 665H319L263 602H175Z" horiz-adv-x="536" unicode="ô"/>
			<glyph d="M296 530Q343 530 382 514T451 468T496 397T513 302Q513 240 495 183T442 82T357 12T241 -14Q195 -14 155 1T86 44T40 115T23 212Q23 275 41 332T95 434T181 504T296 530ZM294 464Q246 464 210 443T151 386T115 306T103 213Q103 179 112 149T138 98T182 65T244 53Q290 53 325 73T384 128T420 207T432 302Q432 334 424 363T399 415T356 451T294 464ZM262 695Q282 695 296 690T323 679T347 668T373 663Q387 663 394 672T404 693H461Q453 655 432 628T373 601Q355 601 339 606T308 617T282 628T260 633Q249 633 242 625T233 603H174Q184 646 205 670T262 695Z" horiz-adv-x="536" unicode="õ"/>
			<glyph d="M296 530Q343 530 382 514T451 468T496 397T513 302Q513 240 495 183T442 82T357 12T241 -14Q195 -14 155 1T86 44T40 115T23 212Q23 275 41 332T95 434T181 504T296 530ZM294 464Q246 464 210 443T151 386T115 306T103 213Q103 179 112 149T138 98T182 65T244 53Q290 53 325 73T384 128T420 207T432 302Q432 334 424 363T399 415T356 451T294 464ZM374 710H451L432 615H355ZM213 710H290L271 615H194Z" horiz-adv-x="536" unicode="ö"/>
			<glyph d="M71 358H518L506 295H59ZM217 205H313L294 106H198ZM284 547H380L361 448H265Z" horiz-adv-x="551" unicode="÷"/>
			<glyph d="M298 530Q341 530 377 516T443 478L493 530L524 499L472 445Q492 416 502 380T513 302Q513 240 494 183T440 82T354 12T239 -14Q193 -14 154 0T86 43L32 -14L1 17L59 77Q23 133 23 212Q23 275 42 332T97 434T184 504T298 530ZM416 387L138 97Q174 53 242 53Q287 53 322 73T382 128T419 207T432 302Q432 325 428 346T416 387ZM296 464Q248 464 211 443T151 386T115 306T103 213Q103 169 116 137L392 425Q375 443 351 453T296 464Z" horiz-adv-x="536" unicode="ø"/>
			<glyph d="M98 517H177L107 158Q96 104 112 79T176 55Q210 55 241 68T297 105T339 160T364 228L420 517H500L400 0H320L333 72H331Q299 34 256 11T157 -12Q81 -12 47 33T28 157ZM208 725H303L345 598H278Z" horiz-adv-x="504" unicode="ù"/>
			<glyph d="M98 517H177L107 158Q96 104 112 79T176 55Q210 55 241 68T297 105T339 160T364 228L420 517H500L400 0H320L333 72H331Q299 34 256 11T157 -12Q81 -12 47 33T28 157ZM338 725H436L344 598H275Z" horiz-adv-x="504" unicode="ú"/>
			<glyph d="M98 517H177L107 158Q96 104 112 79T176 55Q210 55 241 68T297 105T339 160T364 228L420 517H500L400 0H320L333 72H331Q299 34 256 11T157 -12Q81 -12 47 33T28 157ZM282 708H372L446 602H364L322 665H320L264 602H176Z" horiz-adv-x="504" unicode="û"/>
			<glyph d="M98 517H177L107 158Q96 104 112 79T176 55Q210 55 241 68T297 105T339 160T364 228L420 517H500L400 0H320L333 72H331Q299 34 256 11T157 -12Q81 -12 47 33T28 157ZM374 710H451L432 615H355ZM213 710H290L271 615H194Z" horiz-adv-x="504" unicode="ü"/>
			<glyph d="M49 517H131L197 197Q200 180 203 162T208 130Q211 112 212 96H214Q220 111 228 128Q235 142 243 160T260 196L419 517H502L200 -64Q168 -125 130 -148T44 -171Q2 -171 -25 -159L-11 -89H-7Q1 -93 13 -96T45 -100Q70 -100 90 -89T125 -49L159 16ZM308 725H406L314 598H245Z" horiz-adv-x="457" unicode="ý"/>
			<glyph d="M142 715H222L171 446H173Q204 484 246 506T340 529Q382 529 416 513T473 470T509 402T522 315Q522 256 506 197T457 91T376 14T261 -15Q204 -15 164 8T101 76H99L52 -166H-28ZM319 461Q272 461 236 439T175 381T138 299T125 208Q125 175 132 146T156 97T198 64T258 52Q306 52 340 76T397 137T429 221T440 310Q440 340 434 367T413 415T376 448T319 461Z" horiz-adv-x="547" unicode="þ"/>
			<glyph d="M49 517H131L197 197Q200 180 203 162T208 130Q211 112 212 96H214Q220 111 228 128Q235 142 243 160T260 196L419 517H502L200 -64Q168 -125 130 -148T44 -171Q2 -171 -25 -159L-11 -89H-7Q1 -93 13 -96T45 -100Q70 -100 90 -89T125 -49L159 16ZM348 710H425L406 615H329ZM187 710H264L245 615H168Z" horiz-adv-x="457" unicode="ÿ"/>
			<glyph d="M344 715H443L578 0H484L448 218H166L53 0H-39ZM380 632Q373 616 364 598Q356 583 347 565T330 531L204 290H436L396 531Q393 546 390 563T386 596Q383 614 382 632ZM285 826H539L526 760H272Z" unicode="Ā"/>
			<glyph d="M284 528Q321 528 356 518T415 488T451 433T453 352L406 113Q401 84 408 68T451 60H454L442 2Q434 0 424 -2T401 -5Q360 -5 345 16T329 66H328Q302 33 261 11T165 -10Q126 -10 96 2T45 34T14 80T4 136Q4 185 21 216T67 266T132 291T208 301Q261 304 295 308T349 321T376 345T384 385Q384 409 375 424T352 449T318 461T278 465Q215 466 179 442T132 361H51Q65 439 124 483T284 528ZM364 268Q352 261 337 257T304 250T261 245T205 240Q190 239 169 236T130 223T98 194T85 142Q85 101 110 76T182 52Q219 52 248 64T298 96T331 142T350 197ZM186 689H440L427 623H173Z" horiz-adv-x="497" unicode="ā"/>
			<glyph d="M344 715H443L578 0H484L448 218H166L53 0H-39ZM380 632Q373 616 364 598Q356 583 347 565T330 531L204 290H436L396 531Q393 546 390 563T386 596Q383 614 382 632ZM283 870H342Q345 847 360 834T405 821Q434 821 451 834T476 870H533Q526 825 492 792T403 759Q349 759 316 789T283 870Z" unicode="Ă"/>
			<glyph d="M284 528Q321 528 356 518T415 488T451 433T453 352L406 113Q401 84 408 68T451 60H454L442 2Q434 0 424 -2T401 -5Q360 -5 345 16T329 66H328Q302 33 261 11T165 -10Q126 -10 96 2T45 34T14 80T4 136Q4 185 21 216T67 266T132 291T208 301Q261 304 295 308T349 321T376 345T384 385Q384 409 375 424T352 449T318 461T278 465Q215 466 179 442T132 361H51Q65 439 124 483T284 528ZM364 268Q352 261 337 257T304 250T261 245T205 240Q190 239 169 236T130 223T98 194T85 142Q85 101 110 76T182 52Q219 52 248 64T298 96T331 142T350 197ZM182 715H241Q244 692 259 679T304 666Q333 666 350 679T375 715H432Q425 670 391 637T302 604Q248 604 215 634T182 715Z" horiz-adv-x="497" unicode="ă"/>
			<glyph d="M344 715H443L577 5Q563 -4 548 -14T522 -36T502 -61T494 -88Q494 -115 528 -115Q538 -115 547 -113T564 -109H566L555 -165Q536 -172 512 -172Q470 -172 444 -153T418 -98Q418 -66 438 -43T485 -7L448 218H166L53 0H-39ZM380 632Q373 616 364 598Q356 583 347 565T330 531L204 290H436L396 531Q393 546 390 563T386 596Q383 614 382 632Z" unicode="Ą"/>
			<glyph d="M284 528Q321 528 356 518T415 488T451 433T453 352L406 113Q401 84 408 68T451 60H454L442 3Q406 -11 379 -36T353 -88Q353 -115 387 -115Q397 -115 406 -113T423 -109H425L414 -165Q395 -172 371 -172Q329 -172 303 -153T277 -98Q277 -80 284 -64T304 -36T331 -14T361 3Q343 11 336 28T329 66H328Q302 33 261 11T165 -10Q126 -10 96 2T45 34T14 80T4 136Q4 185 21 216T67 266T132 291T208 301Q261 304 295 308T349 321T376 345T384 385Q384 409 375 424T352 449T318 461T278 465Q215 466 179 442T132 361H51Q65 439 124 483T284 528ZM364 268Q352 261 337 257T304 250T261 245T205 240Q190 239 169 236T130 223T98 195T85 143Q85 101 110 76T182 52Q219 52 248 64T298 96T331 142T350 197Z" horiz-adv-x="497" unicode="ą"/>
			<glyph d="M427 731Q539 731 607 671T684 503H595Q585 575 540 614T418 654Q351 654 299 624T213 546T160 434T142 304Q142 255 154 211T191 135T255 83T351 64Q399 64 436 80T501 124T546 187T573 262H661Q651 209 627 161T567 74Q528 32 471 9T348 -14Q274 -14 218 9T125 73T69 173T50 301Q50 381 75 458T149 596T268 694T427 731ZM455 874H553L461 753H393Z" horiz-adv-x="684" unicode="Ć"/>
			<glyph d="M299 530Q387 530 435 483T492 350H411Q406 401 379 432T295 464Q248 464 212 441T153 382T116 299T104 206Q104 174 111 146T135 97T177 65T240 53Q295 53 335 86T391 182H468Q446 88 384 37T239 -14Q191 -14 151 0T82 42T38 111T23 208Q23 268 42 326T98 429T185 502T299 530ZM343 725H441L349 598H280Z" horiz-adv-x="503" unicode="ć"/>
			<glyph d="M427 731Q539 731 607 671T684 503H595Q585 575 540 614T418 654Q351 654 299 624T213 546T160 434T142 304Q142 255 154 211T191 135T255 83T351 64Q399 64 436 80T501 124T546 187T573 262H661Q651 209 627 161T567 74Q528 32 471 9T348 -14Q274 -14 218 9T125 73T69 173T50 301Q50 381 75 458T149 596T268 694T427 731ZM400 863H490L564 757H482L440 820H438L382 757H294Z" horiz-adv-x="684" unicode="Ĉ"/>
			<glyph d="M299 530Q387 530 435 483T492 350H411Q406 401 379 432T295 464Q248 464 212 441T153 382T116 299T104 206Q104 174 111 146T135 97T177 65T240 53Q295 53 335 86T391 182H468Q446 88 384 37T239 -14Q191 -14 151 0T82 42T38 111T23 208Q23 268 42 326T98 429T185 502T299 530ZM282 708H372L446 602H364L322 665H320L264 602H176Z" horiz-adv-x="503" unicode="ĉ"/>
			<glyph d="M427 731Q539 731 607 671T684 503H595Q585 575 540 614T418 654Q351 654 299 624T213 546T160 434T142 304Q142 255 154 211T191 135T255 83T351 64Q399 64 436 80T501 124T546 187T573 262H661Q651 209 627 161T567 74Q528 32 471 9T348 -14Q274 -14 218 9T125 73T69 173T50 301Q50 381 75 458T149 596T268 694T427 731ZM416 855H492L473 760H397Z" horiz-adv-x="684" unicode="Ċ"/>
			<glyph d="M299 530Q387 530 435 483T492 350H411Q406 401 379 432T295 464Q248 464 212 441T153 382T116 299T104 206Q104 174 111 146T135 97T177 65T240 53Q295 53 335 86T391 182H468Q446 88 384 37T239 -14Q191 -14 151 0T82 42T38 111T23 208Q23 268 42 326T98 429T185 502T299 530ZM290 715H369L350 615H271Z" horiz-adv-x="503" unicode="ċ"/>
			<glyph d="M427 731Q539 731 607 671T684 503H595Q585 575 540 614T418 654Q351 654 299 624T213 546T160 434T142 304Q142 255 154 211T191 135T255 83T351 64Q399 64 436 80T501 124T546 187T573 262H661Q651 209 627 161T567 74Q528 32 471 9T348 -14Q274 -14 218 9T125 73T69 173T50 301Q50 381 75 458T149 596T268 694T427 731ZM311 863H393L435 800H437L493 863H581L475 757H385Z" horiz-adv-x="684" unicode="Č"/>
			<glyph d="M299 530Q387 530 435 483T492 350H411Q406 401 379 432T295 464Q248 464 212 441T153 382T116 299T104 206Q104 174 111 146T135 97T177 65T240 53Q295 53 335 86T391 182H468Q446 88 384 37T239 -14Q191 -14 151 0T82 42T38 111T23 208Q23 268 42 326T98 429T185 502T299 530ZM193 708H275L317 645H319L375 708H463L357 602H267Z" horiz-adv-x="503" unicode="č"/>
			<glyph d="M154 715H378Q450 715 503 695T592 637T644 547T661 430Q661 343 636 265T563 128T442 34T273 0H16ZM227 638L119 78H271Q347 78 403 105T497 178T552 288T570 424Q570 473 559 512T524 580T463 623T373 638ZM269 863H351L393 800H395L451 863H539L433 757H343Z" horiz-adv-x="673" unicode="Ď"/>
			<glyph d="M500 715H580L442 0H362L373 56H371Q342 23 304 4T219 -15Q175 -15 139 0T77 41T37 109T23 201Q23 258 40 316T92 421T177 499T295 529Q396 529 445 438H447ZM292 461Q244 461 209 436T150 374T115 291T104 205Q104 175 110 147T132 98T171 64T230 52Q279 52 315 75T375 137T409 223T421 319Q421 349 412 374T388 419T347 450T292 461ZM629 715H712L696 630Q688 586 660 566T596 543L603 581Q624 586 636 596T653 635H614Z" horiz-adv-x="546" unicode="ď"/>
			<glyph d="M165 715H389Q461 715 514 695T603 637T655 547T672 430Q672 343 647 265T574 128T453 34T284 0H27L89 322H17L32 397H103ZM238 638L191 397H396L381 322H177L130 78H282Q358 78 414 105T508 178T563 288T581 424Q581 473 570 512T535 580T474 623T384 638Z" horiz-adv-x="684" unicode="Đ"/>
			<glyph d="M500 715H580L566 641H627L615 579H554L442 0H362L373 56H371Q342 23 304 4T219 -15Q175 -15 139 0T77 41T37 109T23 201Q23 258 40 316T92 421T177 499T295 529Q396 529 445 438H447L474 579H340L352 641H486ZM292 461Q244 461 209 436T150 374T115 291T104 205Q104 175 110 147T132 98T171 64T230 52Q279 52 315 75T375 137T409 223T421 319Q421 349 412 374T388 419T347 450T292 461Z" horiz-adv-x="546" unicode="đ"/>
			<glyph d="M154 715H621L606 637H227L183 410H531L516 335H168L120 82H521L505 0H16ZM289 826H543L530 760H276Z" horiz-adv-x="592" unicode="Ē"/>
			<glyph d="M292 530Q334 530 366 520T422 492Q471 455 487 389T490 239H105Q104 231 104 224Q104 218 104 210Q104 141 139 97T247 53Q298 53 337 81T393 160H471Q441 72 380 29T239 -14Q194 -14 154 1T86 46T40 116T23 211Q23 277 43 335T100 436T186 505T292 530ZM289 467Q220 467 175 420T113 300H414Q418 336 412 366T390 419T350 454T289 467ZM202 689H456L443 623H189Z" horiz-adv-x="515" unicode="ē"/>
			<glyph d="M154 715H621L606 637H227L183 410H531L516 335H168L120 82H521L505 0H16ZM283 870H342Q345 847 360 834T405 821Q434 821 451 834T476 870H533Q526 825 492 792T403 759Q349 759 316 789T283 870Z" horiz-adv-x="592" unicode="Ĕ"/>
			<glyph d="M292 530Q334 530 366 520T422 492Q471 455 487 389T490 239H105Q104 231 104 224Q104 218 104 210Q104 141 139 97T247 53Q298 53 337 81T393 160H471Q441 72 380 29T239 -14Q194 -14 154 1T86 46T40 116T23 211Q23 277 43 335T100 436T186 505T292 530ZM289 467Q220 467 175 420T113 300H414Q418 336 412 366T390 419T350 454T289 467ZM192 715H251Q254 692 269 679T314 666Q343 666 360 679T385 715H442Q435 670 401 637T312 604Q258 604 225 634T192 715Z" horiz-adv-x="515" unicode="ĕ"/>
			<glyph d="M154 715H621L606 637H227L183 410H531L516 335H168L120 82H521L505 0H16ZM379 855H455L436 760H360Z" horiz-adv-x="592" unicode="Ė"/>
			<glyph d="M292 530Q334 530 366 520T422 492Q471 455 487 389T490 239H105Q104 231 104 224Q104 218 104 210Q104 141 139 97T247 53Q298 53 337 81T393 160H471Q441 72 380 29T239 -14Q194 -14 154 1T86 46T40 116T23 211Q23 277 43 335T100 436T186 505T292 530ZM289 467Q220 467 175 420T113 300H414Q418 336 412 366T390 419T350 454T289 467ZM286 715H365L346 615H267Z" horiz-adv-x="515" unicode="ė"/>
			<glyph d="M154 715H621L606 637H227L183 410H531L516 335H168L120 82H521L505 0H446Q435 -7 422 -16T398 -37T379 -61T371 -88Q371 -115 405 -115Q415 -115 424 -113T441 -109H443L432 -165Q413 -172 389 -172Q347 -172 321 -153T295 -98Q295 -64 318 -39T369 0H16Z" horiz-adv-x="592" unicode="Ę"/>
			<glyph d="M292 530Q334 530 366 520T422 492Q471 455 487 389T490 239H105Q104 231 104 224Q104 218 104 210Q104 141 139 97T247 53Q298 53 337 81T393 160H471Q455 114 429 80T374 25Q360 15 341 2T305 -25T276 -56T264 -88Q264 -115 298 -115Q308 -115 317 -113T334 -109H336L325 -165Q306 -172 282 -172Q240 -172 214 -153T188 -98Q188 -69 206 -48T248 -14H239Q194 -14 154 1T86 46T40 116T23 211Q23 277 43 335T100 436T186 505T292 530ZM289 467Q220 467 175 420T113 300H414Q418 336 412 366T390 419T350 454T289 467Z" horiz-adv-x="515" unicode="ę"/>
			<glyph d="M154 715H621L606 637H227L183 410H531L516 335H168L120 82H521L505 0H16ZM276 863H358L400 800H402L458 863H546L440 757H350Z" horiz-adv-x="592" unicode="Ě"/>
			<glyph d="M292 530Q334 530 366 520T422 492Q471 455 487 389T490 239H105Q104 231 104 224Q104 218 104 210Q104 141 139 97T247 53Q298 53 337 81T393 160H471Q441 72 380 29T239 -14Q194 -14 154 1T86 46T40 116T23 211Q23 277 43 335T100 436T186 505T292 530ZM289 467Q220 467 175 420T113 300H414Q418 336 412 366T390 419T350 454T289 467ZM180 708H262L304 645H306L362 708H450L344 602H254Z" horiz-adv-x="515" unicode="ě"/>
			<glyph d="M432 731Q485 731 531 717T612 674T668 601T694 500H605Q599 569 553 611T430 653Q358 653 304 623T214 544T160 431T142 299Q142 246 155 202T194 127T258 78T346 61Q397 61 437 77T506 124T554 195T582 285L585 301H374L389 378H689L616 0H554V94H552Q513 43 461 14T336 -15Q275 -15 222 5T132 64T72 162T50 297Q50 377 75 454T150 593T270 693T432 731ZM413 863H503L577 757H495L453 820H451L395 757H307Z" horiz-adv-x="722" unicode="Ĝ"/>
			<glyph d="M284 529Q335 529 372 506T432 442H433L448 517H527L427 0Q412 -79 352 -125T202 -172Q164 -172 129 -164T68 -140T24 -95T6 -29H85Q87 -52 97 -67T122 -92T158 -105T201 -109Q264 -109 301 -78T349 7L365 88H364Q335 56 299 37T215 18Q173 18 138 32T77 73T38 138T24 224Q24 282 41 337T91 435T172 503T284 529ZM280 461Q235 461 201 441T146 388T114 313T104 229Q104 198 111 172T133 126T172 96T230 85Q277 85 311 106T367 160T401 236T412 320Q412 386 379 423T280 461ZM284 708H374L448 602H366L324 665H322L266 602H178Z" horiz-adv-x="531" unicode="ĝ"/>
			<glyph d="M432 731Q485 731 531 717T612 674T668 601T694 500H605Q599 569 553 611T430 653Q358 653 304 623T214 544T160 431T142 299Q142 246 155 202T194 127T258 78T346 61Q397 61 437 77T506 124T554 195T582 285L585 301H374L389 378H689L616 0H554V94H552Q513 43 461 14T336 -15Q275 -15 222 5T132 64T72 162T50 297Q50 377 75 454T150 593T270 693T432 731ZM320 870H379Q382 847 397 834T442 821Q471 821 488 834T513 870H570Q563 825 529 792T440 759Q386 759 353 789T320 870Z" horiz-adv-x="722" unicode="Ğ"/>
			<glyph d="M284 529Q335 529 372 506T432 442H433L448 517H527L427 0Q412 -79 352 -125T202 -172Q164 -172 129 -164T68 -140T24 -95T6 -29H85Q87 -52 97 -67T122 -92T158 -105T201 -109Q264 -109 301 -78T349 7L365 88H364Q335 56 299 37T215 18Q173 18 138 32T77 73T38 138T24 224Q24 282 41 337T91 435T172 503T284 529ZM280 461Q235 461 201 441T146 388T114 313T104 229Q104 198 111 172T133 126T172 96T230 85Q277 85 311 106T367 160T401 236T412 320Q412 386 379 423T280 461ZM203 715H262Q265 692 280 679T325 666Q354 666 371 679T396 715H453Q446 670 412 637T323 604Q269 604 236 634T203 715Z" horiz-adv-x="531" unicode="ğ"/>
			<glyph d="M432 731Q485 731 531 717T612 674T668 601T694 500H605Q599 569 553 611T430 653Q358 653 304 623T214 544T160 431T142 299Q142 246 155 202T194 127T258 78T346 61Q397 61 437 77T506 124T554 195T582 285L585 301H374L389 378H689L616 0H554V94H552Q513 43 461 14T336 -15Q275 -15 222 5T132 64T72 162T50 297Q50 377 75 454T150 593T270 693T432 731ZM418 855H494L475 760H399Z" horiz-adv-x="722" unicode="Ġ"/>
			<glyph d="M284 529Q335 529 372 506T432 442H433L448 517H527L427 0Q412 -79 352 -125T202 -172Q164 -172 129 -164T68 -140T24 -95T6 -29H85Q87 -52 97 -67T122 -92T158 -105T201 -109Q264 -109 301 -78T349 7L365 88H364Q335 56 299 37T215 18Q173 18 138 32T77 73T38 138T24 224Q24 282 41 337T91 435T172 503T284 529ZM280 461Q235 461 201 441T146 388T114 313T104 229Q104 198 111 172T133 126T172 96T230 85Q277 85 311 106T367 160T401 236T412 320Q412 386 379 423T280 461ZM289 715H368L349 615H270Z" horiz-adv-x="531" unicode="ġ"/>
			<glyph d="M432 731Q485 731 531 717T612 674T668 601T694 500H605Q599 569 553 611T430 653Q358 653 304 623T214 544T160 431T142 299Q142 246 155 202T194 127T258 78T346 61Q397 61 437 77T506 124T554 195T582 285L585 301H374L389 378H689L616 0H554V94H552Q513 43 461 14T336 -15Q275 -15 222 5T132 64T72 162T50 297Q50 377 75 454T150 593T270 693T432 731ZM279 -44H362L344 -139Q336 -184 309 -204T242 -228L250 -190Q267 -186 281 -174T300 -133H262Z" horiz-adv-x="722" unicode="Ģ"/>
			<glyph d="M284 529Q335 529 372 506T432 442H433L448 517H527L427 0Q412 -79 352 -125T202 -172Q164 -172 129 -164T68 -140T24 -95T6 -29H85Q87 -52 97 -67T122 -92T158 -105T201 -109Q264 -109 301 -78T349 7L365 88H364Q335 56 299 37T215 18Q173 18 138 32T77 73T38 138T24 224Q24 282 41 337T91 435T172 503T284 529ZM280 461Q235 461 201 441T146 388T114 313T104 229Q104 198 111 172T133 126T172 96T230 85Q277 85 311 106T367 160T401 236T412 320Q412 386 379 423T280 461ZM381 788L373 750Q356 746 342 734T323 693H361L344 604H261L279 699Q287 744 313 764T381 788Z" horiz-adv-x="531" unicode="ģ"/>
			<glyph d="M154 715H242L183 411H539L598 715H687L549 0H460L525 339H169L104 0H16ZM392 863H482L556 757H474L432 820H430L374 757H286Z" horiz-adv-x="665" unicode="Ĥ"/>
			<glyph d="M142 715H222L168 436H170Q202 478 252 503T361 529Q438 529 469 485T487 365L416 0H337L408 365Q417 413 402 437T340 462Q304 462 271 448T211 410T165 355T140 290L84 0H4ZM318 863H408L482 757H400L358 820H356L300 757H212Z" horiz-adv-x="516" unicode="ĥ"/>
			<glyph d="M154 715H242L214 574H570L598 715H687L660 574H729L716 507H647L549 0H460L525 339H169L104 0H16L114 507H45L58 574H127ZM201 507L183 411H539L557 507Z" horiz-adv-x="665" unicode="Ħ"/>
			<glyph d="M142 715H222L207 641H341L329 579H195L168 436H170Q202 478 252 503T361 529Q438 529 469 485T487 365L416 0H337L408 365Q417 413 402 437T340 462Q304 462 271 448T211 410T165 355T140 290L84 0H4L116 579H54L66 641H128Z" horiz-adv-x="516" unicode="ħ"/>
			<glyph d="M156 715H244L106 0H18ZM153 854Q173 854 188 849T217 838T243 827T270 822Q284 822 291 831T301 852H358Q350 814 329 787T270 760Q252 760 235 765T202 776T174 787T151 792Q140 792 133 784T124 762H65Q75 805 96 829T153 854Z" horiz-adv-x="224" unicode="Ĩ"/>
			<glyph d="M123 695Q136 695 149 690T174 679T198 669T217 664Q228 664 233 672T240 693H295Q290 653 271 627T215 601Q201 601 188 606T163 616T140 627T121 632Q111 632 106 624T100 603H42Q50 648 70 671T123 695ZM104 517H184L84 0H4Z" horiz-adv-x="188" unicode="ĩ"/>
			<glyph d="M114 827H328L315 761H101ZM156 715H244L106 0H18Z" horiz-adv-x="224" unicode="Ī"/>
			<glyph d="M79 689H274L261 623H66ZM104 517H184L84 0H4Z" horiz-adv-x="188" unicode="ī"/>
			<glyph d="M156 715H244L106 0H18ZM97 870H156Q159 847 174 834T219 821Q248 821 265 834T290 870H347Q340 825 306 792T217 759Q163 759 130 789T97 870Z" horiz-adv-x="224" unicode="Ĭ"/>
			<glyph d="M45 715H104Q107 692 122 679T167 666Q196 666 213 679T238 715H295Q288 670 254 637T165 604Q111 604 78 634T45 715ZM104 517H184L84 0H4Z" horiz-adv-x="188" unicode="ĭ"/>
			<glyph d="M156 715H244L106 2Q95 -5 82 -14T57 -36T38 -61T30 -88Q30 -115 64 -115Q74 -115 83 -113T100 -109H102L91 -165Q72 -172 48 -172Q6 -172 -20 -153T-46 -98Q-46 -64 -22 -39T30 0H18Z" horiz-adv-x="224" unicode="Į"/>
			<glyph d="M104 517H184L84 2Q73 -5 59 -15T34 -36T15 -61T7 -88Q7 -115 41 -115Q51 -115 60 -113T77 -109H79L68 -165Q49 -172 25 -172Q-17 -172 -43 -153T-69 -98Q-69 -65 -46 -42T3 -5ZM142 715H222L203 615H123Z" horiz-adv-x="188" unicode="į"/>
			<glyph d="M156 715H244L106 0H18ZM188 855H264L245 760H169Z" horiz-adv-x="224" unicode="İ"/>
			<glyph d="M104 517H184L84 0H4Z" horiz-adv-x="188" unicode="ı"/>
			<glyph d="M156 715H244L106 0H18ZM639 715H728L622 164Q606 84 553 35T405 -14Q350 -14 310 -1T246 41T217 116T224 227L225 232H311L310 227Q303 191 301 160T310 106T343 71T410 59Q463 59 492 87T535 178Z" horiz-adv-x="697" unicode="Ĳ"/>
			<glyph d="M104 517H184L84 0H4ZM142 715H222L203 615H123ZM292 517H372L263 -43Q257 -75 243 -95T213 -127T176 -143T136 -147Q114 -147 102 -145T84 -141L96 -77H98Q111 -81 129 -81Q151 -81 165 -71T186 -30ZM330 715H410L391 615H311Z" horiz-adv-x="376" unicode="ĳ"/>
			<glyph d="M426 715H515L409 164Q393 84 340 35T192 -14Q137 -14 97 -1T33 41T4 116T11 227L12 232H98L97 227Q90 191 88 160T97 106T130 71T197 59Q250 59 279 87T322 178ZM444 863H534L608 757H526L484 820H482L426 757H338Z" horiz-adv-x="484" unicode="Ĵ"/>
			<glyph d="M128 708H218L278 602H198L169 665H167L120 602H34ZM104 517H184L75 -43Q69 -75 55 -95T25 -127T-12 -143T-52 -147Q-74 -147 -85 -145T-104 -141L-92 -77H-90Q-77 -81 -59 -81Q-37 -81 -22 -71T-2 -30Z" horiz-adv-x="188" unicode="ĵ"/>
			<glyph d="M154 715H242L173 362L559 715H671L351 427L576 0H477L284 367L152 248L104 0H16ZM237 -44H320L302 -139Q294 -184 267 -204T200 -228L208 -190Q225 -186 239 -174T258 -133H220Z" horiz-adv-x="624" unicode="Ķ"/>
			<glyph d="M142 715H222L139 286L384 517H489L274 326L415 0H329L213 273L121 191L84 0H4ZM160 -44H243L225 -139Q217 -184 190 -204T123 -228L131 -190Q148 -186 162 -174T181 -133H143Z" horiz-adv-x="461" unicode="ķ"/>
			<glyph d="M104 517H184L139 286L384 517H489L274 326L415 0H329L213 273L121 191L84 0H4Z" horiz-adv-x="461" unicode="ĸ"/>
			<glyph d="M154 715H242L120 82H479L463 0H16ZM230 874H328L236 753H168Z" horiz-adv-x="539" unicode="Ĺ"/>
			<glyph d="M145 715H225L87 0H7ZM223 874H321L229 753H161Z" horiz-adv-x="194" unicode="ĺ"/>
			<glyph d="M154 715H242L120 82H479L463 0H16ZM204 -44H287L269 -139Q261 -184 234 -204T167 -228L175 -190Q192 -186 206 -174T225 -133H187Z" horiz-adv-x="539" unicode="Ļ"/>
			<glyph d="M145 715H225L87 0H7ZM-4 -44H79L61 -139Q53 -184 26 -204T-41 -228L-33 -190Q-16 -186 -2 -174T17 -133H-21Z" horiz-adv-x="194" unicode="ļ"/>
			<glyph d="M154 715H242L120 82H479L463 0H16ZM401 715H484L468 630Q460 586 432 566T368 543L375 581Q396 586 408 596T425 635H386Z" horiz-adv-x="539" unicode="Ľ"/>
			<glyph d="M145 715H225L87 0H7ZM277 715H360L344 630Q336 586 308 566T244 543L251 581Q272 586 284 596T301 635H262Z" horiz-adv-x="194" unicode="ľ"/>
			<glyph d="M154 715H242L120 82H479L463 0H16ZM379 392H475L456 293H360Z" horiz-adv-x="539" unicode="Ŀ"/>
			<glyph d="M145 715H225L87 0H7ZM216 392H312L293 293H197Z" horiz-adv-x="283" unicode="ŀ"/>
			<glyph d="M164 715H252L185 367L455 498L439 417L169 286L130 82H489L473 0H26L72 239L-6 201L10 282L87 319Z" horiz-adv-x="549" unicode="Ł"/>
			<glyph d="M165 715H245L192 438L281 502L266 425L177 361L107 0H27L84 296L6 241L21 318L99 373Z" horiz-adv-x="237" unicode="ł"/>
			<glyph d="M154 715H247L462 216Q469 200 474 184T485 155Q490 139 495 124H497L611 715H694L556 0H465L249 500Q242 514 236 529T226 559Q221 574 215 589H213L99 0H16ZM459 874H557L465 753H397Z" horiz-adv-x="672" unicode="Ń"/>
			<glyph d="M361 529Q438 529 469 485T487 365L416 0H337L408 365Q417 413 402 437T340 462Q304 462 271 448T211 410T165 355T140 290L84 0H4L104 517H184L169 437H171Q203 479 253 504T361 529ZM349 725H447L355 598H286Z" horiz-adv-x="516" unicode="ń"/>
			<glyph d="M154 715H247L462 216Q469 200 474 184T485 155Q490 139 495 124H497L611 715H694L556 0H465L249 500Q242 514 236 529T226 559Q221 574 215 589H213L99 0H16ZM239 -44H322L304 -139Q296 -184 269 -204T202 -228L210 -190Q227 -186 241 -174T260 -133H222Z" horiz-adv-x="672" unicode="Ņ"/>
			<glyph d="M361 529Q438 529 469 485T487 365L416 0H337L408 365Q417 413 402 437T340 462Q304 462 271 448T211 410T165 355T140 290L84 0H4L104 517H184L169 437H171Q203 479 253 504T361 529ZM161 -44H244L226 -139Q218 -184 191 -204T124 -228L132 -190Q149 -186 163 -174T182 -133H144Z" horiz-adv-x="516" unicode="ņ"/>
			<glyph d="M154 715H247L462 216Q469 200 474 184T485 155Q490 139 495 124H497L611 715H694L556 0H465L249 500Q242 514 236 529T226 559Q221 574 215 589H213L99 0H16ZM315 863H397L439 800H441L497 863H585L479 757H389Z" horiz-adv-x="672" unicode="Ň"/>
			<glyph d="M361 529Q438 529 469 485T487 365L416 0H337L408 365Q417 413 402 437T340 462Q304 462 271 448T211 410T165 355T140 290L84 0H4L104 517H184L169 437H171Q203 479 253 504T361 529ZM200 708H282L324 645H326L382 708H470L364 602H274Z" horiz-adv-x="516" unicode="ň"/>
			<glyph d="M76 715H160L144 630Q136 588 108 566T43 543L50 581Q72 586 84 596T101 635H61ZM361 529Q438 529 469 485T487 365L416 0H337L408 365Q417 413 402 437T340 462Q304 462 271 448T211 410T165 354T140 289L84 0H4L104 517H184L169 437H171Q203 479 253 504T361 529Z" horiz-adv-x="516" unicode="ŉ"/>
			<glyph d="M154 715H247L462 216Q469 200 474 184T485 155Q490 139 495 124H497L611 715H694L559 20Q551 -21 537 -56T500 -117T438 -157T345 -172Q330 -172 311 -169T282 -164L296 -94Q304 -96 316 -97T339 -99Q390 -99 422 -78T468 -7L249 500Q243 514 237 529T226 559Q220 574 215 589H213L99 0H16Z" horiz-adv-x="672" unicode="Ŋ"/>
			<glyph d="M361 529Q438 529 470 485T487 365L408 -43Q402 -75 388 -95T358 -127T321 -143T281 -147Q259 -147 247 -145T229 -141L241 -77H243Q256 -81 274 -81Q296 -81 310 -71T331 -30L408 365Q417 413 402 437T340 462Q304 462 271 448T211 410T165 355T140 290L84 0H4L104 517H184L169 437H171Q203 479 253 504T361 529Z" horiz-adv-x="516" unicode="ŋ"/>
			<glyph d="M426 731Q494 731 552 709T653 645T720 542T745 402Q745 316 719 240T646 107T528 18T372 -15Q304 -15 245 6T143 70T75 173T50 312Q50 397 77 473T153 606T271 697T426 731ZM422 654Q354 654 302 627T214 553T160 444T142 312Q142 194 204 128T374 63Q443 63 495 89T583 161T636 268T654 401Q654 458 638 504T592 584T519 635T422 654ZM322 826H576L563 760H309Z" horiz-adv-x="758" unicode="Ō"/>
			<glyph d="M296 530Q343 530 382 514T451 468T496 397T513 302Q513 240 495 183T442 82T357 12T241 -14Q195 -14 155 1T86 44T40 115T23 212Q23 275 41 332T95 434T181 504T296 530ZM294 464Q246 464 210 443T151 386T115 306T103 213Q103 179 112 149T138 98T182 65T244 53Q290 53 325 73T384 128T420 207T432 302Q432 334 424 363T399 415T356 451T294 464ZM200 689H454L441 623H187Z" horiz-adv-x="536" unicode="ō"/>
			<glyph d="M426 731Q494 731 552 709T653 645T720 542T745 402Q745 316 719 240T646 107T528 18T372 -15Q304 -15 245 6T143 70T75 173T50 312Q50 397 77 473T153 606T271 697T426 731ZM422 654Q354 654 302 627T214 553T160 444T142 312Q142 194 204 128T374 63Q443 63 495 89T583 161T636 268T654 401Q654 458 638 504T592 584T519 635T422 654ZM323 870H382Q385 847 400 834T445 821Q474 821 491 834T516 870H573Q566 825 532 792T443 759Q389 759 356 789T323 870Z" horiz-adv-x="758" unicode="Ŏ"/>
			<glyph d="M296 530Q343 530 382 514T451 468T496 397T513 302Q513 240 495 183T442 82T357 12T241 -14Q195 -14 155 1T86 44T40 115T23 212Q23 275 41 332T95 434T181 504T296 530ZM294 464Q246 464 210 443T151 386T115 306T103 213Q103 179 112 149T138 98T182 65T244 53Q290 53 325 73T384 128T420 207T432 302Q432 334 424 363T399 415T356 451T294 464ZM196 715H255Q258 692 273 679T318 666Q347 666 364 679T389 715H446Q439 670 405 637T316 604Q262 604 229 634T196 715Z" horiz-adv-x="536" unicode="ŏ"/>
			<glyph d="M426 731Q494 731 552 709T653 645T720 542T745 402Q745 316 719 240T646 107T528 18T372 -15Q304 -15 245 6T143 70T75 173T50 312Q50 397 77 473T153 606T271 697T426 731ZM422 654Q354 654 302 627T214 553T160 444T142 312Q142 194 204 128T374 63Q443 63 495 89T583 161T636 268T654 401Q654 458 638 504T592 584T519 635T422 654ZM510 880H591L529 753H469ZM382 880H463L401 753H341Z" horiz-adv-x="758" unicode="Ő"/>
			<glyph d="M296 530Q343 530 382 514T451 468T496 397T513 302Q513 240 495 183T442 82T357 12T241 -14Q195 -14 155 1T86 44T40 115T23 212Q23 275 41 332T95 434T181 504T296 530ZM294 464Q246 464 210 443T151 386T115 306T103 213Q103 179 112 149T138 98T182 65T244 53Q290 53 325 73T384 128T420 207T432 302Q432 334 424 363T399 415T356 451T294 464ZM381 725H462L400 598H340ZM253 725H334L272 598H212Z" horiz-adv-x="536" unicode="ő"/>
			<glyph d="M424 654Q355 654 302 623T214 541T160 425T142 294Q142 188 190 125T337 63Q368 63 401 71T462 96T511 137T538 194L599 501Q606 535 595 563T559 611T500 643T424 654ZM432 731Q497 731 547 708T626 639L640 715H1093L1078 637H713L669 410H1003L988 335H654L606 82H993L977 0H502L513 55Q483 26 432 5T322 -15Q265 -15 215 5T129 65T72 162T51 295Q51 379 77 458T153 597T272 694T432 731Z" horiz-adv-x="1064" unicode="Œ"/>
			<glyph d="M279 530Q340 530 384 500T449 411Q482 466 531 498T642 530Q713 530 759 495Q804 460 820 395T822 239H465Q464 231 464 222Q464 213 464 205Q464 138 496 95T593 53Q641 53 676 79T728 160H805Q777 68 719 27T588 -14Q523 -14 478 16T412 103Q380 50 331 18T219 -14Q175 -14 139 1T77 44T37 113T23 204Q23 270 41 329T94 433T175 504T279 530ZM278 464Q234 464 201 443T147 386T114 305T103 208Q103 176 109 148T130 99T167 65T223 53Q264 53 296 73T350 129T385 210T397 310Q397 339 390 366T369 416T332 451T278 464ZM638 467Q572 467 530 421T473 300H749Q758 378 728 422T638 467Z" horiz-adv-x="848" unicode="œ"/>
			<glyph d="M154 715H417Q467 715 509 700T580 656Q600 636 613 606T626 531Q626 441 578 382T446 307L571 0H477L356 300H162L104 0H16ZM227 638L176 372H374Q411 372 441 380T492 408T526 456T538 527Q538 580 503 609T407 638ZM406 874H504L412 753H344Z" unicode="Ŕ"/>
			<glyph d="M318 523Q337 523 345 521T360 517L345 440H342Q328 445 305 445Q246 445 199 400T136 273L84 0H4L104 517H184L168 435H170Q199 476 236 499T318 523ZM274 725H372L280 598H211Z" horiz-adv-x="328" unicode="ŕ"/>
			<glyph d="M154 715H417Q467 715 509 700T580 656Q600 636 613 606T626 531Q626 441 578 382T446 307L571 0H477L356 300H162L104 0H16ZM227 638L176 372H374Q411 372 441 380T492 408T526 456T538 527Q538 580 503 609T407 638ZM243 -44H326L308 -139Q300 -184 273 -204T206 -228L214 -190Q231 -186 245 -174T264 -133H226Z" unicode="Ŗ"/>
			<glyph d="M318 523Q337 523 345 521T360 517L345 440H342Q328 445 305 445Q246 445 199 400T136 273L84 0H4L104 517H184L168 435H170Q199 476 236 499T318 523ZM-7 -44H76L58 -139Q50 -184 23 -204T-44 -228L-36 -190Q-19 -186 -5 -174T14 -133H-24Z" horiz-adv-x="328" unicode="ŗ"/>
			<glyph d="M154 715H417Q467 715 509 700T580 656Q600 636 613 606T626 531Q626 441 578 382T446 307L571 0H477L356 300H162L104 0H16ZM227 638L176 372H374Q411 372 441 380T492 408T526 456T538 527Q538 580 503 609T407 638ZM263 863H345L387 800H389L445 863H533L427 757H337Z" unicode="Ř"/>
			<glyph d="M318 523Q337 523 345 521T360 517L345 440H342Q328 445 305 445Q246 445 199 400T136 273L84 0H4L104 517H184L168 435H170Q199 476 236 499T318 523ZM130 708H212L254 645H256L312 708H400L294 602H204Z" horiz-adv-x="328" unicode="ř"/>
			<glyph d="M329 729Q383 729 429 717T510 678T564 608T588 506H504Q500 586 455 621T329 657Q299 657 271 651T223 632T189 597T177 542Q177 519 187 502T217 472T265 447T328 422Q378 404 420 386T492 345T540 290T557 213Q557 163 538 121T485 49T401 2T289 -14Q234 -14 183 0T93 43T31 122T10 242H95Q95 193 108 158T147 102T209 69T291 59Q373 59 421 96T470 203Q470 231 458 250T424 285T368 314T291 344Q246 360 209 378T147 418T108 468T94 534Q94 579 112 615T161 676T236 715T329 729ZM379 874H477L385 753H317Z" horiz-adv-x="602" unicode="Ś"/>
			<glyph d="M241 528Q280 528 315 519T376 490T419 440T439 366H361Q355 420 322 443T241 466Q221 466 202 462T169 450T146 428T137 392Q137 376 144 364T165 343T202 323T256 301Q290 287 319 274T369 243T402 202T414 146Q414 104 397 73T353 23T289 -5T213 -15Q171 -15 132 -4T63 29T16 86T-2 168H75Q77 110 114 80T219 51Q240 51 260 55T298 70T325 99T336 144Q336 175 308 193T217 236Q185 248 157 261T108 291T74 331T62 388Q62 422 75 448T112 492T169 519T241 528ZM304 725H402L310 598H241Z" horiz-adv-x="464" unicode="ś"/>
			<glyph d="M329 729Q383 729 429 717T510 678T564 608T588 506H504Q500 586 455 621T329 657Q299 657 271 651T223 632T189 597T177 542Q177 519 187 502T217 472T265 447T328 422Q378 404 420 386T492 345T540 290T557 213Q557 163 538 121T485 49T401 2T289 -14Q234 -14 183 0T93 43T31 122T10 242H95Q95 193 108 158T147 102T209 69T291 59Q373 59 421 96T470 203Q470 231 458 250T424 285T368 314T291 344Q246 360 209 378T147 418T108 468T94 534Q94 579 112 615T161 676T236 715T329 729ZM329 863H419L493 757H411L369 820H367L311 757H223Z" horiz-adv-x="602" unicode="Ŝ"/>
			<glyph d="M241 528Q280 528 315 519T376 490T419 440T439 366H361Q355 420 322 443T241 466Q221 466 202 462T169 450T146 428T137 392Q137 376 144 364T165 343T202 323T256 301Q290 287 319 274T369 243T402 202T414 146Q414 104 397 73T353 23T289 -5T213 -15Q171 -15 132 -4T63 29T16 86T-2 168H75Q77 110 114 80T219 51Q240 51 260 55T298 70T325 99T336 144Q336 175 308 193T217 236Q185 248 157 261T108 291T74 331T62 388Q62 422 75 448T112 492T169 519T241 528ZM246 708H336L410 602H328L286 665H284L228 602H140Z" horiz-adv-x="464" unicode="ŝ"/>
			<glyph d="M329 729Q383 729 429 717T510 678T564 608T588 506H504Q500 586 455 621T329 657Q299 657 271 651T223 632T189 597T177 542Q177 519 187 502T217 472T265 447T328 422Q378 404 420 386T492 345T540 290T557 213Q557 164 539 123T489 52T408 4T300 -14L259 -50V-52Q274 -49 289 -51T316 -60T336 -79T344 -109Q344 -130 335 -145T312 -170T279 -186T238 -191Q199 -191 174 -181T132 -160L149 -131Q164 -139 183 -143T221 -148Q229 -148 239 -147T259 -143T274 -133T280 -114Q280 -88 245 -88Q231 -88 222 -90T205 -95L193 -72L246 -12Q198 -8 154 8T77 55T26 131T10 242H95Q95 193 108 158T147 102T209 69T291 59Q373 59 421 96T470 203Q470 231 458 250T424 285T368 314T291 344Q246 360 209 378T147 418T108 468T94 534Q94 579 112 615T161 676T236 715T329 729Z" horiz-adv-x="602" unicode="Ş"/>
			<glyph d="M241 528Q280 528 315 519T376 490T419 440T439 366H361Q355 420 322 443T241 466Q221 466 202 462T169 450T146 428T137 392Q137 376 144 364T165 343T202 323T256 301Q290 287 319 274T369 243T402 202T414 146Q414 106 399 76T358 27T298 -2T227 -14L187 -50V-52Q202 -49 217 -51T244 -60T264 -79T272 -109Q272 -130 263 -145T240 -170T207 -186T166 -191Q127 -191 102 -181T60 -160L77 -131Q92 -139 111 -143T149 -148Q157 -148 167 -147T187 -143T202 -133T208 -114Q208 -88 173 -88Q159 -88 150 -90T133 -95L121 -72L173 -13Q137 -9 105 4T50 40T12 94T-2 168H75Q77 110 114 80T219 51Q240 51 260 55T298 70T325 99T336 144Q336 175 308 193T217 236Q185 248 157 261T108 291T74 331T62 388Q62 422 75 448T112 492T169 519T241 528Z" horiz-adv-x="464" unicode="ş"/>
			<glyph d="M329 729Q383 729 429 717T510 678T564 608T588 506H504Q500 586 455 621T329 657Q299 657 271 651T223 632T189 597T177 542Q177 519 187 502T217 472T265 447T328 422Q378 404 420 386T492 345T540 290T557 213Q557 163 538 121T485 49T401 2T289 -14Q234 -14 183 0T93 43T31 122T10 242H95Q95 193 108 158T147 102T209 69T291 59Q373 59 421 96T470 203Q470 231 458 250T424 285T368 314T291 344Q246 360 209 378T147 418T108 468T94 534Q94 579 112 615T161 676T236 715T329 729ZM235 863H317L359 800H361L417 863H505L399 757H309Z" horiz-adv-x="602" unicode="Š"/>
			<glyph d="M241 528Q280 528 315 519T376 490T419 440T439 366H361Q355 420 322 443T241 466Q221 466 202 462T169 450T146 428T137 392Q137 376 144 364T165 343T202 323T256 301Q290 287 319 274T369 243T402 202T414 146Q414 104 397 73T353 23T289 -5T213 -15Q171 -15 132 -4T63 29T16 86T-2 168H75Q77 110 114 80T219 51Q240 51 260 55T298 70T325 99T336 144Q336 175 308 193T217 236Q185 248 157 261T108 291T74 331T62 388Q62 422 75 448T112 492T169 519T241 528ZM147 708H229L271 645H273L329 708H417L311 602H221Z" horiz-adv-x="464" unicode="š"/>
			<glyph d="M105 715H648L633 637H405L282 0H194L317 637H90ZM188 -44H271L253 -139Q245 -184 218 -204T151 -228L159 -190Q176 -186 190 -174T209 -133H171Z" horiz-adv-x="576" unicode="Ţ"/>
			<glyph d="M177 680H257L225 517H324L311 452H212L149 124Q137 66 194 66Q209 66 221 69T240 75H243L229 5Q207 -3 173 -3Q113 -3 84 29T69 127L132 452H59L72 517H145ZM88 -44H171L153 -139Q145 -184 118 -204T51 -228L59 -190Q76 -186 90 -174T109 -133H71Z" horiz-adv-x="297" unicode="ţ"/>
			<glyph d="M105 715H648L633 637H405L282 0H194L317 637H90ZM264 863H346L388 800H390L446 863H534L428 757H338Z" horiz-adv-x="576" unicode="Ť"/>
			<glyph d="M324 715H407L393 638Q385 600 357 581T295 561L302 599Q322 602 333 611T350 643H311ZM177 680H257L225 517H324L311 452H212L149 124Q137 66 194 66Q209 66 221 69T240 75H243L229 5Q207 -3 173 -3Q113 -3 84 29T69 127L132 452H59L72 517H145Z" horiz-adv-x="297" unicode="ť"/>
			<glyph d="M105 715H648L633 637H405L362 414H514L501 347H349L282 0H194L261 347H115L128 414H274L317 637H90Z" horiz-adv-x="576" unicode="Ŧ"/>
			<glyph d="M177 680H257L225 517H324L311 452H212L195 367H295L282 302H183L149 124Q137 66 194 66Q209 66 221 69T240 75H243L229 5Q207 -3 173 -3Q113 -3 84 29T69 127L103 302H30L43 367H115L132 452H59L72 517H145Z" horiz-adv-x="297" unicode="ŧ"/>
			<glyph d="M142 715H231L143 261Q123 163 161 114T302 65Q383 65 429 103T492 225L587 715H675L577 210Q566 152 541 110T479 41T397 1T298 -11Q234 -11 183 4T98 53T52 137T54 261ZM363 854Q383 854 398 849T427 838T453 827T480 822Q494 822 501 831T511 852H568Q560 814 539 787T480 760Q462 760 445 765T412 776T384 787T361 792Q350 792 343 784T334 762H275Q285 805 306 829T363 854Z" horiz-adv-x="641" unicode="Ũ"/>
			<glyph d="M98 517H177L107 158Q96 104 112 79T176 55Q210 55 241 68T297 105T339 160T364 228L420 517H500L400 0H320L333 72H331Q299 34 256 11T157 -12Q81 -12 47 33T28 157ZM263 695Q283 695 297 690T324 679T348 668T374 663Q388 663 395 672T405 693H462Q454 655 433 628T374 601Q356 601 340 606T309 617T283 628T261 633Q250 633 243 625T234 603H175Q185 646 206 670T263 695Z" horiz-adv-x="504" unicode="ũ"/>
			<glyph d="M142 715H231L143 261Q123 163 161 114T302 65Q383 65 429 103T492 225L587 715H675L577 210Q566 152 541 110T479 41T397 1T298 -11Q234 -11 183 4T98 53T52 137T54 261ZM303 826H557L544 760H290Z" horiz-adv-x="641" unicode="Ū"/>
			<glyph d="M98 517H177L107 158Q96 104 112 79T176 55Q210 55 241 68T297 105T339 160T364 228L420 517H500L400 0H320L333 72H331Q299 34 256 11T157 -12Q81 -12 47 33T28 157ZM201 689H455L442 623H188Z" horiz-adv-x="504" unicode="ū"/>
			<glyph d="M142 715H231L143 261Q123 163 161 114T302 65Q383 65 429 103T492 225L587 715H675L577 210Q566 152 541 110T479 41T397 1T298 -11Q234 -11 183 4T98 53T52 137T54 261ZM295 870H354Q357 847 372 834T417 821Q446 821 463 834T488 870H545Q538 825 504 792T415 759Q361 759 328 789T295 870Z" horiz-adv-x="641" unicode="Ŭ"/>
			<glyph d="M98 517H177L107 158Q96 104 112 79T176 55Q210 55 241 68T297 105T339 160T364 228L420 517H500L400 0H320L333 72H331Q299 34 256 11T157 -12Q81 -12 47 33T28 157ZM196 715H255Q258 692 273 679T318 666Q347 666 364 679T389 715H446Q439 670 405 637T316 604Q262 604 229 634T196 715Z" horiz-adv-x="504" unicode="ŭ"/>
			<glyph d="M142 715H231L143 261Q123 163 161 114T302 65Q383 65 429 103T492 225L587 715H675L577 210Q566 152 541 110T479 41T397 1T298 -11Q234 -11 183 4T98 53T52 137T54 261ZM413 905Q431 905 447 898T474 880T493 853T500 820Q500 802 493 786T474 759T447 741T413 735Q395 735 379 741T351 759T333 786T326 820Q326 838 333 853T351 880T379 898T413 905ZM413 870Q392 870 379 855T366 820Q366 799 379 784T413 770Q434 770 447 784T460 820Q460 841 447 855T413 870Z" horiz-adv-x="641" unicode="Ů"/>
			<glyph d="M98 517H177L107 158Q96 104 112 79T176 55Q210 55 241 68T297 105T339 160T364 228L420 517H500L400 0H320L333 72H331Q299 34 256 11T157 -12Q81 -12 47 33T28 157ZM313 729Q331 729 347 722T374 704T393 677T400 644Q400 626 393 610T374 583T347 565T313 559Q295 559 279 565T251 583T233 610T226 644Q226 662 233 677T251 704T279 722T313 729ZM313 694Q292 694 279 679T266 644Q266 623 279 608T313 594Q334 594 347 608T360 644Q360 665 347 679T313 694Z" horiz-adv-x="504" unicode="ů"/>
			<glyph d="M142 715H231L143 261Q123 163 161 114T302 65Q383 65 429 103T492 225L587 715H675L577 210Q566 152 541 110T479 41T397 1T298 -11Q234 -11 183 4T98 53T52 137T54 261ZM483 880H564L502 753H442ZM355 880H436L374 753H314Z" horiz-adv-x="641" unicode="Ű"/>
			<glyph d="M98 517H177L107 158Q96 104 112 79T176 55Q210 55 241 68T297 105T339 160T364 228L420 517H500L400 0H320L333 72H331Q299 34 256 11T157 -12Q81 -12 47 33T28 157ZM386 725H467L405 598H345ZM258 725H339L277 598H217Z" horiz-adv-x="504" unicode="ű"/>
			<glyph d="M142 715H231L143 261Q123 163 161 114T302 65Q383 65 429 103T492 225L587 715H675L577 210Q562 132 524 86T427 14Q407 5 384 -3T341 -22T307 -48T294 -88Q294 -115 328 -115Q338 -115 347 -113T364 -109H366L355 -165Q336 -172 312 -172Q270 -172 244 -153T218 -98Q218 -68 235 -46T277 -10Q218 -7 170 9T92 59T51 142T54 261Z" horiz-adv-x="641" unicode="Ų"/>
			<glyph d="M98 517H177L107 158Q96 104 112 79T176 55Q210 55 241 68T297 105T339 160T364 228L420 517H500L400 1Q389 -6 375 -15T350 -36T331 -61T323 -88Q323 -115 357 -115Q367 -115 376 -113T393 -109H395L384 -165Q365 -172 341 -172Q299 -172 273 -153T247 -98Q247 -82 253 -67T270 -41T294 -20T319 -5L333 72H331Q299 34 256 11T157 -12Q81 -12 47 33T28 157Z" horiz-adv-x="504" unicode="ų"/>
			<glyph d="M94 715H184L213 250Q215 232 215 210T217 171Q218 150 219 129H221Q230 151 239 173Q247 192 255 213T272 252L477 715H573L617 252Q619 234 620 212T622 172Q623 150 624 129H626Q634 151 643 173Q651 192 659 212T674 250L871 715H961L645 0H560L516 504Q514 520 513 539T511 576Q510 595 510 615H508Q501 596 493 577Q486 560 478 540T463 504L239 0H151ZM504 863H594L668 757H586L544 820H542L486 757H398Z" horiz-adv-x="886" unicode="Ŵ"/>
			<glyph d="M52 517H136L166 204Q168 187 168 166T170 128Q171 107 171 86H173Q180 107 187 127Q193 144 200 163T215 198L356 517H439L467 198Q469 182 469 162T470 126V86H472Q480 107 488 127Q495 144 503 164T519 201L668 517H752L498 0H416L387 309Q385 325 384 345T383 382Q382 402 382 423H380Q373 402 365 382Q358 365 350 345T335 309L198 0H115ZM376 708H466L540 602H458L416 665H414L358 602H270Z" horiz-adv-x="708" unicode="ŵ"/>
			<glyph d="M81 715H176L314 376H316L569 715H668L344 296L287 0H199L257 303ZM347 863H437L511 757H429L387 820H385L329 757H241Z" horiz-adv-x="580" unicode="Ŷ"/>
			<glyph d="M49 517H131L197 197Q200 180 203 162T208 130Q211 112 212 96H214Q220 111 228 128Q235 142 243 160T260 196L419 517H502L200 -64Q168 -125 130 -148T44 -171Q2 -171 -25 -159L-11 -89H-7Q1 -93 13 -96T45 -100Q70 -100 90 -89T125 -49L159 16ZM255 708H345L419 602H337L295 665H293L237 602H149Z" horiz-adv-x="457" unicode="ŷ"/>
			<glyph d="M81 715H176L314 376H316L569 715H668L344 296L287 0H199L257 303ZM435 855H512L493 760H416ZM274 855H351L332 760H255Z" horiz-adv-x="580" unicode="Ÿ"/>
			<glyph d="M137 715H633L620 647L103 82V79H532L517 0H-20L-4 84L505 638V641H123ZM407 874H505L413 753H345Z" horiz-adv-x="592" unicode="Ź"/>
			<glyph d="M90 517H459L450 471L94 75V72H386L373 0H-23L-11 62L333 445V448H77ZM310 725H408L316 598H247Z" horiz-adv-x="443" unicode="ź"/>
			<glyph d="M137 715H633L620 647L103 82V79H532L517 0H-20L-4 84L505 638V641H123ZM368 855H444L425 760H349Z" horiz-adv-x="592" unicode="Ż"/>
			<glyph d="M90 517H459L450 471L94 75V72H386L373 0H-23L-11 62L333 445V448H77ZM256 715H335L316 615H237Z" horiz-adv-x="443" unicode="ż"/>
			<glyph d="M137 715H633L620 647L103 82V79H532L517 0H-20L-4 84L505 638V641H123ZM269 863H351L393 800H395L451 863H539L433 757H343Z" horiz-adv-x="592" unicode="Ž"/>
			<glyph d="M90 517H459L450 471L94 75V72H386L373 0H-23L-11 62L333 445V448H77ZM163 708H245L287 645H289L345 708H433L327 602H237Z" horiz-adv-x="443" unicode="ž"/>
			<glyph d="M384 693L371 624Q314 631 291 616T259 561L224 406H328L316 342H209L124 -33Q107 -107 67 -133T-48 -149L-35 -82Q1 -86 18 -76T44 -28L128 342H42L54 406H143L182 572Q200 648 247 675T384 693Z" horiz-adv-x="339" unicode="ƒ"/>
			<glyph d="M358 715H959L944 637H589L545 410H869L854 335H530L482 82H859L843 0H378L420 219H175L56 0H-36ZM402 637L214 291H434L501 637ZM675 874H773L681 753H613Z" horiz-adv-x="930" unicode="Ǽ"/>
			<glyph d="M605 530Q681 530 729 493T792 390T795 239H427Q426 231 426 224Q426 218 426 210Q426 141 456 97T555 53Q606 53 643 81T698 160H776Q746 72 686 29T547 -14Q486 -14 439 16T371 106H369Q341 46 288 18T174 -10Q132 -10 100 1T47 31T15 77T4 132Q4 180 21 210T66 259T132 284T208 294Q259 297 291 302T343 317T369 343T377 385Q377 409 369 424T347 449T316 461T277 465Q214 466 178 442T132 361H51Q65 439 124 484T283 528Q337 527 378 509T436 447Q469 485 511 507T605 530ZM357 265Q333 251 298 244T204 233Q189 232 169 229T130 216T99 189T85 139Q84 101 109 76T181 52Q218 52 246 63T294 94T326 140T344 197ZM602 467Q537 467 494 420T435 300H719Q723 336 717 366T698 419T660 454T602 467ZM489 725H587L495 598H426Z" horiz-adv-x="820" unicode="ǽ"/>
			<glyph d="M426 731Q491 731 546 711T644 653L719 730L757 691L681 613Q711 572 728 519T745 402Q745 316 719 240T646 107T528 18T372 -15Q239 -15 150 63L73 -17L34 22L113 104Q83 144 66 196T50 312Q50 397 77 473T153 606T271 697T426 731ZM618 548L209 124Q270 63 374 63Q443 63 495 89T583 161T636 268T654 401Q654 444 644 481T618 548ZM422 654Q354 654 302 627T214 553T160 444T142 312Q142 226 175 168L585 592Q555 621 514 637T422 654ZM474 874H572L480 753H412Z" horiz-adv-x="758" unicode="Ǿ"/>
			<glyph d="M298 530Q341 530 377 516T443 478L493 530L524 499L472 445Q492 416 502 380T513 302Q513 240 494 183T440 82T354 12T239 -14Q193 -14 154 0T86 43L32 -14L1 17L59 77Q23 133 23 212Q23 275 42 332T97 434T184 504T298 530ZM416 387L138 97Q174 53 242 53Q287 53 322 73T382 128T419 207T432 302Q432 325 428 346T416 387ZM296 464Q248 464 211 443T151 386T115 306T103 213Q103 169 116 137L392 425Q375 443 351 453T296 464ZM340 725H438L346 598H277Z" horiz-adv-x="536" unicode="ǿ"/>
			<glyph d="M329 729Q383 729 429 717T510 678T564 608T588 506H504Q500 586 455 621T329 657Q299 657 271 651T223 632T189 597T177 542Q177 519 187 502T217 472T265 447T328 422Q378 404 420 386T492 345T540 290T557 213Q557 163 538 121T485 49T401 2T289 -14Q234 -14 183 0T93 43T31 122T10 242H95Q95 193 108 158T147 102T209 69T291 59Q373 59 421 96T470 203Q470 231 458 250T424 285T368 314T291 344Q246 360 209 378T147 418T108 468T94 534Q94 579 112 615T161 676T236 715T329 729ZM223 -44H306L288 -139Q280 -184 253 -204T186 -228L194 -190Q211 -186 225 -174T244 -133H206Z" horiz-adv-x="602" unicode="Ș"/>
			<glyph d="M241 528Q280 528 315 519T376 490T419 440T439 366H361Q355 420 322 443T241 466Q221 466 202 462T169 450T146 428T137 392Q137 376 144 364T165 343T202 323T256 301Q290 287 319 274T369 243T402 202T414 146Q414 104 397 73T353 23T289 -5T213 -15Q171 -15 132 -4T63 29T16 86T-2 168H75Q77 110 114 80T219 51Q240 51 260 55T298 70T325 99T336 144Q336 175 308 193T217 236Q185 248 157 261T108 291T74 331T62 388Q62 422 75 448T112 492T169 519T241 528ZM150 -44H233L215 -139Q207 -184 180 -204T113 -228L121 -190Q138 -186 152 -174T171 -133H133Z" horiz-adv-x="464" unicode="ș"/>
			<glyph d="M105 715H648L633 637H405L282 0H194L317 637H90ZM188 -44H271L253 -139Q245 -184 218 -204T151 -228L159 -190Q176 -186 190 -174T209 -133H171Z" horiz-adv-x="576" unicode="Ț"/>
			<glyph d="M177 680H257L225 517H324L311 452H212L149 124Q137 66 194 66Q209 66 221 69T240 75H243L229 5Q207 -3 173 -3Q113 -3 84 29T69 127L132 452H59L72 517H145ZM88 -44H171L153 -139Q145 -184 118 -204T51 -228L59 -190Q76 -186 90 -174T109 -133H71Z" horiz-adv-x="297" unicode="ț"/>
			<glyph d="M104 517H184L75 -43Q69 -75 55 -95T25 -127T-12 -143T-52 -147Q-74 -147 -85 -145T-104 -141L-92 -77H-90Q-77 -81 -59 -81Q-37 -81 -22 -71T-2 -30Z" horiz-adv-x="188" unicode="ȷ"/>
			<glyph d="M284 708H374L448 602H366L324 665H322L266 602H178Z" horiz-adv-x="492" unicode="ˆ"/>
			<glyph d="M198 708H280L322 645H324L380 708H468L362 602H272Z" horiz-adv-x="492" unicode="ˇ"/>
			<glyph d="M202 689H456L443 623H189Z" horiz-adv-x="492" unicode="ˉ"/>
			<glyph d="M204 715H263Q266 692 281 679T326 666Q355 666 372 679T397 715H454Q447 670 413 637T324 604Q270 604 237 634T204 715Z" horiz-adv-x="492" unicode="˘"/>
			<glyph d="M294 715H373L354 615H275Z" horiz-adv-x="492" unicode="˙"/>
			<glyph d="M324 729Q342 729 358 722T385 704T404 677T411 644Q411 626 404 610T385 583T358 565T324 559Q306 559 290 565T262 583T244 610T237 644Q237 662 244 677T262 704T290 722T324 729ZM324 694Q303 694 290 679T277 644Q277 623 290 608T324 594Q345 594 358 608T371 644Q371 665 358 679T324 694Z" horiz-adv-x="501" unicode="˚"/>
			<glyph d="M143 0H211Q200 -7 187 -16T163 -37T144 -61T136 -88Q136 -115 170 -115Q180 -115 189 -113T206 -109H208L197 -165Q178 -172 154 -172Q112 -172 86 -153T60 -98Q60 -80 67 -65T86 -37T113 -15T143 0Z" horiz-adv-x="492" unicode="˛"/>
			<glyph d="M265 695Q285 695 299 690T326 679T350 668T376 663Q390 663 397 672T407 693H464Q456 655 435 628T376 601Q358 601 342 606T311 617T285 628T263 633Q252 633 245 625T236 603H177Q187 646 208 670T265 695Z" horiz-adv-x="492" unicode="˜"/>
			<glyph d="M370 725H451L389 598H329ZM242 725H323L261 598H201Z" horiz-adv-x="492" unicode="˝"/>
			<glyph d="M345 715H444L583 79L569 0H-31L-16 80ZM380 636Q372 618 363 600Q355 585 345 567T328 535L70 73H493L396 535Q393 550 390 567T386 600Q383 618 382 636Z" unicode="Δ"/>
			<glyph d="M420 731Q483 731 536 711T629 653T690 559T712 430Q712 380 700 328T665 228T604 140T516 77V75H651L637 0H354L368 75Q434 81 481 113T560 195T606 306T621 428Q621 533 568 593T417 654Q345 654 293 622T207 541T157 427T141 300Q141 213 177 152T288 77L274 0H-1L13 75H155V77Q105 112 77 169T50 302Q50 382 74 459T146 596T262 693T420 731Z" horiz-adv-x="728" unicode="Ω"/>
			<glyph d="M103 517H182L113 163Q102 110 119 82T186 55Q220 55 250 68T304 105T345 160T369 228L425 517H505L405 0H325L338 72H336Q304 34 267 11T171 -12Q142 -12 121 -2T90 27H88L50 -166H-30Z" horiz-adv-x="513" unicode="μ"/>
			<glyph d="M72 517H615L602 452H519L455 120Q450 94 458 80T495 66Q504 66 513 68T530 74H533L519 4Q507 1 495 -1T471 -3Q414 -3 388 28T375 123L439 452H217L130 0H50L137 452H59Z" horiz-adv-x="595" unicode="π"/>
			<glyph d="M94 715H184L213 250Q215 232 215 210T217 171Q218 150 219 129H221Q230 151 239 173Q247 192 255 213T272 252L477 715H573L617 252Q619 234 620 212T622 172Q623 150 624 129H626Q634 151 643 173Q651 192 659 212T674 250L871 715H961L645 0H560L516 504Q514 520 513 539T511 576Q510 595 510 615H508Q501 596 493 577Q486 560 478 540T463 504L239 0H151ZM427 874H522L564 753H496Z" horiz-adv-x="886" unicode="Ẁ"/>
			<glyph d="M52 517H136L166 204Q168 187 168 166T170 128Q171 107 171 86H173Q180 107 187 127Q193 144 200 163T215 198L356 517H439L467 198Q469 182 469 162T470 126V86H472Q480 107 488 127Q495 144 503 164T519 201L668 517H752L498 0H416L387 309Q385 325 384 345T383 382Q382 402 382 423H380Q373 402 365 382Q358 365 350 345T335 309L198 0H115ZM300 725H395L437 598H370Z" horiz-adv-x="708" unicode="ẁ"/>
			<glyph d="M94 715H184L213 250Q215 232 215 210T217 171Q218 150 219 129H221Q230 151 239 173Q247 192 255 213T272 252L477 715H573L617 252Q619 234 620 212T622 172Q623 150 624 129H626Q634 151 643 173Q651 192 659 212T674 250L871 715H961L645 0H560L516 504Q514 520 513 539T511 576Q510 595 510 615H508Q501 596 493 577Q486 560 478 540T463 504L239 0H151ZM563 874H661L569 753H501Z" horiz-adv-x="886" unicode="Ẃ"/>
			<glyph d="M52 517H136L166 204Q168 187 168 166T170 128Q171 107 171 86H173Q180 107 187 127Q193 144 200 163T215 198L356 517H439L467 198Q469 182 469 162T470 126V86H472Q480 107 488 127Q495 144 503 164T519 201L668 517H752L498 0H416L387 309Q385 325 384 345T383 382Q382 402 382 423H380Q373 402 365 382Q358 365 350 345T335 309L198 0H115ZM441 725H539L447 598H378Z" horiz-adv-x="708" unicode="ẃ"/>
			<glyph d="M94 715H184L213 250Q215 232 215 210T217 171Q218 150 219 129H221Q230 151 239 173Q247 192 255 213T272 252L477 715H573L617 252Q619 234 620 212T622 172Q623 150 624 129H626Q634 151 643 173Q651 192 659 212T674 250L871 715H961L645 0H560L516 504Q514 520 513 539T511 576Q510 595 510 615H508Q501 596 493 577Q486 560 478 540T463 504L239 0H151ZM592 855H669L650 760H573ZM431 855H508L489 760H412Z" horiz-adv-x="886" unicode="Ẅ"/>
			<glyph d="M52 517H136L166 204Q168 187 168 166T170 128Q171 107 171 86H173Q180 107 187 127Q193 144 200 163T215 198L356 517H439L467 198Q469 182 469 162T470 126V86H472Q480 107 488 127Q495 144 503 164T519 201L668 517H752L498 0H416L387 309Q385 325 384 345T383 382Q382 402 382 423H380Q373 402 365 382Q358 365 350 345T335 309L198 0H115ZM469 710H546L527 615H450ZM308 710H385L366 615H289Z" horiz-adv-x="708" unicode="ẅ"/>
			<glyph d="M81 715H176L314 376H316L569 715H668L344 296L287 0H199L257 303ZM271 874H366L408 753H340Z" horiz-adv-x="580" unicode="Ỳ"/>
			<glyph d="M49 517H131L197 197Q200 180 203 162T208 130Q211 112 212 96H214Q220 111 228 128Q235 142 243 160T260 196L419 517H502L200 -64Q168 -125 130 -148T44 -171Q2 -171 -25 -159L-11 -89H-7Q1 -93 13 -96T45 -100Q70 -100 90 -89T125 -49L159 16ZM182 725H277L319 598H252Z" horiz-adv-x="457" unicode="ỳ"/>
			<glyph d="" horiz-adv-x="55" unicode=" "/>
			<glyph d="M53 289H458L444 221H39Z" horiz-adv-x="500" unicode="–"/>
			<glyph d="M106 289H906L892 221H92Z" horiz-adv-x="1000" unicode="—"/>
			<glyph d="M212 717L205 679Q188 674 173 660T153 607H192L173 507H89L110 618Q119 668 146 690T212 717Z" horiz-adv-x="166" unicode="‘"/>
			<glyph d="M129 715H213L192 604Q183 554 155 531T90 505L97 543Q114 548 128 562T149 615H110Z" horiz-adv-x="166" unicode="’"/>
			<glyph d="M10 100H94L73 -11Q64 -61 36 -83T-29 -110L-22 -72Q-5 -67 9 -53T30 0H-9Z" horiz-adv-x="166" unicode="‚"/>
			<glyph d="M361 717L354 679Q337 674 322 660T302 607H341L322 507H238L259 618Q268 668 295 690T361 717ZM212 717L205 679Q188 674 173 660T153 607H192L173 507H89L110 618Q119 668 146 690T212 717Z" horiz-adv-x="315" unicode="“"/>
			<glyph d="M129 715H213L192 604Q183 554 155 531T90 505L97 543Q114 548 128 562T149 615H110ZM278 715H362L341 604Q332 554 304 531T239 505L246 543Q263 548 277 562T298 615H259Z" horiz-adv-x="315" unicode="”"/>
			<glyph d="M10 100H94L73 -11Q64 -61 36 -83T-29 -110L-22 -72Q-5 -67 9 -53T30 0H-9ZM159 100H243L222 -11Q213 -61 185 -83T120 -110L127 -72Q144 -67 158 -53T179 0H140Z" horiz-adv-x="315" unicode="„"/>
			<glyph d="M316 715H397L361 529H556L542 457H347L238 -104H157L266 457H71L85 529H280Z" horiz-adv-x="537" unicode="†"/>
			<glyph d="M316 715H397L361 529H556L542 457H347L289 154H484L469 82H274L238 -104H157L193 82H-2L13 154H208L266 457H71L85 529H280Z" horiz-adv-x="537" unicode="‡"/>
			<glyph d="M164 444Q188 444 209 434T247 409T272 371T282 325Q282 301 272 279T247 242T209 216T164 207Q139 207 117 216T80 242T54 279T45 325Q45 349 54 371T80 409T117 434T164 444Z" horiz-adv-x="300" unicode="•"/>
			<glyph d="M435 99H531L512 0H416ZM12 99H108L89 0H-7ZM224 99H319L300 0H205Z" horiz-adv-x="605" unicode="…"/>
			<glyph d="M255 701Q317 701 353 661T390 548Q390 506 379 462T345 384T289 327T210 305Q144 305 106 345T68 459Q68 499 79 542T114 620T172 678T255 701ZM628 685H695L185 0H118ZM249 642Q220 642 199 623T166 577T147 518T141 458Q141 418 156 391T211 364Q242 364 262 382T295 428T312 487T317 546Q317 587 302 614T249 642ZM607 381Q669 381 705 341T742 228Q742 186 731 142T697 64T641 7T562 -15Q496 -15 458 25T420 139Q420 179 431 222T466 300T524 358T607 381ZM601 322Q572 322 551 303T518 257T499 198T493 138Q493 98 508 71T563 44Q594 44 614 62T647 108T664 167T669 226Q669 267 654 294T601 322ZM963 381Q1025 381 1061 341T1098 228Q1098 186 1087 142T1053 64T997 7T918 -15Q852 -15 814 25T776 139Q776 179 787 222T822 300T880 358T963 381ZM957 322Q928 322 907 303T874 257T855 198T849 138Q849 98 864 71T919 44Q950 44 970 62T1003 108T1020 167T1025 226Q1025 267 1010 294T957 322Z" horiz-adv-x="1136" unicode="‰"/>
			<glyph d="M148 715H222L141 501H68Z" horiz-adv-x="155" unicode="′"/>
			<glyph d="M285 715H359L278 501H204ZM148 715H222L141 501H68Z" horiz-adv-x="292" unicode="″"/>
			<glyph d="M226 430L210 348L92 273V271L179 189L165 113L44 233L61 320Z" horiz-adv-x="242" unicode="‹"/>
			<glyph d="M81 430L202 310L185 223L20 113L36 195L154 270V272L67 354Z" horiz-adv-x="242" unicode="›"/>
			<glyph d="M348 715H420L-143 0H-216Z" horiz-adv-x="166" unicode="⁄"/>
			<glyph d="M269 724Q338 724 375 678T413 560Q413 510 401 462T366 377T306 317T219 294Q152 294 112 338T72 458Q72 507 84 555T120 640T182 701T269 724ZM263 667Q232 667 209 647T173 598T152 530T145 457Q145 440 149 421T162 388T186 363T224 353Q257 353 279 373T314 424T333 492T339 563Q339 581 335 599T323 633T299 657T263 667Z" horiz-adv-x="389" unicode="⁰"/>
			<glyph d="M317 720H384L333 452H397L386 398H322L304 304H236L254 398H55L69 468ZM296 624L126 454V452H265L298 624Z" horiz-adv-x="381" unicode="⁴"/>
			<glyph d="M147 715H382L371 656H192L162 554H164Q195 583 246 583Q301 583 335 547T370 452Q370 415 357 386T322 336T269 305T203 295Q176 295 149 303T102 328T67 368T53 423H123Q125 394 148 373T209 353Q247 353 272 378T297 449Q297 483 278 504T221 526Q197 526 177 517T144 492H81Z" horiz-adv-x="358" unicode="⁵"/>
			<glyph d="M272 723Q324 723 358 697T397 614H329Q327 636 313 651T269 667Q220 667 192 629T152 538H154Q172 557 196 569T251 581Q278 581 301 571T340 545T366 505T376 454Q376 419 364 389T331 339T280 306T216 294Q185 294 152 307T99 349Q84 369 77 395T70 449Q70 491 81 539T117 628T179 696T272 723ZM235 525Q193 525 166 499T140 428Q140 393 161 371T217 349Q259 349 283 376T308 450Q308 482 289 503T235 525Z" horiz-adv-x="366" unicode="⁶"/>
			<glyph d="M113 715H406L395 656Q362 628 329 591T267 509T217 412T184 304H109Q120 359 143 410T195 506T258 588T323 652V653H101Z" horiz-adv-x="348" unicode="⁷"/>
			<glyph d="M260 724Q287 724 311 718T355 699T386 666T398 618Q398 584 379 560T327 525V523Q354 512 372 487T390 433Q390 399 376 373T340 330T286 304T220 295Q187 295 158 302T107 325T73 361T61 412Q61 457 87 486T158 530V532Q110 557 110 607Q110 636 123 658T157 694T206 716T260 724ZM233 501Q193 501 163 481T134 417Q134 382 161 366T224 350Q242 350 258 354T288 368T310 393T318 431Q318 467 293 484T233 501ZM256 671Q226 671 202 653T179 601Q179 573 200 561T249 549Q262 549 276 552T302 562T321 582T329 613Q329 642 307 656T256 671Z" horiz-adv-x="381" unicode="⁸"/>
			<glyph d="M242 724Q273 724 305 711T359 669Q374 649 381 622T388 569Q388 535 382 499T366 431T339 372T300 328Q277 310 252 302T192 295Q140 295 103 321T61 406H131Q133 381 150 366T197 351Q238 351 264 379Q280 396 289 422T306 480H304Q286 461 263 449T209 438Q182 438 159 447T118 472T91 512T82 564Q82 599 94 628T127 679T177 712T242 724ZM241 668Q199 668 174 641T150 568Q150 536 169 516T225 496Q267 496 293 520T319 588Q319 624 297 646T241 668Z" horiz-adv-x="368" unicode="⁹"/>
			<glyph d="M181 270Q250 270 287 224T325 106Q325 56 313 8T278 -76T218 -137T131 -160Q64 -160 24 -115T-16 4Q-16 53 -4 101T32 186T94 247T181 270ZM175 213Q144 213 121 193T85 144T64 76T57 3Q57 -14 61 -32T74 -66T98 -91T136 -101Q169 -101 191 -81T226 -30T245 38T251 109Q251 127 247 145T235 179T211 203T175 213Z" horiz-adv-x="389" unicode="₀"/>
			<glyph d="M132 264H192L112 -150H41L97 139H0L9 188Q60 190 89 208T132 264Z" horiz-adv-x="250" unicode="₁"/>
			<glyph d="M162 269Q186 269 209 262T251 242T280 206T291 153Q291 126 282 105T255 66T211 32T149 -1Q111 -20 78 -40T34 -91H249L238 -150H-60Q-52 -110 -35 -80T5 -28T58 13T122 48Q144 59 162 69T192 91T212 117T219 152Q219 181 201 196T156 211Q123 211 98 188T67 118H-1Q10 193 54 231T162 269Z" horiz-adv-x="343" unicode="₂"/>
			<glyph d="M159 270Q184 270 208 263T250 244T279 212T290 165Q290 127 268 102T213 66V64Q244 56 262 32T280 -23Q280 -55 267 -80T233 -122T183 -149T123 -159Q53 -159 9 -121T-37 -12H30Q30 -30 36 -46T53 -75T83 -95T125 -103Q163 -103 185 -83T208 -28Q209 4 188 22T128 40H107L117 95H145Q176 93 198 108T221 160Q221 186 204 201T158 217Q120 217 96 195T64 134H-4Q7 200 51 235T159 270Z" horiz-adv-x="361" unicode="₃"/>
			<glyph d="M229 266H296L245 -2H309L298 -56H234L216 -150H148L166 -56H-33L-19 14ZM208 170L38 0V-2H177L210 170Z" horiz-adv-x="381" unicode="₄"/>
			<glyph d="M59 261H294L283 202H104L74 100H76Q107 129 158 129Q213 129 247 93T282 -2Q282 -39 269 -68T234 -117T181 -148T115 -159Q88 -159 61 -150T14 -126T-20 -86T-35 -31H35Q37 -60 60 -80T121 -101Q159 -101 184 -75T209 -5Q209 29 190 50T133 72Q109 72 89 63T56 38H-7Z" horiz-adv-x="358" unicode="₅"/>
			<glyph d="M184 269Q236 269 270 243T309 160H241Q239 182 225 197T181 213Q132 213 104 175T64 84H66Q84 103 108 115T163 127Q190 127 213 117T252 91T278 51T288 0Q288 -35 276 -64T243 -115T192 -148T128 -160Q97 -160 64 -147T11 -105Q-4 -85 -11 -58T-18 -5Q-18 37 -6 85T29 174T91 242T184 269ZM147 71Q105 71 78 45T52 -26Q52 -61 73 -83T129 -105Q171 -105 195 -77T220 -4Q220 28 201 49T147 71Z" horiz-adv-x="366" unicode="₆"/>
			<glyph d="M25 261H318L307 202Q274 174 241 137T179 55T129 -41T96 -150H21Q32 -95 55 -44T107 52T170 134T235 198V199H13Z" horiz-adv-x="348" unicode="₇"/>
			<glyph d="M172 270Q199 270 223 264T267 245T298 212T310 164Q310 130 291 106T239 71V69Q266 58 284 33T302 -21Q302 -55 288 -81T252 -124T198 -150T132 -159Q99 -159 70 -151T19 -129T-14 -92T-27 -42Q-27 3 -1 32T70 76V78Q22 103 22 153Q22 182 35 204T69 240T118 262T172 270ZM145 47Q105 47 75 27T46 -37Q46 -72 73 -88T136 -104Q154 -104 170 -99T200 -85T222 -60T230 -23Q230 13 205 30T145 47ZM168 217Q138 217 114 199T91 147Q91 119 112 107T161 95Q174 95 188 98T214 108T233 128T241 159Q241 188 219 202T168 217Z" horiz-adv-x="381" unicode="₈"/>
			<glyph d="M154 270Q185 270 217 257T271 215Q286 195 293 168T300 115Q300 81 294 45T278 -22T251 -82T212 -126Q189 -144 164 -151T104 -159Q52 -159 15 -132T-27 -48H43Q45 -73 62 -88T109 -103Q150 -103 176 -75Q192 -58 201 -31T218 26H216Q198 7 175 -4T121 -16Q94 -16 71 -7T30 18T3 58T-6 110Q-6 145 6 174T39 225T89 258T154 270ZM153 214Q111 214 86 187T62 114Q62 82 81 62T137 42Q179 42 205 66T231 134Q231 170 209 192T153 214Z" horiz-adv-x="368" unicode="₉"/>
			<glyph d="M412 701Q506 701 560 649T614 497H531Q530 555 501 592T408 630Q366 630 332 614T272 570T227 506T195 430H400L390 376H182Q174 339 171 307H377L367 253H169Q169 215 175 180T199 118T246 74T322 58Q449 58 503 227H581Q568 169 542 124T482 48T405 1T317 -15Q257 -15 213 6T141 63T98 148T84 253H21L31 307H87Q89 324 91 341T97 376H45L55 430H112Q129 483 156 532T220 618T305 678T412 701Z" horiz-adv-x="601" unicode="€"/>
			<glyph d="M265 723Q315 723 341 695T367 613Q367 547 348 490T299 386T228 303T143 242L126 154Q122 136 122 119Q122 103 127 90T143 71T174 64Q202 64 219 70T252 84H255L242 15Q230 8 212 2T164 -3Q95 -3 63 37T47 157L56 204Q42 199 28 196T0 191L12 250Q27 254 41 258T68 267L134 604Q145 662 179 692T265 723ZM264 661Q244 661 232 646T213 599L157 315Q175 329 190 344T220 377Q258 425 278 487T299 612Q299 635 291 648T264 661Z" horiz-adv-x="332" unicode="ℓ"/>
			<glyph d="M393 715H471L490 497H491L595 715H675L620 429H569L611 650H609Q604 637 598 623Q593 611 586 596T572 567L504 429H452L438 567Q436 580 435 595T433 622Q432 636 432 650H430L388 429H338ZM114 715H347L338 668H249L203 429H148L194 668H105Z" horiz-adv-x="629" unicode="™"/>
			<glyph d="M420 731Q483 731 536 711T629 653T690 559T712 430Q712 380 700 328T665 228T604 140T516 77V75H651L637 0H354L368 75Q434 81 481 113T560 195T606 306T621 428Q621 533 568 593T417 654Q345 654 293 622T207 541T157 427T141 300Q141 213 177 152T288 77L274 0H-1L13 75H155V77Q105 112 77 169T50 302Q50 382 74 459T146 596T262 693T420 731Z" horiz-adv-x="728" unicode="Ω"/>
			<glyph d="M332 627Q386 627 429 611T505 568Q560 521 581 454T601 301H170V98Q198 69 238 53T337 37Q425 37 473 76T546 186H597Q587 143 566 107T512 44T436 3T337 -11Q266 -11 210 12T117 78T59 179T39 309Q39 379 60 437T121 538T213 603T332 627ZM332 582Q278 582 237 565T170 520V345H473V533Q450 556 414 569T332 582Z" horiz-adv-x="621" unicode="℮"/>
			<glyph d="M223 718H283L203 304H132L188 593H91L100 642Q151 644 180 662T223 718ZM625 715H697L134 0H61ZM647 420Q672 420 696 413T738 394T767 362T778 315Q778 277 756 252T701 216V214Q732 206 750 182T768 127Q768 95 755 70T721 27T671 0T611 -9Q541 -9 497 28T451 138H518Q518 120 524 104T541 75T571 54T613 47Q651 47 673 66T696 122Q697 154 676 172T616 190H595L605 245H633Q664 243 686 258T709 310Q709 336 692 351T646 367Q608 367 584 345T552 284H484Q495 350 539 385T647 420Z" horiz-adv-x="823" unicode="⅓"/>
			<glyph d="M253 723Q277 723 300 716T342 696T371 660T382 607Q382 580 373 559T346 520T302 486T240 453Q202 434 169 414T125 363H340L329 304H31Q39 344 55 373T96 426T149 467T213 502Q235 513 253 523T283 545T303 571T310 606Q310 635 292 650T247 665Q214 665 189 642T158 572H90Q101 647 145 685T253 723ZM707 715H779L216 0H143ZM696 420Q721 420 745 413T787 394T816 362T827 315Q827 277 805 252T750 216V214Q781 206 799 182T817 127Q817 95 804 70T770 27T720 0T660 -9Q590 -9 546 28T500 138H567Q567 120 573 104T590 75T620 54T662 47Q700 47 722 66T745 122Q746 154 725 172T665 190H644L654 245H682Q713 243 735 258T758 310Q758 336 741 351T695 367Q657 367 633 345T601 284H533Q544 350 588 385T696 420Z" horiz-adv-x="872" unicode="⅔"/>
			<glyph d="M223 718H283L203 304H132L188 593H91L100 642Q151 644 180 662T223 718ZM621 715H693L130 0H57ZM637 420Q664 420 688 414T732 395T763 362T775 314Q775 280 756 256T704 221V219Q731 208 749 183T767 129Q767 95 753 69T717 26T663 0T597 -9Q564 -9 535 -1T484 21T450 57T438 108Q438 153 464 182T535 226V228Q487 253 487 303Q487 332 500 354T534 390T583 412T637 420ZM610 197Q570 197 540 177T511 113Q511 78 538 62T601 46Q619 46 635 50T665 64T687 89T695 127Q695 163 670 180T610 197ZM633 367Q603 367 579 349T556 297Q556 269 577 257T626 245Q639 245 653 248T679 258T698 278T706 309Q706 338 684 352T633 367Z" horiz-adv-x="820" unicode="⅛"/>
			<glyph d="M250 724Q275 724 299 717T341 698T370 666T381 619Q381 581 359 556T304 520V518Q335 510 353 486T371 431Q371 399 358 374T324 331T274 304T214 295Q144 295 100 332T54 442H121Q121 424 127 408T144 379T174 358T216 351Q254 351 276 370T299 426Q300 458 279 476T219 494H198L208 549H236Q267 547 289 562T312 614Q312 640 295 655T249 671Q211 671 187 649T155 588H87Q98 654 142 689T250 724ZM693 715H765L202 0H129ZM694 420Q721 420 745 414T789 395T820 362T832 314Q832 280 813 256T761 221V219Q788 208 806 183T824 129Q824 95 810 69T774 26T720 0T654 -9Q621 -9 592 -1T541 21T507 57T495 108Q495 153 521 182T592 226V228Q544 253 544 303Q544 332 557 354T591 390T640 412T694 420ZM667 197Q627 197 597 177T568 113Q568 78 595 62T658 46Q676 46 692 50T722 64T744 89T752 127Q752 163 727 180T667 197ZM690 367Q660 367 636 349T613 297Q613 269 634 257T683 245Q696 245 710 248T736 258T755 278T763 309Q763 338 741 352T690 367Z" horiz-adv-x="877" unicode="⅜"/>
			<glyph d="M150 715H385L374 656H195L165 554H167Q198 583 249 583Q304 583 338 547T373 452Q373 415 360 386T325 336T272 305T206 295Q179 295 152 303T105 328T70 368T56 423H126Q128 394 151 373T212 353Q250 353 275 378T300 449Q300 483 281 504T224 526Q200 526 180 517T147 492H84ZM693 715H765L202 0H129ZM683 420Q710 420 734 414T778 395T809 362T821 314Q821 280 802 256T750 221V219Q777 208 795 183T813 129Q813 95 799 69T763 26T709 0T643 -9Q610 -9 581 -1T530 21T496 57T484 108Q484 153 510 182T581 226V228Q533 253 533 303Q533 332 546 354T580 390T629 412T683 420ZM656 197Q616 197 586 177T557 113Q557 78 584 62T647 46Q665 46 681 50T711 64T733 89T741 127Q741 163 716 180T656 197ZM679 367Q649 367 625 349T602 297Q602 269 623 257T672 245Q685 245 699 248T725 258T744 278T752 309Q752 338 730 352T679 367Z" horiz-adv-x="866" unicode="⅝"/>
			<glyph d="M116 715H409L398 656Q365 628 332 591T270 509T220 412T187 304H112Q123 359 146 410T198 506T261 588T326 652V653H104ZM611 715H683L120 0H47ZM620 420Q647 420 671 414T715 395T746 362T758 314Q758 280 739 256T687 221V219Q714 208 732 183T750 129Q750 95 736 69T700 26T646 0T580 -9Q547 -9 518 -1T467 21T433 57T421 108Q421 153 447 182T518 226V228Q470 253 470 303Q470 332 483 354T517 390T566 412T620 420ZM593 197Q553 197 523 177T494 113Q494 78 521 62T584 46Q602 46 618 50T648 64T670 89T678 127Q678 163 653 180T593 197ZM616 367Q586 367 562 349T539 297Q539 269 560 257T609 245Q622 245 636 248T662 258T681 278T689 309Q689 338 667 352T616 367Z" horiz-adv-x="803" unicode="⅞"/>
			<glyph d="M154 722Q255 710 322 673T429 579T485 447T502 286Q502 230 487 176T441 80T364 12T253 -14Q202 -14 162 2T96 47T55 114T41 198Q41 253 57 300T105 383T180 439T278 459Q316 459 352 443T411 397Q397 511 331 571T154 650ZM282 392Q247 392 218 378T168 338T135 277T124 198Q124 167 132 140T156 94T197 64T254 53Q290 53 320 70T371 115T404 178T416 251Q416 312 379 352T282 392Z" horiz-adv-x="549" unicode="∂"/>
			<glyph d="M345 715H444L583 79L569 0H-31L-16 80ZM380 636Q372 618 363 600Q355 585 345 567T328 535L70 73H493L396 535Q393 550 390 567T386 600Q383 618 382 636Z" unicode="∆"/>
			<glyph d="M91 715H652V-100H562V636H181V-100H91Z" horiz-adv-x="703" unicode="∏"/>
			<glyph d="M63 715H591V636H168V634L441 339V299L161 -15V-17H601V-100H63V-9L345 315V317L63 629Z" horiz-adv-x="616" unicode="∑"/>
			<glyph d="M71 358H518L506 295H59Z" horiz-adv-x="551" unicode="−"/>
			<glyph d="M348 715H420L-143 0H-216Z" horiz-adv-x="166" unicode="∕"/>
			<glyph d="M66 362H162L143 263H47Z" horiz-adv-x="182" unicode="∙"/>
			<glyph d="M503 715H587L331 -100H239L106 239H32V313H162L241 107Q247 90 254 69T268 30Q275 8 282 -14H284Q290 7 296 28Q301 46 307 67T319 107Z" horiz-adv-x="559" unicode="√"/>
			<glyph d="M188 478Q218 478 243 468T289 443T329 406T362 361Q377 385 394 406T432 443T477 468T530 478Q564 478 592 465T640 430T671 375T682 305Q682 266 671 234T640 179T592 143T530 131Q501 131 477 140T432 165T394 202T362 248Q347 224 329 202T289 165T243 140T188 131Q150 131 122 145T75 183T46 238T37 305Q37 339 46 370T75 426T122 464T188 478ZM194 406Q152 406 134 376T116 305Q116 262 134 232T194 203Q214 203 231 211T264 234T292 266T317 304Q305 324 292 342T264 375T231 397T194 406ZM524 406Q505 406 489 397T458 375T431 342T407 304Q419 284 431 266T458 234T489 211T524 203Q566 203 584 232T603 305Q603 347 584 376T524 406Z" horiz-adv-x="715" unicode="∞"/>
			<glyph d="M260 741Q303 741 333 732V660H330Q322 663 308 666T274 669Q206 669 206 599V-39Q206 -76 195 -102T167 -144T124 -168T71 -176Q48 -176 30 -173T-2 -166V-94H1Q9 -97 23 -100T57 -104Q125 -104 125 -34V604Q125 641 135 667T164 709T206 733T260 741Z" horiz-adv-x="337" unicode="∫"/>
			<glyph d="M463 452H527Q520 399 492 368T412 337Q383 337 348 343T279 357T215 371T164 378Q141 378 129 365T114 329H50Q58 386 88 415T167 444Q197 444 231 437T299 423T362 409T411 403Q434 403 447 416T463 452ZM438 293H502Q495 240 467 209T387 178Q358 178 323 184T254 198T190 212T139 219Q116 219 104 206T90 170H26Q33 227 63 256T142 285Q172 285 206 278T274 264T337 250T386 244Q409 244 422 257T438 293Z" horiz-adv-x="551" unicode="≈"/>
			<glyph d="M385 529H452L394 433H533L520 370H356L288 257H499L486 194H250L184 84H117L183 194H39L52 257H221L289 370H73L86 433H327Z" horiz-adv-x="551" unicode="≠"/>
			<glyph d="M11 63H412L400 0H-1ZM502 526L487 448L123 314V312L434 176L420 107L52 275L68 358Z" horiz-adv-x="503" unicode="≤"/>
			<glyph d="M15 63H416L404 0H3ZM105 526L473 358L457 275L23 107L38 185L402 319V321L91 457Z" horiz-adv-x="503" unicode="≥"/>
			<glyph d="M418 728Q495 728 562 700T678 622T756 503T784 355Q784 275 756 206T678 88T562 11T418 -17Q341 -17 274 11T157 88T80 206T52 355Q52 435 80 503T157 622T274 700T418 728ZM418 689Q349 689 290 664T189 594T122 488T98 355Q98 283 122 222T189 116T290 47T418 22Q487 22 545 47T646 116T713 222T738 355Q738 427 713 488T646 594T545 664T418 689ZM279 563H456Q525 563 561 524Q593 490 593 436Q593 378 558 344T457 310H351V151H279ZM351 502V367H446Q484 367 502 385T521 434Q521 467 502 484T448 502Z" horiz-adv-x="799" unicode="Ⓟ"/>
			<glyph d="M242 715H333L535 357L334 0H243L41 358ZM286 636L135 360L288 79H290L440 354L288 636Z" horiz-adv-x="546" unicode="◊"/>
			<glyph d="M307 721Q317 721 330 720T351 719L338 651Q327 652 319 652Q312 652 307 652Q268 652 254 637T236 596L221 517H316L303 452H208L121 0H42L129 452H59L72 517H142L158 600Q171 666 206 693T307 721ZM384 517H464L364 0H284ZM422 715H502L483 615H403Z" horiz-adv-x="468" unicode=""/>
			<glyph d="M307 721Q317 721 330 720T351 719L338 651Q327 652 319 652Q312 652 307 652Q268 652 254 637T236 596L221 517H316L303 452H208L121 0H42L129 452H59L72 517H142L158 600Q171 666 206 693T307 721ZM425 715H505L367 0H287Z" horiz-adv-x="474" unicode=""/>
			<glyph d="M79 716H795V0H79ZM365 594V431H197V287H365V118H509V287H677V431H509V594Z" horiz-adv-x="846" unicode=""/>
			<glyph d="M549 721Q559 721 572 720T593 719L580 651Q569 652 561 652Q554 652 549 652Q510 652 496 637T478 596L463 517H558L545 452H450L363 0H284L371 452H208L121 0H42L129 452H59L72 517H142L157 594Q170 660 205 687T306 715Q316 715 329 714T350 713L337 645Q326 646 318 646Q311 646 306 646Q267 646 253 631T235 590L221 517H384L400 600Q413 666 448 693T549 721Z" horiz-adv-x="531" unicode="ﬀ"/>
			<glyph d="M307 721Q317 721 330 720T351 719L338 651Q327 652 319 652Q312 652 307 652Q268 652 254 637T236 596L221 517H316L303 452H208L121 0H42L129 452H59L72 517H142L158 600Q171 666 206 693T307 721ZM384 517H464L364 0H284ZM422 715H502L483 615H403Z" horiz-adv-x="468" unicode="ﬁ"/>
			<glyph d="M307 721Q317 721 330 720T351 719L338 651Q327 652 319 652Q312 652 307 652Q268 652 254 637T236 596L221 517H316L303 452H208L121 0H42L129 452H59L72 517H142L158 600Q171 666 206 693T307 721ZM425 715H505L367 0H287Z" horiz-adv-x="474" unicode="ﬂ"/>
			<glyph d="M549 721Q559 721 572 720T593 719L580 651Q569 652 561 652Q554 652 549 652Q510 652 496 637T478 596L463 517H558L545 452H450L363 0H284L371 452H208L121 0H42L129 452H59L72 517H142L157 594Q170 660 205 687T306 715Q316 715 329 714T350 713L337 645Q326 646 318 646Q311 646 306 646Q267 646 253 631T235 590L221 517H384L400 600Q413 666 448 693T549 721ZM626 517H706L606 0H526ZM664 715H744L725 615H645Z" horiz-adv-x="710" unicode="ﬃ"/>
			<glyph d="M549 721Q559 721 572 720T593 719L580 651Q569 652 561 652Q554 652 549 652Q510 652 496 637T478 596L463 517H558L545 452H450L363 0H284L371 452H208L121 0H42L129 452H59L72 517H142L157 594Q170 660 205 687T306 715Q316 715 329 714T350 713L337 645Q326 646 318 646Q311 646 306 646Q267 646 253 631T235 590L221 517H384L400 600Q413 666 448 693T549 721ZM667 715H747L609 0H529Z" horiz-adv-x="716" unicode="ﬄ"/>
			<glyph d="" horiz-adv-x="0" unicode="﻿"/>
		</font>
</defs>
</svg>
